mtllib homelink_energy:models/hydro.mtl
usemtl paint
v 0 0 0.525
v 0 0.11875 0.525
v 0 0.11875 0.475
v 0 0 0.475
vt 0 0
vt 0.0625 0
vt 0.0625 0.0625
vt 0 0.0625
f 1/1 2/2 3/3 4/4
v 1 0 0.475
v 1 0.11875 0.475
v 1 0.11875 0.525
v 1 0 0.525
vt 0 0.0625
vt 0.0625 0.0625
vt 0.0625 0
vt 0 0
f 5/5 6/6 7/7 8/8
v 0 0 0.475
v 1 0 0.475
v 1 0 0.525
v 0 0 0.525
vt 0 0.0625
vt 0.0625 0.0625
vt 0.0625 0
vt 0 0
f 9/9 10/10 11/11 12/12
v 0 0.11875 0.525
v 1 0.11875 0.525
v 1 0.11875 0.475
v 0 0.11875 0.475
vt 0 0
vt 0.0625 0
vt 0.0625 0.0625
vt 0 0.0625
f 13/13 14/14 15/15 16/16
v 0 0.11875 0.475
v 1 0.11875 0.475
v 1 0 0.475
v 0 0 0.475
vt 0 0
vt 0.0625 0
vt 0.0625 0.0625
vt 0 0.0625
f 17/17 18/18 19/19 20/20
v 0 0 0.525
v 1 0 0.525
v 1 0.11875 0.525
v 0 0.11875 0.525
vt 0 0.0625
vt 0.0625 0.0625
vt 0.0625 0
vt 0 0
f 21/21 22/22 23/23 24/24
