mtllib homelink_energy:models/hydro.mtl
usemtl body
v 0.1875 0.6875 1
v 0.1875 0.6875 0.1875
v 0.1875 0 0.1875
v 0.1875 0 1
vt 1 0.23529412
vt 1 1
vt 0.42105263 1
vt 0.42105263 0.23529412
f 1/1 2/2 3/3 4/4
v 1 0.6875 0.1875
v 0.1875 0.6875 0.1875
v 0.1875 0.6875 0.25
v 1 0.6875 0.25
vt 0.5 1
vt 0 1
vt 0 0.94117647
vt 0.5 0.94117647
f 5/5 6/6 7/7 8/8
v 0.25 0.6875 0.25
v 0.1875 0.6875 0.25
v 0.1875 0.6875 1
v 0.25 0.6875 1
vt 0.03846154 0.94117647
vt 0 0.94117647
vt 0 0.23529412
vt 0.03846154 0.23529412
f 9/9 10/10 11/11 12/12
v 0.90625 0 0.1875
v 0.90625 0.25 0.1875
v 1 0.25 0.1875
v 1 0 0.1875
vt 0.44230769 0.57894737
vt 0.44230769 0.36842105
vt 0.5 0.36842105
vt 0.5 0.57894737
f 13/13 14/14 15/15 16/16
v 0.1875 0.175 0.1875
v 0.1875 0.25 0.1875
v 0.90625 0.25 0.1875
v 0.90625 0.175 0.1875
vt 0 0.43157895
vt 0 0.36842105
vt 0.44230769 0.36842105
vt 0.44230769 0.43157895
f 17/17 18/18 19/19 20/20
v 0.1875 0 0.1875
v 0.1875 0.175 0.1875
v 0.28125 0.175 0.1875
v 0.28125 0 0.1875
vt 0 0.57894737
vt 0 0.43157895
vt 0.05769231 0.43157895
vt 0.05769231 0.57894737
f 21/21 22/22 23/23 24/24
v 0.90625 0.6875 0.1875
v 1 0.6875 0.1875
v 1 0.25 0.1875
v 0.90625 0.25 0.1875
vt 0.44230769 0
vt 0.5 0
vt 0.5 0.36842105
vt 0.44230769 0.36842105
f 25/25 26/26 27/27 28/28
v 0.1875 0.6875 0.1875
v 0.28125 0.6875 0.1875
v 0.28125 0.25 0.1875
v 0.1875 0.25 0.1875
vt 0 0
vt 0.05769231 0
vt 0.05769231 0.36842105
vt 0 0.36842105
f 29/29 30/30 31/31 32/32
usemtl paint
v 0.01875 0 0.175
v 0.01875 0.96875 0.175
v 0.01875 0.96875 0.01875
v 0.01875 0 0.01875
vt 0.02966102 0
vt 0.0625 0
vt 0.0625 0.0625
vt 0.02966102 0.0625
f 33/33 34/34 35/35 36/36
v 0.175 0 0.01875
v 0.175 0.96875 0.01875
v 0.175 0.96875 0.175
v 0.175 0 0.175
vt 0.02966102 0.0625
vt 0.0625 0.0625
vt 0.0625 0
vt 0.02966102 0
f 37/37 38/38 39/39 40/40
v 0.01875 0.96875 0.175
v 0.175 0.96875 0.175
v 0.175 0.96875 0.01875
v 0.01875 0.96875 0.01875
vt 0 0
vt 0.0625 0
vt 0.0625 0.0625
vt 0 0.0625
f 41/41 42/42 43/43 44/44
v 0.01875 0.96875 0.01875
v 0.175 0.96875 0.01875
v 0.175 0 0.01875
v 0.01875 0 0.01875
vt 0 0
vt 0.0625 0
vt 0.0625 0.03283898
vt 0 0.03283898
f 45/45 46/46 47/47 48/48
v 0.175 0 0.175
v 0.175 0.96875 0.175
v 0.01875 0.96875 0.175
v 0.01875 0 0.175
vt 0.0625 0.03283898
vt 0.0625 0
vt 0 0
vt 0 0.03283898
f 49/49 50/50 51/51 52/52
usemtl dark
v 0.00625 0.71875 0.1875
v 0.00625 0.8125 0.1875
v 0.00625 0.8125 0.00625
v 0.00625 0.71875 0.00625
vt 0.0625 0.0625
vt 0.25 0.0625
vt 0.25 0.25
vt 0.0625 0.25
f 53/53 54/54 55/55 56/56
v 0.1875 0.71875 0.00625
v 0.1875 0.8125 0.00625
v 0.1875 0.8125 0.1875
v 0.1875 0.71875 0.1875
vt 0.0625 0.25
vt 0.25 0.25
vt 0.25 0.0625
vt 0.0625 0.0625
f 57/57 58/58 59/59 60/60
v 0.00625 0.71875 0.00625
v 0.1875 0.71875 0.00625
v 0.1875 0.71875 0.1875
v 0.00625 0.71875 0.1875
vt 0.0625 0.25
vt 0.25 0.25
vt 0.25 0.0625
vt 0.0625 0.0625
f 61/61 62/62 63/63 64/64
v 0.15625 0.8125 0.1875
v 0.1875 0.8125 0.1875
v 0.1875 0.8125 0.15625
v 0.15625 0.8125 0.15625
vt 0.21767241 0.0625
vt 0.25 0.0625
vt 0.25 0.09482759
vt 0.21767241 0.09482759
f 65/65 66/66 67/67 68/68
v 0.00625 0.8125 0.00625
v 0.1875 0.8125 0.00625
v 0.1875 0.71875 0.00625
v 0.00625 0.71875 0.00625
vt 0.0625 0.0625
vt 0.25 0.0625
vt 0.25 0.25
vt 0.0625 0.25
f 69/69 70/70 71/71 72/72
v 0.00625 0.71875 0.1875
v 0.1875 0.71875 0.1875
v 0.1875 0.8125 0.1875
v 0.00625 0.8125 0.1875
vt 0.0625 0.25
vt 0.25 0.25
vt 0.25 0.0625
vt 0.0625 0.0625
f 73/73 74/74 75/75 76/76
v 0 0.8125 0.15625
v 0 1 0.15625
v 0 1 0
v 0 0.8125 0
vt 0.0625 0.0625
vt 0.25 0.0625
vt 0.25 0.25
vt 0.0625 0.25
f 77/77 78/78 79/79 80/80
v 0 0.8125 0
v 1 0.8125 0
v 1 0.8125 0.15625
v 0 0.8125 0.15625
vt 0.0625 0.25
vt 0.15625 0.25
vt 0.15625 0.0625
vt 0.0625 0.0625
f 81/81 82/82 83/83 84/84
v 0 1 0.15625
v 1 1 0.15625
v 1 1 0
v 0 1 0
vt 0.0625 0.0625
vt 0.15625 0.0625
vt 0.15625 0.25
vt 0.0625 0.25
f 85/85 86/86 87/87 88/88
v 0 1 0
v 1 1 0
v 1 0.8125 0
v 0 0.8125 0
vt 0.0625 0.0625
vt 0.15625 0.0625
vt 0.15625 0.25
vt 0.0625 0.25
f 89/89 90/90 91/91 92/92
v 0.15625 0.8125 0.15625
v 1 0.8125 0.15625
v 1 1 0.15625
v 0.15625 1 0.15625
vt 0.07714844 0.25
vt 0.15625 0.25
vt 0.15625 0.0625
vt 0.07714844 0.0625
f 93/93 94/94 95/95 96/96
v 0 1 1
v 0 1 0.15625
v 0 0.8125 0.15625
v 0 0.8125 1
vt 0.25 0.15625
vt 0.25 0.25
vt 0.0625 0.25
vt 0.0625 0.15625
f 97/97 98/98 99/99 100/100
v 0.15625 0.8125 0.15625
v 0.15625 1 0.15625
v 0.15625 1 1
v 0.15625 0.8125 1
vt 0.0625 0.25
vt 0.25 0.25
vt 0.25 0.15625
vt 0.0625 0.15625
f 101/101 102/102 103/103 104/104
v 0 0.8125 0.15625
v 0.15625 0.8125 0.15625
v 0.15625 0.8125 1
v 0 0.8125 1
vt 0.0625 0.25
vt 0.25 0.25
vt 0.25 0.15625
vt 0.0625 0.15625
f 105/105 106/106 107/107 108/108
v 0.15625 1 1
v 0.15625 1 0.15625
v 0 1 0.15625
v 0.13183594 1 1
vt 0.25 0.15625
vt 0.25 0.25
vt 0.0625 0.25
vt 0.22070312 0.15625
f 109/109 110/110 111/111 112/112
v 0.13183594 1 1
v 0 1 0.15625
v 0 1 0.98697962
v 0.01201885 1 1
vt 0.22070312 0.15625
vt 0.0625 0.25
vt 0.0625 0.15769671
vt 0.07692262 0.15625
f 113/113 114/114 115/115 116/116
v 0.01201885 1 1
v 0 1 0.98697962
v 0.00539322 1 1
vt 0.07692262 0.15625
vt 0.0625 0.15769671
vt 0.06897186 0.15625
f 117/117 118/118 119/119
v 0.00539322 1 1
v 0 1 0.98697962
v 0 1 1
vt 0.06897186 0.15625
vt 0.0625 0.15769671
vt 0.0625 0.15625
f 120/120 121/121 122/122
v 0 1 0.15625
v 0.15625 1 0.15625
v 0.15625 0.8125 0.15625
v 0 0.8125 0.15625
vt 0.0625 0.0625
vt 0.25 0.0625
vt 0.25 0.25
vt 0.0625 0.25
f 123/123 124/124 125/125 126/126
v 0.25 0.78125 1
v 0.25 0.78125 0.25
v 0.25 0.6875 0.25
v 0.25 0.6875 1
vt 0.25 0.08928571
vt 0.25 0.25
vt 0.0625 0.25
vt 0.0625 0.08928571
f 127/127 128/128 129/129 130/130
v 0.25 0.6875 0.25
v 1 0.6875 0.25
v 1 0.6875 1
v 0.25 0.6875 1
vt 0.0625 0.25
vt 0.15625 0.25
vt 0.15625 0.08928571
vt 0.0625 0.08928571
f 131/131 132/132 133/133 134/134
v 1 0.78125 0.25
v 0.25 0.78125 0.25
v 0.25 0.78125 0.375
v 1 0.78125 0.375
vt 0.15625 0.25
vt 0.0625 0.25
vt 0.0625 0.22321429
vt 0.15625 0.22321429
f 135/135 136/136 137/137 138/138
v 0.4375 0.78125 0.375
v 0.25 0.78125 0.375
v 0.25 0.78125 1
v 0.4375 0.78125 1
vt 0.0859375 0.22321429
vt 0.0625 0.22321429
vt 0.0625 0.08928571
vt 0.0859375 0.08928571
f 139/139 140/140 141/141 142/142
v 0.25 0.78125 0.25
v 1 0.78125 0.25
v 1 0.6875 0.25
v 0.25 0.6875 0.25
vt 0.0625 0.0625
vt 0.15625 0.0625
vt 0.15625 0.25
vt 0.0625 0.25
f 143/143 144/144 145/145 146/146
usemtl body
v 0.4375 0.78125 1
v 0.4375 0.875 1
v 0.4375 0.875 0.375
v 0.4375 0.78125 0.375
vt 0 0
vt 1 0
vt 1 1
vt 0 1
f 147/147 148/148 149/149 150/150
v 0.4375 0.78125 0.375
v 1 0.78125 0.375
v 1 0.78125 1
v 0.4375 0.78125 1
vt 0 1
vt 0.5 1
vt 0.5 0
vt 0 0
f 151/151 152/152 153/153 154/154
v 1 0.875 0.375
v 0.4375 0.875 0.375
v 0.4375 0.875 0.4375
v 1 0.875 0.4375
vt 0.5 1
vt 0 1
vt 0 0.9
vt 0.5 0.9
f 155/155 156/156 157/157 158/158
v 0.8125 0.875 1
v 1 0.875 1
v 1 0.875 0.9375
v 0.8125 0.875 0.9375
vt 0.33333333 0
vt 0.5 0
vt 0.5 0.1
vt 0.33333333 0.1
f 159/159 160/160 161/161 162/162
v 0.9375 0.875 0.4375
v 0.8125 0.875 0.4375
v 0.8125 0.875 0.9375
v 0.9375 0.875 0.9375
vt 0.44444444 0.9
vt 0.33333333 0.9
vt 0.33333333 0.1
vt 0.44444444 0.1
f 163/163 164/164 165/165 166/166
v 0.625 0.875 1
v 0.8125 0.875 1
v 0.8125 0.875 0.9375
v 0.625 0.875 0.9375
vt 0.16666667 0
vt 0.33333333 0
vt 0.33333333 0.1
vt 0.16666667 0.1
f 167/167 168/168 169/169 170/170
v 0.75 0.875 0.4375
v 0.625 0.875 0.4375
v 0.625 0.875 0.9375
v 0.75 0.875 0.9375
vt 0.27777778 0.9
vt 0.16666667 0.9
vt 0.16666667 0.1
vt 0.27777778 0.1
f 171/171 172/172 173/173 174/174
v 0.4375 0.875 1
v 0.625 0.875 1
v 0.625 0.875 0.9375
v 0.4375 0.875 0.9375
vt 0 0
vt 0.16666667 0
vt 0.16666667 0.1
vt 0 0.1
f 175/175 176/176 177/177 178/178
v 0.5625 0.875 0.4375
v 0.4375 0.875 0.4375
v 0.4375 0.875 0.9375
v 0.5625 0.875 0.9375
vt 0.11111111 0.9
vt 0 0.9
vt 0 0.1
vt 0.11111111 0.1
f 179/179 180/180 181/181 182/182
v 0.4375 0.875 0.375
v 1 0.875 0.375
v 1 0.78125 0.375
v 0.4375 0.78125 0.375
vt 0 0
vt 0.5 0
vt 0.5 1
vt 0 1
f 183/183 184/184 185/185 186/186
v 0.4375 0.78125 1
v 1 0.78125 1
v 1 0.875 1
v 0.4375 0.875 1
vt 0 1
vt 0.5 1
vt 0.5 0
vt 0 0
f 187/187 188/188 189/189 190/190
usemtl paint
v 0.5625 0.875 0.9375
v 0.5625 0.925 0.9375
v 0.5625 0.925 0.4375
v 0.5625 0.875 0.4375
vt 0 0
vt 0.0625 0
vt 0.0625 0.0625
vt 0 0.0625
f 191/191 192/192 193/193 194/194
v 0.625 0.875 0.4375
v 0.625 0.925 0.4375
v 0.625 0.925 0.9375
v 0.625 0.875 0.9375
vt 0 0.0625
vt 0.0625 0.0625
vt 0.0625 0
vt 0 0
f 195/195 196/196 197/197 198/198
v 0.5625 0.875 0.4375
v 0.625 0.875 0.4375
v 0.625 0.875 0.9375
v 0.5625 0.875 0.9375
vt 0 0.0625
vt 0.0625 0.0625
vt 0.0625 0
vt 0 0
f 199/199 200/200 201/201 202/202
v 0.5625 0.925 0.9375
v 0.625 0.925 0.9375
v 0.625 0.925 0.4375
v 0.5625 0.925 0.4375
vt 0 0
vt 0.0625 0
vt 0.0625 0.0625
vt 0 0.0625
f 203/203 204/204 205/205 206/206
v 0.5625 0.925 0.4375
v 0.625 0.925 0.4375
v 0.625 0.875 0.4375
v 0.5625 0.875 0.4375
vt 0 0
vt 0.0625 0
vt 0.0625 0.0625
vt 0 0.0625
f 207/207 208/208 209/209 210/210
v 0.5625 0.875 0.9375
v 0.625 0.875 0.9375
v 0.625 0.925 0.9375
v 0.5625 0.925 0.9375
vt 0 0.0625
vt 0.0625 0.0625
vt 0.0625 0
vt 0 0
f 211/211 212/212 213/213 214/214
v 0.75 0.875 0.9375
v 0.75 0.925 0.9375
v 0.75 0.925 0.4375
v 0.75 0.875 0.4375
vt 0 0
vt 0.0625 0
vt 0.0625 0.0625
vt 0 0.0625
f 215/215 216/216 217/217 218/218
v 0.8125 0.875 0.4375
v 0.8125 0.925 0.4375
v 0.8125 0.925 0.9375
v 0.8125 0.875 0.9375
vt 0 0.0625
vt 0.0625 0.0625
vt 0.0625 0
vt 0 0
f 219/219 220/220 221/221 222/222
v 0.75 0.875 0.4375
v 0.8125 0.875 0.4375
v 0.8125 0.875 0.9375
v 0.75 0.875 0.9375
vt 0 0.0625
vt 0.0625 0.0625
vt 0.0625 0
vt 0 0
f 223/223 224/224 225/225 226/226
v 0.75 0.925 0.9375
v 0.8125 0.925 0.9375
v 0.8125 0.925 0.4375
v 0.75 0.925 0.4375
vt 0 0
vt 0.0625 0
vt 0.0625 0.0625
vt 0 0.0625
f 227/227 228/228 229/229 230/230
v 0.75 0.925 0.4375
v 0.8125 0.925 0.4375
v 0.8125 0.875 0.4375
v 0.75 0.875 0.4375
vt 0 0
vt 0.0625 0
vt 0.0625 0.0625
vt 0 0.0625
f 231/231 232/232 233/233 234/234
v 0.75 0.875 0.9375
v 0.8125 0.875 0.9375
v 0.8125 0.925 0.9375
v 0.75 0.925 0.9375
vt 0 0.0625
vt 0.0625 0.0625
vt 0.0625 0
vt 0 0
f 235/235 236/236 237/237 238/238
v 0.9375 0.875 0.9375
v 0.9375 0.925 0.9375
v 0.9375 0.925 0.4375
v 0.9375 0.875 0.4375
vt 0 0
vt 0.0625 0
vt 0.0625 0.0625
vt 0 0.0625
f 239/239 240/240 241/241 242/242
v 1 0.875 0.4375
v 1 0.925 0.4375
v 1 0.925 0.9375
v 1 0.875 0.9375
vt 0 0.0625
vt 0.0625 0.0625
vt 0.0625 0
vt 0 0
f 243/243 244/244 245/245 246/246
v 0.9375 0.875 0.4375
v 1 0.875 0.4375
v 1 0.875 0.9375
v 0.9375 0.875 0.9375
vt 0 0.0625
vt 0.0625 0.0625
vt 0.0625 0
vt 0 0
f 247/247 248/248 249/249 250/250
v 0.9375 0.925 0.9375
v 1 0.925 0.9375
v 1 0.925 0.4375
v 0.9375 0.925 0.4375
vt 0 0
vt 0.0625 0
vt 0.0625 0.0625
vt 0 0.0625
f 251/251 252/252 253/253 254/254
v 0.9375 0.925 0.4375
v 1 0.925 0.4375
v 1 0.875 0.4375
v 0.9375 0.875 0.4375
vt 0 0
vt 0.0625 0
vt 0.0625 0.0625
vt 0 0.0625
f 255/255 256/256 257/257 258/258
v 0.9375 0.875 0.9375
v 1 0.875 0.9375
v 1 0.925 0.9375
v 0.9375 0.925 0.9375
vt 0 0.0625
vt 0.0625 0.0625
vt 0.0625 0
vt 0 0
f 259/259 260/260 261/261 262/262
usemtl dark
v 0.28125 0.25 0.1875
v 0.28125 0.71875 0.1875
v 0.28125 0.71875 0.1125
v 0.28125 0.25 0.1125
vt 0.0625 0.0625
vt 0.25 0.0625
vt 0.25 0.25
vt 0.0625 0.25
f 263/263 264/264 265/265 266/266
v 0.90625 0.25 0.1125
v 0.90625 0.71875 0.1125
v 0.90625 0.71875 0.1875
v 0.90625 0.25 0.1875
vt 0.0625 0.25
vt 0.25 0.25
vt 0.25 0.0625
vt 0.0625 0.0625
f 267/267 268/268 269/269 270/270
v 0.90625 0.25 0.125
v 0.90625 0.25 0.1875
v 0.28125 0.25 0.1875
v 0.28125 0.25 0.125
vt 0.25 0.21875
vt 0.25 0.0625
vt 0.0625 0.0625
vt 0.0625 0.21875
f 271/271 272/272 273/273 274/274
v 0.8125 0.25 0.1125
v 0.90625 0.25 0.1125
v 0.90625 0.25 0.125
v 0.8125 0.25 0.125
vt 0.221875 0.25
vt 0.25 0.25
vt 0.25 0.21875
vt 0.221875 0.21875
f 275/275 276/276 277/277 278/278
v 0.28125 0.25 0.1125
v 0.34375 0.25 0.1125
v 0.34375 0.25 0.125
v 0.28125 0.25 0.125
vt 0.0625 0.25
vt 0.08125 0.25
vt 0.08125 0.21875
vt 0.0625 0.21875
f 279/279 280/280 281/281 282/282
v 0.28125 0.71875 0.1875
v 0.90625 0.71875 0.1875
v 0.90625 0.71875 0.1125
v 0.28125 0.71875 0.1125
vt 0.0625 0.0625
vt 0.25 0.0625
vt 0.25 0.25
vt 0.0625 0.25
f 283/283 284/284 285/285 286/286
v 0.90625 0.28125 0.1125
v 0.90625 0.25 0.1125
v 0.28125 0.25 0.1125
v 0.28125 0.28125 0.1125
vt 0.25 0.2375
vt 0.25 0.25
vt 0.0625 0.25
vt 0.0625 0.2375
f 287/287 288/288 289/289 290/290
v 0.875 0.71875 0.1125
v 0.90625 0.71875 0.1125
v 0.90625 0.28125 0.1125
v 0.875 0.28125 0.1125
vt 0.240625 0.0625
vt 0.25 0.0625
vt 0.25 0.2375
vt 0.240625 0.2375
f 291/291 292/292 293/293 294/294
v 0.28125 0.71875 0.1125
v 0.875 0.71875 0.1125
v 0.875 0.6875 0.1125
v 0.28125 0.6875 0.1125
vt 0.0625 0.0625
vt 0.240625 0.0625
vt 0.240625 0.075
vt 0.0625 0.075
f 295/295 296/296 297/297 298/298
v 0.3125 0.28125 0.1125
v 0.28125 0.28125 0.1125
v 0.28125 0.6875 0.1125
v 0.3125 0.6875 0.1125
vt 0.071875 0.2375
vt 0.0625 0.2375
vt 0.0625 0.075
vt 0.071875 0.075
f 299/299 300/300 301/301 302/302
v 0.28125 0.25 0.1875
v 0.90625 0.25 0.1875
v 0.90625 0.71875 0.1875
v 0.28125 0.71875 0.1875
vt 0.0625 0.25
vt 0.25 0.25
vt 0.25 0.0625
vt 0.0625 0.0625
f 303/303 304/304 305/305 306/306
usemtl paint
v 0.3125 0.28125 0.1125
v 0.3125 0.6875 0.1125
v 0.3125 0.6875 0.09375
v 0.3125 0.28125 0.09375
vt 0 0
vt 0.0625 0
vt 0.0625 0.0625
vt 0 0.0625
f 307/307 308/308 309/309 310/310
v 0.875 0.28125 0.09375
v 0.875 0.6875 0.09375
v 0.875 0.6875 0.1125
v 0.875 0.28125 0.1125
vt 0 0.0625
vt 0.0625 0.0625
vt 0.0625 0
vt 0 0
f 311/311 312/312 313/313 314/314
v 0.3125 0.28125 0.09375
v 0.875 0.28125 0.09375
v 0.875 0.28125 0.1125
v 0.3125 0.28125 0.1125
vt 0 0.0625
vt 0.0625 0.0625
vt 0.0625 0
vt 0 0
f 315/315 316/316 317/317 318/318
v 0.3125 0.6875 0.1125
v 0.875 0.6875 0.1125
v 0.875 0.6875 0.09375
v 0.3125 0.6875 0.09375
vt 0 0
vt 0.0625 0
vt 0.0625 0.0625
vt 0 0.0625
f 319/319 320/320 321/321 322/322
v 0.875 0.375 0.09375
v 0.875 0.28125 0.09375
v 0.3125 0.28125 0.09375
v 0.3125 0.375 0.09375
vt 0.0625 0.04807692
vt 0.0625 0.0625
vt 0 0.0625
vt 0 0.04807692
f 323/323 324/324 325/325 326/326
v 0.8125 0.6875 0.09375
v 0.875 0.6875 0.09375
v 0.875 0.375 0.09375
v 0.8125 0.375 0.09375
vt 0.05555556 0
vt 0.0625 0
vt 0.0625 0.04807692
vt 0.05555556 0.04807692
f 327/327 328/328 329/329 330/330
v 0.3125 0.6875 0.09375
v 0.8125 0.6875 0.09375
v 0.8125 0.625 0.09375
v 0.3125 0.625 0.09375
vt 0 0
vt 0.05555556 0
vt 0.05555556 0.00961538
vt 0 0.00961538
f 331/331 332/332 333/333 334/334
v 0.375 0.375 0.09375
v 0.3125 0.375 0.09375
v 0.3125 0.625 0.09375
v 0.375 0.625 0.09375
vt 0.00694444 0.04807692
vt 0 0.04807692
vt 0 0.00961538
vt 0.00694444 0.00961538
f 335/335 336/336 337/337 338/338
v 0.3125 0.28125 0.1125
v 0.875 0.28125 0.1125
v 0.875 0.6875 0.1125
v 0.3125 0.6875 0.1125
vt 0 0.0625
vt 0.0625 0.0625
vt 0.0625 0
vt 0 0
f 339/339 340/340 341/341 342/342
usemtl screen
v 0.375 0.375 0.09375
v 0.375 0.625 0.09375
v 0.375 0.625 0.08125
v 0.375 0.375 0.08125
vt 0 0
vt 1 0
vt 1 1
vt 0 1
f 343/343 344/344 345/345 346/346
v 0.8125 0.375 0.08125
v 0.8125 0.625 0.08125
v 0.8125 0.625 0.09375
v 0.8125 0.375 0.09375
vt 0 1
vt 1 1
vt 1 0
vt 0 0
f 347/347 348/348 349/349 350/350
v 0.375 0.375 0.08125
v 0.8125 0.375 0.08125
v 0.8125 0.375 0.09375
v 0.375 0.375 0.09375
vt 0 1
vt 1 1
vt 1 0
vt 0 0
f 351/351 352/352 353/353 354/354
v 0.375 0.625 0.09375
v 0.8125 0.625 0.09375
v 0.8125 0.625 0.08125
v 0.375 0.625 0.08125
vt 0 0
vt 1 0
vt 1 1
vt 0 1
f 355/355 356/356 357/357 358/358
v 0.375 0.625 0.08125
v 0.8125 0.625 0.08125
v 0.8125 0.375 0.08125
v 0.375 0.375 0.08125
vt 0 0
vt 1 0
vt 1 1
vt 0 1
f 359/359 360/360 361/361 362/362
v 0.375 0.375 0.09375
v 0.8125 0.375 0.09375
v 0.8125 0.625 0.09375
v 0.375 0.625 0.09375
vt 0 1
vt 1 1
vt 1 0
vt 0 0
f 363/363 364/364 365/365 366/366
usemtl paint
v 0.28125 0 0.1875
v 0.28125 0.175 0.1875
v 0.28125 0.175 0.10625
v 0.28125 0 0.10625
vt 0.04141566 0
vt 0.0625 0
vt 0.0625 0.0625
vt 0.04141566 0.0625
f 367/367 368/368 369/369 370/370
v 0.90625 0 0.10625
v 0.90625 0.175 0.10625
v 0.90625 0.175 0.1875
v 0.90625 0 0.1875
vt 0.04141566 0.0625
vt 0.0625 0.0625
vt 0.0625 0
vt 0.04141566 0
f 371/371 372/372 373/373 374/374
v 0.8125 0.175 0.1875
v 0.90625 0.175 0.1875
v 0.90625 0.175 0.10625
v 0.8125 0.175 0.10625
vt 0.053125 0
vt 0.0625 0
vt 0.0625 0.0625
vt 0.053125 0.0625
f 375/375 376/376 377/377 378/378
v 0.28125 0.175 0.1875
v 0.8125 0.175 0.1875
v 0.8125 0.175 0.125
v 0.28125 0.175 0.125
vt 0 0
vt 0.053125 0
vt 0.053125 0.04807692
vt 0 0.04807692
f 379/379 380/380 381/381 382/382
v 0.34375 0.175 0.10625
v 0.28125 0.175 0.10625
v 0.28125 0.175 0.125
v 0.34375 0.175 0.125
vt 0.00625 0.0625
vt 0 0.0625
vt 0 0.04807692
vt 0.00625 0.04807692
f 383/383 384/384 385/385 386/386
v 0.8625 0.175 0.10625
v 0.90625 0.175 0.10625
v 0.90625 0 0.10625
v 0.8625 0 0.10625
vt 0.058125 0
vt 0.0625 0
vt 0.0625 0.02108434
vt 0.058125 0.02108434
f 387/387 388/388 389/389 390/390
v 0.28125 0.175 0.10625
v 0.8625 0.175 0.10625
v 0.8625 0.13125 0.10625
v 0.28125 0.13125 0.10625
vt 0 0
vt 0.058125 0
vt 0.058125 0.00527108
vt 0 0.00527108
f 391/391 392/392 393/393 394/394
v 0.28125 0 0.10625
v 0.28125 0.13125 0.10625
v 0.325 0.13125 0.10625
v 0.325 0 0.10625
vt 0 0.02108434
vt 0 0.00527108
vt 0.004375 0.00527108
vt 0.004375 0.02108434
f 395/395 396/396 397/397 398/398
v 0.90625 0 0.1875
v 0.90625 0.175 0.1875
v 0.28125 0.175 0.1875
v 0.28125 0 0.1875
vt 0.0625 0.02108434
vt 0.0625 0
vt 0 0
vt 0 0.02108434
f 399/399 400/400 401/401 402/402
usemtl body
v 0.325 0 0.10625
v 0.325 0.13125 0.10625
v 0.325 0.13125 0.0875
v 0.325 0 0.0875
vt 0.69565217 0
vt 1 0
vt 1 1
vt 0.69565217 1
f 403/403 404/404 405/405 406/406
v 0.8625 0 0.0875
v 0.8625 0.13125 0.0875
v 0.8625 0.13125 0.10625
v 0.8625 0 0.10625
vt 0.69565217 1
vt 1 1
vt 1 0
vt 0.69565217 0
f 407/407 408/408 409/409 410/410
v 0.325 0.13125 0.10625
v 0.8625 0.13125 0.10625
v 0.8625 0.13125 0.0875
v 0.325 0.13125 0.0875
vt 0 0
vt 1 0
vt 1 1
vt 0 1
f 411/411 412/412 413/413 414/414
v 0.53751578 0.13125 0.0875
v 0.8625 0.13125 0.0875
v 0.8625 0 0.0875
v 0.59188131 0 0.0875
vt 0.3953782 0
vt 1 0
vt 1 0.30434783
vt 0.49652337 0.30434783
f 415/415 416/416 417/417 418/418
v 0.325 0.13125 0.0875
v 0.53751578 0.13125 0.0875
v 0.59188131 0 0.0875
vt 0 0
vt 0.3953782 0
vt 0.49652337 0.30434783
f 419/419 420/420 421/421
v 0.325 0.13125 0.0875
v 0.59188131 0 0.0875
v 0.4654949 0 0.0875
vt 0 0
vt 0.49652337 0.30434783
vt 0.26138587 0.30434783
f 422/422 423/423 424/424
v 0.325 0.13125 0.0875
v 0.4654949 0 0.0875
v 0.325 0.05819489 0.0875
vt 0 0
vt 0.26138587 0.30434783
vt 0 0.16940314
f 425/425 426/426 427/427
v 0.325 0 0.0875
v 0.325 0.05819489 0.0875
v 0.4654949 0 0.0875
vt 0 0.30434783
vt 0 0.16940314
vt 0.26138587 0.30434783
f 428/428 429/429 430/430
v 0.8625 0 0.10625
v 0.8625 0.13125 0.10625
v 0.325 0.13125 0.10625
v 0.325 0 0.10625
vt 1 0.30434783
vt 1 0
vt 0 0
vt 0 0.30434783
f 431/431 432/432 433/433 434/434
usemtl copper
v 0.69407849 0 0.03125
v 0.6625 0.03157849 0.03125
v 0.6625 0.03157849 0.0625
v 0.69407849 0 0.0625
vt 0.13235357 0.4375
vt 0.25 0.4375
vt 0.25 0.5
vt 0.13235357 0.5
f 435/435 436/436 437/437 438/438
v 0.6625 0.03157849 0.03125
v 0.59375 0.05 0.03125
v 0.59375 0.05 0.0625
v 0.6625 0.03157849 0.0625
vt 0.0625 0.4375
vt 0.25 0.4375
vt 0.25 0.5
vt 0.0625 0.5
f 439/439 440/440 441/441 442/442
v 0.59375 0.05 0.03125
v 0.525 0.03157849 0.03125
v 0.525 0.03157849 0.0625
v 0.59375 0.05 0.0625
vt 0.0625 0.4375
vt 0.25 0.4375
vt 0.25 0.5
vt 0.0625 0.5
f 443/443 444/444 445/445 446/446
v 0.525 0.03157849 0.03125
v 0.49342151 0 0.03125
v 0.49342151 0 0.0625
v 0.525 0.03157849 0.0625
vt 0.0625 0.4375
vt 0.18014643 0.4375
vt 0.18014643 0.5
vt 0.0625 0.5
f 447/447 448/448 449/449 450/450
v 0.69407849 0 0.0625
v 0.6625 0.03157849 0.0625
v 0.64426815 0 0.0625
vt 0.13235357 0.4375
vt 0.25 0.4375
vt 0.25 0.489591
f 451/451 452/452 453/453
v 0.6625 0.03157849 0.0625
v 0.609375 0.04581329 0.0625
v 0.609375 0.00206329 0.0625
vt 0.0625 0.4375
vt 0.20738636 0.4375
vt 0.1875 0.5
f 454/454 455/455 456/456
v 0.6625 0.03157849 0.0625
v 0.609375 0.00206329 0.0625
v 0.61707532 0 0.0625
vt 0.0625 0.4375
vt 0.1875 0.5
vt 0.15669873 0.5
f 457/457 458/458 459/459
v 0.6625 0.03157849 0.0625
v 0.61707532 0 0.0625
v 0.64426815 0 0.0625
vt 0.0625 0.4375
vt 0.15669873 0.5
vt 0.0625 0.489591
f 460/460 461/461 462/462
v 0.609375 0.04581329 0.0625
v 0.59375 0.05 0.0625
v 0.59375 0.04375 0.0625
v 0.609375 0.04375 0.0625
vt 0.20738636 0.4375
vt 0.25 0.4375
vt 0.25 0.44642857
vt 0.2064485 0.44044756
f 463/463 464/464 465/465 466/466
v 0.59375 0.05 0.0625
v 0.57042468 0.04375 0.0625
v 0.59375 0.04375 0.0625
vt 0.0625 0.4375
vt 0.1261145 0.4375
vt 0.0625 0.44642857
f 467/467 468/468 469/469
v 0.57042468 0.04375 0.0625
v 0.525 0.03157849 0.0625
v 0.54323185 0 0.0625
v 0.54984346 0 0.0625
vt 0.1261145 0.4375
vt 0.25 0.4375
vt 0.25 0.489591
vt 0.23438413 0.49212182
f 470/470 471/471 472/472 473/473
v 0.57042468 0.04375 0.0625
v 0.54984346 0 0.0625
v 0.57042468 0 0.0625
v 0.578125 0.00206329 0.0625
vt 0.1261145 0.4375
vt 0.23438413 0.49212182
vt 0.15580127 0.5
vt 0.125 0.5
f 474/474 475/475 476/476 477/477
v 0.57042468 0.04375 0.0625
v 0.578125 0.00206329 0.0625
v 0.578125 0.04375 0.0625
vt 0.1261145 0.4375
vt 0.125 0.5
vt 0.10511364 0.44044756
f 478/478 479/479 480/480
v 0.525 0.03157849 0.0625
v 0.49342151 0 0.0625
v 0.54323185 0 0.0625
vt 0.0625 0.4375
vt 0.18014643 0.4375
vt 0.0625 0.489591
f 481/481 482/482 483/483
v 0.61707532 0 0.0625
v 0.59375 0.00625 0.0625
v 0.59375 0.00625 0.03125
v 0.61707532 0 0.03125
vt 0.15669873 0.4375
vt 0.25 0.4375
vt 0.25 0.5
vt 0.15669873 0.5
f 484/484 485/485 486/486 487/487
v 0.59375 0.00625 0.0625
v 0.57042468 0 0.0625
v 0.57042468 0 0.03125
v 0.59375 0.00625 0.03125
vt 0.0625 0.4375
vt 0.15580127 0.4375
vt 0.15580127 0.5
vt 0.0625 0.5
f 488/488 489/489 490/490 491/491
v 0.64426815 0 0.03125
v 0.6625 0.03157849 0.03125
v 0.69407849 0 0.03125
vt 0.25 0.447909
vt 0.25 0.5
vt 0.13235357 0.5
f 492/492 493/493 494/494
v 0.61707532 0 0.03125
v 0.59375 0.00625 0.03125
v 0.59375 0.05 0.03125
vt 0.15669873 0.4375
vt 0.25 0.4375
vt 0.25 0.5
f 495/495 496/496 497/497
v 0.61707532 0 0.03125
v 0.59375 0.05 0.03125
v 0.6625 0.03157849 0.03125
vt 0.15669873 0.4375
vt 0.25 0.5
vt 0.0625 0.5
f 498/498 499/499 500/500
v 0.61707532 0 0.03125
v 0.6625 0.03157849 0.03125
v 0.64426815 0 0.03125
vt 0.15669873 0.4375
vt 0.0625 0.5
vt 0.0625 0.447909
f 501/501 502/502 503/503
v 0.59375 0.00625 0.03125
v 0.57042468 0 0.03125
v 0.54323185 0 0.03125
vt 0.0625 0.4375
vt 0.15580127 0.4375
vt 0.25 0.447909
f 504/504 505/505 506/506
v 0.59375 0.00625 0.03125
v 0.54323185 0 0.03125
v 0.525 0.03157849 0.03125
vt 0.0625 0.4375
vt 0.25 0.447909
vt 0.25 0.5
f 507/507 508/508 509/509
v 0.59375 0.00625 0.03125
v 0.525 0.03157849 0.03125
v 0.59375 0.05 0.03125
vt 0.0625 0.4375
vt 0.25 0.5
vt 0.0625 0.5
f 510/510 511/511 512/512
v 0.49342151 0 0.03125
v 0.525 0.03157849 0.03125
v 0.54323185 0 0.03125
vt 0.18014643 0.5
vt 0.0625 0.5
vt 0.0625 0.447909
f 513/513 514/514 515/515
usemtl paint
v 0.578125 0 0.0625
v 0.578125 0.04375 0.0625
v 0.578125 0.04375 0.04375
v 0.578125 0 0.04375
vt 0.04166667 0
vt 0.0625 0
vt 0.0625 0.0625
vt 0.04166667 0.0625
f 516/516 517/517 518/518 519/519
v 0.609375 0 0.04375
v 0.609375 0.04375 0.04375
v 0.609375 0.04375 0.0625
v 0.609375 0 0.0625
vt 0.04166667 0.0625
vt 0.0625 0.0625
vt 0.0625 0
vt 0.04166667 0
f 520/520 521/521 522/522 523/523
v 0.578125 0.04375 0.0625
v 0.609375 0.04375 0.0625
v 0.609375 0.04375 0.04375
v 0.578125 0.04375 0.04375
vt 0 0
vt 0.0625 0
vt 0.0625 0.0625
vt 0 0.0625
f 524/524 525/525 526/526 527/527
v 0.578125 0.04375 0.04375
v 0.609375 0.04375 0.04375
v 0.609375 0 0.04375
v 0.578125 0 0.04375
vt 0 0
vt 0.0625 0
vt 0.0625 0.02083333
vt 0 0.02083333
f 528/528 529/529 530/530 531/531
v 0.609375 0 0.0625
v 0.609375 0.04375 0.0625
v 0.60416667 0 0.0625
vt 0.0625 0.02083333
vt 0.0625 0
vt 0.05208333 0.02083333
f 532/532 533/533 534/534
v 0.60416667 0 0.0625
v 0.609375 0.04375 0.0625
v 0.578125 0.04375 0.0625
v 0.58333333 0 0.0625
vt 0.05208333 0.02083333
vt 0.0625 0
vt 0 0
vt 0.01041667 0.02083333
f 535/535 536/536 537/537 538/538
v 0.58333333 0 0.0625
v 0.578125 0.04375 0.0625
v 0.578125 0 0.0625
vt 0.01041667 0.02083333
vt 0 0
vt 0 0.02083333
f 539/539 540/540 541/541
usemtl label
v 0.34375 0.175 0.125
v 0.34375 0.25 0.125
v 0.34375 0.25 0.0875
v 0.34375 0.175 0.0875
vt 0 0
vt 1 0
vt 1 1
vt 0 1
f 542/542 543/543 544/544 545/545
v 0.8125 0.175 0.0875
v 0.8125 0.25 0.0875
v 0.8125 0.25 0.125
v 0.8125 0.175 0.125
vt 0 1
vt 1 1
vt 1 0
vt 0 0
f 546/546 547/547 548/548 549/549
v 0.34375 0.175 0.0875
v 0.8125 0.175 0.0875
v 0.8125 0.175 0.125
v 0.34375 0.175 0.125
vt 0 1
vt 1 1
vt 1 0
vt 0 0
f 550/550 551/551 552/552 553/553
v 0.34375 0.25 0.125
v 0.8125 0.25 0.125
v 0.8125 0.25 0.0875
v 0.34375 0.25 0.0875
vt 0 0
vt 1 0
vt 1 1
vt 0 1
f 554/554 555/555 556/556 557/557
v 0.34375 0.25 0.0875
v 0.8125 0.25 0.0875
v 0.8125 0.175 0.0875
v 0.34375 0.175 0.0875
vt 0 0
vt 1 0
vt 1 1
vt 0 1
f 558/558 559/559 560/560 561/561
v 0.34375 0.175 0.125
v 0.8125 0.175 0.125
v 0.8125 0.25 0.125
v 0.34375 0.25 0.125
vt 0 1
vt 1 1
vt 1 0
vt 0 0
f 562/562 563/563 564/564 565/565
usemtl copper
v 0.29375 0.71875 0.05
v 0.28093592 0.74968592 0.05
v 0.28093592 0.74968592 0.175
v 0.29375 0.71875 0.175
vt 0.0625 0.4375
vt 0.25 0.4375
vt 0.25 0.5
vt 0.0625 0.5
f 566/566 567/567 568/568 569/569
v 0.28093592 0.74968592 0.05
v 0.25 0.7625 0.05
v 0.25 0.7625 0.175
v 0.28093592 0.74968592 0.175
vt 0.0625 0.4375
vt 0.25 0.4375
vt 0.25 0.5
vt 0.0625 0.5
f 570/570 571/571 572/572 573/573
v 0.25 0.7625 0.05
v 0.21906408 0.74968592 0.05
v 0.21906408 0.74968592 0.175
v 0.25 0.7625 0.175
vt 0.0625 0.4375
vt 0.25 0.4375
vt 0.25 0.5
vt 0.0625 0.5
f 574/574 575/575 576/576 577/577
v 0.21906408 0.74968592 0.05
v 0.20625 0.71875 0.05
v 0.20625 0.71875 0.175
v 0.21906408 0.74968592 0.175
vt 0.0625 0.4375
vt 0.25 0.4375
vt 0.25 0.5
vt 0.0625 0.5
f 578/578 579/579 580/580 581/581
v 0.20625 0.71875 0.05
v 0.21906408 0.68781408 0.05
v 0.21906408 0.68781408 0.175
v 0.20625 0.71875 0.175
vt 0.0625 0.4375
vt 0.25 0.4375
vt 0.25 0.5
vt 0.0625 0.5
f 582/582 583/583 584/584 585/585
v 0.21906408 0.68781408 0.05
v 0.25 0.675 0.05
v 0.25 0.675 0.175
v 0.21906408 0.68781408 0.175
vt 0.0625 0.4375
vt 0.25 0.4375
vt 0.25 0.5
vt 0.0625 0.5
f 586/586 587/587 588/588 589/589
v 0.25 0.675 0.05
v 0.28093592 0.68781408 0.05
v 0.28093592 0.68781408 0.175
v 0.25 0.675 0.175
vt 0.0625 0.4375
vt 0.25 0.4375
vt 0.25 0.5
vt 0.0625 0.5
f 590/590 591/591 592/592 593/593
v 0.28093592 0.68781408 0.05
v 0.29375 0.71875 0.05
v 0.29375 0.71875 0.175
v 0.28093592 0.68781408 0.175
vt 0.0625 0.4375
vt 0.25 0.4375
vt 0.25 0.5
vt 0.0625 0.5
f 594/594 595/595 596/596 597/597
v 0.25 0.7625 0.05
v 0.28093592 0.74968592 0.05
v 0.29375 0.71875 0.05
v 0.25 0.71875 0.05
vt 0.15625 0.4375
vt 0.22254126 0.44665291
vt 0.25 0.46875
vt 0.15625 0.46875
f 598/598 599/599 600/600 601/601
v 0.20625 0.71875 0.05
v 0.21906408 0.74968592 0.05
v 0.25 0.7625 0.05
v 0.25 0.71875 0.05
vt 0.0625 0.46875
vt 0.08995874 0.44665291
vt 0.15625 0.4375
vt 0.15625 0.46875
f 602/602 603/603 604/604 605/605
v 0.25 0.675 0.05
v 0.21906408 0.68781408 0.05
v 0.20625 0.71875 0.05
v 0.25 0.71875 0.05
vt 0.15625 0.5
vt 0.08995874 0.49084709
vt 0.0625 0.46875
vt 0.15625 0.46875
f 606/606 607/607 608/608 609/609
v 0.29375 0.71875 0.05
v 0.28093592 0.68781408 0.05
v 0.25 0.675 0.05
v 0.25 0.71875 0.05
vt 0.25 0.46875
vt 0.22254126 0.49084709
vt 0.15625 0.5
vt 0.15625 0.46875
f 610/610 611/611 612/612 613/613
v 0.25 0.71875 0.175
v 0.29375 0.71875 0.175
v 0.28093592 0.74968592 0.175
v 0.25 0.7625 0.175
vt 0.15625 0.46875
vt 0.25 0.46875
vt 0.22254126 0.44665291
vt 0.15625 0.4375
f 614/614 615/615 616/616 617/617
v 0.25 0.71875 0.175
v 0.25 0.7625 0.175
v 0.21906408 0.74968592 0.175
v 0.20625 0.71875 0.175
vt 0.15625 0.46875
vt 0.15625 0.4375
vt 0.08995874 0.44665291
vt 0.0625 0.46875
f 618/618 619/619 620/620 621/621
v 0.25 0.71875 0.175
v 0.20625 0.71875 0.175
v 0.21906408 0.68781408 0.175
v 0.25 0.675 0.175
vt 0.15625 0.46875
vt 0.0625 0.46875
vt 0.08995874 0.49084709
vt 0.15625 0.5
f 622/622 623/623 624/624 625/625
v 0.25 0.71875 0.175
v 0.25 0.675 0.175
v 0.28093592 0.68781408 0.175
v 0.29375 0.71875 0.175
vt 0.15625 0.46875
vt 0.15625 0.5
vt 0.22254126 0.49084709
vt 0.25 0.46875
f 626/626 627/627 628/628 629/629
v 0.1875 0.625 0.4375
v 0.16736359 0.625 0.48611359
v 0.16736359 0 0.48611359
v 0.1875 0 0.4375
vt 0.0625 0.4375
vt 0.25 0.4375
vt 0.25 0.47222222
vt 0.0625 0.47222222
f 630/630 631/631 632/632 633/633
v 0.16736359 0.625 0.48611359
v 0.11875 0.625 0.50625
v 0.11875 0 0.50625
v 0.16736359 0 0.48611359
vt 0.0625 0.4375
vt 0.25 0.4375
vt 0.25 0.47222222
vt 0.0625 0.47222222
f 634/634 635/635 636/636 637/637
v 0.11875 0.625 0.50625
v 0.07013641 0.625 0.48611359
v 0.07013641 0 0.48611359
v 0.11875 0 0.50625
vt 0.0625 0.4375
vt 0.25 0.4375
vt 0.25 0.47222222
vt 0.0625 0.47222222
f 638/638 639/639 640/640 641/641
v 0.07013641 0.625 0.48611359
v 0.05 0.625 0.4375
v 0.05 0 0.4375
v 0.07013641 0 0.48611359
vt 0.0625 0.4375
vt 0.25 0.4375
vt 0.25 0.47222222
vt 0.0625 0.47222222
f 642/642 643/643 644/644 645/645
v 0.05 0.625 0.4375
v 0.07013641 0.625 0.38888641
v 0.07013641 0 0.38888641
v 0.05 0 0.4375
vt 0.0625 0.4375
vt 0.25 0.4375
vt 0.25 0.47222222
vt 0.0625 0.47222222
f 646/646 647/647 648/648 649/649
v 0.07013641 0.625 0.38888641
v 0.11875 0.625 0.36875
v 0.11875 0 0.36875
v 0.07013641 0 0.38888641
vt 0.0625 0.4375
vt 0.25 0.4375
vt 0.25 0.47222222
vt 0.0625 0.47222222
f 650/650 651/651 652/652 653/653
v 0.11875 0.625 0.36875
v 0.16736359 0.625 0.38888641
v 0.16736359 0 0.38888641
v 0.11875 0 0.36875
vt 0.0625 0.4375
vt 0.25 0.4375
vt 0.25 0.47222222
vt 0.0625 0.47222222
f 654/654 655/655 656/656 657/657
v 0.16736359 0.625 0.38888641
v 0.1875 0.625 0.4375
v 0.1875 0 0.4375
v 0.16736359 0 0.38888641
vt 0.0625 0.4375
vt 0.25 0.4375
vt 0.25 0.47222222
vt 0.0625 0.47222222
f 658/658 659/659 660/660 661/661
v 0.11875 0.625 0.50625
v 0.16736359 0.625 0.48611359
v 0.1875 0.625 0.4375
v 0.11875 0.625 0.4375
vt 0.15625 0.4375
vt 0.22254126 0.44665291
vt 0.25 0.46875
vt 0.15625 0.46875
f 662/662 663/663 664/664 665/665
v 0.05 0.625 0.4375
v 0.07013641 0.625 0.48611359
v 0.11875 0.625 0.50625
v 0.11875 0.625 0.4375
vt 0.0625 0.46875
vt 0.08995874 0.44665291
vt 0.15625 0.4375
vt 0.15625 0.46875
f 666/666 667/667 668/668 669/669
v 0.11875 0.625 0.36875
v 0.07013641 0.625 0.38888641
v 0.05 0.625 0.4375
v 0.11875 0.625 0.4375
vt 0.15625 0.5
vt 0.08995874 0.49084709
vt 0.0625 0.46875
vt 0.15625 0.46875
f 670/670 671/671 672/672 673/673
v 0.1875 0.625 0.4375
v 0.16736359 0.625 0.38888641
v 0.11875 0.625 0.36875
v 0.11875 0.625 0.4375
vt 0.25 0.46875
vt 0.22254126 0.49084709
vt 0.15625 0.5
vt 0.15625 0.46875
f 674/674 675/675 676/676 677/677
usemtl dark
v 0.0375 0.375 0.51875
v 0.0375 0.4375 0.51875
v 0.0375 0.4375 0.35625
v 0.0375 0.375 0.35625
vt 0.0625 0.0625
vt 0.25 0.0625
vt 0.25 0.25
vt 0.0625 0.25
f 678/678 679/679 680/680 681/681
v 0.2 0.375 0.35625
v 0.2 0.4375 0.35625
v 0.2 0.4375 0.51875
v 0.2 0.375 0.51875
vt 0.0625 0.25
vt 0.25 0.25
vt 0.25 0.0625
vt 0.0625 0.0625
f 682/682 683/683 684/684 685/685
v 0.0375 0.375 0.35625
v 0.2 0.375 0.35625
v 0.2 0.375 0.51875
v 0.0375 0.375 0.51875
vt 0.0625 0.25
vt 0.25 0.25
vt 0.25 0.0625
vt 0.0625 0.0625
f 686/686 687/687 688/688 689/689
v 0.0375 0.4375 0.51875
v 0.2 0.4375 0.51875
v 0.2 0.4375 0.35625
v 0.0375 0.4375 0.35625
vt 0.0625 0.0625
vt 0.25 0.0625
vt 0.25 0.25
vt 0.0625 0.25
f 690/690 691/691 692/692 693/693
v 0.0375 0.4375 0.35625
v 0.2 0.4375 0.35625
v 0.2 0.375 0.35625
v 0.0375 0.375 0.35625
vt 0.0625 0.0625
vt 0.25 0.0625
vt 0.25 0.25
vt 0.0625 0.25
f 694/694 695/695 696/696 697/697
v 0.0375 0.375 0.51875
v 0.2 0.375 0.51875
v 0.2 0.4375 0.51875
v 0.0375 0.4375 0.51875
vt 0.0625 0.25
vt 0.25 0.25
vt 0.25 0.0625
vt 0.0625 0.0625
f 698/698 699/699 700/700 701/701
usemtl copper
v 0.1875 0.625 0.9375
v 0.16736359 0.625 0.98611359
v 0.16736359 0 0.98611359
v 0.1875 0 0.9375
vt 0.0625 0.4375
vt 0.25 0.4375
vt 0.25 0.47222222
vt 0.0625 0.47222222
f 702/702 703/703 704/704 705/705
v 0.16736359 0.625 0.98611359
v 0.13383883 0.625 1
v 0.13383883 0 1
v 0.16736359 0 0.98611359
vt 0.0625 0.4375
vt 0.19180318 0.4375
vt 0.19180318 0.47222222
vt 0.0625 0.47222222
f 706/706 707/707 708/708 709/709
v 0.10366117 0.625 1
v 0.07013641 0.625 0.98611359
v 0.07013641 0 0.98611359
v 0.10366117 0 1
vt 0.12069682 0.4375
vt 0.25 0.4375
vt 0.25 0.47222222
vt 0.12069682 0.47222222
f 710/710 711/711 712/712 713/713
v 0.07013641 0.625 0.98611359
v 0.05 0.625 0.9375
v 0.05 0 0.9375
v 0.07013641 0 0.98611359
vt 0.0625 0.4375
vt 0.25 0.4375
vt 0.25 0.47222222
vt 0.0625 0.47222222
f 714/714 715/715 716/716 717/717
v 0.05 0.625 0.9375
v 0.07013641 0.625 0.88888641
v 0.07013641 0 0.88888641
v 0.05 0 0.9375
vt 0.0625 0.4375
vt 0.25 0.4375
vt 0.25 0.47222222
vt 0.0625 0.47222222
f 718/718 719/719 720/720 721/721
v 0.07013641 0.625 0.88888641
v 0.11875 0.625 0.86875
v 0.11875 0 0.86875
v 0.07013641 0 0.88888641
vt 0.0625 0.4375
vt 0.25 0.4375
vt 0.25 0.47222222
vt 0.0625 0.47222222
f 722/722 723/723 724/724 725/725
v 0.11875 0.625 0.86875
v 0.16736359 0.625 0.88888641
v 0.16736359 0 0.88888641
v 0.11875 0 0.86875
vt 0.0625 0.4375
vt 0.25 0.4375
vt 0.25 0.47222222
vt 0.0625 0.47222222
f 726/726 727/727 728/728 729/729
v 0.16736359 0.625 0.88888641
v 0.1875 0.625 0.9375
v 0.1875 0 0.9375
v 0.16736359 0 0.88888641
vt 0.0625 0.4375
vt 0.25 0.4375
vt 0.25 0.47222222
vt 0.0625 0.47222222
f 730/730 731/731 732/732 733/733
v 0.13383883 0.625 1
v 0.16736359 0.625 0.98611359
v 0.1875 0.625 0.9375
vt 0.17682568 0.44034091
vt 0.22254126 0.44665291
vt 0.25 0.46875
f 734/734 735/735 736/736
v 0.13383883 0.625 1
v 0.1875 0.625 0.9375
v 0.11875 0.625 0.9375
vt 0.17682568 0.44034091
vt 0.25 0.46875
vt 0.15625 0.46875
f 737/737 738/738 739/739
v 0.13383883 0.625 1
v 0.11875 0.625 0.9375
v 0.11875 0.625 1
vt 0.17682568 0.44034091
vt 0.15625 0.46875
vt 0.15625 0.44034091
f 740/740 741/741 742/742
v 0.05 0.625 0.9375
v 0.07013641 0.625 0.98611359
v 0.10366117 0.625 1
vt 0.0625 0.46875
vt 0.08995874 0.44665291
vt 0.13567432 0.44034091
f 743/743 744/744 745/745
v 0.05 0.625 0.9375
v 0.10366117 0.625 1
v 0.11875 0.625 1
vt 0.0625 0.46875
vt 0.13567432 0.44034091
vt 0.15625 0.44034091
f 746/746 747/747 748/748
v 0.05 0.625 0.9375
v 0.11875 0.625 1
v 0.11875 0.625 0.9375
vt 0.0625 0.46875
vt 0.15625 0.44034091
vt 0.15625 0.46875
f 749/749 750/750 751/751
v 0.11875 0.625 0.86875
v 0.07013641 0.625 0.88888641
v 0.05 0.625 0.9375
v 0.11875 0.625 0.9375
vt 0.15625 0.5
vt 0.08995874 0.49084709
vt 0.0625 0.46875
vt 0.15625 0.46875
f 752/752 753/753 754/754 755/755
v 0.1875 0.625 0.9375
v 0.16736359 0.625 0.88888641
v 0.11875 0.625 0.86875
v 0.11875 0.625 0.9375
vt 0.25 0.46875
vt 0.22254126 0.49084709
vt 0.15625 0.5
vt 0.15625 0.46875
f 756/756 757/757 758/758 759/759
usemtl dark
v 0.0375 0.4375 1
v 0.0375 0.4375 0.85625
v 0.0375 0.375 0.85625
v 0.0375 0.375 1
vt 0.25 0.08413462
vt 0.25 0.25
vt 0.0625 0.25
vt 0.0625 0.08413462
f 760/760 761/761 762/762 763/763
v 0.2 0.375 0.85625
v 0.2 0.4375 0.85625
v 0.2 0.4375 1
v 0.2 0.375 1
vt 0.0625 0.25
vt 0.25 0.25
vt 0.25 0.08413462
vt 0.0625 0.08413462
f 764/764 765/765 766/766 767/767
v 0.0375 0.375 0.85625
v 0.2 0.375 0.85625
v 0.2 0.375 1
v 0.0375 0.375 1
vt 0.0625 0.25
vt 0.25 0.25
vt 0.25 0.08413462
vt 0.0625 0.08413462
f 768/768 769/769 770/770 771/771
v 0.2 0.4375 1
v 0.2 0.4375 0.85625
v 0.0375 0.4375 0.85625
v 0.0375 0.4375 1
vt 0.25 0.08413462
vt 0.25 0.25
vt 0.0625 0.25
vt 0.0625 0.08413462
f 772/772 773/773 774/774 775/775
v 0.0375 0.4375 0.85625
v 0.2 0.4375 0.85625
v 0.2 0.375 0.85625
v 0.0375 0.375 0.85625
vt 0.0625 0.0625
vt 0.25 0.0625
vt 0.25 0.25
vt 0.0625 0.25
f 776/776 777/777 778/778 779/779
