mtllib homelink_energy:models/hydro.mtl
usemtl body
v 0.8125 0 0.1875
v 0.8125 0.6875 0.1875
v 0.8125 0.6875 1
v 0.8125 0 1
vt 0.42105263 1
vt 1 1
vt 1 0.23529412
vt 0.42105263 0.23529412
f 1/1 2/2 3/3 4/4
v 0.8125 0.6875 0.25
v 0.8125 0.6875 0.1875
v 0 0.6875 0.1875
v 0 0.6875 0.25
vt 1 0.94117647
vt 1 1
vt 0.5 1
vt 0.5 0.94117647
f 5/5 6/6 7/7 8/8
v 0.8125 0.6875 1
v 0.8125 0.6875 0.25
v 0.75 0.6875 0.25
v 0.75 0.6875 1
vt 1 0.23529412
vt 1 0.94117647
vt 0.96153846 0.94117647
vt 0.96153846 0.23529412
f 9/9 10/10 11/11 12/12
v 0.8125 0.25 0.1875
v 0.8125 0 0.1875
v 0.71875 0 0.1875
v 0.71875 0.25 0.1875
vt 1 0.36842105
vt 1 0.57894737
vt 0.94230769 0.57894737
vt 0.94230769 0.36842105
f 13/13 14/14 15/15 16/16
v 0 0 0.1875
v 0 0.25 0.1875
v 0.0625 0.25 0.1875
v 0.0625 0 0.1875
vt 0.5 0.57894737
vt 0.5 0.36842105
vt 0.53846154 0.36842105
vt 0.53846154 0.57894737
f 17/17 18/18 19/19 20/20
v 0.71875 0.6875 0.1875
v 0.8125 0.6875 0.1875
v 0.8125 0.25 0.1875
v 0.71875 0.25 0.1875
vt 0.94230769 0
vt 1 0
vt 1 0.36842105
vt 0.94230769 0.36842105
f 21/21 22/22 23/23 24/24
v 0 0.6875 0.1875
v 0.0625 0.6875 0.1875
v 0.0625 0.25 0.1875
v 0 0.25 0.1875
vt 0.5 0
vt 0.53846154 0
vt 0.53846154 0.36842105
vt 0.5 0.36842105
f 25/25 26/26 27/27 28/28
usemtl paint
v 0.825 0 0.175
v 0.825 0.96875 0.175
v 0.825 0.96875 0.01875
v 0.825 0 0.01875
vt 0.02966102 0
vt 0.0625 0
vt 0.0625 0.0625
vt 0.02966102 0.0625
f 29/29 30/30 31/31 32/32
v 0.98125 0 0.01875
v 0.98125 0.96875 0.01875
v 0.98125 0.96875 0.175
v 0.98125 0 0.175
vt 0.02966102 0.0625
vt 0.0625 0.0625
vt 0.0625 0
vt 0.02966102 0
f 33/33 34/34 35/35 36/36
v 0.825 0.96875 0.175
v 0.98125 0.96875 0.175
v 0.98125 0.96875 0.01875
v 0.825 0.96875 0.01875
vt 0 0
vt 0.0625 0
vt 0.0625 0.0625
vt 0 0.0625
f 37/37 38/38 39/39 40/40
v 0.825 0.96875 0.01875
v 0.98125 0.96875 0.01875
v 0.98125 0 0.01875
v 0.825 0 0.01875
vt 0 0
vt 0.0625 0
vt 0.0625 0.03283898
vt 0 0.03283898
f 41/41 42/42 43/43 44/44
v 0.98125 0 0.175
v 0.98125 0.96875 0.175
v 0.825 0.96875 0.175
v 0.825 0 0.175
vt 0.0625 0.03283898
vt 0.0625 0
vt 0 0
vt 0 0.03283898
f 45/45 46/46 47/47 48/48
usemtl dark
v 0.8125 0.71875 0.1875
v 0.8125 0.8125 0.1875
v 0.8125 0.8125 0.00625
v 0.8125 0.71875 0.00625
vt 0.0625 0.0625
vt 0.25 0.0625
vt 0.25 0.25
vt 0.0625 0.25
f 49/49 50/50 51/51 52/52
v 0.99375 0.71875 0.00625
v 0.99375 0.8125 0.00625
v 0.99375 0.8125 0.1875
v 0.99375 0.71875 0.1875
vt 0.0625 0.25
vt 0.25 0.25
vt 0.25 0.0625
vt 0.0625 0.0625
f 53/53 54/54 55/55 56/56
v 0.8125 0.71875 0.00625
v 0.99375 0.71875 0.00625
v 0.99375 0.71875 0.1875
v 0.8125 0.71875 0.1875
vt 0.0625 0.25
vt 0.25 0.25
vt 0.25 0.0625
vt 0.0625 0.0625
f 57/57 58/58 59/59 60/60
v 0.8125 0.8125 0.1875
v 0.84375 0.8125 0.1875
v 0.84375 0.8125 0.15625
v 0.8125 0.8125 0.15625
vt 0.0625 0.0625
vt 0.09482759 0.0625
vt 0.09482759 0.09482759
vt 0.0625 0.09482759
f 61/61 62/62 63/63 64/64
v 0.8125 0.8125 0.00625
v 0.99375 0.8125 0.00625
v 0.99375 0.71875 0.00625
v 0.8125 0.71875 0.00625
vt 0.0625 0.0625
vt 0.25 0.0625
vt 0.25 0.25
vt 0.0625 0.25
f 65/65 66/66 67/67 68/68
v 0.8125 0.71875 0.1875
v 0.99375 0.71875 0.1875
v 0.99375 0.8125 0.1875
v 0.8125 0.8125 0.1875
vt 0.0625 0.25
vt 0.25 0.25
vt 0.25 0.0625
vt 0.0625 0.0625
f 69/69 70/70 71/71 72/72
v 1 0.8125 0
v 1 1 0
v 1 1 0.15625
v 1 0.8125 0.15625
vt 0.0625 0.25
vt 0.25 0.25
vt 0.25 0.0625
vt 0.0625 0.0625
f 73/73 74/74 75/75 76/76
v 0 0.8125 0
v 1 0.8125 0
v 1 0.8125 0.15625
v 0 0.8125 0.15625
vt 0.15625 0.25
vt 0.25 0.25
vt 0.25 0.0625
vt 0.15625 0.0625
f 77/77 78/78 79/79 80/80
v 0 1 0.15625
v 1 1 0.15625
v 1 1 0
v 0 1 0
vt 0.15625 0.0625
vt 0.25 0.0625
vt 0.25 0.25
vt 0.15625 0.25
f 81/81 82/82 83/83 84/84
v 0 1 0
v 1 1 0
v 1 0.8125 0
v 0 0.8125 0
vt 0.15625 0.0625
vt 0.25 0.0625
vt 0.25 0.25
vt 0.15625 0.25
f 85/85 86/86 87/87 88/88
v 0 0.8125 0.15625
v 0.84375 0.8125 0.15625
v 0.84375 1 0.15625
v 0 1 0.15625
vt 0.15625 0.25
vt 0.23535156 0.25
vt 0.23535156 0.0625
vt 0.15625 0.0625
f 89/89 90/90 91/91 92/92
v 0.84375 1 1
v 0.84375 1 0.15625
v 0.84375 0.8125 0.15625
v 0.84375 0.8125 1
vt 0.25 0.15625
vt 0.25 0.25
vt 0.0625 0.25
vt 0.0625 0.15625
f 93/93 94/94 95/95 96/96
v 1 0.8125 0.15625
v 1 1 0.15625
v 1 1 1
v 1 0.8125 1
vt 0.0625 0.25
vt 0.25 0.25
vt 0.25 0.15625
vt 0.0625 0.15625
f 97/97 98/98 99/99 100/100
v 0.875 0.8125 0.15625
v 1 0.8125 0.15625
v 1 0.8125 1
v 0.875 0.8125 1
vt 0.1 0.25
vt 0.25 0.25
vt 0.25 0.15625
vt 0.1 0.15625
f 101/101 102/102 103/103 104/104
v 0.84375 0.8125 0.15625
v 0.875 0.8125 0.15625
v 0.875 0.8125 1
v 0.84375 0.8125 1
vt 0.0625 0.25
vt 0.1 0.25
vt 0.1 0.15625
vt 0.0625 0.15625
f 105/105 106/106 107/107 108/108
v 1 1 1
v 1 1 0.15625
v 0.84375 1 0.15625
v 0.84375 1 1
vt 0.25 0.15625
vt 0.25 0.25
vt 0.0625 0.25
vt 0.0625 0.15625
f 109/109 110/110 111/111 112/112
v 0.84375 1 0.15625
v 1 1 0.15625
v 1 0.8125 0.15625
v 0.84375 0.8125 0.15625
vt 0.0625 0.0625
vt 0.25 0.0625
vt 0.25 0.25
vt 0.0625 0.25
f 113/113 114/114 115/115 116/116
v 0.75 0.6875 0.25
v 0.75 0.78125 0.25
v 0.75 0.78125 1
v 0.75 0.6875 1
vt 0.0625 0.25
vt 0.25 0.25
vt 0.25 0.08928571
vt 0.0625 0.08928571
f 117/117 118/118 119/119 120/120
v 0 0.6875 0.25
v 0.75 0.6875 0.25
v 0.75 0.6875 1
v 0 0.6875 1
vt 0.15625 0.25
vt 0.25 0.25
vt 0.25 0.08928571
vt 0.15625 0.08928571
f 121/121 122/122 123/123 124/124
v 0.75 0.78125 0.375
v 0.75 0.78125 0.25
v 0 0.78125 0.25
v 0 0.78125 0.375
vt 0.25 0.22321429
vt 0.25 0.25
vt 0.15625 0.25
vt 0.15625 0.22321429
f 125/125 126/126 127/127 128/128
v 0.75 0.78125 1
v 0.75 0.78125 0.375
v 0.5625 0.78125 0.375
v 0.5625 0.78125 1
vt 0.25 0.08928571
vt 0.25 0.22321429
vt 0.2265625 0.22321429
vt 0.2265625 0.08928571
f 129/129 130/130 131/131 132/132
v 0 0.78125 0.25
v 0.75 0.78125 0.25
v 0.75 0.6875 0.25
v 0 0.6875 0.25
vt 0.15625 0.0625
vt 0.25 0.0625
vt 0.25 0.25
vt 0.15625 0.25
f 133/133 134/134 135/135 136/136
usemtl body
v 0.5625 0.78125 0.375
v 0.5625 0.875 0.375
v 0.5625 0.875 1
v 0.5625 0.78125 1
vt 0 1
vt 1 1
vt 1 0
vt 0 0
f 137/137 138/138 139/139 140/140
v 0 0.78125 0.375
v 0.5625 0.78125 0.375
v 0.5625 0.78125 1
v 0 0.78125 1
vt 0.5 1
vt 1 1
vt 1 0
vt 0.5 0
f 141/141 142/142 143/143 144/144
v 0.5625 0.875 0.4375
v 0.5625 0.875 0.375
v 0 0.875 0.375
v 0 0.875 0.4375
vt 1 0.9
vt 1 1
vt 0.5 1
vt 0.5 0.9
f 145/145 146/146 147/147 148/148
v 0.375 0.875 1
v 0.5625 0.875 1
v 0.5625 0.875 0.4375
v 0.375 0.875 0.4375
vt 0.83333333 0
vt 1 0
vt 1 0.9
vt 0.83333333 0.9
f 149/149 150/150 151/151 152/152
v 0.1875 0.875 1
v 0.375 0.875 1
v 0.375 0.875 0.9375
v 0.1875 0.875 0.9375
vt 0.66666667 0
vt 0.83333333 0
vt 0.83333333 0.1
vt 0.66666667 0.1
f 153/153 154/154 155/155 156/156
v 0.3125 0.875 0.4375
v 0.1875 0.875 0.4375
v 0.1875 0.875 0.9375
v 0.3125 0.875 0.9375
vt 0.77777778 0.9
vt 0.66666667 0.9
vt 0.66666667 0.1
vt 0.77777778 0.1
f 157/157 158/158 159/159 160/160
v 0 0.875 1
v 0.1875 0.875 1
v 0.1875 0.875 0.9375
v 0 0.875 0.9375
vt 0.5 0
vt 0.66666667 0
vt 0.66666667 0.1
vt 0.5 0.1
f 161/161 162/162 163/163 164/164
v 0.125 0.875 0.4375
v 0 0.875 0.4375
v 0 0.875 0.9375
v 0.125 0.875 0.9375
vt 0.61111111 0.9
vt 0.5 0.9
vt 0.5 0.1
vt 0.61111111 0.1
f 165/165 166/166 167/167 168/168
v 0 0.875 0.375
v 0.5625 0.875 0.375
v 0.5625 0.78125 0.375
v 0 0.78125 0.375
vt 0.5 0
vt 1 0
vt 1 1
vt 0.5 1
f 169/169 170/170 171/171 172/172
v 0 0.78125 1
v 0.5625 0.78125 1
v 0.5625 0.875 1
v 0 0.875 1
vt 0.5 1
vt 1 1
vt 1 0
vt 0.5 0
f 173/173 174/174 175/175 176/176
usemtl paint
v 0.125 0.875 0.9375
v 0.125 0.925 0.9375
v 0.125 0.925 0.4375
v 0.125 0.875 0.4375
vt 0 0
vt 0.0625 0
vt 0.0625 0.0625
vt 0 0.0625
f 177/177 178/178 179/179 180/180
v 0.1875 0.875 0.4375
v 0.1875 0.925 0.4375
v 0.1875 0.925 0.9375
v 0.1875 0.875 0.9375
vt 0 0.0625
vt 0.0625 0.0625
vt 0.0625 0
vt 0 0
f 181/181 182/182 183/183 184/184
v 0.125 0.875 0.4375
v 0.1875 0.875 0.4375
v 0.1875 0.875 0.9375
v 0.125 0.875 0.9375
vt 0 0.0625
vt 0.0625 0.0625
vt 0.0625 0
vt 0 0
f 185/185 186/186 187/187 188/188
v 0.125 0.925 0.9375
v 0.1875 0.925 0.9375
v 0.1875 0.925 0.4375
v 0.125 0.925 0.4375
vt 0 0
vt 0.0625 0
vt 0.0625 0.0625
vt 0 0.0625
f 189/189 190/190 191/191 192/192
v 0.125 0.925 0.4375
v 0.1875 0.925 0.4375
v 0.1875 0.875 0.4375
v 0.125 0.875 0.4375
vt 0 0
vt 0.0625 0
vt 0.0625 0.0625
vt 0 0.0625
f 193/193 194/194 195/195 196/196
v 0.125 0.875 0.9375
v 0.1875 0.875 0.9375
v 0.1875 0.925 0.9375
v 0.125 0.925 0.9375
vt 0 0.0625
vt 0.0625 0.0625
vt 0.0625 0
vt 0 0
f 197/197 198/198 199/199 200/200
v 0.3125 0.875 0.9375
v 0.3125 0.925 0.9375
v 0.3125 0.925 0.4375
v 0.3125 0.875 0.4375
vt 0 0
vt 0.0625 0
vt 0.0625 0.0625
vt 0 0.0625
f 201/201 202/202 203/203 204/204
v 0.375 0.875 0.4375
v 0.375 0.925 0.4375
v 0.375 0.925 0.9375
v 0.375 0.875 0.9375
vt 0 0.0625
vt 0.0625 0.0625
vt 0.0625 0
vt 0 0
f 205/205 206/206 207/207 208/208
v 0.3125 0.875 0.4375
v 0.375 0.875 0.4375
v 0.375 0.875 0.9375
v 0.3125 0.875 0.9375
vt 0 0.0625
vt 0.0625 0.0625
vt 0.0625 0
vt 0 0
f 209/209 210/210 211/211 212/212
v 0.3125 0.925 0.9375
v 0.375 0.925 0.9375
v 0.375 0.925 0.4375
v 0.3125 0.925 0.4375
vt 0 0
vt 0.0625 0
vt 0.0625 0.0625
vt 0 0.0625
f 213/213 214/214 215/215 216/216
v 0.3125 0.925 0.4375
v 0.375 0.925 0.4375
v 0.375 0.875 0.4375
v 0.3125 0.875 0.4375
vt 0 0
vt 0.0625 0
vt 0.0625 0.0625
vt 0 0.0625
f 217/217 218/218 219/219 220/220
v 0.3125 0.875 0.9375
v 0.375 0.875 0.9375
v 0.375 0.925 0.9375
v 0.3125 0.925 0.9375
vt 0 0.0625
vt 0.0625 0.0625
vt 0.0625 0
vt 0 0
f 221/221 222/222 223/223 224/224
usemtl dark
v 0.0625 0 0.1875
v 0.0625 0.6875 0.1875
v 0.0625 0.6875 0.1125
v 0.0625 0 0.1125
vt 0.12109375 0.0625
vt 0.25 0.0625
vt 0.25 0.25
vt 0.12109375 0.25
f 225/225 226/226 227/227 228/228
v 0.71875 0 0.1125
v 0.71875 0.6875 0.1125
v 0.71875 0.6875 0.1875
v 0.71875 0 0.1875
vt 0.12109375 0.25
vt 0.25 0.25
vt 0.25 0.0625
vt 0.12109375 0.0625
f 229/229 230/230 231/231 232/232
v 0.0625 0.6875 0.1875
v 0.71875 0.6875 0.1875
v 0.71875 0.6875 0.1125
v 0.0625 0.6875 0.1125
vt 0.0625 0.0625
vt 0.25 0.0625
vt 0.25 0.25
vt 0.0625 0.25
f 233/233 234/234 235/235 236/236
v 0.675 0.6875 0.1125
v 0.71875 0.6875 0.1125
v 0.71875 0 0.1125
v 0.675 0 0.1125
vt 0.2375 0.0625
vt 0.25 0.0625
vt 0.25 0.19140625
vt 0.2375 0.19140625
f 237/237 238/238 239/239 240/240
v 0.0625 0.6875 0.1125
v 0.675 0.6875 0.1125
v 0.675 0.64375 0.1125
v 0.0625 0.64375 0.1125
vt 0.0625 0.0625
vt 0.2375 0.0625
vt 0.2375 0.07070312
vt 0.0625 0.07070313
f 241/241 242/242 243/243 244/244
v 0.0625 0 0.1125
v 0.0625 0.64375 0.1125
v 0.10625 0.64375 0.1125
v 0.10625 0 0.1125
vt 0.0625 0.19140625
vt 0.0625 0.07070313
vt 0.075 0.07070313
vt 0.075 0.19140625
f 245/245 246/246 247/247 248/248
v 0.71875 0 0.1875
v 0.71875 0.6875 0.1875
v 0.0625 0.6875 0.1875
v 0.0625 0 0.1875
vt 0.25 0.19140625
vt 0.25 0.0625
vt 0.0625 0.0625
vt 0.0625 0.19140625
f 249/249 250/250 251/251 252/252
usemtl vent
v 0.10625 0 0.1125
v 0.10625 0.64375 0.1125
v 0.10625 0.64375 0.1
v 0.10625 0 0.1
vt 0.29452055 0
vt 1 0
vt 1 1
vt 0.29452055 1
f 253/253 254/254 255/255 256/256
v 0.675 0 0.1
v 0.675 0.64375 0.1
v 0.675 0.64375 0.1125
v 0.675 0 0.1125
vt 0.29452055 1
vt 1 1
vt 1 0
vt 0.29452055 0
f 257/257 258/258 259/259 260/260
v 0.10625 0.64375 0.1125
v 0.675 0.64375 0.1125
v 0.675 0.64375 0.1
v 0.10625 0.64375 0.1
vt 0 0
vt 1 0
vt 1 1
vt 0 1
f 261/261 262/262 263/263 264/264
v 0.675 0.1625 0.1
v 0.675 0.0375 0.1
v 0.10625 0.0375 0.1
v 0.10625 0.1625 0.1
vt 1 0.52739726
vt 1 0.66438356
vt 0 0.66438356
vt 0 0.52739726
f 265/265 266/266 267/267 268/268
v 0.675 0.3375 0.1
v 0.675 0.2125 0.1
v 0.10625 0.2125 0.1
v 0.10625 0.3375 0.1
vt 1 0.33561644
vt 1 0.47260274
vt 0 0.47260274
vt 0 0.33561644
f 269/269 270/270 271/271 272/272
v 0.675 0.5125 0.1
v 0.675 0.3875 0.1
v 0.10625 0.3875 0.1
v 0.10625 0.5125 0.1
vt 1 0.14383562
vt 1 0.28082192
vt 0 0.28082192
vt 0 0.14383562
f 273/273 274/274 275/275 276/276
v 0.10625 0.64375 0.1
v 0.675 0.64375 0.1
v 0.675 0.5625 0.1
v 0.10625 0.5625 0.1
vt 0 0
vt 1 0
vt 1 0.0890411
vt 0 0.0890411
f 277/277 278/278 279/279 280/280
v 0.675 0 0.1125
v 0.675 0.64375 0.1125
v 0.10625 0.64375 0.1125
v 0.10625 0 0.1125
vt 1 0.70547945
vt 1 0
vt 0 0
vt 0 0.70547945
f 281/281 282/282 283/283 284/284
usemtl paint
v 0.09375 0 0.1
v 0.09375 0.0375 0.1
v 0.09375 0.0375 0.05625
v 0.09375 0 0.05625
vt 0.015625 0
vt 0.0625 0
vt 0.0625 0.0625
vt 0.015625 0.0625
f 285/285 286/286 287/287 288/288
v 0.6875 0 0.05625
v 0.6875 0.0375 0.05625
v 0.6875 0.0375 0.1
v 0.6875 0 0.1
vt 0.015625 0.0625
vt 0.0625 0.0625
vt 0.0625 0
vt 0.015625 0
f 289/289 290/290 291/291 292/292
v 0.09375 0.0375 0.1
v 0.6875 0.0375 0.1
v 0.6875 0.0375 0.05625
v 0.09375 0.0375 0.05625
vt 0 0
vt 0.0625 0
vt 0.0625 0.0625
vt 0 0.0625
f 293/293 294/294 295/295 296/296
v 0.09375 0.0375 0.05625
v 0.6875 0.0375 0.05625
v 0.6875 0 0.05625
v 0.09375 0 0.05625
vt 0 0
vt 0.0625 0
vt 0.0625 0.046875
vt 0 0.046875
f 297/297 298/298 299/299 300/300
v 0.6875 0 0.1
v 0.6875 0.0375 0.1
v 0.09375 0.0375 0.1
v 0.09375 0 0.1
vt 0.0625 0.046875
vt 0.0625 0
vt 0 0
vt 0 0.046875
f 301/301 302/302 303/303 304/304
v 0.09375 0.1625 0.1
v 0.09375 0.2125 0.1
v 0.09375 0.2125 0.05625
v 0.09375 0.1625 0.05625
vt 0 0
vt 0.0625 0
vt 0.0625 0.0625
vt 0 0.0625
f 305/305 306/306 307/307 308/308
v 0.6875 0.1625 0.05625
v 0.6875 0.2125 0.05625
v 0.6875 0.2125 0.1
v 0.6875 0.1625 0.1
vt 0 0.0625
vt 0.0625 0.0625
vt 0.0625 0
vt 0 0
f 309/309 310/310 311/311 312/312
v 0.09375 0.1625 0.05625
v 0.6875 0.1625 0.05625
v 0.6875 0.1625 0.1
v 0.09375 0.1625 0.1
vt 0 0.0625
vt 0.0625 0.0625
vt 0.0625 0
vt 0 0
f 313/313 314/314 315/315 316/316
v 0.09375 0.2125 0.1
v 0.6875 0.2125 0.1
v 0.6875 0.2125 0.05625
v 0.09375 0.2125 0.05625
vt 0 0
vt 0.0625 0
vt 0.0625 0.0625
vt 0 0.0625
f 317/317 318/318 319/319 320/320
v 0.09375 0.2125 0.05625
v 0.6875 0.2125 0.05625
v 0.6875 0.1625 0.05625
v 0.09375 0.1625 0.05625
vt 0 0
vt 0.0625 0
vt 0.0625 0.0625
vt 0 0.0625
f 321/321 322/322 323/323 324/324
v 0.09375 0.1625 0.1
v 0.6875 0.1625 0.1
v 0.6875 0.2125 0.1
v 0.09375 0.2125 0.1
vt 0 0.0625
vt 0.0625 0.0625
vt 0.0625 0
vt 0 0
f 325/325 326/326 327/327 328/328
v 0.09375 0.3375 0.1
v 0.09375 0.3875 0.1
v 0.09375 0.3875 0.05625
v 0.09375 0.3375 0.05625
vt 0 0
vt 0.0625 0
vt 0.0625 0.0625
vt 0 0.0625
f 329/329 330/330 331/331 332/332
v 0.6875 0.3375 0.05625
v 0.6875 0.3875 0.05625
v 0.6875 0.3875 0.1
v 0.6875 0.3375 0.1
vt 0 0.0625
vt 0.0625 0.0625
vt 0.0625 0
vt 0 0
f 333/333 334/334 335/335 336/336
v 0.09375 0.3375 0.05625
v 0.6875 0.3375 0.05625
v 0.6875 0.3375 0.1
v 0.09375 0.3375 0.1
vt 0 0.0625
vt 0.0625 0.0625
vt 0.0625 0
vt 0 0
f 337/337 338/338 339/339 340/340
v 0.09375 0.3875 0.1
v 0.6875 0.3875 0.1
v 0.6875 0.3875 0.05625
v 0.09375 0.3875 0.05625
vt 0 0
vt 0.0625 0
vt 0.0625 0.0625
vt 0 0.0625
f 341/341 342/342 343/343 344/344
v 0.09375 0.3875 0.05625
v 0.6875 0.3875 0.05625
v 0.6875 0.3375 0.05625
v 0.09375 0.3375 0.05625
vt 0 0
vt 0.0625 0
vt 0.0625 0.0625
vt 0 0.0625
f 345/345 346/346 347/347 348/348
v 0.09375 0.3375 0.1
v 0.6875 0.3375 0.1
v 0.6875 0.3875 0.1
v 0.09375 0.3875 0.1
vt 0 0.0625
vt 0.0625 0.0625
vt 0.0625 0
vt 0 0
f 349/349 350/350 351/351 352/352
v 0.09375 0.5125 0.1
v 0.09375 0.5625 0.1
v 0.09375 0.5625 0.05625
v 0.09375 0.5125 0.05625
vt 0 0
vt 0.0625 0
vt 0.0625 0.0625
vt 0 0.0625
f 353/353 354/354 355/355 356/356
v 0.6875 0.5125 0.05625
v 0.6875 0.5625 0.05625
v 0.6875 0.5625 0.1
v 0.6875 0.5125 0.1
vt 0 0.0625
vt 0.0625 0.0625
vt 0.0625 0
vt 0 0
f 357/357 358/358 359/359 360/360
v 0.09375 0.5125 0.05625
v 0.6875 0.5125 0.05625
v 0.6875 0.5125 0.1
v 0.09375 0.5125 0.1
vt 0 0.0625
vt 0.0625 0.0625
vt 0.0625 0
vt 0 0
f 361/361 362/362 363/363 364/364
v 0.09375 0.5625 0.1
v 0.6875 0.5625 0.1
v 0.6875 0.5625 0.05625
v 0.09375 0.5625 0.05625
vt 0 0
vt 0.0625 0
vt 0.0625 0.0625
vt 0 0.0625
f 365/365 366/366 367/367 368/368
v 0.09375 0.5625 0.05625
v 0.6875 0.5625 0.05625
v 0.6875 0.5125 0.05625
v 0.09375 0.5125 0.05625
vt 0 0
vt 0.0625 0
vt 0.0625 0.0625
vt 0 0.0625
f 369/369 370/370 371/371 372/372
v 0.09375 0.5125 0.1
v 0.6875 0.5125 0.1
v 0.6875 0.5625 0.1
v 0.09375 0.5625 0.1
vt 0 0.0625
vt 0.0625 0.0625
vt 0.0625 0
vt 0 0
f 373/373 374/374 375/375 376/376
usemtl copper
v 0.79375 0.71875 0.05
v 0.78093592 0.74968592 0.05
v 0.78093592 0.74968592 0.175
v 0.79375 0.71875 0.175
vt 0.0625 0.4375
vt 0.25 0.4375
vt 0.25 0.5
vt 0.0625 0.5
f 377/377 378/378 379/379 380/380
v 0.78093592 0.74968592 0.05
v 0.75 0.7625 0.05
v 0.75 0.7625 0.175
v 0.78093592 0.74968592 0.175
vt 0.0625 0.4375
vt 0.25 0.4375
vt 0.25 0.5
vt 0.0625 0.5
f 381/381 382/382 383/383 384/384
v 0.75 0.7625 0.05
v 0.71906408 0.74968592 0.05
v 0.71906408 0.74968592 0.175
v 0.75 0.7625 0.175
vt 0.0625 0.4375
vt 0.25 0.4375
vt 0.25 0.5
vt 0.0625 0.5
f 385/385 386/386 387/387 388/388
v 0.71906408 0.74968592 0.05
v 0.70625 0.71875 0.05
v 0.70625 0.71875 0.175
v 0.71906408 0.74968592 0.175
vt 0.0625 0.4375
vt 0.25 0.4375
vt 0.25 0.5
vt 0.0625 0.5
f 389/389 390/390 391/391 392/392
v 0.70625 0.71875 0.05
v 0.71906408 0.68781408 0.05
v 0.71906408 0.68781408 0.175
v 0.70625 0.71875 0.175
vt 0.0625 0.4375
vt 0.25 0.4375
vt 0.25 0.5
vt 0.0625 0.5
f 393/393 394/394 395/395 396/396
v 0.71906408 0.68781408 0.05
v 0.75 0.675 0.05
v 0.75 0.675 0.175
v 0.71906408 0.68781408 0.175
vt 0.0625 0.4375
vt 0.25 0.4375
vt 0.25 0.5
vt 0.0625 0.5
f 397/397 398/398 399/399 400/400
v 0.75 0.675 0.05
v 0.78093592 0.68781408 0.05
v 0.78093592 0.68781408 0.175
v 0.75 0.675 0.175
vt 0.0625 0.4375
vt 0.25 0.4375
vt 0.25 0.5
vt 0.0625 0.5
f 401/401 402/402 403/403 404/404
v 0.78093592 0.68781408 0.05
v 0.79375 0.71875 0.05
v 0.79375 0.71875 0.175
v 0.78093592 0.68781408 0.175
vt 0.0625 0.4375
vt 0.25 0.4375
vt 0.25 0.5
vt 0.0625 0.5
f 405/405 406/406 407/407 408/408
v 0.75 0.7625 0.05
v 0.78093592 0.74968592 0.05
v 0.79375 0.71875 0.05
v 0.75 0.71875 0.05
vt 0.15625 0.4375
vt 0.22254126 0.44665291
vt 0.25 0.46875
vt 0.15625 0.46875
f 409/409 410/410 411/411 412/412
v 0.70625 0.71875 0.05
v 0.71906408 0.74968592 0.05
v 0.75 0.7625 0.05
v 0.75 0.71875 0.05
vt 0.0625 0.46875
vt 0.08995874 0.44665291
vt 0.15625 0.4375
vt 0.15625 0.46875
f 413/413 414/414 415/415 416/416
v 0.75 0.675 0.05
v 0.71906408 0.68781408 0.05
v 0.70625 0.71875 0.05
v 0.75 0.71875 0.05
vt 0.15625 0.5
vt 0.08995874 0.49084709
vt 0.0625 0.46875
vt 0.15625 0.46875
f 417/417 418/418 419/419 420/420
v 0.79375 0.71875 0.05
v 0.78093592 0.68781408 0.05
v 0.75 0.675 0.05
v 0.75 0.71875 0.05
vt 0.25 0.46875
vt 0.22254126 0.49084709
vt 0.15625 0.5
vt 0.15625 0.46875
f 421/421 422/422 423/423 424/424
v 0.75 0.71875 0.175
v 0.79375 0.71875 0.175
v 0.78093592 0.74968592 0.175
v 0.75 0.7625 0.175
vt 0.15625 0.46875
vt 0.25 0.46875
vt 0.22254126 0.44665291
vt 0.15625 0.4375
f 425/425 426/426 427/427 428/428
v 0.75 0.71875 0.175
v 0.75 0.7625 0.175
v 0.71906408 0.74968592 0.175
v 0.70625 0.71875 0.175
vt 0.15625 0.46875
vt 0.15625 0.4375
vt 0.08995874 0.44665291
vt 0.0625 0.46875
f 429/429 430/430 431/431 432/432
v 0.75 0.71875 0.175
v 0.70625 0.71875 0.175
v 0.71906408 0.68781408 0.175
v 0.75 0.675 0.175
vt 0.15625 0.46875
vt 0.0625 0.46875
vt 0.08995874 0.49084709
vt 0.15625 0.5
f 433/433 434/434 435/435 436/436
v 0.75 0.71875 0.175
v 0.75 0.675 0.175
v 0.78093592 0.68781408 0.175
v 0.79375 0.71875 0.175
vt 0.15625 0.46875
vt 0.15625 0.5
vt 0.22254126 0.49084709
vt 0.25 0.46875
f 437/437 438/438 439/439 440/440
v 0.95 0.625 0.4375
v 0.92986359 0.625 0.48611359
v 0.92986359 0 0.48611359
v 0.95 0 0.4375
vt 0.0625 0.4375
vt 0.25 0.4375
vt 0.25 0.47222222
vt 0.0625 0.47222222
f 441/441 442/442 443/443 444/444
v 0.92986359 0.625 0.48611359
v 0.88125 0.625 0.50625
v 0.88125 0 0.50625
v 0.92986359 0 0.48611359
vt 0.0625 0.4375
vt 0.25 0.4375
vt 0.25 0.47222222
vt 0.0625 0.47222222
f 445/445 446/446 447/447 448/448
v 0.88125 0.625 0.50625
v 0.83263641 0.625 0.48611359
v 0.83263641 0 0.48611359
v 0.88125 0 0.50625
vt 0.0625 0.4375
vt 0.25 0.4375
vt 0.25 0.47222222
vt 0.0625 0.47222222
f 449/449 450/450 451/451 452/452
v 0.83263641 0.625 0.48611359
v 0.8125 0.625 0.4375
v 0.8125 0 0.4375
v 0.83263641 0 0.48611359
vt 0.0625 0.4375
vt 0.25 0.4375
vt 0.25 0.47222222
vt 0.0625 0.47222222
f 453/453 454/454 455/455 456/456
v 0.8125 0.625 0.4375
v 0.83263641 0.625 0.38888641
v 0.83263641 0 0.38888641
v 0.8125 0 0.4375
vt 0.0625 0.4375
vt 0.25 0.4375
vt 0.25 0.47222222
vt 0.0625 0.47222222
f 457/457 458/458 459/459 460/460
v 0.83263641 0.625 0.38888641
v 0.88125 0.625 0.36875
v 0.88125 0 0.36875
v 0.83263641 0 0.38888641
vt 0.0625 0.4375
vt 0.25 0.4375
vt 0.25 0.47222222
vt 0.0625 0.47222222
f 461/461 462/462 463/463 464/464
v 0.88125 0.625 0.36875
v 0.92986359 0.625 0.38888641
v 0.92986359 0 0.38888641
v 0.88125 0 0.36875
vt 0.0625 0.4375
vt 0.25 0.4375
vt 0.25 0.47222222
vt 0.0625 0.47222222
f 465/465 466/466 467/467 468/468
v 0.92986359 0.625 0.38888641
v 0.95 0.625 0.4375
v 0.95 0 0.4375
v 0.92986359 0 0.38888641
vt 0.0625 0.4375
vt 0.25 0.4375
vt 0.25 0.47222222
vt 0.0625 0.47222222
f 469/469 470/470 471/471 472/472
v 0.88125 0.625 0.50625
v 0.92986359 0.625 0.48611359
v 0.95 0.625 0.4375
v 0.88125 0.625 0.4375
vt 0.15625 0.4375
vt 0.22254126 0.44665291
vt 0.25 0.46875
vt 0.15625 0.46875
f 473/473 474/474 475/475 476/476
v 0.8125 0.625 0.4375
v 0.83263641 0.625 0.48611359
v 0.88125 0.625 0.50625
v 0.88125 0.625 0.4375
vt 0.0625 0.46875
vt 0.08995874 0.44665291
vt 0.15625 0.4375
vt 0.15625 0.46875
f 477/477 478/478 479/479 480/480
v 0.88125 0.625 0.36875
v 0.83263641 0.625 0.38888641
v 0.8125 0.625 0.4375
v 0.88125 0.625 0.4375
vt 0.15625 0.5
vt 0.08995874 0.49084709
vt 0.0625 0.46875
vt 0.15625 0.46875
f 481/481 482/482 483/483 484/484
v 0.95 0.625 0.4375
v 0.92986359 0.625 0.38888641
v 0.88125 0.625 0.36875
v 0.88125 0.625 0.4375
vt 0.25 0.46875
vt 0.22254126 0.49084709
vt 0.15625 0.5
vt 0.15625 0.46875
f 485/485 486/486 487/487 488/488
usemtl dark
v 0.8 0.375 0.51875
v 0.8 0.4375 0.51875
v 0.8 0.4375 0.35625
v 0.8 0.375 0.35625
vt 0.0625 0.0625
vt 0.25 0.0625
vt 0.25 0.25
vt 0.0625 0.25
f 489/489 490/490 491/491 492/492
v 0.9625 0.375 0.35625
v 0.9625 0.4375 0.35625
v 0.9625 0.4375 0.51875
v 0.9625 0.375 0.51875
vt 0.0625 0.25
vt 0.25 0.25
vt 0.25 0.0625
vt 0.0625 0.0625
f 493/493 494/494 495/495 496/496
v 0.8 0.375 0.35625
v 0.9625 0.375 0.35625
v 0.9625 0.375 0.51875
v 0.8 0.375 0.51875
vt 0.0625 0.25
vt 0.25 0.25
vt 0.25 0.0625
vt 0.0625 0.0625
f 497/497 498/498 499/499 500/500
v 0.8 0.4375 0.51875
v 0.9625 0.4375 0.51875
v 0.9625 0.4375 0.35625
v 0.8 0.4375 0.35625
vt 0.0625 0.0625
vt 0.25 0.0625
vt 0.25 0.25
vt 0.0625 0.25
f 501/501 502/502 503/503 504/504
v 0.8 0.4375 0.35625
v 0.9625 0.4375 0.35625
v 0.9625 0.375 0.35625
v 0.8 0.375 0.35625
vt 0.0625 0.0625
vt 0.25 0.0625
vt 0.25 0.25
vt 0.0625 0.25
f 505/505 506/506 507/507 508/508
v 0.8 0.375 0.51875
v 0.9625 0.375 0.51875
v 0.9625 0.4375 0.51875
v 0.8 0.4375 0.51875
vt 0.0625 0.25
vt 0.25 0.25
vt 0.25 0.0625
vt 0.0625 0.0625
f 509/509 510/510 511/511 512/512
usemtl copper
v 0.95 0.625 0.9375
v 0.92986359 0.625 0.98611359
v 0.92986359 0 0.98611359
v 0.95 0 0.9375
vt 0.0625 0.4375
vt 0.25 0.4375
vt 0.25 0.47222222
vt 0.0625 0.47222222
f 513/513 514/514 515/515 516/516
v 0.92986359 0.625 0.98611359
v 0.89633883 0.625 1
v 0.89633883 0 1
v 0.92986359 0 0.98611359
vt 0.0625 0.4375
vt 0.19180318 0.4375
vt 0.19180318 0.47222222
vt 0.0625 0.47222222
f 517/517 518/518 519/519 520/520
v 0.86616117 0.625 1
v 0.83263641 0.625 0.98611359
v 0.83263641 0 0.98611359
v 0.86616117 0 1
vt 0.12069682 0.4375
vt 0.25 0.4375
vt 0.25 0.47222222
vt 0.12069682 0.47222222
f 521/521 522/522 523/523 524/524
v 0.83263641 0.625 0.98611359
v 0.8125 0.625 0.9375
v 0.8125 0 0.9375
v 0.83263641 0 0.98611359
vt 0.0625 0.4375
vt 0.25 0.4375
vt 0.25 0.47222222
vt 0.0625 0.47222222
f 525/525 526/526 527/527 528/528
v 0.8125 0.625 0.9375
v 0.83263641 0.625 0.88888641
v 0.83263641 0 0.88888641
v 0.8125 0 0.9375
vt 0.0625 0.4375
vt 0.25 0.4375
vt 0.25 0.47222222
vt 0.0625 0.47222222
f 529/529 530/530 531/531 532/532
v 0.83263641 0.625 0.88888641
v 0.88125 0.625 0.86875
v 0.88125 0 0.86875
v 0.83263641 0 0.88888641
vt 0.0625 0.4375
vt 0.25 0.4375
vt 0.25 0.47222222
vt 0.0625 0.47222222
f 533/533 534/534 535/535 536/536
v 0.88125 0.625 0.86875
v 0.92986359 0.625 0.88888641
v 0.92986359 0 0.88888641
v 0.88125 0 0.86875
vt 0.0625 0.4375
vt 0.25 0.4375
vt 0.25 0.47222222
vt 0.0625 0.47222222
f 537/537 538/538 539/539 540/540
v 0.92986359 0.625 0.88888641
v 0.95 0.625 0.9375
v 0.95 0 0.9375
v 0.92986359 0 0.88888641
vt 0.0625 0.4375
vt 0.25 0.4375
vt 0.25 0.47222222
vt 0.0625 0.47222222
f 541/541 542/542 543/543 544/544
v 0.89633883 0.625 1
v 0.92986359 0.625 0.98611359
v 0.95 0.625 0.9375
vt 0.17682568 0.44034091
vt 0.22254126 0.44665291
vt 0.25 0.46875
f 545/545 546/546 547/547
v 0.89633883 0.625 1
v 0.95 0.625 0.9375
v 0.88125 0.625 0.9375
vt 0.17682568 0.44034091
vt 0.25 0.46875
vt 0.15625 0.46875
f 548/548 549/549 550/550
v 0.89633883 0.625 1
v 0.88125 0.625 0.9375
v 0.88125 0.625 1
vt 0.17682568 0.44034091
vt 0.15625 0.46875
vt 0.15625 0.44034091
f 551/551 552/552 553/553
v 0.8125 0.625 0.9375
v 0.83263641 0.625 0.98611359
v 0.86616117 0.625 1
vt 0.0625 0.46875
vt 0.08995874 0.44665291
vt 0.13567432 0.44034091
f 554/554 555/555 556/556
v 0.8125 0.625 0.9375
v 0.86616117 0.625 1
v 0.88125 0.625 1
vt 0.0625 0.46875
vt 0.13567432 0.44034091
vt 0.15625 0.44034091
f 557/557 558/558 559/559
v 0.8125 0.625 0.9375
v 0.88125 0.625 1
v 0.88125 0.625 0.9375
vt 0.0625 0.46875
vt 0.15625 0.44034091
vt 0.15625 0.46875
f 560/560 561/561 562/562
v 0.88125 0.625 0.86875
v 0.83263641 0.625 0.88888641
v 0.8125 0.625 0.9375
v 0.88125 0.625 0.9375
vt 0.15625 0.5
vt 0.08995874 0.49084709
vt 0.0625 0.46875
vt 0.15625 0.46875
f 563/563 564/564 565/565 566/566
v 0.95 0.625 0.9375
v 0.92986359 0.625 0.88888641
v 0.88125 0.625 0.86875
v 0.88125 0.625 0.9375
vt 0.25 0.46875
vt 0.22254126 0.49084709
vt 0.15625 0.5
vt 0.15625 0.46875
f 567/567 568/568 569/569 570/570
usemtl dark
v 0.8 0.4375 1
v 0.8 0.4375 0.85625
v 0.8 0.375 0.85625
v 0.8 0.375 1
vt 0.25 0.08413462
vt 0.25 0.25
vt 0.0625 0.25
vt 0.0625 0.08413462
f 571/571 572/572 573/573 574/574
v 0.9625 0.375 0.85625
v 0.9625 0.4375 0.85625
v 0.9625 0.4375 1
v 0.9625 0.375 1
vt 0.0625 0.25
vt 0.25 0.25
vt 0.25 0.08413462
vt 0.0625 0.08413462
f 575/575 576/576 577/577 578/578
v 0.8 0.375 0.85625
v 0.9625 0.375 0.85625
v 0.9625 0.375 1
v 0.8 0.375 1
vt 0.0625 0.25
vt 0.25 0.25
vt 0.25 0.08413462
vt 0.0625 0.08413462
f 579/579 580/580 581/581 582/582
v 0.9625 0.4375 1
v 0.9625 0.4375 0.85625
v 0.8 0.4375 0.85625
v 0.8 0.4375 1
vt 0.25 0.08413462
vt 0.25 0.25
vt 0.0625 0.25
vt 0.0625 0.08413462
f 583/583 584/584 585/585 586/586
v 0.8 0.4375 0.85625
v 0.9625 0.4375 0.85625
v 0.9625 0.375 0.85625
v 0.8 0.375 0.85625
vt 0.0625 0.0625
vt 0.25 0.0625
vt 0.25 0.25
vt 0.0625 0.25
f 587/587 588/588 589/589 590/590
