mtllib homelink_energy:models/hydro.mtl
usemtl dark
v 0 0.125 1
v 0 0.125 0
v 0 0 0
v 0 0 1
vt 0.25 0.15625
vt 0.25 0.25
vt 0.0625 0.25
vt 0.0625 0.15625
f 1/1 2/2 3/3 4/4
v 0 0 0
v 1 0 0
v 1 0 1
v 0 0 1
vt 0.0625 0.25
vt 0.15625 0.25
vt 0.15625 0.15625
vt 0.0625 0.15625
f 5/5 6/6 7/7 8/8
v 1 0.125 0
v 0.1875 0.125 0
v 0.1875 0.125 0.01875
v 1 0.125 0.01875
vt 0.15625 0.25
vt 0.08007813 0.25
vt 0.08007813 0.24824219
vt 0.15625 0.24824219
f 9/9 10/10 11/11 12/12
v 0.0625 0.125 0
v 0 0.125 0
v 0 0.125 0.01875
v 0.0625 0.125 0.01875
vt 0.06835938 0.25
vt 0.0625 0.25
vt 0.0625 0.24824219
vt 0.06835938 0.24824219
f 13/13 14/14 15/15 16/16
v 0.1875 0.125 0.25
v 1 0.125 0.25
v 1 0.125 0.175
v 0.1875 0.125 0.175
vt 0.08007813 0.2265625
vt 0.15625 0.2265625
vt 0.15625 0.23359375
vt 0.08007813 0.23359375
f 17/17 18/18 19/19 20/20
v 1 0.125 0.01875
v 0.1875 0.125 0.01875
v 0.1875 0.125 0.175
v 1 0.125 0.175
vt 0.15625 0.24824219
vt 0.08007813 0.24824219
vt 0.08007813 0.23359375
vt 0.15625 0.23359375
f 21/21 22/22 23/23 24/24
v 0 0.125 0.175
v 0 0.125 0.25
v 0.0625 0.125 0.25
v 0.0625 0.125 0.175
vt 0.0625 0.23359375
vt 0.0625 0.2265625
vt 0.06835938 0.2265625
vt 0.06835938 0.23359375
f 25/25 26/26 27/27 28/28
v 0.01875 0.125 0.01875
v 0 0.125 0.01875
v 0 0.125 0.175
v 0.01875 0.125 0.175
vt 0.06425781 0.24824219
vt 0.0625 0.24824219
vt 0.0625 0.23359375
vt 0.06425781 0.23359375
f 29/29 30/30 31/31 32/32
v 0.1875 0.125 0.25
v 0 0.125 0.25
v 0 0.125 1
v 0.1875 0.125 1
vt 0.08007813 0.2265625
vt 0.0625 0.2265625
vt 0.0625 0.15625
vt 0.08007813 0.15625
f 33/33 34/34 35/35 36/36
v 0 0.125 0
v 1 0.125 0
v 1 0 0
v 0 0 0
vt 0.0625 0.0625
vt 0.15625 0.0625
vt 0.15625 0.25
vt 0.0625 0.25
f 37/37 38/38 39/39 40/40
usemtl body
v 0.1875 0.5 1
v 0.1875 0.5 0.25
v 0.1875 0.125 0.25
v 0.1875 0.125 1
vt 1 0.25
vt 1 1
vt 0 1
vt 0 0.25
f 41/41 42/42 43/43 44/44
v 0.1875 0.125 0.25
v 1 0.125 0.25
v 1 0.125 1
v 0.1875 0.125 1
vt 0 1
vt 0.5 1
vt 0.5 0.25
vt 0 0.25
f 45/45 46/46 47/47 48/48
v 0.1875 0.5 0.25
v 1 0.5 0.25
v 1 0.125 0.25
v 0.1875 0.125 0.25
vt 0 0
vt 0.5 0
vt 0.5 1
vt 0 1
f 49/49 50/50 51/51 52/52
v 0.1875 1 1
v 0.1875 1 0.1875
v 0.1875 0.5 0.1875
v 0.1875 0.5 1
vt 0.42105263 0.23529412
vt 0.42105263 1
vt 0 1
vt 0 0.23529412
f 53/53 54/54 55/55 56/56
v 0.1875 0.5 0.1875
v 1 0.5 0.1875
v 1 0.5 1
v 0.1875 0.5 1
vt 0 1
vt 0.5 1
vt 0.5 0.23529412
vt 0 0.23529412
f 57/57 58/58 59/59 60/60
v 1 0.59375 0.1875
v 0.1875 0.59375 0.1875
v 0.1875 0.65625 0.1875
v 1 0.65625 0.1875
vt 0.5 0.92105263
vt 0 0.92105263
vt 0 0.86842105
vt 0.5 0.86842105
f 61/61 62/62 63/63 64/64
v 1 0.65625 0.1875
v 0.90625 0.65625 0.1875
v 0.90625 0.6875 0.1875
v 1 0.6875 0.1875
vt 0.5 0.86842105
vt 0.44230769 0.86842105
vt 0.44230769 0.84210526
vt 0.5 0.84210526
f 65/65 66/66 67/67 68/68
v 0.28125 0.65625 0.1875
v 0.1875 0.65625 0.1875
v 0.1875 0.6875 0.1875
v 0.28125 0.6875 0.1875
vt 0.05769231 0.86842105
vt 0 0.86842105
vt 0 0.84210526
vt 0.05769231 0.84210526
f 69/69 70/70 71/71 72/72
v 1 0.6875 0.1875
v 0.90625 0.6875 0.1875
v 0.90625 1 0.1875
v 1 1 0.1875
vt 0.5 0.84210526
vt 0.44230769 0.84210526
vt 0.44230769 0.57894737
vt 0.5 0.57894737
f 73/73 74/74 75/75 76/76
v 0.28125 0.6875 0.1875
v 0.1875 0.6875 0.1875
v 0.1875 1 0.1875
v 0.28125 1 0.1875
vt 0.05769231 0.84210526
vt 0 0.84210526
vt 0 0.57894737
vt 0.05769231 0.57894737
f 77/77 78/78 79/79 80/80
usemtl paint
v 0.01875 0.125 0.175
v 0.01875 1 0.175
v 0.01875 1 0.01875
v 0.01875 0.125 0.01875
vt 0 0
vt 0.02966102 0
vt 0.02966102 0.0625
vt 0 0.0625
f 81/81 82/82 83/83 84/84
v 0.175 0.125 0.01875
v 0.175 1 0.01875
v 0.175 1 0.175
v 0.175 0.125 0.175
vt 0 0.0625
vt 0.02966102 0.0625
vt 0.02966102 0
vt 0 0
f 85/85 86/86 87/87 88/88
v 0.01875 0.125 0.01875
v 0.0625 0.125 0.01875
v 0.0625 0.125 0.175
v 0.01875 0.125 0.175
vt 0 0.0625
vt 0.0175 0.0625
vt 0.0175 0
vt 0 0
f 89/89 90/90 91/91 92/92
v 0.175 1 0.01875
v 0.175 0.125 0.01875
v 0.01875 0.125 0.01875
v 0.01875 1 0.01875
vt 0.0625 0.03283898
vt 0.0625 0.0625
vt 0 0.0625
vt 0 0.03283898
f 93/93 94/94 95/95 96/96
v 0.01875 0.125 0.175
v 0.175 0.125 0.175
v 0.175 1 0.175
v 0.01875 1 0.175
vt 0 0.0625
vt 0.0625 0.0625
vt 0.0625 0.03283898
vt 0 0.03283898
f 97/97 98/98 99/99 100/100
usemtl dark
v 0.00625 0.21875 0.1875
v 0.00625 0.3125 0.1875
v 0.00625 0.3125 0.00625
v 0.00625 0.21875 0.00625
vt 0.0625 0.0625
vt 0.25 0.0625
vt 0.25 0.25
vt 0.0625 0.25
f 101/101 102/102 103/103 104/104
v 0.00625 0.21875 0.00625
v 0.1875 0.21875 0.00625
v 0.1875 0.21875 0.1875
v 0.00625 0.21875 0.1875
vt 0.0625 0.25
vt 0.25 0.25
vt 0.25 0.0625
vt 0.0625 0.0625
f 105/105 106/106 107/107 108/108
v 0.00625 0.3125 0.1875
v 0.1875 0.3125 0.1875
v 0.1875 0.3125 0.00625
v 0.00625 0.3125 0.00625
vt 0.0625 0.0625
vt 0.25 0.0625
vt 0.25 0.25
vt 0.0625 0.25
f 109/109 110/110 111/111 112/112
v 0.00625 0.3125 0.00625
v 0.1875 0.3125 0.00625
v 0.1875 0.21875 0.00625
v 0.00625 0.21875 0.00625
vt 0.0625 0.0625
vt 0.25 0.0625
vt 0.25 0.25
vt 0.0625 0.25
f 113/113 114/114 115/115 116/116
v 0.00625 0.21875 0.1875
v 0.1875 0.21875 0.1875
v 0.1875 0.3125 0.1875
v 0.00625 0.3125 0.1875
vt 0.0625 0.25
vt 0.25 0.25
vt 0.25 0.0625
vt 0.0625 0.0625
f 117/117 118/118 119/119 120/120
usemtl paint
v 0.28125 0.65625 0.1875
v 0.28125 1 0.1875
v 0.28125 1 0.10625
v 0.28125 0.65625 0.10625
vt 0 0
vt 0.04141566 0
vt 0.04141566 0.0625
vt 0 0.0625
f 121/121 122/122 123/123 124/124
v 0.90625 0.65625 0.10625
v 0.90625 1 0.10625
v 0.90625 1 0.1875
v 0.90625 0.65625 0.1875
vt 0 0.0625
vt 0.04141566 0.0625
vt 0.04141566 0
vt 0 0
f 125/125 126/126 127/127 128/128
v 0.28125 0.65625 0.10625
v 0.90625 0.65625 0.10625
v 0.90625 0.65625 0.1875
v 0.28125 0.65625 0.1875
vt 0 0.0625
vt 0.0625 0.0625
vt 0.0625 0
vt 0 0
f 129/129 130/130 131/131 132/132
v 0.90625 0.7 0.10625
v 0.90625 0.65625 0.10625
v 0.28125 0.65625 0.10625
v 0.28125 0.7 0.10625
vt 0.0625 0.05722892
vt 0.0625 0.0625
vt 0 0.0625
vt 0 0.05722892
f 133/133 134/134 135/135 136/136
v 0.90625 1 0.10625
v 0.90625 0.7 0.10625
v 0.8625 0.7 0.10625
v 0.8625 1 0.10625
vt 0.0625 0.02108434
vt 0.0625 0.05722892
vt 0.058125 0.05722892
vt 0.058125 0.02108434
f 137/137 138/138 139/139 140/140
v 0.325 0.7 0.10625
v 0.28125 0.7 0.10625
v 0.28125 1 0.10625
v 0.325 1 0.10625
vt 0.004375 0.05722892
vt 0 0.05722892
vt 0 0.02108434
vt 0.004375 0.02108434
f 141/141 142/142 143/143 144/144
v 0.28125 0.65625 0.1875
v 0.90625 0.65625 0.1875
v 0.90625 1 0.1875
v 0.28125 1 0.1875
vt 0 0.0625
vt 0.0625 0.0625
vt 0.0625 0.02108434
vt 0 0.02108434
f 145/145 146/146 147/147 148/148
usemtl body
v 0.325 0.7 0.10625
v 0.325 1 0.10625
v 0.325 1 0.0875
v 0.325 0.7 0.0875
vt 0 0
vt 0.69565217 0
vt 0.69565217 1
vt 0 1
f 149/149 150/150 151/151 152/152
v 0.8625 0.7 0.0875
v 0.8625 1 0.0875
v 0.8625 1 0.10625
v 0.8625 0.7 0.10625
vt 0 1
vt 0.69565217 1
vt 0.69565217 0
vt 0 0
f 153/153 154/154 155/155 156/156
v 0.325 0.7 0.0875
v 0.8625 0.7 0.0875
v 0.8625 0.7 0.10625
v 0.325 0.7 0.10625
vt 0 1
vt 1 1
vt 1 0
vt 0 0
f 157/157 158/158 159/159 160/160
v 0.64739538 0.7 0.0875
v 0.325 0.7 0.0875
v 0.325 0.9125 0.0875
v 0.559375 0.9125 0.0875
vt 0.59980536 1
vt 0 1
vt 0 0.50724638
vt 0.43604651 0.50724638
f 161/161 162/162 163/163 164/164
v 0.8625 0.76680511 0.0875
v 0.8625 0.7 0.0875
v 0.64739538 0.7 0.0875
v 0.5694432 0.8881932 0.0875
vt 1 0.84508961
vt 1 1
vt 0.59980536 1
vt 0.45477805 0.56360996
f 165/165 166/166 167/167 168/168
v 0.8625 0.9125 0.0875
v 0.8625 0.76680511 0.0875
v 0.59375 0.878125 0.0875
v 0.67673859 0.9125 0.0875
vt 1 0.50724638
vt 1 0.84508961
vt 0.5 0.58695652
vt 0.65439738 0.50724638
f 169/169 170/170 171/171 172/172
v 0.628125 0.9125 0.0875
v 0.67673859 0.9125 0.0875
v 0.6180568 0.8881932 0.0875
vt 0.56395349 0.50724638
vt 0.65439738 0.50724638
vt 0.54522195 0.56360996
f 173/173 174/174 175/175
v 0.8625 1 0.0875
v 0.8625 0.9125 0.0875
v 0.628125 0.9125 0.0875
v 0.59188131 1 0.0875
vt 1 0.30434783
vt 1 0.50724638
vt 0.56395349 0.50724638
vt 0.49652337 0.30434783
f 176/176 177/177 178/178 179/179
v 0.59188131 1 0.0875
v 0.6180568 0.9368068 0.0875
v 0.4654949 1 0.0875
vt 0.49652337 0.30434783
vt 0.54522195 0.45088279
vt 0.26138587 0.30434783
f 180/180 181/181 182/182
v 0.51076141 0.9125 0.0875
v 0.325 0.9125 0.0875
v 0.325 1 0.0875
vt 0.34560262 0.50724638
vt 0 0.50724638
vt 0 0.30434783
f 183/183 184/184 185/185
v 0.51076141 0.9125 0.0875
v 0.325 1 0.0875
v 0.4654949 1 0.0875
vt 0.34560262 0.50724638
vt 0 0.30434783
vt 0.26138587 0.30434783
f 186/186 187/187 188/188
v 0.51076141 0.9125 0.0875
v 0.4654949 1 0.0875
v 0.59375 0.946875 0.0875
vt 0.34560262 0.50724638
vt 0.26138587 0.30434783
vt 0.5 0.42753623
f 189/189 190/190 191/191
v 0.559375 0.9125 0.0875
v 0.51076141 0.9125 0.0875
v 0.5694432 0.9368068 0.0875
vt 0.43604651 0.50724638
vt 0.34560262 0.50724638
vt 0.45477805 0.45088279
f 192/192 193/193 194/194
v 0.325 0.7 0.10625
v 0.8625 0.7 0.10625
v 0.8625 1 0.10625
v 0.325 1 0.10625
vt 0 1
vt 1 1
vt 1 0.30434783
vt 0 0.30434783
f 195/195 196/196 197/197 198/198
usemtl copper
v 0.73125 0.9125 0.03125
v 0.71282849 0.98125 0.03125
v 0.71282849 0.98125 0.0625
v 0.73125 0.9125 0.0625
vt 0.0625 0.4375
vt 0.25 0.4375
vt 0.25 0.5
vt 0.0625 0.5
f 199/199 200/200 201/201 202/202
v 0.71282849 0.98125 0.03125
v 0.69407849 1 0.03125
v 0.69407849 1 0.0625
v 0.71282849 0.98125 0.0625
vt 0.0625 0.4375
vt 0.13235357 0.4375
vt 0.13235357 0.5
vt 0.0625 0.5
f 203/203 204/204 205/205 206/206
v 0.49342151 1 0.03125
v 0.47467151 0.98125 0.03125
v 0.47467151 0.98125 0.0625
v 0.49342151 1 0.0625
vt 0.18014643 0.4375
vt 0.25 0.4375
vt 0.25 0.5
vt 0.18014643 0.5
f 207/207 208/208 209/209 210/210
v 0.47467151 0.98125 0.03125
v 0.45625 0.9125 0.03125
v 0.45625 0.9125 0.0625
v 0.47467151 0.98125 0.0625
vt 0.0625 0.4375
vt 0.25 0.4375
vt 0.25 0.5
vt 0.0625 0.5
f 211/211 212/212 213/213 214/214
v 0.45625 0.9125 0.03125
v 0.47467151 0.84375 0.03125
v 0.47467151 0.84375 0.0625
v 0.45625 0.9125 0.0625
vt 0.0625 0.4375
vt 0.25 0.4375
vt 0.25 0.5
vt 0.0625 0.5
f 215/215 216/216 217/217 218/218
v 0.47467151 0.84375 0.03125
v 0.525 0.79342151 0.03125
v 0.525 0.79342151 0.0625
v 0.47467151 0.84375 0.0625
vt 0.0625 0.4375
vt 0.25 0.4375
vt 0.25 0.5
vt 0.0625 0.5
f 219/219 220/220 221/221 222/222
v 0.525 0.79342151 0.03125
v 0.59375 0.775 0.03125
v 0.59375 0.775 0.0625
v 0.525 0.79342151 0.0625
vt 0.0625 0.4375
vt 0.25 0.4375
vt 0.25 0.5
vt 0.0625 0.5
f 223/223 224/224 225/225 226/226
v 0.59375 0.775 0.03125
v 0.6625 0.79342151 0.03125
v 0.6625 0.79342151 0.0625
v 0.59375 0.775 0.0625
vt 0.0625 0.4375
vt 0.25 0.4375
vt 0.25 0.5
vt 0.0625 0.5
f 227/227 228/228 229/229 230/230
v 0.6625 0.79342151 0.03125
v 0.71282849 0.84375 0.03125
v 0.71282849 0.84375 0.0625
v 0.6625 0.79342151 0.0625
vt 0.0625 0.4375
vt 0.25 0.4375
vt 0.25 0.5
vt 0.0625 0.5
f 231/231 232/232 233/233 234/234
v 0.71282849 0.84375 0.03125
v 0.73125 0.9125 0.03125
v 0.73125 0.9125 0.0625
v 0.71282849 0.84375 0.0625
vt 0.0625 0.4375
vt 0.25 0.4375
vt 0.25 0.5
vt 0.0625 0.5
f 235/235 236/236 237/237 238/238
v 0.73125 0.9125 0.0625
v 0.71282849 0.98125 0.0625
v 0.67493988 0.959375 0.0625
v 0.6875 0.9125 0.0625
vt 0.0625 0.4375
vt 0.25 0.4375
vt 0.25 0.5
vt 0.0625 0.5
f 239/239 240/240 241/241 242/242
v 0.71282849 0.98125 0.0625
v 0.69407849 1 0.0625
v 0.64426815 1 0.0625
vt 0.0625 0.4375
vt 0.13235357 0.4375
vt 0.25 0.489591
f 243/243 244/244 245/245
v 0.71282849 0.98125 0.0625
v 0.64426815 1 0.0625
v 0.640625 0.99368988 0.0625
vt 0.0625 0.4375
vt 0.25 0.489591
vt 0.25 0.5
f 246/246 247/247 248/248
v 0.71282849 0.98125 0.0625
v 0.640625 0.99368988 0.0625
v 0.67493988 0.959375 0.0625
vt 0.0625 0.4375
vt 0.25 0.5
vt 0.0625 0.5
f 249/249 250/250 251/251
v 0.61707532 1 0.0625
v 0.640625 0.99368988 0.0625
v 0.64426815 1 0.0625
vt 0.15669873 0.5
vt 0.0625 0.5
vt 0.0625 0.489591
f 252/252 253/253 254/254
v 0.54323185 1 0.0625
v 0.546875 0.99368988 0.0625
v 0.54984346 1 0.0625
vt 0.25 0.489591
vt 0.25 0.5
vt 0.23438413 0.49212182
f 255/255 256/256 257/257
v 0.54984346 1 0.0625
v 0.546875 0.99368988 0.0625
v 0.57042468 1 0.0625
vt 0.23438413 0.49212182
vt 0.25 0.5
vt 0.15580127 0.5
f 258/258 259/259 260/260
v 0.49342151 1 0.0625
v 0.47467151 0.98125 0.0625
v 0.51256012 0.959375 0.0625
vt 0.18014643 0.4375
vt 0.25 0.4375
vt 0.25 0.5
f 261/261 262/262 263/263
v 0.49342151 1 0.0625
v 0.51256012 0.959375 0.0625
v 0.546875 0.99368988 0.0625
vt 0.18014643 0.4375
vt 0.25 0.5
vt 0.0625 0.5
f 264/264 265/265 266/266
v 0.49342151 1 0.0625
v 0.546875 0.99368988 0.0625
v 0.54323185 1 0.0625
vt 0.18014643 0.4375
vt 0.0625 0.5
vt 0.0625 0.489591
f 267/267 268/268 269/269
v 0.47467151 0.98125 0.0625
v 0.45625 0.9125 0.0625
v 0.5 0.9125 0.0625
v 0.51256012 0.959375 0.0625
vt 0.0625 0.4375
vt 0.25 0.4375
vt 0.25 0.5
vt 0.0625 0.5
f 270/270 271/271 272/272 273/273
v 0.45625 0.9125 0.0625
v 0.4704848 0.859375 0.0625
v 0.50837341 0.88125 0.0625
v 0.5 0.9125 0.0625
vt 0.0625 0.4375
vt 0.20738636 0.4375
vt 0.1875 0.5
vt 0.0625 0.5
f 274/274 275/275 276/276 277/277
v 0.4704848 0.859375 0.0625
v 0.47467151 0.84375 0.0625
v 0.48008417 0.846875 0.0625
v 0.47227167 0.86040665 0.0625
vt 0.20738636 0.4375
vt 0.25 0.4375
vt 0.25 0.44642857
vt 0.2064485 0.44044756
f 278/278 279/279 280/280 281/281
v 0.47467151 0.84375 0.0625
v 0.49174682 0.82667468 0.0625
v 0.48008417 0.846875 0.0625
vt 0.0625 0.4375
vt 0.1261145 0.4375
vt 0.0625 0.44642857
f 282/282 283/283 284/284
v 0.49174682 0.82667468 0.0625
v 0.525 0.79342151 0.0625
v 0.546875 0.83131012 0.0625
vt 0.1261145 0.4375
vt 0.25 0.4375
vt 0.25 0.5
f 285/285 286/286 287/287
v 0.49174682 0.82667468 0.0625
v 0.546875 0.83131012 0.0625
v 0.52399841 0.85418671 0.0625
vt 0.1261145 0.4375
vt 0.25 0.5
vt 0.125 0.5
f 288/288 289/289 290/290
v 0.49174682 0.82667468 0.0625
v 0.52399841 0.85418671 0.0625
v 0.48789667 0.83334335 0.0625
vt 0.1261145 0.4375
vt 0.125 0.5
vt 0.10511364 0.44044756
f 291/291 292/292 293/293
v 0.525 0.79342151 0.0625
v 0.59375 0.775 0.0625
v 0.59375 0.81875 0.0625
v 0.546875 0.83131012 0.0625
vt 0.0625 0.4375
vt 0.25 0.4375
vt 0.25 0.5
vt 0.0625 0.5
f 294/294 295/295 296/296 297/297
v 0.59375 0.775 0.0625
v 0.6625 0.79342151 0.0625
v 0.640625 0.83131012 0.0625
v 0.59375 0.81875 0.0625
vt 0.0625 0.4375
vt 0.25 0.4375
vt 0.25 0.5
vt 0.0625 0.5
f 298/298 299/299 300/300 301/301
v 0.6625 0.79342151 0.0625
v 0.7013902 0.83231171 0.0625
v 0.66350159 0.85418671 0.0625
v 0.640625 0.83131012 0.0625
vt 0.0625 0.4375
vt 0.20738636 0.4375
vt 0.1875 0.5
vt 0.0625 0.5
f 302/302 303/303 304/304 305/305
v 0.7013902 0.83231171 0.0625
v 0.71282849 0.84375 0.0625
v 0.70741583 0.846875 0.0625
v 0.69960333 0.83334335 0.0625
vt 0.20738636 0.4375
vt 0.25 0.4375
vt 0.25 0.44642857
vt 0.2064485 0.44044756
f 306/306 307/307 308/308 309/309
v 0.71282849 0.84375 0.0625
v 0.71907849 0.86707532 0.0625
v 0.70741583 0.846875 0.0625
vt 0.0625 0.4375
vt 0.1261145 0.4375
vt 0.0625 0.44642857
f 310/310 311/311 312/312
v 0.71907849 0.86707532 0.0625
v 0.73125 0.9125 0.0625
v 0.6875 0.9125 0.0625
vt 0.1261145 0.4375
vt 0.25 0.4375
vt 0.25 0.5
f 313/313 314/314 315/315
v 0.71907849 0.86707532 0.0625
v 0.6875 0.9125 0.0625
v 0.67912659 0.88125 0.0625
vt 0.1261145 0.4375
vt 0.25 0.5
vt 0.125 0.5
f 316/316 317/317 318/318
v 0.71907849 0.86707532 0.0625
v 0.67912659 0.88125 0.0625
v 0.71522833 0.86040665 0.0625
vt 0.1261145 0.4375
vt 0.125 0.5
vt 0.10511364 0.44044756
f 319/319 320/320 321/321
v 0.6875 0.9125 0.0625
v 0.67493988 0.959375 0.0625
v 0.67493988 0.959375 0.03125
v 0.6875 0.9125 0.03125
vt 0.0625 0.4375
vt 0.25 0.4375
vt 0.25 0.5
vt 0.0625 0.5
f 322/322 323/323 324/324 325/325
v 0.67493988 0.959375 0.0625
v 0.640625 0.99368988 0.0625
v 0.640625 0.99368988 0.03125
v 0.67493988 0.959375 0.03125
vt 0.0625 0.4375
vt 0.25 0.4375
vt 0.25 0.5
vt 0.0625 0.5
f 326/326 327/327 328/328 329/329
v 0.640625 0.99368988 0.0625
v 0.61707532 1 0.0625
v 0.61707532 1 0.03125
v 0.640625 0.99368988 0.03125
vt 0.0625 0.4375
vt 0.15669873 0.4375
vt 0.15669873 0.5
vt 0.0625 0.5
f 330/330 331/331 332/332 333/333
v 0.57042468 1 0.0625
v 0.546875 0.99368988 0.0625
v 0.546875 0.99368988 0.03125
v 0.57042468 1 0.03125
vt 0.15580127 0.4375
vt 0.25 0.4375
vt 0.25 0.5
vt 0.15580127 0.5
f 334/334 335/335 336/336 337/337
v 0.546875 0.99368988 0.0625
v 0.51256012 0.959375 0.0625
v 0.51256012 0.959375 0.03125
v 0.546875 0.99368988 0.03125
vt 0.0625 0.4375
vt 0.25 0.4375
vt 0.25 0.5
vt 0.0625 0.5
f 338/338 339/339 340/340 341/341
v 0.51256012 0.959375 0.0625
v 0.5 0.9125 0.0625
v 0.5 0.9125 0.03125
v 0.51256012 0.959375 0.03125
vt 0.0625 0.4375
vt 0.25 0.4375
vt 0.25 0.5
vt 0.0625 0.5
f 342/342 343/343 344/344 345/345
v 0.5 0.9125 0.0625
v 0.51256012 0.865625 0.0625
v 0.51256012 0.865625 0.03125
v 0.5 0.9125 0.03125
vt 0.0625 0.4375
vt 0.25 0.4375
vt 0.25 0.5
vt 0.0625 0.5
f 346/346 347/347 348/348 349/349
v 0.51256012 0.865625 0.0625
v 0.546875 0.83131012 0.0625
v 0.546875 0.83131012 0.03125
v 0.51256012 0.865625 0.03125
vt 0.0625 0.4375
vt 0.25 0.4375
vt 0.25 0.5
vt 0.0625 0.5
f 350/350 351/351 352/352 353/353
v 0.546875 0.83131012 0.0625
v 0.59375 0.81875 0.0625
v 0.59375 0.81875 0.03125
v 0.546875 0.83131012 0.03125
vt 0.0625 0.4375
vt 0.25 0.4375
vt 0.25 0.5
vt 0.0625 0.5
f 354/354 355/355 356/356 357/357
v 0.59375 0.81875 0.0625
v 0.640625 0.83131012 0.0625
v 0.640625 0.83131012 0.03125
v 0.59375 0.81875 0.03125
vt 0.0625 0.4375
vt 0.25 0.4375
vt 0.25 0.5
vt 0.0625 0.5
f 358/358 359/359 360/360 361/361
v 0.640625 0.83131012 0.0625
v 0.67493988 0.865625 0.0625
v 0.67493988 0.865625 0.03125
v 0.640625 0.83131012 0.03125
vt 0.0625 0.4375
vt 0.25 0.4375
vt 0.25 0.5
vt 0.0625 0.5
f 362/362 363/363 364/364 365/365
v 0.67493988 0.865625 0.0625
v 0.6875 0.9125 0.0625
v 0.6875 0.9125 0.03125
v 0.67493988 0.865625 0.03125
vt 0.0625 0.4375
vt 0.25 0.4375
vt 0.25 0.5
vt 0.0625 0.5
f 366/366 367/367 368/368 369/369
v 0.6875 0.9125 0.03125
v 0.67493988 0.959375 0.03125
v 0.71282849 0.98125 0.03125
v 0.73125 0.9125 0.03125
vt 0.0625 0.4375
vt 0.25 0.4375
vt 0.25 0.5
vt 0.0625 0.5
f 370/370 371/371 372/372 373/373
v 0.67493988 0.959375 0.03125
v 0.640625 0.99368988 0.03125
v 0.64426815 1 0.03125
vt 0.0625 0.4375
vt 0.25 0.4375
vt 0.25 0.447909
f 374/374 375/375 376/376
v 0.67493988 0.959375 0.03125
v 0.64426815 1 0.03125
v 0.69407849 1 0.03125
vt 0.0625 0.4375
vt 0.25 0.447909
vt 0.13235357 0.5
f 377/377 378/378 379/379
v 0.67493988 0.959375 0.03125
v 0.69407849 1 0.03125
v 0.71282849 0.98125 0.03125
vt 0.0625 0.4375
vt 0.13235357 0.5
vt 0.0625 0.5
f 380/380 381/381 382/382
v 0.640625 0.99368988 0.03125
v 0.61707532 1 0.03125
v 0.64426815 1 0.03125
vt 0.0625 0.4375
vt 0.15669873 0.4375
vt 0.0625 0.447909
f 383/383 384/384 385/385
v 0.57042468 1 0.03125
v 0.546875 0.99368988 0.03125
v 0.54323185 1 0.03125
vt 0.15580127 0.4375
vt 0.25 0.4375
vt 0.25 0.447909
f 386/386 387/387 388/388
v 0.546875 0.99368988 0.03125
v 0.51256012 0.959375 0.03125
v 0.47467151 0.98125 0.03125
vt 0.0625 0.4375
vt 0.25 0.4375
vt 0.25 0.5
f 389/389 390/390 391/391
v 0.546875 0.99368988 0.03125
v 0.47467151 0.98125 0.03125
v 0.49342151 1 0.03125
vt 0.0625 0.4375
vt 0.25 0.5
vt 0.18014643 0.5
f 392/392 393/393 394/394
v 0.546875 0.99368988 0.03125
v 0.49342151 1 0.03125
v 0.54323185 1 0.03125
vt 0.0625 0.4375
vt 0.18014643 0.5
vt 0.0625 0.447909
f 395/395 396/396 397/397
v 0.51256012 0.959375 0.03125
v 0.5 0.9125 0.03125
v 0.45625 0.9125 0.03125
v 0.47467151 0.98125 0.03125
vt 0.0625 0.4375
vt 0.25 0.4375
vt 0.25 0.5
vt 0.0625 0.5
f 398/398 399/399 400/400 401/401
v 0.5 0.9125 0.03125
v 0.51256012 0.865625 0.03125
v 0.47467151 0.84375 0.03125
v 0.45625 0.9125 0.03125
vt 0.0625 0.4375
vt 0.25 0.4375
vt 0.25 0.5
vt 0.0625 0.5
f 402/402 403/403 404/404 405/405
v 0.51256012 0.865625 0.03125
v 0.546875 0.83131012 0.03125
v 0.525 0.79342151 0.03125
v 0.47467151 0.84375 0.03125
vt 0.0625 0.4375
vt 0.25 0.4375
vt 0.25 0.5
vt 0.0625 0.5
f 406/406 407/407 408/408 409/409
v 0.546875 0.83131012 0.03125
v 0.59375 0.81875 0.03125
v 0.59375 0.775 0.03125
v 0.525 0.79342151 0.03125
vt 0.0625 0.4375
vt 0.25 0.4375
vt 0.25 0.5
vt 0.0625 0.5
f 410/410 411/411 412/412 413/413
v 0.59375 0.81875 0.03125
v 0.640625 0.83131012 0.03125
v 0.6625 0.79342151 0.03125
v 0.59375 0.775 0.03125
vt 0.0625 0.4375
vt 0.25 0.4375
vt 0.25 0.5
vt 0.0625 0.5
f 414/414 415/415 416/416 417/417
v 0.640625 0.83131012 0.03125
v 0.67493988 0.865625 0.03125
v 0.71282849 0.84375 0.03125
v 0.6625 0.79342151 0.03125
vt 0.0625 0.4375
vt 0.25 0.4375
vt 0.25 0.5
vt 0.0625 0.5
f 418/418 419/419 420/420 421/421
v 0.67493988 0.865625 0.03125
v 0.6875 0.9125 0.03125
v 0.73125 0.9125 0.03125
v 0.71282849 0.84375 0.03125
vt 0.0625 0.4375
vt 0.25 0.4375
vt 0.25 0.5
vt 0.0625 0.5
f 422/422 423/423 424/424 425/425
usemtl dark
v 0.628125 0.9125 0.01875
v 0.6180568 0.9368068 0.01875
v 0.6180568 0.9368068 0.0875
v 0.628125 0.9125 0.0875
vt 0.0625 0.0625
vt 0.25 0.0625
vt 0.25 0.25
vt 0.0625 0.25
f 426/426 427/427 428/428 429/429
v 0.6180568 0.9368068 0.01875
v 0.59375 0.946875 0.01875
v 0.59375 0.946875 0.0875
v 0.6180568 0.9368068 0.0875
vt 0.0625 0.0625
vt 0.25 0.0625
vt 0.25 0.25
vt 0.0625 0.25
f 430/430 431/431 432/432 433/433
v 0.59375 0.946875 0.01875
v 0.5694432 0.9368068 0.01875
v 0.5694432 0.9368068 0.0875
v 0.59375 0.946875 0.0875
vt 0.0625 0.0625
vt 0.25 0.0625
vt 0.25 0.25
vt 0.0625 0.25
f 434/434 435/435 436/436 437/437
v 0.5694432 0.9368068 0.01875
v 0.559375 0.9125 0.01875
v 0.559375 0.9125 0.0875
v 0.5694432 0.9368068 0.0875
vt 0.0625 0.0625
vt 0.25 0.0625
vt 0.25 0.25
vt 0.0625 0.25
f 438/438 439/439 440/440 441/441
v 0.559375 0.9125 0.01875
v 0.5694432 0.8881932 0.01875
v 0.5694432 0.8881932 0.0875
v 0.559375 0.9125 0.0875
vt 0.0625 0.0625
vt 0.25 0.0625
vt 0.25 0.25
vt 0.0625 0.25
f 442/442 443/443 444/444 445/445
v 0.5694432 0.8881932 0.01875
v 0.59375 0.878125 0.01875
v 0.59375 0.878125 0.0875
v 0.5694432 0.8881932 0.0875
vt 0.0625 0.0625
vt 0.25 0.0625
vt 0.25 0.25
vt 0.0625 0.25
f 446/446 447/447 448/448 449/449
v 0.59375 0.878125 0.01875
v 0.6180568 0.8881932 0.01875
v 0.6180568 0.8881932 0.0875
v 0.59375 0.878125 0.0875
vt 0.0625 0.0625
vt 0.25 0.0625
vt 0.25 0.25
vt 0.0625 0.25
f 450/450 451/451 452/452 453/453
v 0.6180568 0.8881932 0.01875
v 0.628125 0.9125 0.01875
v 0.628125 0.9125 0.0875
v 0.6180568 0.8881932 0.0875
vt 0.0625 0.0625
vt 0.25 0.0625
vt 0.25 0.25
vt 0.0625 0.25
f 454/454 455/455 456/456 457/457
v 0.59375 0.946875 0.01875
v 0.6180568 0.9368068 0.01875
v 0.628125 0.9125 0.01875
v 0.59375 0.9125 0.01875
vt 0.15625 0.0625
vt 0.22254126 0.08995874
vt 0.25 0.15625
vt 0.15625 0.15625
f 458/458 459/459 460/460 461/461
v 0.559375 0.9125 0.01875
v 0.5694432 0.9368068 0.01875
v 0.59375 0.946875 0.01875
v 0.59375 0.9125 0.01875
vt 0.0625 0.15625
vt 0.08995874 0.08995874
vt 0.15625 0.0625
vt 0.15625 0.15625
f 462/462 463/463 464/464 465/465
v 0.59375 0.878125 0.01875
v 0.5694432 0.8881932 0.01875
v 0.559375 0.9125 0.01875
v 0.59375 0.9125 0.01875
vt 0.15625 0.25
vt 0.08995874 0.22254126
vt 0.0625 0.15625
vt 0.15625 0.15625
f 466/466 467/467 468/468 469/469
v 0.628125 0.9125 0.01875
v 0.6180568 0.8881932 0.01875
v 0.59375 0.878125 0.01875
v 0.59375 0.9125 0.01875
vt 0.25 0.15625
vt 0.22254126 0.22254126
vt 0.15625 0.25
vt 0.15625 0.15625
f 470/470 471/471 472/472 473/473
v 0.59375 0.9125 0.0875
v 0.628125 0.9125 0.0875
v 0.6180568 0.9368068 0.0875
v 0.59375 0.946875 0.0875
vt 0.15625 0.15625
vt 0.25 0.15625
vt 0.22254126 0.08995874
vt 0.15625 0.0625
f 474/474 475/475 476/476 477/477
v 0.59375 0.9125 0.0875
v 0.59375 0.946875 0.0875
v 0.5694432 0.9368068 0.0875
v 0.559375 0.9125 0.0875
vt 0.15625 0.15625
vt 0.15625 0.0625
vt 0.08995874 0.08995874
vt 0.0625 0.15625
f 478/478 479/479 480/480 481/481
v 0.59375 0.9125 0.0875
v 0.559375 0.9125 0.0875
v 0.5694432 0.8881932 0.0875
v 0.59375 0.878125 0.0875
vt 0.15625 0.15625
vt 0.0625 0.15625
vt 0.08995874 0.22254126
vt 0.15625 0.25
f 482/482 483/483 484/484 485/485
v 0.59375 0.9125 0.0875
v 0.59375 0.878125 0.0875
v 0.6180568 0.8881932 0.0875
v 0.628125 0.9125 0.0875
vt 0.15625 0.15625
vt 0.15625 0.25
vt 0.22254126 0.22254126
vt 0.25 0.15625
f 486/486 487/487 488/488 489/489
usemtl paint
v 0.578125 0.9125 0.0625
v 0.578125 1 0.0625
v 0.578125 1 0.04375
v 0.578125 0.9125 0.04375
vt 0 0
vt 0.04166667 0
vt 0.04166667 0.0625
vt 0 0.0625
f 490/490 491/491 492/492 493/493
v 0.609375 0.9125 0.04375
v 0.609375 1 0.04375
v 0.609375 1 0.0625
v 0.609375 0.9125 0.0625
vt 0 0.0625
vt 0.04166667 0.0625
vt 0.04166667 0
vt 0 0
f 494/494 495/495 496/496 497/497
v 0.578125 0.9125 0.04375
v 0.609375 0.9125 0.04375
v 0.609375 0.9125 0.0625
v 0.578125 0.9125 0.0625
vt 0 0.0625
vt 0.0625 0.0625
vt 0.0625 0
vt 0 0
f 498/498 499/499 500/500 501/501
v 0.609375 1 0.04375
v 0.609375 0.93956329 0.04375
v 0.578125 0.9215211 0.04375
v 0.578125 1 0.04375
vt 0.0625 0.02083333
vt 0.0625 0.04961272
vt 0 0.05820424
vt 0 0.02083333
f 502/502 503/503 504/504 505/505
v 0.609375 0.93956329 0.04375
v 0.59375 0.9125 0.04375
v 0.5859375 0.92603165 0.04375
vt 0.0625 0.04961272
vt 0.03125 0.0625
vt 0.015625 0.05605636
f 506/506 507/507 508/508
v 0.609375 0.93956329 0.04375
v 0.609375 0.9215211 0.04375
v 0.6015625 0.92603165 0.04375
vt 0.0625 0.04961272
vt 0.0625 0.05820424
vt 0.046875 0.05605636
f 509/509 510/510 511/511
v 0.59375 0.9125 0.0625
v 0.609375 0.93956329 0.0625
v 0.609375 1 0.0625
v 0.60416667 1 0.0625
vt 0.03125 0.0625
vt 0.0625 0.04961272
vt 0.0625 0.02083333
vt 0.05208333 0.02083333
f 512/512 513/513 514/514 515/515
v 0.59375 0.9125 0.0625
v 0.60416667 1 0.0625
v 0.58333333 1 0.0625
vt 0.03125 0.0625
vt 0.05208333 0.02083333
vt 0.01041667 0.02083333
f 516/516 517/517 518/518
v 0.59375 0.9125 0.0625
v 0.58333333 1 0.0625
v 0.578125 1 0.0625
v 0.578125 0.93956329 0.0625
vt 0.03125 0.0625
vt 0.01041667 0.02083333
vt 0 0.02083333
vt 0 0.04961272
f 519/519 520/520 521/521 522/522
v 0.609375 0.9215211 0.0625
v 0.609375 0.93956329 0.0625
v 0.6015625 0.92603165 0.0625
vt 0.0625 0.05820424
vt 0.0625 0.04961272
vt 0.046875 0.05605636
f 523/523 524/524 525/525
v 0.5859375 0.92603165 0.0625
v 0.578125 0.93956329 0.0625
v 0.578125 0.9215211 0.0625
vt 0.015625 0.05605636
vt 0 0.04961272
vt 0 0.05820424
f 526/526 527/527 528/528
v 0.6015625 0.89896835 0.0625
v 0.48789667 0.83334335 0.0625
v 0.48789667 0.83334335 0.04375
v 0.6015625 0.89896835 0.04375
vt 0 0
vt 0.0625 0
vt 0.0625 0.0625
vt 0 0.0625
f 529/529 530/530 531/531 532/532
v 0.5859375 0.92603165 0.04375
v 0.47227167 0.86040665 0.04375
v 0.47227167 0.86040665 0.0625
v 0.5859375 0.92603165 0.0625
vt 0 0.0625
vt 0.0625 0.0625
vt 0.0625 0
vt 0 0
f 533/533 534/534 535/535 536/536
v 0.6015625 0.89896835 0.04375
v 0.5859375 0.92603165 0.04375
v 0.5859375 0.92603165 0.0625
v 0.6015625 0.89896835 0.0625
vt 0 0.0625
vt 0.0625 0.0625
vt 0.0625 0
vt 0 0
f 537/537 538/538 539/539 540/540
v 0.48789667 0.83334335 0.0625
v 0.47227167 0.86040665 0.0625
v 0.47227167 0.86040665 0.04375
v 0.48789667 0.83334335 0.04375
vt 0 0
vt 0.0625 0
vt 0.0625 0.0625
vt 0 0.0625
f 541/541 542/542 543/543 544/544
v 0.48789667 0.83334335 0.04375
v 0.47227167 0.86040665 0.04375
v 0.5625 0.9125 0.04375
v 0.59375 0.8944578 0.04375
vt 0 0
vt 0.0625 0
vt 0.0625 0.04961272
vt 0 0.05820424
f 545/545 546/546 547/547 548/548
v 0.5625 0.9125 0.04375
v 0.5859375 0.92603165 0.04375
v 0.59375 0.9125 0.04375
v 0.5859375 0.89896835 0.04375
vt 0.0625 0.04961272
vt 0.0625 0.0625
vt 0.03125 0.0625
vt 0.015625 0.05605636
f 549/549 550/550 551/551 552/552
v 0.59375 0.9125 0.0625
v 0.5859375 0.92603165 0.0625
v 0.47227167 0.86040665 0.0625
vt 0.03125 0.0625
vt 0.0625 0.0625
vt 0.0625 0
f 553/553 554/554 555/555
v 0.59375 0.9125 0.0625
v 0.47227167 0.86040665 0.0625
v 0.48789667 0.83334335 0.0625
vt 0.03125 0.0625
vt 0.0625 0
vt 0 0
f 556/556 557/557 558/558
v 0.59375 0.9125 0.0625
v 0.48789667 0.83334335 0.0625
v 0.578125 0.88543671 0.0625
vt 0.03125 0.0625
vt 0 0
vt 0 0.04961272
f 559/559 560/560 561/561
v 0.5859375 0.89896835 0.0625
v 0.578125 0.88543671 0.0625
v 0.59375 0.8944578 0.0625
vt 0.015625 0.05605636
vt 0 0.04961272
vt 0 0.05820424
f 562/562 563/563 564/564
v 0.6015625 0.92603165 0.0625
v 0.71522833 0.86040665 0.0625
v 0.71522833 0.86040665 0.04375
v 0.6015625 0.92603165 0.04375
vt 0 0
vt 0.0625 0
vt 0.0625 0.0625
vt 0 0.0625
f 565/565 566/566 567/567 568/568
v 0.5859375 0.89896835 0.04375
v 0.69960333 0.83334335 0.04375
v 0.69960333 0.83334335 0.0625
v 0.5859375 0.89896835 0.0625
vt 0 0.0625
vt 0.0625 0.0625
vt 0.0625 0
vt 0 0
f 569/569 570/570 571/571 572/572
v 0.6015625 0.92603165 0.04375
v 0.5859375 0.89896835 0.04375
v 0.5859375 0.89896835 0.0625
v 0.6015625 0.92603165 0.0625
vt 0 0.0625
vt 0.0625 0.0625
vt 0.0625 0
vt 0 0
f 573/573 574/574 575/575 576/576
v 0.71522833 0.86040665 0.0625
v 0.69960333 0.83334335 0.0625
v 0.69960333 0.83334335 0.04375
v 0.71522833 0.86040665 0.04375
vt 0 0
vt 0.0625 0
vt 0.0625 0.0625
vt 0 0.0625
f 577/577 578/578 579/579 580/580
v 0.71522833 0.86040665 0.04375
v 0.69960333 0.83334335 0.04375
v 0.5859375 0.89896835 0.04375
v 0.6015625 0.92603165 0.04375
vt 0 0
vt 0.0625 0
vt 0.0625 0.0625
vt 0 0.0625
f 581/581 582/582 583/583 584/584
v 0.6015625 0.92603165 0.0625
v 0.5859375 0.89896835 0.0625
v 0.69960333 0.83334335 0.0625
v 0.71522833 0.86040665 0.0625
vt 0 0.0625
vt 0.0625 0.0625
vt 0.0625 0
vt 0 0
f 585/585 586/586 587/587 588/588
usemtl copper
v 0.29375 0.625 0.05
v 0.28093592 0.65593592 0.05
v 0.28093592 0.65593592 0.175
v 0.29375 0.625 0.175
vt 0.0625 0.4375
vt 0.25 0.4375
vt 0.25 0.5
vt 0.0625 0.5
f 589/589 590/590 591/591 592/592
v 0.28093592 0.65593592 0.05
v 0.25 0.66875 0.05
v 0.25 0.66875 0.175
v 0.28093592 0.65593592 0.175
vt 0.0625 0.4375
vt 0.25 0.4375
vt 0.25 0.5
vt 0.0625 0.5
f 593/593 594/594 595/595 596/596
v 0.25 0.66875 0.05
v 0.21906408 0.65593592 0.05
v 0.21906408 0.65593592 0.175
v 0.25 0.66875 0.175
vt 0.0625 0.4375
vt 0.25 0.4375
vt 0.25 0.5
vt 0.0625 0.5
f 597/597 598/598 599/599 600/600
v 0.21906408 0.65593592 0.05
v 0.20625 0.625 0.05
v 0.20625 0.625 0.175
v 0.21906408 0.65593592 0.175
vt 0.0625 0.4375
vt 0.25 0.4375
vt 0.25 0.5
vt 0.0625 0.5
f 601/601 602/602 603/603 604/604
v 0.20625 0.625 0.05
v 0.21906408 0.59406408 0.05
v 0.21906408 0.59406408 0.175
v 0.20625 0.625 0.175
vt 0.0625 0.4375
vt 0.25 0.4375
vt 0.25 0.5
vt 0.0625 0.5
f 605/605 606/606 607/607 608/608
v 0.21906408 0.59406408 0.05
v 0.25 0.58125 0.05
v 0.25 0.58125 0.175
v 0.21906408 0.59406408 0.175
vt 0.0625 0.4375
vt 0.25 0.4375
vt 0.25 0.5
vt 0.0625 0.5
f 609/609 610/610 611/611 612/612
v 0.25 0.58125 0.05
v 0.28093592 0.59406408 0.05
v 0.28093592 0.59406408 0.175
v 0.25 0.58125 0.175
vt 0.0625 0.4375
vt 0.25 0.4375
vt 0.25 0.5
vt 0.0625 0.5
f 613/613 614/614 615/615 616/616
v 0.28093592 0.59406408 0.05
v 0.29375 0.625 0.05
v 0.29375 0.625 0.175
v 0.28093592 0.59406408 0.175
vt 0.0625 0.4375
vt 0.25 0.4375
vt 0.25 0.5
vt 0.0625 0.5
f 617/617 618/618 619/619 620/620
v 0.25 0.66875 0.05
v 0.28093592 0.65593592 0.05
v 0.29375 0.625 0.05
v 0.25 0.625 0.05
vt 0.15625 0.4375
vt 0.22254126 0.44665291
vt 0.25 0.46875
vt 0.15625 0.46875
f 621/621 622/622 623/623 624/624
v 0.20625 0.625 0.05
v 0.21906408 0.65593592 0.05
v 0.25 0.66875 0.05
v 0.25 0.625 0.05
vt 0.0625 0.46875
vt 0.08995874 0.44665291
vt 0.15625 0.4375
vt 0.15625 0.46875
f 625/625 626/626 627/627 628/628
v 0.25 0.58125 0.05
v 0.21906408 0.59406408 0.05
v 0.20625 0.625 0.05
v 0.25 0.625 0.05
vt 0.15625 0.5
vt 0.08995874 0.49084709
vt 0.0625 0.46875
vt 0.15625 0.46875
f 629/629 630/630 631/631 632/632
v 0.29375 0.625 0.05
v 0.28093592 0.59406408 0.05
v 0.25 0.58125 0.05
v 0.25 0.625 0.05
vt 0.25 0.46875
vt 0.22254126 0.49084709
vt 0.15625 0.5
vt 0.15625 0.46875
f 633/633 634/634 635/635 636/636
v 0.25 0.625 0.175
v 0.29375 0.625 0.175
v 0.28093592 0.65593592 0.175
v 0.25 0.66875 0.175
vt 0.15625 0.46875
vt 0.25 0.46875
vt 0.22254126 0.44665291
vt 0.15625 0.4375
f 637/637 638/638 639/639 640/640
v 0.25 0.625 0.175
v 0.25 0.66875 0.175
v 0.21906408 0.65593592 0.175
v 0.20625 0.625 0.175
vt 0.15625 0.46875
vt 0.15625 0.4375
vt 0.08995874 0.44665291
vt 0.0625 0.46875
f 641/641 642/642 643/643 644/644
v 0.25 0.625 0.175
v 0.20625 0.625 0.175
v 0.21906408 0.59406408 0.175
v 0.25 0.58125 0.175
vt 0.15625 0.46875
vt 0.0625 0.46875
vt 0.08995874 0.49084709
vt 0.15625 0.5
f 645/645 646/646 647/647 648/648
v 0.25 0.625 0.175
v 0.25 0.58125 0.175
v 0.28093592 0.59406408 0.175
v 0.29375 0.625 0.175
vt 0.15625 0.46875
vt 0.15625 0.5
vt 0.22254126 0.49084709
vt 0.25 0.46875
f 649/649 650/650 651/651 652/652
v 0.16736359 1 0.48611359
v 0.16736359 0.5 0.48611359
v 0.1875 0.5 0.4375
v 0.1875 1 0.4375
vt 0.25 0.47222222
vt 0.25 0.5
vt 0.0625 0.5
vt 0.0625 0.47222222
f 653/653 654/654 655/655 656/656
v 0.11875 1 0.50625
v 0.11875 0.5 0.50625
v 0.16736359 0.5 0.48611359
v 0.16736359 1 0.48611359
vt 0.25 0.47222222
vt 0.25 0.5
vt 0.0625 0.5
vt 0.0625 0.47222222
f 657/657 658/658 659/659 660/660
v 0.07013641 1 0.48611359
v 0.07013641 0.5 0.48611359
v 0.11875 0.5 0.50625
v 0.11875 1 0.50625
vt 0.25 0.47222222
vt 0.25 0.5
vt 0.0625 0.5
vt 0.0625 0.47222222
f 661/661 662/662 663/663 664/664
v 0.05 1 0.4375
v 0.05 0.5 0.4375
v 0.07013641 0.5 0.48611359
v 0.07013641 1 0.48611359
vt 0.25 0.47222222
vt 0.25 0.5
vt 0.0625 0.5
vt 0.0625 0.47222222
f 665/665 666/666 667/667 668/668
v 0.07013641 1 0.38888641
v 0.07013641 0.5 0.38888641
v 0.05 0.5 0.4375
v 0.05 1 0.4375
vt 0.25 0.47222222
vt 0.25 0.5
vt 0.0625 0.5
vt 0.0625 0.47222222
f 669/669 670/670 671/671 672/672
v 0.11875 1 0.36875
v 0.11875 0.5 0.36875
v 0.07013641 0.5 0.38888641
v 0.07013641 1 0.38888641
vt 0.25 0.47222222
vt 0.25 0.5
vt 0.0625 0.5
vt 0.0625 0.47222222
f 673/673 674/674 675/675 676/676
v 0.16736359 1 0.38888641
v 0.16736359 0.5 0.38888641
v 0.11875 0.5 0.36875
v 0.11875 1 0.36875
vt 0.25 0.47222222
vt 0.25 0.5
vt 0.0625 0.5
vt 0.0625 0.47222222
f 677/677 678/678 679/679 680/680
v 0.1875 1 0.4375
v 0.1875 0.5 0.4375
v 0.16736359 0.5 0.38888641
v 0.16736359 1 0.38888641
vt 0.25 0.47222222
vt 0.25 0.5
vt 0.0625 0.5
vt 0.0625 0.47222222
f 681/681 682/682 683/683 684/684
v 0.11875 0.5 0.4375
v 0.1875 0.5 0.4375
v 0.16736359 0.5 0.48611359
v 0.11875 0.5 0.50625
vt 0.15625 0.46875
vt 0.25 0.46875
vt 0.22254126 0.44665291
vt 0.15625 0.4375
f 685/685 686/686 687/687 688/688
v 0.11875 0.5 0.4375
v 0.11875 0.5 0.50625
v 0.07013641 0.5 0.48611359
v 0.05 0.5 0.4375
vt 0.15625 0.46875
vt 0.15625 0.4375
vt 0.08995874 0.44665291
vt 0.0625 0.46875
f 689/689 690/690 691/691 692/692
v 0.11875 0.5 0.4375
v 0.05 0.5 0.4375
v 0.07013641 0.5 0.38888641
v 0.11875 0.5 0.36875
vt 0.15625 0.46875
vt 0.0625 0.46875
vt 0.08995874 0.49084709
vt 0.15625 0.5
f 693/693 694/694 695/695 696/696
v 0.11875 0.5 0.4375
v 0.11875 0.5 0.36875
v 0.16736359 0.5 0.38888641
v 0.1875 0.5 0.4375
vt 0.15625 0.46875
vt 0.15625 0.5
vt 0.22254126 0.49084709
vt 0.25 0.46875
f 697/697 698/698 699/699 700/700
usemtl dark
v 0.0375 0.625 0.51875
v 0.0375 0.6875 0.51875
v 0.0375 0.6875 0.35625
v 0.0375 0.625 0.35625
vt 0.0625 0.0625
vt 0.25 0.0625
vt 0.25 0.25
vt 0.0625 0.25
f 701/701 702/702 703/703 704/704
v 0.2 0.625 0.35625
v 0.2 0.6875 0.35625
v 0.2 0.6875 0.51875
v 0.2 0.625 0.51875
vt 0.0625 0.25
vt 0.25 0.25
vt 0.25 0.0625
vt 0.0625 0.0625
f 705/705 706/706 707/707 708/708
v 0.0375 0.625 0.35625
v 0.2 0.625 0.35625
v 0.2 0.625 0.51875
v 0.0375 0.625 0.51875
vt 0.0625 0.25
vt 0.25 0.25
vt 0.25 0.0625
vt 0.0625 0.0625
f 709/709 710/710 711/711 712/712
v 0.0375 0.6875 0.51875
v 0.2 0.6875 0.51875
v 0.2 0.6875 0.35625
v 0.0375 0.6875 0.35625
vt 0.0625 0.0625
vt 0.25 0.0625
vt 0.25 0.25
vt 0.0625 0.25
f 713/713 714/714 715/715 716/716
v 0.0375 0.6875 0.35625
v 0.2 0.6875 0.35625
v 0.2 0.625 0.35625
v 0.0375 0.625 0.35625
vt 0.0625 0.0625
vt 0.25 0.0625
vt 0.25 0.25
vt 0.0625 0.25
f 717/717 718/718 719/719 720/720
v 0.0375 0.625 0.51875
v 0.2 0.625 0.51875
v 0.2 0.6875 0.51875
v 0.0375 0.6875 0.51875
vt 0.0625 0.25
vt 0.25 0.25
vt 0.25 0.0625
vt 0.0625 0.0625
f 721/721 722/722 723/723 724/724
usemtl copper
v 0.16736359 1 0.98611359
v 0.16736359 0.5 0.98611359
v 0.1875 0.5 0.9375
v 0.1875 1 0.9375
vt 0.25 0.47222222
vt 0.25 0.5
vt 0.0625 0.5
vt 0.0625 0.47222222
f 725/725 726/726 727/727 728/728
v 0.13383883 0.5 1
v 0.16736359 0.5 0.98611359
v 0.16736359 1 0.98611359
v 0.13383883 1 1
vt 0.19180318 0.5
vt 0.0625 0.5
vt 0.0625 0.47222222
vt 0.19180318 0.47222222
f 729/729 730/730 731/731 732/732
v 0.07013641 1 0.98611359
v 0.07013641 0.5 0.98611359
v 0.10366117 0.5 1
v 0.10366117 1 1
vt 0.25 0.47222222
vt 0.25 0.5
vt 0.12069682 0.5
vt 0.12069682 0.47222222
f 733/733 734/734 735/735 736/736
v 0.05 1 0.9375
v 0.05 0.5 0.9375
v 0.07013641 0.5 0.98611359
v 0.07013641 1 0.98611359
vt 0.25 0.47222222
vt 0.25 0.5
vt 0.0625 0.5
vt 0.0625 0.47222222
f 737/737 738/738 739/739 740/740
v 0.07013641 1 0.88888641
v 0.07013641 0.5 0.88888641
v 0.05 0.5 0.9375
v 0.05 1 0.9375
vt 0.25 0.47222222
vt 0.25 0.5
vt 0.0625 0.5
vt 0.0625 0.47222222
f 741/741 742/742 743/743 744/744
v 0.11875 1 0.86875
v 0.11875 0.5 0.86875
v 0.07013641 0.5 0.88888641
v 0.07013641 1 0.88888641
vt 0.25 0.47222222
vt 0.25 0.5
vt 0.0625 0.5
vt 0.0625 0.47222222
f 745/745 746/746 747/747 748/748
v 0.16736359 1 0.88888641
v 0.16736359 0.5 0.88888641
v 0.11875 0.5 0.86875
v 0.11875 1 0.86875
vt 0.25 0.47222222
vt 0.25 0.5
vt 0.0625 0.5
vt 0.0625 0.47222222
f 749/749 750/750 751/751 752/752
v 0.1875 1 0.9375
v 0.1875 0.5 0.9375
v 0.16736359 0.5 0.88888641
v 0.16736359 1 0.88888641
vt 0.25 0.47222222
vt 0.25 0.5
vt 0.0625 0.5
vt 0.0625 0.47222222
f 753/753 754/754 755/755 756/756
v 0.11875 0.5 0.9375
v 0.1875 0.5 0.9375
v 0.16736359 0.5 0.98611359
vt 0.15625 0.46875
vt 0.25 0.46875
vt 0.22254126 0.44665291
f 757/757 758/758 759/759
v 0.11875 0.5 0.9375
v 0.16736359 0.5 0.98611359
v 0.13383883 0.5 1
vt 0.15625 0.46875
vt 0.22254126 0.44665291
vt 0.17682568 0.44034091
f 760/760 761/761 762/762
v 0.11875 0.5 0.9375
v 0.13383883 0.5 1
v 0.11875 0.5 1
vt 0.15625 0.46875
vt 0.17682568 0.44034091
vt 0.15625 0.44034091
f 763/763 764/764 765/765
v 0.11875 0.5 0.9375
v 0.11875 0.5 1
v 0.10366117 0.5 1
vt 0.15625 0.46875
vt 0.15625 0.44034091
vt 0.13567432 0.44034091
f 766/766 767/767 768/768
v 0.11875 0.5 0.9375
v 0.10366117 0.5 1
v 0.07013641 0.5 0.98611359
vt 0.15625 0.46875
vt 0.13567432 0.44034091
vt 0.08995874 0.44665291
f 769/769 770/770 771/771
v 0.11875 0.5 0.9375
v 0.07013641 0.5 0.98611359
v 0.05 0.5 0.9375
vt 0.15625 0.46875
vt 0.08995874 0.44665291
vt 0.0625 0.46875
f 772/772 773/773 774/774
v 0.11875 0.5 0.9375
v 0.05 0.5 0.9375
v 0.07013641 0.5 0.88888641
v 0.11875 0.5 0.86875
vt 0.15625 0.46875
vt 0.0625 0.46875
vt 0.08995874 0.49084709
vt 0.15625 0.5
f 775/775 776/776 777/777 778/778
v 0.11875 0.5 0.9375
v 0.11875 0.5 0.86875
v 0.16736359 0.5 0.88888641
v 0.1875 0.5 0.9375
vt 0.15625 0.46875
vt 0.15625 0.5
vt 0.22254126 0.49084709
vt 0.25 0.46875
f 779/779 780/780 781/781 782/782
usemtl dark
v 0.0375 0.6875 1
v 0.0375 0.6875 0.85625
v 0.0375 0.625 0.85625
v 0.0375 0.625 1
vt 0.25 0.08413462
vt 0.25 0.25
vt 0.0625 0.25
vt 0.0625 0.08413462
f 783/783 784/784 785/785 786/786
v 0.2 0.625 0.85625
v 0.2 0.6875 0.85625
v 0.2 0.6875 1
v 0.2 0.625 1
vt 0.0625 0.25
vt 0.25 0.25
vt 0.25 0.08413462
vt 0.0625 0.08413462
f 787/787 788/788 789/789 790/790
v 0.0375 0.625 0.85625
v 0.2 0.625 0.85625
v 0.2 0.625 1
v 0.0375 0.625 1
vt 0.0625 0.25
vt 0.25 0.25
vt 0.25 0.08413462
vt 0.0625 0.08413462
f 791/791 792/792 793/793 794/794
v 0.2 0.6875 1
v 0.2 0.6875 0.85625
v 0.0375 0.6875 0.85625
v 0.0375 0.6875 1
vt 0.25 0.08413462
vt 0.25 0.25
vt 0.0625 0.25
vt 0.0625 0.08413462
f 795/795 796/796 797/797 798/798
v 0.0375 0.6875 0.85625
v 0.2 0.6875 0.85625
v 0.2 0.625 0.85625
v 0.0375 0.625 0.85625
vt 0.0625 0.0625
vt 0.25 0.0625
vt 0.25 0.25
vt 0.0625 0.25
f 799/799 800/800 801/801 802/802
usemtl body
v 0.0625 0.125 0.25
v 0.0625 0.5 0.25
v 0.0625 0.5 0
v 0.0625 0.125 0
vt 0 0
vt 1 0
vt 1 1
vt 0 1
f 803/803 804/804 805/805 806/806
v 0.1875 0.125 0
v 0.1875 0.5 0
v 0.1875 0.5 0.25
v 0.1875 0.125 0.25
vt 0 1
vt 1 1
vt 1 0
vt 0 0
f 807/807 808/808 809/809 810/810
v 0.0625 0.125 0
v 0.1875 0.125 0
v 0.1875 0.125 0.25
v 0.0625 0.125 0.25
vt 0 1
vt 1 1
vt 1 0
vt 0 0
f 811/811 812/812 813/813 814/814
v 0.0625 0.5 0.25
v 0.1875 0.5 0.25
v 0.1875 0.5 0.1875
v 0.0625 0.5 0.1875
vt 0 0
vt 1 0
vt 1 0.25
vt 0 0.25
f 815/815 816/816 817/817 818/818
v 0.0625 0.5 0
v 0.1875 0.5 0
v 0.1875 0.125 0
v 0.0625 0.125 0
vt 0 0
vt 1 0
vt 1 1
vt 0 1
f 819/819 820/820 821/821 822/822
v 0.0625 0.125 0.25
v 0.1875 0.125 0.25
v 0.1875 0.5 0.25
v 0.0625 0.5 0.25
vt 0 1
vt 1 1
vt 1 0
vt 0 0
f 823/823 824/824 825/825 826/826
usemtl dark
v 0.0625 0.5 0.1875
v 0.0625 0.59375 0.1875
v 0.0625 0.59375 0
v 0.0625 0.5 0
vt 0.0625 0.0625
vt 0.25 0.0625
vt 0.25 0.25
vt 0.0625 0.25
f 827/827 828/828 829/829 830/830
v 0.0625 0.5 0
v 1 0.5 0
v 1 0.5 0.1875
v 0.0625 0.5 0.1875
vt 0.0625 0.25
vt 0.15625 0.25
vt 0.15625 0.0625
vt 0.0625 0.0625
f 831/831 832/832 833/833 834/834
v 0.0625 0.59375 0.1875
v 1 0.59375 0.1875
v 1 0.59375 0
v 0.0625 0.59375 0
vt 0.0625 0.0625
vt 0.15625 0.0625
vt 0.15625 0.25
vt 0.0625 0.25
f 835/835 836/836 837/837 838/838
v 0.0625 0.59375 0
v 1 0.59375 0
v 1 0.575 0
v 0.0625 0.575 0
vt 0.0625 0.0625
vt 0.15625 0.0625
vt 0.15625 0.1
vt 0.0625 0.1
f 839/839 840/840 841/841 842/842
v 1 0.5 0
v 0.8125 0.5 0
v 0.8125 0.5125 0
v 1 0.5125 0
vt 0.15625 0.25
vt 0.1375 0.25
vt 0.1375 0.225
vt 0.15625 0.225
f 843/843 844/844 845/845 846/846
v 0.8125 0.5125 0
v 0.8125 0.575 0
v 0.9375 0.575 0
v 0.9375 0.5125 0
vt 0.1375 0.225
vt 0.1375 0.1
vt 0.15 0.1
vt 0.15 0.225
f 847/847 848/848 849/849 850/850
v 0.8125 0.5 0
v 0.5625 0.5 0
v 0.5625 0.5125 0
v 0.8125 0.5125 0
vt 0.1375 0.25
vt 0.1125 0.25
vt 0.1125 0.225
vt 0.1375 0.225
f 851/851 852/852 853/853 854/854
v 0.5625 0.5125 0
v 0.5625 0.575 0
v 0.6875 0.575 0
v 0.6875 0.5125 0
vt 0.1125 0.225
vt 0.1125 0.1
vt 0.125 0.1
vt 0.125 0.225
f 855/855 856/856 857/857 858/858
v 0.5625 0.5 0
v 0.3125 0.5 0
v 0.3125 0.5125 0
v 0.5625 0.5125 0
vt 0.1125 0.25
vt 0.0875 0.25
vt 0.0875 0.225
vt 0.1125 0.225
f 859/859 860/860 861/861 862/862
v 0.3125 0.5125 0
v 0.3125 0.575 0
v 0.4375 0.575 0
v 0.4375 0.5125 0
vt 0.0875 0.225
vt 0.0875 0.1
vt 0.1 0.1
vt 0.1 0.225
f 863/863 864/864 865/865 866/866
v 0.3125 0.5 0
v 0.0625 0.5 0
v 0.0625 0.5125 0
v 0.3125 0.5125 0
vt 0.0875 0.25
vt 0.0625 0.25
vt 0.0625 0.225
vt 0.0875 0.225
f 867/867 868/868 869/869 870/870
v 0.0625 0.5125 0
v 0.0625 0.575 0
v 0.1875 0.575 0
v 0.1875 0.5125 0
vt 0.0625 0.225
vt 0.0625 0.1
vt 0.075 0.1
vt 0.075 0.225
f 871/871 872/872 873/873 874/874
v 0.0625 0.5 0.1875
v 1 0.5 0.1875
v 1 0.59375 0.1875
v 0.0625 0.59375 0.1875
vt 0.0625 0.25
vt 0.15625 0.25
vt 0.15625 0.0625
vt 0.0625 0.0625
f 875/875 876/876 877/877 878/878
usemtl copper
v 0.1875 0.5125 0.015625
v 0.1875 0.575 0.015625
v 0.1875 0.575 0
v 0.1875 0.5125 0
vt 0.0625 0.4375
vt 0.25 0.4375
vt 0.25 0.5
vt 0.0625 0.5
f 879/879 880/880 881/881 882/882
v 0.3125 0.5125 0
v 0.3125 0.575 0
v 0.3125 0.575 0.015625
v 0.3125 0.5125 0.015625
vt 0.0625 0.5
vt 0.25 0.5
vt 0.25 0.4375
vt 0.0625 0.4375
f 883/883 884/884 885/885 886/886
v 0.1875 0.5125 0
v 0.3125 0.5125 0
v 0.3125 0.5125 0.015625
v 0.1875 0.5125 0.015625
vt 0.0625 0.5
vt 0.25 0.5
vt 0.25 0.4375
vt 0.0625 0.4375
f 887/887 888/888 889/889 890/890
v 0.1875 0.575 0.015625
v 0.3125 0.575 0.015625
v 0.3125 0.575 0
v 0.1875 0.575 0
vt 0.0625 0.4375
vt 0.25 0.4375
vt 0.25 0.5
vt 0.0625 0.5
f 891/891 892/892 893/893 894/894
v 0.1875 0.575 0
v 0.3125 0.575 0
v 0.3125 0.5125 0
v 0.1875 0.5125 0
vt 0.0625 0.4375
vt 0.25 0.4375
vt 0.25 0.5
vt 0.0625 0.5
f 895/895 896/896 897/897 898/898
v 0.1875 0.5125 0.015625
v 0.3125 0.5125 0.015625
v 0.3125 0.575 0.015625
v 0.1875 0.575 0.015625
vt 0.0625 0.5
vt 0.25 0.5
vt 0.25 0.4375
vt 0.0625 0.4375
f 899/899 900/900 901/901 902/902
v 0.4375 0.5125 0.015625
v 0.4375 0.575 0.015625
v 0.4375 0.575 0
v 0.4375 0.5125 0
vt 0.0625 0.4375
vt 0.25 0.4375
vt 0.25 0.5
vt 0.0625 0.5
f 903/903 904/904 905/905 906/906
v 0.5625 0.5125 0
v 0.5625 0.575 0
v 0.5625 0.575 0.015625
v 0.5625 0.5125 0.015625
vt 0.0625 0.5
vt 0.25 0.5
vt 0.25 0.4375
vt 0.0625 0.4375
f 907/907 908/908 909/909 910/910
v 0.4375 0.5125 0
v 0.5625 0.5125 0
v 0.5625 0.5125 0.015625
v 0.4375 0.5125 0.015625
vt 0.0625 0.5
vt 0.25 0.5
vt 0.25 0.4375
vt 0.0625 0.4375
f 911/911 912/912 913/913 914/914
v 0.4375 0.575 0.015625
v 0.5625 0.575 0.015625
v 0.5625 0.575 0
v 0.4375 0.575 0
vt 0.0625 0.4375
vt 0.25 0.4375
vt 0.25 0.5
vt 0.0625 0.5
f 915/915 916/916 917/917 918/918
v 0.4375 0.575 0
v 0.5625 0.575 0
v 0.5625 0.5125 0
v 0.4375 0.5125 0
vt 0.0625 0.4375
vt 0.25 0.4375
vt 0.25 0.5
vt 0.0625 0.5
f 919/919 920/920 921/921 922/922
v 0.4375 0.5125 0.015625
v 0.5625 0.5125 0.015625
v 0.5625 0.575 0.015625
v 0.4375 0.575 0.015625
vt 0.0625 0.5
vt 0.25 0.5
vt 0.25 0.4375
vt 0.0625 0.4375
f 923/923 924/924 925/925 926/926
v 0.6875 0.5125 0.015625
v 0.6875 0.575 0.015625
v 0.6875 0.575 0
v 0.6875 0.5125 0
vt 0.0625 0.4375
vt 0.25 0.4375
vt 0.25 0.5
vt 0.0625 0.5
f 927/927 928/928 929/929 930/930
v 0.8125 0.5125 0
v 0.8125 0.575 0
v 0.8125 0.575 0.015625
v 0.8125 0.5125 0.015625
vt 0.0625 0.5
vt 0.25 0.5
vt 0.25 0.4375
vt 0.0625 0.4375
f 931/931 932/932 933/933 934/934
v 0.6875 0.5125 0
v 0.8125 0.5125 0
v 0.8125 0.5125 0.015625
v 0.6875 0.5125 0.015625
vt 0.0625 0.5
vt 0.25 0.5
vt 0.25 0.4375
vt 0.0625 0.4375
f 935/935 936/936 937/937 938/938
v 0.6875 0.575 0.015625
v 0.8125 0.575 0.015625
v 0.8125 0.575 0
v 0.6875 0.575 0
vt 0.0625 0.4375
vt 0.25 0.4375
vt 0.25 0.5
vt 0.0625 0.5
f 939/939 940/940 941/941 942/942
v 0.6875 0.575 0
v 0.8125 0.575 0
v 0.8125 0.5125 0
v 0.6875 0.5125 0
vt 0.0625 0.4375
vt 0.25 0.4375
vt 0.25 0.5
vt 0.0625 0.5
f 943/943 944/944 945/945 946/946
v 0.6875 0.5125 0.015625
v 0.8125 0.5125 0.015625
v 0.8125 0.575 0.015625
v 0.6875 0.575 0.015625
vt 0.0625 0.5
vt 0.25 0.5
vt 0.25 0.4375
vt 0.0625 0.4375
f 947/947 948/948 949/949 950/950
v 0.9375 0.5125 0.015625
v 0.9375 0.575 0.015625
v 0.9375 0.575 0
v 0.9375 0.5125 0
vt 0.0625 0.4375
vt 0.25 0.4375
vt 0.25 0.5
vt 0.0625 0.5
f 951/951 952/952 953/953 954/954
v 0.9375 0.5125 0
v 1 0.5125 0
v 1 0.5125 0.015625
v 0.9375 0.5125 0.015625
vt 0.0625 0.5
vt 0.15625 0.5
vt 0.15625 0.4375
vt 0.0625 0.4375
f 955/955 956/956 957/957 958/958
v 0.9375 0.575 0.015625
v 1 0.575 0.015625
v 1 0.575 0
v 0.9375 0.575 0
vt 0.0625 0.4375
vt 0.15625 0.4375
vt 0.15625 0.5
vt 0.0625 0.5
f 959/959 960/960 961/961 962/962
v 0.9375 0.575 0
v 1 0.575 0
v 1 0.5125 0
v 0.9375 0.5125 0
vt 0.0625 0.4375
vt 0.15625 0.4375
vt 0.15625 0.5
vt 0.0625 0.5
f 963/963 964/964 965/965 966/966
v 0.9375 0.5125 0.015625
v 1 0.5125 0.015625
v 1 0.575 0.015625
v 0.9375 0.575 0.015625
vt 0.0625 0.5
vt 0.15625 0.5
vt 0.15625 0.4375
vt 0.0625 0.4375
f 967/967 968/968 969/969 970/970
