# Generated by scripts/hydro-models.cjs
mtllib homelink_energy:models/hydro.mtl
usemtl body
v 0.8125 0.6875 0
v 0.8125 0.6875 0.25
v 0.8125 0 0.25
v 0.8125 0 0
vt 1 0.23529412
vt 1 0
vt 0.42105263 0
vt 0.42105263 0.23529412
f 1/1 2/2 3/3 4/4
v 0.75 0.6875 0.25
v 0.8125 0.6875 0.25
v 0.8125 0.6875 0
v 0.75 0.6875 0
vt 0.96153846 0
vt 1 0
vt 1 0.23529412
vt 0.96153846 0.23529412
f 5/5 6/6 7/7 8/8
v 0 0.6875 0.25
v 0.75 0.6875 0.25
v 0.75 0.6875 0.125
v 0 0.6875 0.125
vt 0.5 0
vt 0.96153846 0
vt 0.96153846 0.11764706
vt 0.5 0.11764706
f 9/9 10/10 11/11 12/12
v 0.8125 0 0.25
v 0.8125 0.6875 0.25
v 0 0.6875 0.25
v 0 0 0.25
vt 1 0.57894737
vt 1 0
vt 0.5 0
vt 0.5 0.57894737
f 13/13 14/14 15/15 16/16
usemtl paint
v 0.825 0 0.98125
v 0.825 0.96875 0.98125
v 0.825 0.96875 0.825
v 0.825 0 0.825
vt 0.02966102 0
vt 0.0625 0
vt 0.0625 0.0625
vt 0.02966102 0.0625
f 17/17 18/18 19/19 20/20
v 0.98125 0 0.825
v 0.98125 0.96875 0.825
v 0.98125 0.96875 0.98125
v 0.98125 0 0.98125
vt 0.02966102 0.0625
vt 0.0625 0.0625
vt 0.0625 0
vt 0.02966102 0
f 21/21 22/22 23/23 24/24
v 0.825 0.96875 0.98125
v 0.98125 0.96875 0.98125
v 0.98125 0.96875 0.825
v 0.825 0.96875 0.825
vt 0 0
vt 0.0625 0
vt 0.0625 0.0625
vt 0 0.0625
f 25/25 26/26 27/27 28/28
v 0.875 0.96875 0.825
v 0.98125 0.96875 0.825
v 0.98125 0 0.825
v 0.875 0 0.825
vt 0.02 0
vt 0.0625 0
vt 0.0625 0.03283898
vt 0.02 0.03283898
f 29/29 30/30 31/31 32/32
v 0.825 0.96875 0.825
v 0.875 0.96875 0.825
v 0.875 0.8125 0.825
v 0.825 0.8125 0.825
vt 0 0
vt 0.02 0
vt 0.02 0.00529661
vt 0 0.00529661
f 33/33 34/34 35/35 36/36
v 0.98125 0 0.98125
v 0.98125 0.96875 0.98125
v 0.825 0.96875 0.98125
v 0.825 0 0.98125
vt 0.0625 0.03283898
vt 0.0625 0
vt 0 0
vt 0 0.03283898
f 37/37 38/38 39/39 40/40
usemtl dark
v 0.8125 0.8125 0.9375
v 0.8125 0.8125 0.825
v 0.8125 0.71875 0.825
v 0.8125 0.71875 0.9375
vt 0.25 0.12068966
vt 0.25 0.23706897
vt 0.0625 0.23706897
vt 0.0625 0.12068966
f 41/41 42/42 43/43 44/44
v 0.8125 0.728125 0.99375
v 0.8125 0.8125 0.99375
v 0.8125 0.8125 0.9375
v 0.8125 0.728125 0.9375
vt 0.08125 0.0625
vt 0.25 0.0625
vt 0.25 0.12068966
vt 0.08125 0.12068966
f 45/45 46/46 47/47 48/48
v 0.8125 0.71875 0.99375
v 0.8125 0.728125 0.99375
v 0.8125 0.728125 0.98125
v 0.8125 0.71875 0.98125
vt 0.0625 0.0625
vt 0.08125 0.0625
vt 0.08125 0.07543103
vt 0.0625 0.07543103
f 49/49 50/50 51/51 52/52
v 0.99375 0.71875 0.8125
v 0.99375 0.8125 0.8125
v 0.99375 0.8125 0.99375
v 0.99375 0.71875 0.99375
vt 0.0625 0.25
vt 0.25 0.25
vt 0.25 0.0625
vt 0.0625 0.0625
f 53/53 54/54 55/55 56/56
v 0.8125 0.71875 0.8125
v 0.99375 0.71875 0.8125
v 0.99375 0.71875 0.99375
v 0.8125 0.71875 0.99375
vt 0.0625 0.25
vt 0.25 0.25
vt 0.25 0.0625
vt 0.0625 0.0625
f 57/57 58/58 59/59 60/60
v 0.8125 0.8125 0.825
v 0.8125 0.8125 0.84375
v 0.84375 0.8125 0.84375
v 0.84375 0.8125 0.825
vt 0.0625 0.23706897
vt 0.0625 0.21767241
vt 0.09482759 0.21767241
vt 0.09482759 0.23706897
f 61/61 62/62 63/63 64/64
v 0.8125 0.8125 0.8125
v 0.99375 0.8125 0.8125
v 0.99375 0.71875 0.8125
v 0.8125 0.71875 0.8125
vt 0.0625 0.0625
vt 0.25 0.0625
vt 0.25 0.25
vt 0.0625 0.25
f 65/65 66/66 67/67 68/68
v 0.8125 0.71875 0.99375
v 0.99375 0.71875 0.99375
v 0.99375 0.8125 0.99375
v 0.8125 0.8125 0.99375
vt 0.0625 0.25
vt 0.25 0.25
vt 0.25 0.0625
vt 0.0625 0.0625
f 69/69 70/70 71/71 72/72
v 1 0.8125 0.84375
v 1 1 0.84375
v 1 1 1
v 1 0.8125 1
vt 0.0625 0.25
vt 0.25 0.25
vt 0.25 0.0625
vt 0.0625 0.0625
f 73/73 74/74 75/75 76/76
v 1 0.8125 0.9875
v 1 0.8125 1
v 0 0.8125 1
v 0 0.8125 0.9875
vt 0.25 0.0775
vt 0.25 0.0625
vt 0.15625 0.0625
vt 0.15625 0.0775
f 77/77 78/78 79/79 80/80
v 0.48125 0.8125 0.84375
v 1 0.8125 0.84375
v 1 0.8125 0.9875
v 0.48125 0.8125 0.9875
vt 0.20136719 0.25
vt 0.25 0.25
vt 0.25 0.0775
vt 0.20136719 0.0775
f 81/81 82/82 83/83 84/84
v 0.0125 0.8125 0.84375
v 0.48125 0.8125 0.84375
v 0.48125 0.8125 0.94375
v 0.0125 0.8125 0.94375
vt 0.15742187 0.25
vt 0.20136719 0.25
vt 0.20136719 0.13
vt 0.15742187 0.13
f 85/85 86/86 87/87 88/88
v 0.4375 0.8125 0.9875
v 0.0125 0.8125 0.9875
v 0.0125 0.8125 0.94375
v 0.4375 0.8125 0.94375
vt 0.19726563 0.0775
vt 0.15742187 0.0775
vt 0.15742187 0.13
vt 0.19726563 0.13
f 89/89 90/90 91/91 92/92
v 0 0.8125 0.84375
v 0.0125 0.8125 0.84375
v 0.0125 0.8125 0.94375
v 0 0.8125 0.94375
vt 0.15625 0.25
vt 0.15742187 0.25
vt 0.15742187 0.13
vt 0.15625 0.13
f 93/93 94/94 95/95 96/96
v 0 1 1
v 1 1 1
v 1 1 0.84375
v 0 1 0.94791667
vt 0.15625 0.0625
vt 0.25 0.0625
vt 0.25 0.25
vt 0.15625 0.125
f 97/97 98/98 99/99 100/100
v 0 1 0.94791667
v 1 1 0.84375
v 0 1 0.84375
vt 0.15625 0.125
vt 0.25 0.25
vt 0.15625 0.25
f 101/101 102/102 103/103
v 0 1 0.84375
v 0.84375 1 0.84375
v 0.84375 0.8125 0.84375
v 0 0.8125 0.84375
vt 0.15625 0.0625
vt 0.23535156 0.0625
vt 0.23535156 0.25
vt 0.15625 0.25
f 104/104 105/105 106/106 107/107
v 0 0.8125 1
v 1 0.8125 1
v 1 1 1
v 0 1 1
vt 0.15625 0.25
vt 0.25 0.25
vt 0.25 0.0625
vt 0.15625 0.0625
f 108/108 109/109 110/110 111/111
v 0.84375 0.8125 0.84375
v 0.84375 1 0.84375
v 0.84375 1 0
v 0.84375 0.8125 0
vt 0.0625 0.0625
vt 0.25 0.0625
vt 0.25 0.15625
vt 0.0625 0.15625
f 112/112 113/113 114/114 115/115
v 1 1 0
v 1 1 0.84375
v 1 0.8125 0.84375
v 1 0.8125 0
vt 0.25 0.15625
vt 0.25 0.0625
vt 0.0625 0.0625
vt 0.0625 0.15625
f 116/116 117/117 118/118 119/119
v 1 0.8125 0.825
v 1 0.8125 0.84375
v 0.84375 0.8125 0.84375
v 0.84375 0.8125 0.825
vt 0.25 0.06458333
vt 0.25 0.0625
vt 0.0625 0.0625
vt 0.0625 0.06458333
f 120/120 121/121 122/122 123/123
v 1 0.8125 0
v 1 0.8125 0.825
v 0.875 0.8125 0.825
v 0.875 0.8125 0
vt 0.25 0.15625
vt 0.25 0.06458333
vt 0.1 0.06458333
vt 0.1 0.15625
f 124/124 125/125 126/126 127/127
v 0.875 0.8125 0
v 0.875 0.8125 0.25
v 0.84375 0.8125 0.25
v 0.84375 0.8125 0
vt 0.1 0.15625
vt 0.1 0.12847222
vt 0.0625 0.12847222
vt 0.0625 0.15625
f 128/128 129/129 130/130 131/131
v 0.84375 1 0.84375
v 1 1 0.84375
v 1 1 0
v 0.84375 1 0
vt 0.0625 0.0625
vt 0.25 0.0625
vt 0.25 0.15625
vt 0.0625 0.15625
f 132/132 133/133 134/134 135/135
v 0.84375 0.8125 0.84375
v 1 0.8125 0.84375
v 1 1 0.84375
v 0.84375 1 0.84375
vt 0.0625 0.25
vt 0.25 0.25
vt 0.25 0.0625
vt 0.0625 0.0625
f 136/136 137/137 138/138 139/139
v 0.75 0.78125 0
v 0.75 0.78125 0.125
v 0.75 0.6875 0.125
v 0.75 0.6875 0
vt 0.25 0.08928571
vt 0.25 0.0625
vt 0.0625 0.0625
vt 0.0625 0.08928571
f 140/140 141/141 142/142 143/143
v 0.75 0.6875 0
v 0.75 0.6875 0.125
v 0 0.6875 0.125
v 0 0.6875 0
vt 0.25 0.08928571
vt 0.25 0.0625
vt 0.15625 0.0625
vt 0.15625 0.08928571
f 144/144 145/145 146/146 147/147
v 0.5625 0.78125 0.125
v 0.75 0.78125 0.125
v 0.75 0.78125 0
v 0.5625 0.78125 0
vt 0.2265625 0.0625
vt 0.25 0.0625
vt 0.25 0.08928571
vt 0.2265625 0.08928571
f 148/148 149/149 150/150 151/151
v 0 0.78125 0.125
v 0.5625 0.78125 0.125
v 0.5625 0.78125 0
v 0 0.78125 0
vt 0.15625 0.0625
vt 0.2265625 0.0625
vt 0.2265625 0.08928571
vt 0.15625 0.08928571
f 152/152 153/153 154/154 155/155
v 0 0.6875 0.125
v 0.75 0.6875 0.125
v 0.75 0.78125 0.125
v 0 0.78125 0.125
vt 0.15625 0.25
vt 0.25 0.25
vt 0.25 0.0625
vt 0.15625 0.0625
f 156/156 157/157 158/158 159/159
usemtl copper
v 0.89633883 0.625 0
v 0.88125 0.625 0.00625
v 0.88125 0 0.00625
v 0.89633883 0 0
vt 0.19180318 0.4375
vt 0.25 0.4375
vt 0.25 0.47222222
vt 0.19180318 0.47222222
f 160/160 161/161 162/162 163/163
v 0.88125 0.625 0.00625
v 0.86616117 0.625 0
v 0.86616117 0 0
v 0.88125 0 0.00625
vt 0.0625 0.4375
vt 0.12069682 0.4375
vt 0.12069682 0.47222222
vt 0.0625 0.47222222
f 164/164 165/165 166/166 167/167
v 0.88125 0.625 0.00625
v 0.89633883 0.625 0
v 0.88125 0.625 0
vt 0.15625 0.4375
vt 0.17682568 0.44034091
vt 0.15625 0.44034091
f 168/168 169/169 170/170
v 0.86616117 0.625 0
v 0.88125 0.625 0.00625
v 0.88125 0.625 0
vt 0.13567432 0.44034091
vt 0.15625 0.4375
vt 0.15625 0.44034091
f 171/171 172/172 173/173
usemtl dark
v 0.8 0.375 0.01875
v 0.8 0.4375 0.01875
v 0.8 0.4375 0
v 0.8 0.375 0
vt 0.0625 0.0625
vt 0.25 0.0625
vt 0.25 0.08413462
vt 0.0625 0.08413462
f 174/174 175/175 176/176 177/177
v 0.9625 0.4375 0
v 0.9625 0.4375 0.01875
v 0.9625 0.375 0.01875
v 0.9625 0.375 0
vt 0.25 0.08413462
vt 0.25 0.0625
vt 0.0625 0.0625
vt 0.0625 0.08413462
f 178/178 179/179 180/180 181/181
v 0.9625 0.375 0
v 0.9625 0.375 0.01875
v 0.8 0.375 0.01875
v 0.8 0.375 0
vt 0.25 0.08413462
vt 0.25 0.0625
vt 0.0625 0.0625
vt 0.0625 0.08413462
f 182/182 183/183 184/184 185/185
v 0.8 0.4375 0.01875
v 0.9625 0.4375 0.01875
v 0.9625 0.4375 0
v 0.8 0.4375 0
vt 0.0625 0.0625
vt 0.25 0.0625
vt 0.25 0.08413462
vt 0.0625 0.08413462
f 186/186 187/187 188/188 189/189
v 0.8 0.375 0.01875
v 0.9625 0.375 0.01875
v 0.9625 0.4375 0.01875
v 0.8 0.4375 0.01875
vt 0.0625 0.25
vt 0.25 0.25
vt 0.25 0.0625
vt 0.0625 0.0625
f 190/190 191/191 192/192 193/193
usemtl body
v 0.8125 0 0.825
v 0.8125 0.8 0.825
v 0.8125 0.8 0.25
v 0.8125 0 0.25
vt 0.48 0
vt 0.992 0
vt 0.992 1
vt 0.48 1
f 194/194 195/195 196/196 197/197
v 0.875 0.8125 0.75
v 0.875 0.8125 0.825
v 0.875 0 0.825
v 0.875 0 0.75
vt 1 0.13043478
vt 1 0
vt 0.48 0
vt 0.48 0.13043478
f 198/198 199/199 200/200 201/201
v 0.875 0 0.25
v 0.875 0.8125 0.25
v 0.875 0.8125 0.75
v 0.875 0 0.75
vt 0.48 1
vt 1 1
vt 1 0.13043478
vt 0.48 0.13043478
f 202/202 203/203 204/204 205/205
v 0.8125 0.8125 0.825
v 0.875 0.8125 0.825
v 0.875 0.8125 0.25
v 0.8125 0.8125 0.25
vt 0 0
vt 1 0
vt 1 1
vt 0 1
f 206/206 207/207 208/208 209/209
v 0.8125 0.8125 0.25
v 0.875 0.8125 0.25
v 0.875 0 0.25
v 0.8125 0 0.25
vt 0 0
vt 1 0
vt 1 0.52
vt 0 0.52
f 210/210 211/211 212/212 213/213
v 0.875 0 0.825
v 0.875 0.8125 0.825
v 0.8125 0.8125 0.825
v 0.8125 0 0.825
vt 1 0.52
vt 1 0
vt 0 0
vt 0 0.52
f 214/214 215/215 216/216 217/217
v 0.8125 0.8 0.25
v 0.8125 0.8625 0.25
v 0.8125 0.8625 0.825
v 0.8125 0.8 0.825
vt 0 1
vt 1 1
vt 1 0
vt 0 0
f 218/218 219/219 220/220 221/221
v 0 0.8 0.25
v 0.8125 0.8 0.25
v 0.8125 0.8 0.825
v 0 0.8 0.825
vt 0.5 1
vt 1 1
vt 1 0
vt 0.5 0
f 222/222 223/223 224/224 225/225
v 0 0.8625 0.825
v 0.8125 0.8625 0.825
v 0.8125 0.8625 0.25
v 0 0.8625 0.25
vt 0.5 0
vt 1 0
vt 1 1
vt 0.5 1
f 226/226 227/227 228/228 229/229
v 0 0.8625 0.25
v 0.8125 0.8625 0.25
v 0.8125 0.8 0.25
v 0 0.8 0.25
vt 0.5 0
vt 1 0
vt 1 1
vt 0.5 1
f 230/230 231/231 232/232 233/233
v 0 0.8 0.825
v 0.8125 0.8 0.825
v 0.8125 0.8625 0.825
v 0 0.8625 0.825
vt 0.5 1
vt 1 1
vt 1 0
vt 0.5 0
f 234/234 235/235 236/236 237/237
usemtl dark
v 0.8125 0 0.9375
v 0.8125 0.040625 0.9375
v 0.8125 0.040625 0.98125
v 0.8125 0 0.98125
vt 0.0625 0.25
vt 0.25 0.25
vt 0.25 0.0625
vt 0.0625 0.0625
f 238/238 239/239 240/240 241/241
v 0 0.040625 0.98125
v 0.8125 0.040625 0.98125
v 0.8125 0.040625 0.9375
v 0 0.040625 0.9375
vt 0.15625 0.0625
vt 0.25 0.0625
vt 0.25 0.25
vt 0.15625 0.25
f 242/242 243/243 244/244 245/245
v 0 0.040625 0.9375
v 0.8125 0.040625 0.9375
v 0.8125 0 0.9375
v 0 0 0.9375
vt 0.15625 0.0625
vt 0.25 0.0625
vt 0.25 0.25
vt 0.15625 0.25
f 246/246 247/247 248/248 249/249
v 0 0 0.98125
v 0.8125 0 0.98125
v 0.8125 0.040625 0.98125
v 0 0.040625 0.98125
vt 0.15625 0.25
vt 0.25 0.25
vt 0.25 0.0625
vt 0.15625 0.0625
f 250/250 251/251 252/252 253/253
v 0.8125 0.34375 0.9375
v 0.8125 0.384375 0.9375
v 0.8125 0.384375 0.98125
v 0.8125 0.34375 0.98125
vt 0.0625 0.25
vt 0.25 0.25
vt 0.25 0.0625
vt 0.0625 0.0625
f 254/254 255/255 256/256 257/257
v 0 0.34375 0.9375
v 0.8125 0.34375 0.9375
v 0.8125 0.34375 0.98125
v 0 0.34375 0.98125
vt 0.15625 0.25
vt 0.25 0.25
vt 0.25 0.0625
vt 0.15625 0.0625
f 258/258 259/259 260/260 261/261
v 0 0.384375 0.98125
v 0.8125 0.384375 0.98125
v 0.8125 0.384375 0.9375
v 0 0.384375 0.9375
vt 0.15625 0.0625
vt 0.25 0.0625
vt 0.25 0.25
vt 0.15625 0.25
f 262/262 263/263 264/264 265/265
v 0 0.384375 0.9375
v 0.8125 0.384375 0.9375
v 0.8125 0.34375 0.9375
v 0 0.34375 0.9375
vt 0.15625 0.0625
vt 0.25 0.0625
vt 0.25 0.25
vt 0.15625 0.25
f 266/266 267/267 268/268 269/269
v 0 0.34375 0.98125
v 0.8125 0.34375 0.98125
v 0.8125 0.384375 0.98125
v 0 0.384375 0.98125
vt 0.15625 0.25
vt 0.25 0.25
vt 0.25 0.0625
vt 0.15625 0.0625
f 270/270 271/271 272/272 273/273
v 0.8125 0.6875 0.9375
v 0.8125 0.728125 0.9375
v 0.8125 0.728125 0.98125
v 0.8125 0.6875 0.98125
vt 0.0625 0.25
vt 0.25 0.25
vt 0.25 0.0625
vt 0.0625 0.0625
f 274/274 275/275 276/276 277/277
v 0 0.6875 0.9375
v 0.8125 0.6875 0.9375
v 0.8125 0.6875 0.98125
v 0 0.6875 0.98125
vt 0.15625 0.25
vt 0.25 0.25
vt 0.25 0.0625
vt 0.15625 0.0625
f 278/278 279/279 280/280 281/281
v 0 0.728125 0.98125
v 0.8125 0.728125 0.98125
v 0.8125 0.728125 0.9375
v 0 0.728125 0.9375
vt 0.15625 0.0625
vt 0.25 0.0625
vt 0.25 0.25
vt 0.15625 0.25
f 282/282 283/283 284/284 285/285
v 0 0.728125 0.9375
v 0.8125 0.728125 0.9375
v 0.8125 0.6875 0.9375
v 0 0.6875 0.9375
vt 0.15625 0.0625
vt 0.25 0.0625
vt 0.25 0.25
vt 0.15625 0.25
f 286/286 287/287 288/288 289/289
v 0 0.6875 0.98125
v 0.8125 0.6875 0.98125
v 0.8125 0.728125 0.98125
v 0 0.728125 0.98125
vt 0.15625 0.25
vt 0.25 0.25
vt 0.25 0.0625
vt 0.15625 0.0625
f 290/290 291/291 292/292 293/293
usemtl paint
v 0.0125 0 0.94375
v 0.0125 0.8125 0.94375
v 0.0125 0.8125 0.9875
v 0.0125 0 0.9875
vt 0.03 0.0625
vt 0.0625 0.0625
vt 0.0625 0
vt 0.03 0
f 294/294 295/295 296/296 297/297
v 0 0.8125 0.9875
v 0.0125 0.8125 0.9875
v 0.0125 0.8125 0.94375
v 0 0.8125 0.94375
vt 0.04464286 0
vt 0.0625 0
vt 0.0625 0.0625
vt 0.04464286 0.0625
f 298/298 299/299 300/300 301/301
v 0 0.8125 0.94375
v 0.0125 0.8125 0.94375
v 0.0125 0 0.94375
v 0 0 0.94375
vt 0.04464286 0
vt 0.0625 0
vt 0.0625 0.0325
vt 0.04464286 0.0325
f 302/302 303/303 304/304 305/305
v 0.0125 0 0.9875
v 0.0125 0.8125 0.9875
v 0 0.8125 0.9875
v 0 0 0.9875
vt 0.0625 0.0325
vt 0.0625 0
vt 0.04464286 0
vt 0.04464286 0.0325
f 306/306 307/307 308/308 309/309
v 0.4375 0 0.9875
v 0.4375 0.8125 0.9875
v 0.4375 0.8125 0.94375
v 0.4375 0 0.94375
vt 0.03 0
vt 0.0625 0
vt 0.0625 0.0625
vt 0.03 0.0625
f 310/310 311/311 312/312 313/313
v 0.48125 0 0.94375
v 0.48125 0.8125 0.94375
v 0.48125 0.8125 0.9875
v 0.48125 0 0.9875
vt 0.03 0.0625
vt 0.0625 0.0625
vt 0.0625 0
vt 0.03 0
f 314/314 315/315 316/316 317/317
v 0.4375 0.8125 0.9875
v 0.48125 0.8125 0.9875
v 0.48125 0.8125 0.94375
v 0.4375 0.8125 0.94375
vt 0 0
vt 0.0625 0
vt 0.0625 0.0625
vt 0 0.0625
f 318/318 319/319 320/320 321/321
v 0.4375 0.8125 0.94375
v 0.48125 0.8125 0.94375
v 0.48125 0 0.94375
v 0.4375 0 0.94375
vt 0 0
vt 0.0625 0
vt 0.0625 0.0325
vt 0 0.0325
f 322/322 323/323 324/324 325/325
v 0.48125 0 0.9875
v 0.48125 0.8125 0.9875
v 0.4375 0.8125 0.9875
v 0.4375 0 0.9875
vt 0.0625 0.0325
vt 0.0625 0
vt 0 0
vt 0 0.0325
f 326/326 327/327 328/328 329/329
