mtllib homelink_energy:models/hydro.mtl
usemtl dark
v 1 0 0
v 1 0.125 0
v 1 0.125 1
v 1 0 1
vt 0.0625 0.25
vt 0.25 0.25
vt 0.25 0.15625
vt 0.0625 0.15625
f 1/1 2/2 3/3 4/4
v 0 0 0
v 1 0 0
v 1 0 1
v 0 0 1
vt 0.15625 0.25
vt 0.25 0.25
vt 0.25 0.15625
vt 0.15625 0.15625
f 5/5 6/6 7/7 8/8
v 1 0.125 0.01875
v 1 0.125 0
v 0.9375 0.125 0
v 0.9375 0.125 0.01875
vt 0.25 0.24824219
vt 0.25 0.25
vt 0.24414063 0.25
vt 0.24414063 0.24824219
f 9/9 10/10 11/11 12/12
v 0.8125 0.125 0
v 0 0.125 0
v 0 0.125 0.01875
v 0.8125 0.125 0.01875
vt 0.23242188 0.25
vt 0.15625 0.25
vt 0.15625 0.24824219
vt 0.23242188 0.24824219
f 13/13 14/14 15/15 16/16
v 1 0.125 0.25
v 1 0.125 0.01875
v 0.98125 0.125 0.01875
v 0.98125 0.125 0.25
vt 0.25 0.2265625
vt 0.25 0.24824219
vt 0.24824219 0.24824219
vt 0.24824219 0.2265625
f 17/17 18/18 19/19 20/20
v 0.9375 0.125 0.25
v 0.98125 0.125 0.25
v 0.98125 0.125 0.175
v 0.9375 0.125 0.175
vt 0.24414062 0.2265625
vt 0.24824219 0.2265625
vt 0.24824219 0.23359375
vt 0.24414063 0.23359375
f 21/21 22/22 23/23 24/24
v 0 0.125 0.25
v 0.8125 0.125 0.25
v 0.8125 0.125 0.175
v 0 0.125 0.175
vt 0.15625 0.2265625
vt 0.23242187 0.2265625
vt 0.23242188 0.23359375
vt 0.15625 0.23359375
f 25/25 26/26 27/27 28/28
v 0.8125 0.125 0.01875
v 0 0.125 0.01875
v 0 0.125 0.175
v 0.8125 0.125 0.175
vt 0.23242188 0.24824219
vt 0.15625 0.24824219
vt 0.15625 0.23359375
vt 0.23242188 0.23359375
f 29/29 30/30 31/31 32/32
v 1 0.125 1
v 1 0.125 0.25
v 0.8125 0.125 0.25
v 0.8125 0.125 1
vt 0.25 0.15625
vt 0.25 0.2265625
vt 0.23242188 0.2265625
vt 0.23242188 0.15625
f 33/33 34/34 35/35 36/36
v 0 0.125 0
v 1 0.125 0
v 1 0 0
v 0 0 0
vt 0.15625 0.0625
vt 0.25 0.0625
vt 0.25 0.25
vt 0.15625 0.25
f 37/37 38/38 39/39 40/40
usemtl body
v 0.8125 0.125 0.25
v 0.8125 0.5 0.25
v 0.8125 0.5 1
v 0.8125 0.125 1
vt 0 1
vt 1 1
vt 1 0.25
vt 0 0.25
f 41/41 42/42 43/43 44/44
v 0 0.125 0.25
v 0.8125 0.125 0.25
v 0.8125 0.125 1
v 0 0.125 1
vt 0.5 1
vt 1 1
vt 1 0.25
vt 0.5 0.25
f 45/45 46/46 47/47 48/48
v 0 0.5 0.25
v 0.8125 0.5 0.25
v 0.8125 0.125 0.25
v 0 0.125 0.25
vt 0.5 0
vt 1 0
vt 1 1
vt 0.5 1
f 49/49 50/50 51/51 52/52
v 0.8125 0.5 0.1875
v 0.8125 1 0.1875
v 0.8125 1 1
v 0.8125 0.5 1
vt 0 1
vt 0.42105263 1
vt 0.42105263 0.23529412
vt 0 0.23529412
f 53/53 54/54 55/55 56/56
v 0 0.5 0.1875
v 0.8125 0.5 0.1875
v 0.8125 0.5 1
v 0 0.5 1
vt 0.5 1
vt 1 1
vt 1 0.23529412
vt 0.5 0.23529412
f 57/57 58/58 59/59 60/60
v 0.8125 0.65625 0.1875
v 0.8125 0.59375 0.1875
v 0 0.59375 0.1875
v 0 0.65625 0.1875
vt 1 0.86842105
vt 1 0.92105263
vt 0.5 0.92105263
vt 0.5 0.86842105
f 61/61 62/62 63/63 64/64
v 0.8125 0.6875 0.1875
v 0.8125 0.65625 0.1875
v 0 0.65625 0.1875
v 0 0.6875 0.1875
vt 1 0.84210526
vt 1 0.86842105
vt 0.5 0.86842105
vt 0.5 0.84210526
f 65/65 66/66 67/67 68/68
v 0.8125 1 0.1875
v 0.8125 0.6875 0.1875
v 0.71875 0.6875 0.1875
v 0.71875 1 0.1875
vt 1 0.57894737
vt 1 0.84210526
vt 0.94230769 0.84210526
vt 0.94230769 0.57894737
f 69/69 70/70 71/71 72/72
v 0.0625 0.6875 0.1875
v 0 0.6875 0.1875
v 0 1 0.1875
v 0.0625 1 0.1875
vt 0.53846154 0.84210526
vt 0.5 0.84210526
vt 0.5 0.57894737
vt 0.53846154 0.57894737
f 73/73 74/74 75/75 76/76
usemtl paint
v 0.825 0.125 0.175
v 0.825 1 0.175
v 0.825 1 0.01875
v 0.825 0.125 0.01875
vt 0 0
vt 0.02966102 0
vt 0.02966102 0.0625
vt 0 0.0625
f 77/77 78/78 79/79 80/80
v 0.98125 0.125 0.01875
v 0.98125 1 0.01875
v 0.98125 1 0.175
v 0.98125 0.125 0.175
vt 0 0.0625
vt 0.02966102 0.0625
vt 0.02966102 0
vt 0 0
f 81/81 82/82 83/83 84/84
v 0.9375 0.125 0.01875
v 0.98125 0.125 0.01875
v 0.98125 0.125 0.175
v 0.9375 0.125 0.175
vt 0.045 0.0625
vt 0.0625 0.0625
vt 0.0625 0
vt 0.045 0
f 85/85 86/86 87/87 88/88
v 0.98125 1 0.01875
v 0.98125 0.125 0.01875
v 0.825 0.125 0.01875
v 0.825 1 0.01875
vt 0.0625 0.03283898
vt 0.0625 0.0625
vt 0 0.0625
vt 0 0.03283898
f 89/89 90/90 91/91 92/92
v 0.825 0.125 0.175
v 0.98125 0.125 0.175
v 0.98125 1 0.175
v 0.825 1 0.175
vt 0 0.0625
vt 0.0625 0.0625
vt 0.0625 0.03283898
vt 0 0.03283898
f 93/93 94/94 95/95 96/96
usemtl dark
v 0.99375 0.21875 0.00625
v 0.99375 0.3125 0.00625
v 0.99375 0.3125 0.1875
v 0.99375 0.21875 0.1875
vt 0.0625 0.25
vt 0.25 0.25
vt 0.25 0.0625
vt 0.0625 0.0625
f 97/97 98/98 99/99 100/100
v 0.8125 0.21875 0.00625
v 0.99375 0.21875 0.00625
v 0.99375 0.21875 0.1875
v 0.8125 0.21875 0.1875
vt 0.0625 0.25
vt 0.25 0.25
vt 0.25 0.0625
vt 0.0625 0.0625
f 101/101 102/102 103/103 104/104
v 0.8125 0.3125 0.1875
v 0.99375 0.3125 0.1875
v 0.99375 0.3125 0.00625
v 0.8125 0.3125 0.00625
vt 0.0625 0.0625
vt 0.25 0.0625
vt 0.25 0.25
vt 0.0625 0.25
f 105/105 106/106 107/107 108/108
v 0.8125 0.3125 0.00625
v 0.99375 0.3125 0.00625
v 0.99375 0.21875 0.00625
v 0.8125 0.21875 0.00625
vt 0.0625 0.0625
vt 0.25 0.0625
vt 0.25 0.25
vt 0.0625 0.25
f 109/109 110/110 111/111 112/112
v 0.8125 0.21875 0.1875
v 0.99375 0.21875 0.1875
v 0.99375 0.3125 0.1875
v 0.8125 0.3125 0.1875
vt 0.0625 0.25
vt 0.25 0.25
vt 0.25 0.0625
vt 0.0625 0.0625
f 113/113 114/114 115/115 116/116
v 0.0625 0.6875 0.1875
v 0.0625 1 0.1875
v 0.0625 1 0.1125
v 0.0625 0.6875 0.1125
vt 0.0625 0.0625
vt 0.12109375 0.0625
vt 0.12109375 0.25
vt 0.0625 0.25
f 117/117 118/118 119/119 120/120
v 0.71875 0.6875 0.1125
v 0.71875 1 0.1125
v 0.71875 1 0.1875
v 0.71875 0.6875 0.1875
vt 0.0625 0.25
vt 0.12109375 0.25
vt 0.12109375 0.0625
vt 0.0625 0.0625
f 121/121 122/122 123/123 124/124
v 0.0625 0.6875 0.1125
v 0.71875 0.6875 0.1125
v 0.71875 0.6875 0.1875
v 0.0625 0.6875 0.1875
vt 0.0625 0.25
vt 0.25 0.25
vt 0.25 0.0625
vt 0.0625 0.0625
f 125/125 126/126 127/127 128/128
v 0.71875 0.73125 0.1125
v 0.71875 0.6875 0.1125
v 0.0625 0.6875 0.1125
v 0.0625 0.73125 0.1125
vt 0.25 0.24179687
vt 0.25 0.25
vt 0.0625 0.25
vt 0.0625 0.24179688
f 129/129 130/130 131/131 132/132
v 0.71875 1 0.1125
v 0.71875 0.73125 0.1125
v 0.675 0.73125 0.1125
v 0.675 1 0.1125
vt 0.25 0.19140625
vt 0.25 0.24179687
vt 0.2375 0.24179687
vt 0.2375 0.19140625
f 133/133 134/134 135/135 136/136
v 0.10625 0.73125 0.1125
v 0.0625 0.73125 0.1125
v 0.0625 1 0.1125
v 0.10625 1 0.1125
vt 0.075 0.24179688
vt 0.0625 0.24179688
vt 0.0625 0.19140625
vt 0.075 0.19140625
f 137/137 138/138 139/139 140/140
v 0.0625 0.6875 0.1875
v 0.71875 0.6875 0.1875
v 0.71875 1 0.1875
v 0.0625 1 0.1875
vt 0.0625 0.25
vt 0.25 0.25
vt 0.25 0.19140625
vt 0.0625 0.19140625
f 141/141 142/142 143/143 144/144
usemtl vent
v 0.10625 0.73125 0.1125
v 0.10625 1 0.1125
v 0.10625 1 0.1
v 0.10625 0.73125 0.1
vt 0 0
vt 0.29452055 0
vt 0.29452055 1
vt 0 1
f 145/145 146/146 147/147 148/148
v 0.675 0.73125 0.1
v 0.675 1 0.1
v 0.675 1 0.1125
v 0.675 0.73125 0.1125
vt 0 1
vt 0.29452055 1
vt 0.29452055 0
vt 0 0
f 149/149 150/150 151/151 152/152
v 0.10625 0.73125 0.1
v 0.675 0.73125 0.1
v 0.675 0.73125 0.1125
v 0.10625 0.73125 0.1125
vt 0 1
vt 1 1
vt 1 0
vt 0 0
f 153/153 154/154 155/155 156/156
v 0.675 0.8125 0.1
v 0.675 0.73125 0.1
v 0.10625 0.73125 0.1
v 0.10625 0.8125 0.1
vt 1 0.9109589
vt 1 1
vt 0 1
vt 0 0.9109589
f 157/157 158/158 159/159 160/160
v 0.675 0.9875 0.1
v 0.675 0.8625 0.1
v 0.10625 0.8625 0.1
v 0.10625 0.9875 0.1
vt 1 0.71917808
vt 1 0.85616438
vt 0 0.85616438
vt 0 0.71917808
f 161/161 162/162 163/163 164/164
v 0.10625 0.73125 0.1125
v 0.675 0.73125 0.1125
v 0.675 1 0.1125
v 0.10625 1 0.1125
vt 0 1
vt 1 1
vt 1 0.70547945
vt 0 0.70547945
f 165/165 166/166 167/167 168/168
usemtl paint
v 0.09375 0.8125 0.1
v 0.09375 0.8625 0.1
v 0.09375 0.8625 0.05625
v 0.09375 0.8125 0.05625
vt 0 0
vt 0.0625 0
vt 0.0625 0.0625
vt 0 0.0625
f 169/169 170/170 171/171 172/172
v 0.6875 0.8125 0.05625
v 0.6875 0.8625 0.05625
v 0.6875 0.8625 0.1
v 0.6875 0.8125 0.1
vt 0 0.0625
vt 0.0625 0.0625
vt 0.0625 0
vt 0 0
f 173/173 174/174 175/175 176/176
v 0.09375 0.8125 0.05625
v 0.6875 0.8125 0.05625
v 0.6875 0.8125 0.1
v 0.09375 0.8125 0.1
vt 0 0.0625
vt 0.0625 0.0625
vt 0.0625 0
vt 0 0
f 177/177 178/178 179/179 180/180
v 0.09375 0.8625 0.1
v 0.6875 0.8625 0.1
v 0.6875 0.8625 0.05625
v 0.09375 0.8625 0.05625
vt 0 0
vt 0.0625 0
vt 0.0625 0.0625
vt 0 0.0625
f 181/181 182/182 183/183 184/184
v 0.09375 0.8625 0.05625
v 0.6875 0.8625 0.05625
v 0.6875 0.8125 0.05625
v 0.09375 0.8125 0.05625
vt 0 0
vt 0.0625 0
vt 0.0625 0.0625
vt 0 0.0625
f 185/185 186/186 187/187 188/188
v 0.09375 0.8125 0.1
v 0.6875 0.8125 0.1
v 0.6875 0.8625 0.1
v 0.09375 0.8625 0.1
vt 0 0.0625
vt 0.0625 0.0625
vt 0.0625 0
vt 0 0
f 189/189 190/190 191/191 192/192
v 0.09375 0.9875 0.1
v 0.09375 1 0.1
v 0.09375 1 0.05625
v 0.09375 0.9875 0.05625
vt 0 0
vt 0.015625 0
vt 0.015625 0.0625
vt 0 0.0625
f 193/193 194/194 195/195 196/196
v 0.6875 0.9875 0.05625
v 0.6875 1 0.05625
v 0.6875 1 0.1
v 0.6875 0.9875 0.1
vt 0 0.0625
vt 0.015625 0.0625
vt 0.015625 0
vt 0 0
f 197/197 198/198 199/199 200/200
v 0.09375 0.9875 0.05625
v 0.6875 0.9875 0.05625
v 0.6875 0.9875 0.1
v 0.09375 0.9875 0.1
vt 0 0.0625
vt 0.0625 0.0625
vt 0.0625 0
vt 0 0
f 201/201 202/202 203/203 204/204
v 0.6875 1 0.05625
v 0.6875 0.9875 0.05625
v 0.09375 0.9875 0.05625
v 0.09375 1 0.05625
vt 0.0625 0.046875
vt 0.0625 0.0625
vt 0 0.0625
vt 0 0.046875
f 205/205 206/206 207/207 208/208
v 0.09375 0.9875 0.1
v 0.6875 0.9875 0.1
v 0.6875 1 0.1
v 0.09375 1 0.1
vt 0 0.0625
vt 0.0625 0.0625
vt 0.0625 0.046875
vt 0 0.046875
f 209/209 210/210 211/211 212/212
usemtl copper
v 0.79375 0.625 0.05
v 0.78093592 0.65593592 0.05
v 0.78093592 0.65593592 0.175
v 0.79375 0.625 0.175
vt 0.0625 0.4375
vt 0.25 0.4375
vt 0.25 0.5
vt 0.0625 0.5
f 213/213 214/214 215/215 216/216
v 0.78093592 0.65593592 0.05
v 0.75 0.66875 0.05
v 0.75 0.66875 0.175
v 0.78093592 0.65593592 0.175
vt 0.0625 0.4375
vt 0.25 0.4375
vt 0.25 0.5
vt 0.0625 0.5
f 217/217 218/218 219/219 220/220
v 0.75 0.66875 0.05
v 0.71906408 0.65593592 0.05
v 0.71906408 0.65593592 0.175
v 0.75 0.66875 0.175
vt 0.0625 0.4375
vt 0.25 0.4375
vt 0.25 0.5
vt 0.0625 0.5
f 221/221 222/222 223/223 224/224
v 0.71906408 0.65593592 0.05
v 0.70625 0.625 0.05
v 0.70625 0.625 0.175
v 0.71906408 0.65593592 0.175
vt 0.0625 0.4375
vt 0.25 0.4375
vt 0.25 0.5
vt 0.0625 0.5
f 225/225 226/226 227/227 228/228
v 0.70625 0.625 0.05
v 0.71906408 0.59406408 0.05
v 0.71906408 0.59406408 0.175
v 0.70625 0.625 0.175
vt 0.0625 0.4375
vt 0.25 0.4375
vt 0.25 0.5
vt 0.0625 0.5
f 229/229 230/230 231/231 232/232
v 0.71906408 0.59406408 0.05
v 0.75 0.58125 0.05
v 0.75 0.58125 0.175
v 0.71906408 0.59406408 0.175
vt 0.0625 0.4375
vt 0.25 0.4375
vt 0.25 0.5
vt 0.0625 0.5
f 233/233 234/234 235/235 236/236
v 0.75 0.58125 0.05
v 0.78093592 0.59406408 0.05
v 0.78093592 0.59406408 0.175
v 0.75 0.58125 0.175
vt 0.0625 0.4375
vt 0.25 0.4375
vt 0.25 0.5
vt 0.0625 0.5
f 237/237 238/238 239/239 240/240
v 0.78093592 0.59406408 0.05
v 0.79375 0.625 0.05
v 0.79375 0.625 0.175
v 0.78093592 0.59406408 0.175
vt 0.0625 0.4375
vt 0.25 0.4375
vt 0.25 0.5
vt 0.0625 0.5
f 241/241 242/242 243/243 244/244
v 0.75 0.66875 0.05
v 0.78093592 0.65593592 0.05
v 0.79375 0.625 0.05
v 0.75 0.625 0.05
vt 0.15625 0.4375
vt 0.22254126 0.44665291
vt 0.25 0.46875
vt 0.15625 0.46875
f 245/245 246/246 247/247 248/248
v 0.70625 0.625 0.05
v 0.71906408 0.65593592 0.05
v 0.75 0.66875 0.05
v 0.75 0.625 0.05
vt 0.0625 0.46875
vt 0.08995874 0.44665291
vt 0.15625 0.4375
vt 0.15625 0.46875
f 249/249 250/250 251/251 252/252
v 0.75 0.58125 0.05
v 0.71906408 0.59406408 0.05
v 0.70625 0.625 0.05
v 0.75 0.625 0.05
vt 0.15625 0.5
vt 0.08995874 0.49084709
vt 0.0625 0.46875
vt 0.15625 0.46875
f 253/253 254/254 255/255 256/256
v 0.79375 0.625 0.05
v 0.78093592 0.59406408 0.05
v 0.75 0.58125 0.05
v 0.75 0.625 0.05
vt 0.25 0.46875
vt 0.22254126 0.49084709
vt 0.15625 0.5
vt 0.15625 0.46875
f 257/257 258/258 259/259 260/260
v 0.75 0.625 0.175
v 0.79375 0.625 0.175
v 0.78093592 0.65593592 0.175
v 0.75 0.66875 0.175
vt 0.15625 0.46875
vt 0.25 0.46875
vt 0.22254126 0.44665291
vt 0.15625 0.4375
f 261/261 262/262 263/263 264/264
v 0.75 0.625 0.175
v 0.75 0.66875 0.175
v 0.71906408 0.65593592 0.175
v 0.70625 0.625 0.175
vt 0.15625 0.46875
vt 0.15625 0.4375
vt 0.08995874 0.44665291
vt 0.0625 0.46875
f 265/265 266/266 267/267 268/268
v 0.75 0.625 0.175
v 0.70625 0.625 0.175
v 0.71906408 0.59406408 0.175
v 0.75 0.58125 0.175
vt 0.15625 0.46875
vt 0.0625 0.46875
vt 0.08995874 0.49084709
vt 0.15625 0.5
f 269/269 270/270 271/271 272/272
v 0.75 0.625 0.175
v 0.75 0.58125 0.175
v 0.78093592 0.59406408 0.175
v 0.79375 0.625 0.175
vt 0.15625 0.46875
vt 0.15625 0.5
vt 0.22254126 0.49084709
vt 0.25 0.46875
f 273/273 274/274 275/275 276/276
v 0.92986359 1 0.48611359
v 0.92986359 0.5 0.48611359
v 0.95 0.5 0.4375
v 0.95 1 0.4375
vt 0.25 0.47222222
vt 0.25 0.5
vt 0.0625 0.5
vt 0.0625 0.47222222
f 277/277 278/278 279/279 280/280
v 0.88125 1 0.50625
v 0.88125 0.5 0.50625
v 0.92986359 0.5 0.48611359
v 0.92986359 1 0.48611359
vt 0.25 0.47222222
vt 0.25 0.5
vt 0.0625 0.5
vt 0.0625 0.47222222
f 281/281 282/282 283/283 284/284
v 0.83263641 1 0.48611359
v 0.83263641 0.5 0.48611359
v 0.88125 0.5 0.50625
v 0.88125 1 0.50625
vt 0.25 0.47222222
vt 0.25 0.5
vt 0.0625 0.5
vt 0.0625 0.47222222
f 285/285 286/286 287/287 288/288
v 0.8125 1 0.4375
v 0.8125 0.5 0.4375
v 0.83263641 0.5 0.48611359
v 0.83263641 1 0.48611359
vt 0.25 0.47222222
vt 0.25 0.5
vt 0.0625 0.5
vt 0.0625 0.47222222
f 289/289 290/290 291/291 292/292
v 0.83263641 1 0.38888641
v 0.83263641 0.5 0.38888641
v 0.8125 0.5 0.4375
v 0.8125 1 0.4375
vt 0.25 0.47222222
vt 0.25 0.5
vt 0.0625 0.5
vt 0.0625 0.47222222
f 293/293 294/294 295/295 296/296
v 0.88125 1 0.36875
v 0.88125 0.5 0.36875
v 0.83263641 0.5 0.38888641
v 0.83263641 1 0.38888641
vt 0.25 0.47222222
vt 0.25 0.5
vt 0.0625 0.5
vt 0.0625 0.47222222
f 297/297 298/298 299/299 300/300
v 0.92986359 1 0.38888641
v 0.92986359 0.5 0.38888641
v 0.88125 0.5 0.36875
v 0.88125 1 0.36875
vt 0.25 0.47222222
vt 0.25 0.5
vt 0.0625 0.5
vt 0.0625 0.47222222
f 301/301 302/302 303/303 304/304
v 0.95 1 0.4375
v 0.95 0.5 0.4375
v 0.92986359 0.5 0.38888641
v 0.92986359 1 0.38888641
vt 0.25 0.47222222
vt 0.25 0.5
vt 0.0625 0.5
vt 0.0625 0.47222222
f 305/305 306/306 307/307 308/308
v 0.88125 0.5 0.4375
v 0.95 0.5 0.4375
v 0.92986359 0.5 0.48611359
v 0.88125 0.5 0.50625
vt 0.15625 0.46875
vt 0.25 0.46875
vt 0.22254126 0.44665291
vt 0.15625 0.4375
f 309/309 310/310 311/311 312/312
v 0.88125 0.5 0.4375
v 0.88125 0.5 0.50625
v 0.83263641 0.5 0.48611359
v 0.8125 0.5 0.4375
vt 0.15625 0.46875
vt 0.15625 0.4375
vt 0.08995874 0.44665291
vt 0.0625 0.46875
f 313/313 314/314 315/315 316/316
v 0.88125 0.5 0.4375
v 0.8125 0.5 0.4375
v 0.83263641 0.5 0.38888641
v 0.88125 0.5 0.36875
vt 0.15625 0.46875
vt 0.0625 0.46875
vt 0.08995874 0.49084709
vt 0.15625 0.5
f 317/317 318/318 319/319 320/320
v 0.88125 0.5 0.4375
v 0.88125 0.5 0.36875
v 0.92986359 0.5 0.38888641
v 0.95 0.5 0.4375
vt 0.15625 0.46875
vt 0.15625 0.5
vt 0.22254126 0.49084709
vt 0.25 0.46875
f 321/321 322/322 323/323 324/324
usemtl dark
v 0.8 0.625 0.51875
v 0.8 0.6875 0.51875
v 0.8 0.6875 0.35625
v 0.8 0.625 0.35625
vt 0.0625 0.0625
vt 0.25 0.0625
vt 0.25 0.25
vt 0.0625 0.25
f 325/325 326/326 327/327 328/328
v 0.9625 0.625 0.35625
v 0.9625 0.6875 0.35625
v 0.9625 0.6875 0.51875
v 0.9625 0.625 0.51875
vt 0.0625 0.25
vt 0.25 0.25
vt 0.25 0.0625
vt 0.0625 0.0625
f 329/329 330/330 331/331 332/332
v 0.8 0.625 0.35625
v 0.9625 0.625 0.35625
v 0.9625 0.625 0.51875
v 0.8 0.625 0.51875
vt 0.0625 0.25
vt 0.25 0.25
vt 0.25 0.0625
vt 0.0625 0.0625
f 333/333 334/334 335/335 336/336
v 0.8 0.6875 0.51875
v 0.9625 0.6875 0.51875
v 0.9625 0.6875 0.35625
v 0.8 0.6875 0.35625
vt 0.0625 0.0625
vt 0.25 0.0625
vt 0.25 0.25
vt 0.0625 0.25
f 337/337 338/338 339/339 340/340
v 0.8 0.6875 0.35625
v 0.9625 0.6875 0.35625
v 0.9625 0.625 0.35625
v 0.8 0.625 0.35625
vt 0.0625 0.0625
vt 0.25 0.0625
vt 0.25 0.25
vt 0.0625 0.25
f 341/341 342/342 343/343 344/344
v 0.8 0.625 0.51875
v 0.9625 0.625 0.51875
v 0.9625 0.6875 0.51875
v 0.8 0.6875 0.51875
vt 0.0625 0.25
vt 0.25 0.25
vt 0.25 0.0625
vt 0.0625 0.0625
f 345/345 346/346 347/347 348/348
usemtl copper
v 0.92986359 1 0.98611359
v 0.92986359 0.5 0.98611359
v 0.95 0.5 0.9375
v 0.95 1 0.9375
vt 0.25 0.47222222
vt 0.25 0.5
vt 0.0625 0.5
vt 0.0625 0.47222222
f 349/349 350/350 351/351 352/352
v 0.89633883 0.5 1
v 0.92986359 0.5 0.98611359
v 0.92986359 1 0.98611359
v 0.89633883 1 1
vt 0.19180318 0.5
vt 0.0625 0.5
vt 0.0625 0.47222222
vt 0.19180318 0.47222222
f 353/353 354/354 355/355 356/356
v 0.83263641 1 0.98611359
v 0.83263641 0.5 0.98611359
v 0.86616117 0.5 1
v 0.86616117 1 1
vt 0.25 0.47222222
vt 0.25 0.5
vt 0.12069682 0.5
vt 0.12069682 0.47222222
f 357/357 358/358 359/359 360/360
v 0.8125 1 0.9375
v 0.8125 0.5 0.9375
v 0.83263641 0.5 0.98611359
v 0.83263641 1 0.98611359
vt 0.25 0.47222222
vt 0.25 0.5
vt 0.0625 0.5
vt 0.0625 0.47222222
f 361/361 362/362 363/363 364/364
v 0.83263641 1 0.88888641
v 0.83263641 0.5 0.88888641
v 0.8125 0.5 0.9375
v 0.8125 1 0.9375
vt 0.25 0.47222222
vt 0.25 0.5
vt 0.0625 0.5
vt 0.0625 0.47222222
f 365/365 366/366 367/367 368/368
v 0.88125 1 0.86875
v 0.88125 0.5 0.86875
v 0.83263641 0.5 0.88888641
v 0.83263641 1 0.88888641
vt 0.25 0.47222222
vt 0.25 0.5
vt 0.0625 0.5
vt 0.0625 0.47222222
f 369/369 370/370 371/371 372/372
v 0.92986359 1 0.88888641
v 0.92986359 0.5 0.88888641
v 0.88125 0.5 0.86875
v 0.88125 1 0.86875
vt 0.25 0.47222222
vt 0.25 0.5
vt 0.0625 0.5
vt 0.0625 0.47222222
f 373/373 374/374 375/375 376/376
v 0.95 1 0.9375
v 0.95 0.5 0.9375
v 0.92986359 0.5 0.88888641
v 0.92986359 1 0.88888641
vt 0.25 0.47222222
vt 0.25 0.5
vt 0.0625 0.5
vt 0.0625 0.47222222
f 377/377 378/378 379/379 380/380
v 0.88125 0.5 0.9375
v 0.95 0.5 0.9375
v 0.92986359 0.5 0.98611359
vt 0.15625 0.46875
vt 0.25 0.46875
vt 0.22254126 0.44665291
f 381/381 382/382 383/383
v 0.88125 0.5 0.9375
v 0.92986359 0.5 0.98611359
v 0.89633883 0.5 1
vt 0.15625 0.46875
vt 0.22254126 0.44665291
vt 0.17682568 0.44034091
f 384/384 385/385 386/386
v 0.88125 0.5 0.9375
v 0.89633883 0.5 1
v 0.88125 0.5 1
vt 0.15625 0.46875
vt 0.17682568 0.44034091
vt 0.15625 0.44034091
f 387/387 388/388 389/389
v 0.88125 0.5 0.9375
v 0.88125 0.5 1
v 0.86616117 0.5 1
vt 0.15625 0.46875
vt 0.15625 0.44034091
vt 0.13567432 0.44034091
f 390/390 391/391 392/392
v 0.88125 0.5 0.9375
v 0.86616117 0.5 1
v 0.83263641 0.5 0.98611359
vt 0.15625 0.46875
vt 0.13567432 0.44034091
vt 0.08995874 0.44665291
f 393/393 394/394 395/395
v 0.88125 0.5 0.9375
v 0.83263641 0.5 0.98611359
v 0.8125 0.5 0.9375
vt 0.15625 0.46875
vt 0.08995874 0.44665291
vt 0.0625 0.46875
f 396/396 397/397 398/398
v 0.88125 0.5 0.9375
v 0.8125 0.5 0.9375
v 0.83263641 0.5 0.88888641
v 0.88125 0.5 0.86875
vt 0.15625 0.46875
vt 0.0625 0.46875
vt 0.08995874 0.49084709
vt 0.15625 0.5
f 399/399 400/400 401/401 402/402
v 0.88125 0.5 0.9375
v 0.88125 0.5 0.86875
v 0.92986359 0.5 0.88888641
v 0.95 0.5 0.9375
vt 0.15625 0.46875
vt 0.15625 0.5
vt 0.22254126 0.49084709
vt 0.25 0.46875
f 403/403 404/404 405/405 406/406
usemtl dark
v 0.8 0.6875 1
v 0.8 0.6875 0.85625
v 0.8 0.625 0.85625
v 0.8 0.625 1
vt 0.25 0.08413462
vt 0.25 0.25
vt 0.0625 0.25
vt 0.0625 0.08413462
f 407/407 408/408 409/409 410/410
v 0.9625 0.625 0.85625
v 0.9625 0.6875 0.85625
v 0.9625 0.6875 1
v 0.9625 0.625 1
vt 0.0625 0.25
vt 0.25 0.25
vt 0.25 0.08413462
vt 0.0625 0.08413462
f 411/411 412/412 413/413 414/414
v 0.8 0.625 0.85625
v 0.9625 0.625 0.85625
v 0.9625 0.625 1
v 0.8 0.625 1
vt 0.0625 0.25
vt 0.25 0.25
vt 0.25 0.08413462
vt 0.0625 0.08413462
f 415/415 416/416 417/417 418/418
v 0.9625 0.6875 1
v 0.9625 0.6875 0.85625
v 0.8 0.6875 0.85625
v 0.8 0.6875 1
vt 0.25 0.08413462
vt 0.25 0.25
vt 0.0625 0.25
vt 0.0625 0.08413462
f 419/419 420/420 421/421 422/422
v 0.8 0.6875 0.85625
v 0.9625 0.6875 0.85625
v 0.9625 0.625 0.85625
v 0.8 0.625 0.85625
vt 0.0625 0.0625
vt 0.25 0.0625
vt 0.25 0.25
vt 0.0625 0.25
f 423/423 424/424 425/425 426/426
usemtl body
v 0.8125 0.125 0.25
v 0.8125 0.5 0.25
v 0.8125 0.5 0
v 0.8125 0.125 0
vt 0 0
vt 1 0
vt 1 1
vt 0 1
f 427/427 428/428 429/429 430/430
v 0.9375 0.125 0
v 0.9375 0.5 0
v 0.9375 0.5 0.25
v 0.9375 0.125 0.25
vt 0 1
vt 1 1
vt 1 0
vt 0 0
f 431/431 432/432 433/433 434/434
v 0.8125 0.125 0
v 0.9375 0.125 0
v 0.9375 0.125 0.25
v 0.8125 0.125 0.25
vt 0 1
vt 1 1
vt 1 0
vt 0 0
f 435/435 436/436 437/437 438/438
v 0.8125 0.5 0.25
v 0.9375 0.5 0.25
v 0.9375 0.5 0.1875
v 0.8125 0.5 0.1875
vt 0 0
vt 1 0
vt 1 0.25
vt 0 0.25
f 439/439 440/440 441/441 442/442
v 0.8125 0.5 0
v 0.9375 0.5 0
v 0.9375 0.125 0
v 0.8125 0.125 0
vt 0 0
vt 1 0
vt 1 1
vt 0 1
f 443/443 444/444 445/445 446/446
v 0.8125 0.125 0.25
v 0.9375 0.125 0.25
v 0.9375 0.5 0.25
v 0.8125 0.5 0.25
vt 0 1
vt 1 1
vt 1 0
vt 0 0
f 447/447 448/448 449/449 450/450
usemtl dark
v 0.9375 0.5 0
v 0.9375 0.59375 0
v 0.9375 0.59375 0.1875
v 0.9375 0.5 0.1875
vt 0.0625 0.25
vt 0.25 0.25
vt 0.25 0.0625
vt 0.0625 0.0625
f 451/451 452/452 453/453 454/454
v 0 0.5 0
v 0.9375 0.5 0
v 0.9375 0.5 0.1875
v 0 0.5 0.1875
vt 0.15625 0.25
vt 0.25 0.25
vt 0.25 0.0625
vt 0.15625 0.0625
f 455/455 456/456 457/457 458/458
v 0 0.59375 0.1875
v 0.9375 0.59375 0.1875
v 0.9375 0.59375 0
v 0 0.59375 0
vt 0.15625 0.0625
vt 0.25 0.0625
vt 0.25 0.25
vt 0.15625 0.25
f 459/459 460/460 461/461 462/462
v 0 0.59375 0
v 0.9375 0.59375 0
v 0.9375 0.575 0
v 0 0.575 0
vt 0.15625 0.0625
vt 0.25 0.0625
vt 0.25 0.1
vt 0.15625 0.1
f 463/463 464/464 465/465 466/466
v 0.9375 0.575 0
v 0.9375 0.5 0
v 0.8125 0.5 0
v 0.8125 0.575 0
vt 0.25 0.1
vt 0.25 0.25
vt 0.2375 0.25
vt 0.2375 0.1
f 467/467 468/468 469/469 470/470
v 0.8125 0.5 0
v 0.5625 0.5 0
v 0.5625 0.5125 0
v 0.8125 0.5125 0
vt 0.2375 0.25
vt 0.2125 0.25
vt 0.2125 0.225
vt 0.2375 0.225
f 471/471 472/472 473/473 474/474
v 0.5625 0.5125 0
v 0.5625 0.575 0
v 0.6875 0.575 0
v 0.6875 0.5125 0
vt 0.2125 0.225
vt 0.2125 0.1
vt 0.225 0.1
vt 0.225 0.225
f 475/475 476/476 477/477 478/478
v 0.5625 0.5 0
v 0.3125 0.5 0
v 0.3125 0.5125 0
v 0.5625 0.5125 0
vt 0.2125 0.25
vt 0.1875 0.25
vt 0.1875 0.225
vt 0.2125 0.225
f 479/479 480/480 481/481 482/482
v 0.3125 0.5125 0
v 0.3125 0.575 0
v 0.4375 0.575 0
v 0.4375 0.5125 0
vt 0.1875 0.225
vt 0.1875 0.1
vt 0.2 0.1
vt 0.2 0.225
f 483/483 484/484 485/485 486/486
v 0.3125 0.5 0
v 0.0625 0.5 0
v 0.0625 0.5125 0
v 0.3125 0.5125 0
vt 0.1875 0.25
vt 0.1625 0.25
vt 0.1625 0.225
vt 0.1875 0.225
f 487/487 488/488 489/489 490/490
v 0.0625 0.5125 0
v 0.0625 0.575 0
v 0.1875 0.575 0
v 0.1875 0.5125 0
vt 0.1625 0.225
vt 0.1625 0.1
vt 0.175 0.1
vt 0.175 0.225
f 491/491 492/492 493/493 494/494
v 0.0625 0.5 0
v 0 0.5 0
v 0 0.5125 0
v 0.0625 0.5125 0
vt 0.1625 0.25
vt 0.15625 0.25
vt 0.15625 0.225
vt 0.1625 0.225
f 495/495 496/496 497/497 498/498
v 0 0.5 0.1875
v 0.9375 0.5 0.1875
v 0.9375 0.59375 0.1875
v 0 0.59375 0.1875
vt 0.15625 0.25
vt 0.25 0.25
vt 0.25 0.0625
vt 0.15625 0.0625
f 499/499 500/500 501/501 502/502
usemtl copper
v 0.0625 0.5125 0
v 0.0625 0.575 0
v 0.0625 0.575 0.015625
v 0.0625 0.5125 0.015625
vt 0.0625 0.5
vt 0.25 0.5
vt 0.25 0.4375
vt 0.0625 0.4375
f 503/503 504/504 505/505 506/506
v 0 0.5125 0
v 0.0625 0.5125 0
v 0.0625 0.5125 0.015625
v 0 0.5125 0.015625
vt 0.15625 0.5
vt 0.25 0.5
vt 0.25 0.4375
vt 0.15625 0.4375
f 507/507 508/508 509/509 510/510
v 0 0.575 0.015625
v 0.0625 0.575 0.015625
v 0.0625 0.575 0
v 0 0.575 0
vt 0.15625 0.4375
vt 0.25 0.4375
vt 0.25 0.5
vt 0.15625 0.5
f 511/511 512/512 513/513 514/514
v 0 0.575 0
v 0.0625 0.575 0
v 0.0625 0.5125 0
v 0 0.5125 0
vt 0.15625 0.4375
vt 0.25 0.4375
vt 0.25 0.5
vt 0.15625 0.5
f 515/515 516/516 517/517 518/518
v 0 0.5125 0.015625
v 0.0625 0.5125 0.015625
v 0.0625 0.575 0.015625
v 0 0.575 0.015625
vt 0.15625 0.5
vt 0.25 0.5
vt 0.25 0.4375
vt 0.15625 0.4375
f 519/519 520/520 521/521 522/522
v 0.1875 0.5125 0.015625
v 0.1875 0.575 0.015625
v 0.1875 0.575 0
v 0.1875 0.5125 0
vt 0.0625 0.4375
vt 0.25 0.4375
vt 0.25 0.5
vt 0.0625 0.5
f 523/523 524/524 525/525 526/526
v 0.3125 0.5125 0
v 0.3125 0.575 0
v 0.3125 0.575 0.015625
v 0.3125 0.5125 0.015625
vt 0.0625 0.5
vt 0.25 0.5
vt 0.25 0.4375
vt 0.0625 0.4375
f 527/527 528/528 529/529 530/530
v 0.1875 0.5125 0
v 0.3125 0.5125 0
v 0.3125 0.5125 0.015625
v 0.1875 0.5125 0.015625
vt 0.0625 0.5
vt 0.25 0.5
vt 0.25 0.4375
vt 0.0625 0.4375
f 531/531 532/532 533/533 534/534
v 0.1875 0.575 0.015625
v 0.3125 0.575 0.015625
v 0.3125 0.575 0
v 0.1875 0.575 0
vt 0.0625 0.4375
vt 0.25 0.4375
vt 0.25 0.5
vt 0.0625 0.5
f 535/535 536/536 537/537 538/538
v 0.1875 0.575 0
v 0.3125 0.575 0
v 0.3125 0.5125 0
v 0.1875 0.5125 0
vt 0.0625 0.4375
vt 0.25 0.4375
vt 0.25 0.5
vt 0.0625 0.5
f 539/539 540/540 541/541 542/542
v 0.1875 0.5125 0.015625
v 0.3125 0.5125 0.015625
v 0.3125 0.575 0.015625
v 0.1875 0.575 0.015625
vt 0.0625 0.5
vt 0.25 0.5
vt 0.25 0.4375
vt 0.0625 0.4375
f 543/543 544/544 545/545 546/546
v 0.4375 0.5125 0.015625
v 0.4375 0.575 0.015625
v 0.4375 0.575 0
v 0.4375 0.5125 0
vt 0.0625 0.4375
vt 0.25 0.4375
vt 0.25 0.5
vt 0.0625 0.5
f 547/547 548/548 549/549 550/550
v 0.5625 0.5125 0
v 0.5625 0.575 0
v 0.5625 0.575 0.015625
v 0.5625 0.5125 0.015625
vt 0.0625 0.5
vt 0.25 0.5
vt 0.25 0.4375
vt 0.0625 0.4375
f 551/551 552/552 553/553 554/554
v 0.4375 0.5125 0
v 0.5625 0.5125 0
v 0.5625 0.5125 0.015625
v 0.4375 0.5125 0.015625
vt 0.0625 0.5
vt 0.25 0.5
vt 0.25 0.4375
vt 0.0625 0.4375
f 555/555 556/556 557/557 558/558
v 0.4375 0.575 0.015625
v 0.5625 0.575 0.015625
v 0.5625 0.575 0
v 0.4375 0.575 0
vt 0.0625 0.4375
vt 0.25 0.4375
vt 0.25 0.5
vt 0.0625 0.5
f 559/559 560/560 561/561 562/562
v 0.4375 0.575 0
v 0.5625 0.575 0
v 0.5625 0.5125 0
v 0.4375 0.5125 0
vt 0.0625 0.4375
vt 0.25 0.4375
vt 0.25 0.5
vt 0.0625 0.5
f 563/563 564/564 565/565 566/566
v 0.4375 0.5125 0.015625
v 0.5625 0.5125 0.015625
v 0.5625 0.575 0.015625
v 0.4375 0.575 0.015625
vt 0.0625 0.5
vt 0.25 0.5
vt 0.25 0.4375
vt 0.0625 0.4375
f 567/567 568/568 569/569 570/570
v 0.6875 0.5125 0.015625
v 0.6875 0.575 0.015625
v 0.6875 0.575 0
v 0.6875 0.5125 0
vt 0.0625 0.4375
vt 0.25 0.4375
vt 0.25 0.5
vt 0.0625 0.5
f 571/571 572/572 573/573 574/574
v 0.8125 0.5125 0
v 0.8125 0.575 0
v 0.8125 0.575 0.015625
v 0.8125 0.5125 0.015625
vt 0.0625 0.5
vt 0.25 0.5
vt 0.25 0.4375
vt 0.0625 0.4375
f 575/575 576/576 577/577 578/578
v 0.6875 0.5125 0
v 0.8125 0.5125 0
v 0.8125 0.5125 0.015625
v 0.6875 0.5125 0.015625
vt 0.0625 0.5
vt 0.25 0.5
vt 0.25 0.4375
vt 0.0625 0.4375
f 579/579 580/580 581/581 582/582
v 0.6875 0.575 0.015625
v 0.8125 0.575 0.015625
v 0.8125 0.575 0
v 0.6875 0.575 0
vt 0.0625 0.4375
vt 0.25 0.4375
vt 0.25 0.5
vt 0.0625 0.5
f 583/583 584/584 585/585 586/586
v 0.6875 0.575 0
v 0.8125 0.575 0
v 0.8125 0.5125 0
v 0.6875 0.5125 0
vt 0.0625 0.4375
vt 0.25 0.4375
vt 0.25 0.5
vt 0.0625 0.5
f 587/587 588/588 589/589 590/590
v 0.6875 0.5125 0.015625
v 0.8125 0.5125 0.015625
v 0.8125 0.575 0.015625
v 0.6875 0.575 0.015625
vt 0.0625 0.5
vt 0.25 0.5
vt 0.25 0.4375
vt 0.0625 0.4375
f 591/591 592/592 593/593 594/594
