mtllib homelink_energy:models/hydro.mtl
usemtl dark
v 0 0 1
v 0 0.125 1
v 0 0.125 0
v 0 0 0
vt 0.0625 0.0625
vt 0.25 0.0625
vt 0.25 0.15625
vt 0.0625 0.15625
f 1/1 2/2 3/3 4/4
v 1 0 0
v 1 0 1
v 0 0 1
v 0 0 0
vt 0.15625 0.15625
vt 0.15625 0.0625
vt 0.0625 0.0625
vt 0.0625 0.15625
f 5/5 6/6 7/7 8/8
v 0.1875 0.125 0.25
v 0 0.125 0.25
v 0 0.125 0.825
v 0.1875 0.125 0.825
vt 0.08007813 0.1328125
vt 0.0625 0.1328125
vt 0.0625 0.07890625
vt 0.08007813 0.07890625
f 9/9 10/10 11/11 12/12
v 0.175 0.125 1
v 1 0.125 1
v 1 0.125 0.825
v 0.175 0.125 0.825
vt 0.07890625 0.0625
vt 0.15625 0.0625
vt 0.15625 0.07890625
vt 0.07890625 0.07890625
f 13/13 14/14 15/15 16/16
v 0 0.125 1
v 0.175 0.125 1
v 0.175 0.125 0.98125
v 0 0.125 0.98125
vt 0.0625 0.0625
vt 0.07890625 0.0625
vt 0.07890625 0.06425781
vt 0.0625 0.06425781
f 17/17 18/18 19/19 20/20
v 0.01875 0.125 0.825
v 0 0.125 0.825
v 0 0.125 0.98125
v 0.01875 0.125 0.98125
vt 0.06425781 0.07890625
vt 0.0625 0.07890625
vt 0.0625 0.06425781
vt 0.06425781 0.06425781
f 21/21 22/22 23/23 24/24
v 0 0.125 0
v 0 0.125 0.25
v 0.1875 0.125 0.25
v 0.1875 0.125 0
vt 0.0625 0.15625
vt 0.0625 0.1328125
vt 0.08007813 0.1328125
vt 0.08007813 0.15625
f 25/25 26/26 27/27 28/28
v 0 0 1
v 1 0 1
v 1 0.125 1
v 0 0.125 1
vt 0.0625 0.25
vt 0.15625 0.25
vt 0.15625 0.0625
vt 0.0625 0.0625
f 29/29 30/30 31/31 32/32
usemtl body
v 0.1875 0.125 0.25
v 0.1875 0.5 0.25
v 0.1875 0.5 0
v 0.1875 0.125 0
vt 0 0
vt 1 0
vt 1 0.25
vt 0 0.25
f 33/33 34/34 35/35 36/36
v 1 0.125 0
v 1 0.125 0.25
v 0.1875 0.125 0.25
v 0.1875 0.125 0
vt 0.5 0.25
vt 0.5 0
vt 0 0
vt 0 0.25
f 37/37 38/38 39/39 40/40
v 1 0.5 0.25
v 0.1875 0.5 0.25
v 0.1875 0.25 0.25
v 1 0.25 0.25
vt 0.5 0
vt 0 0
vt 0 0.66666667
vt 0.5 0.66666667
f 41/41 42/42 43/43 44/44
v 0.1875 0.5 0.25
v 0.1875 1 0.25
v 0.1875 1 0
v 0.1875 0.5 0
vt 0 0
vt 0.42105263 0
vt 0.42105263 0.23529412
vt 0 0.23529412
f 45/45 46/46 47/47 48/48
v 1 0.5 0
v 1 0.5 0.25
v 0.1875 0.5 0.25
v 0.1875 0.5 0
vt 0.5 0.23529412
vt 0.5 0
vt 0 0
vt 0 0.23529412
f 49/49 50/50 51/51 52/52
v 0.1875 0.5 0.25
v 1 0.5 0.25
v 1 1 0.25
v 0.1875 1 0.25
vt 0 1
vt 0.5 1
vt 0.5 0.57894737
vt 0 0.57894737
f 53/53 54/54 55/55 56/56
usemtl paint
v 0.01875 0.125 0.98125
v 0.01875 1 0.98125
v 0.01875 1 0.825
v 0.01875 0.125 0.825
vt 0 0
vt 0.02966102 0
vt 0.02966102 0.0625
vt 0 0.0625
f 57/57 58/58 59/59 60/60
v 0.175 0.125 0.825
v 0.175 1 0.825
v 0.175 1 0.98125
v 0.175 0.125 0.98125
vt 0 0.0625
vt 0.02966102 0.0625
vt 0.02966102 0
vt 0 0
f 61/61 62/62 63/63 64/64
v 0.01875 0.125 0.825
v 0.175 0.125 0.825
v 0.175 0.125 0.98125
v 0.01875 0.125 0.98125
vt 0 0.0625
vt 0.0625 0.0625
vt 0.0625 0
vt 0 0
f 65/65 66/66 67/67 68/68
v 0.175 0.25 0.825
v 0.175 0.125 0.825
v 0.01875 0.125 0.825
v 0.01875 0.25 0.825
vt 0.0625 0.05826271
vt 0.0625 0.0625
vt 0 0.0625
vt 0 0.05826271
f 69/69 70/70 71/71 72/72
v 0.125 0.25 0.825
v 0.01875 0.25 0.825
v 0.01875 1 0.825
v 0.125 1 0.825
vt 0.0425 0.05826271
vt 0 0.05826271
vt 0 0.03283898
vt 0.0425 0.03283898
f 73/73 74/74 75/75 76/76
v 0.01875 0.125 0.98125
v 0.175 0.125 0.98125
v 0.175 1 0.98125
v 0.01875 1 0.98125
vt 0 0.0625
vt 0.0625 0.0625
vt 0.0625 0.03283898
vt 0 0.03283898
f 77/77 78/78 79/79 80/80
usemtl dark
v 0.00625 0.21875 0.99375
v 0.00625 0.3125 0.99375
v 0.00625 0.3125 0.8125
v 0.00625 0.21875 0.8125
vt 0.0625 0.0625
vt 0.25 0.0625
vt 0.25 0.25
vt 0.0625 0.25
f 81/81 82/82 83/83 84/84
v 0.1875 0.3125 0.825
v 0.1875 0.3125 0.99375
v 0.1875 0.21875 0.99375
v 0.1875 0.21875 0.825
vt 0.25 0.23706897
vt 0.25 0.0625
vt 0.0625 0.0625
vt 0.0625 0.23706897
f 85/85 86/86 87/87 88/88
v 0.00625 0.21875 0.8125
v 0.1875 0.21875 0.8125
v 0.1875 0.21875 0.99375
v 0.00625 0.21875 0.99375
vt 0.0625 0.25
vt 0.25 0.25
vt 0.25 0.0625
vt 0.0625 0.0625
f 89/89 90/90 91/91 92/92
v 0.00625 0.3125 0.99375
v 0.1875 0.3125 0.99375
v 0.1875 0.3125 0.8125
v 0.00625 0.3125 0.8125
vt 0.0625 0.0625
vt 0.25 0.0625
vt 0.25 0.25
vt 0.0625 0.25
f 93/93 94/94 95/95 96/96
v 0.00625 0.3125 0.8125
v 0.1875 0.3125 0.8125
v 0.1875 0.21875 0.8125
v 0.00625 0.21875 0.8125
vt 0.0625 0.0625
vt 0.25 0.0625
vt 0.25 0.25
vt 0.0625 0.25
f 97/97 98/98 99/99 100/100
v 0.00625 0.21875 0.99375
v 0.1875 0.21875 0.99375
v 0.1875 0.3125 0.99375
v 0.00625 0.3125 0.99375
vt 0.0625 0.25
vt 0.25 0.25
vt 0.25 0.0625
vt 0.0625 0.0625
f 101/101 102/102 103/103 104/104
usemtl copper
v 0.11875 1 0.00625
v 0.11875 0.5 0.00625
v 0.13383883 0.5 0
v 0.13383883 1 0
vt 0.25 0.47222222
vt 0.25 0.5
vt 0.19180318 0.5
vt 0.19180318 0.47222222
f 105/105 106/106 107/107 108/108
v 0.10366117 0.5 0
v 0.11875 0.5 0.00625
v 0.11875 1 0.00625
v 0.10366117 1 0
vt 0.12069682 0.5
vt 0.0625 0.5
vt 0.0625 0.47222222
vt 0.12069682 0.47222222
f 109/109 110/110 111/111 112/112
v 0.13383883 0.5 0
v 0.11875 0.5 0.00625
v 0.11875 0.5 0
vt 0.17682568 0.44034091
vt 0.15625 0.4375
vt 0.15625 0.44034091
f 113/113 114/114 115/115
v 0.11875 0.5 0
v 0.11875 0.5 0.00625
v 0.10366117 0.5 0
vt 0.15625 0.44034091
vt 0.15625 0.4375
vt 0.13567432 0.44034091
f 116/116 117/117 118/118
usemtl dark
v 0.0375 0.625 0.01875
v 0.0375 0.6875 0.01875
v 0.0375 0.6875 0
v 0.0375 0.625 0
vt 0.0625 0.0625
vt 0.25 0.0625
vt 0.25 0.08413462
vt 0.0625 0.08413462
f 119/119 120/120 121/121 122/122
v 0.2 0.6875 0
v 0.2 0.6875 0.01875
v 0.2 0.625 0.01875
v 0.2 0.625 0
vt 0.25 0.08413462
vt 0.25 0.0625
vt 0.0625 0.0625
vt 0.0625 0.08413462
f 123/123 124/124 125/125 126/126
v 0.2 0.625 0
v 0.2 0.625 0.01875
v 0.0375 0.625 0.01875
v 0.0375 0.625 0
vt 0.25 0.08413462
vt 0.25 0.0625
vt 0.0625 0.0625
vt 0.0625 0.08413462
f 127/127 128/128 129/129 130/130
v 0.0375 0.6875 0.01875
v 0.2 0.6875 0.01875
v 0.2 0.6875 0
v 0.0375 0.6875 0
vt 0.0625 0.0625
vt 0.25 0.0625
vt 0.25 0.08413462
vt 0.0625 0.08413462
f 131/131 132/132 133/133 134/134
v 0.0375 0.625 0.01875
v 0.2 0.625 0.01875
v 0.2 0.6875 0.01875
v 0.0375 0.6875 0.01875
vt 0.0625 0.25
vt 0.25 0.25
vt 0.25 0.0625
vt 0.0625 0.0625
f 135/135 136/136 137/137 138/138
usemtl body
v 0.125 0.25 0.825
v 0.125 1 0.825
v 0.125 1 0.25
v 0.125 0.25 0.25
vt 0 0
vt 0.48 0
vt 0.48 1
vt 0 1
f 139/139 140/140 141/141 142/142
v 0.1875 0.25 0.25
v 0.1875 1 0.25
v 0.1875 1 0.825
v 0.1875 0.25 0.825
vt 0 1
vt 0.48 1
vt 0.48 0
vt 0 0
f 143/143 144/144 145/145 146/146
v 0.125 0.25 0.25
v 0.1875 0.25 0.25
v 0.1875 0.25 0.825
v 0.125 0.25 0.825
vt 0 1
vt 1 1
vt 1 0
vt 0 0
f 147/147 148/148 149/149 150/150
v 0.1875 1 0.25
v 0.1875 0.25 0.25
v 0.125 0.25 0.25
v 0.125 1 0.25
vt 1 0.52
vt 1 1
vt 0 1
vt 0 0.52
f 151/151 152/152 153/153 154/154
v 0.125 0.25 0.825
v 0.1875 0.25 0.825
v 0.1875 1 0.825
v 0.125 1 0.825
vt 0 1
vt 1 1
vt 1 0.52
vt 0 0.52
f 155/155 156/156 157/157 158/158
v 0.1875 0.125 0.825
v 0.1875 0.25 0.825
v 0.1875 0.25 0.25
v 0.1875 0.125 0.25
vt 0 0
vt 1 0
vt 1 1
vt 0 1
f 159/159 160/160 161/161 162/162
v 0.1875 0.125 0.25
v 1 0.125 0.25
v 1 0.125 0.825
v 0.1875 0.125 0.825
vt 0 1
vt 0.5 1
vt 0.5 0
vt 0 0
f 163/163 164/164 165/165 166/166
v 0.1875 0.25 0.825
v 1 0.25 0.825
v 1 0.25 0.25
v 0.1875 0.25 0.25
vt 0 0
vt 0.5 0
vt 0.5 1
vt 0 1
f 167/167 168/168 169/169 170/170
v 0.1875 0.25 0.25
v 1 0.25 0.25
v 1 0.125 0.25
v 0.1875 0.125 0.25
vt 0 0
vt 0.5 0
vt 0.5 1
vt 0 1
f 171/171 172/172 173/173 174/174
v 0.1875 0.125 0.825
v 1 0.125 0.825
v 1 0.25 0.825
v 0.1875 0.25 0.825
vt 0 1
vt 0.5 1
vt 0.5 0
vt 0 0
f 175/175 176/176 177/177 178/178
usemtl dark
v 0.1875 0.3125 0.98125
v 0.1875 0.353125 0.98125
v 0.1875 0.353125 0.9375
v 0.1875 0.3125 0.9375
vt 0.0625 0.0625
vt 0.25 0.0625
vt 0.25 0.25
vt 0.0625 0.25
f 179/179 180/180 181/181 182/182
v 0.1875 0.3125 0.9375
v 1 0.3125 0.9375
v 1 0.3125 0.98125
v 0.1875 0.3125 0.98125
vt 0.0625 0.25
vt 0.15625 0.25
vt 0.15625 0.0625
vt 0.0625 0.0625
f 183/183 184/184 185/185 186/186
v 0.1875 0.353125 0.98125
v 1 0.353125 0.98125
v 1 0.353125 0.9375
v 0.1875 0.353125 0.9375
vt 0.0625 0.0625
vt 0.15625 0.0625
vt 0.15625 0.25
vt 0.0625 0.25
f 187/187 188/188 189/189 190/190
v 0.1875 0.353125 0.9375
v 1 0.353125 0.9375
v 1 0.3125 0.9375
v 0.1875 0.3125 0.9375
vt 0.0625 0.0625
vt 0.15625 0.0625
vt 0.15625 0.25
vt 0.0625 0.25
f 191/191 192/192 193/193 194/194
v 0.1875 0.3125 0.98125
v 1 0.3125 0.98125
v 1 0.353125 0.98125
v 0.1875 0.353125 0.98125
vt 0.0625 0.25
vt 0.15625 0.25
vt 0.15625 0.0625
vt 0.0625 0.0625
f 195/195 196/196 197/197 198/198
v 0.1875 0.65625 0.98125
v 0.1875 0.696875 0.98125
v 0.1875 0.696875 0.9375
v 0.1875 0.65625 0.9375
vt 0.0625 0.0625
vt 0.25 0.0625
vt 0.25 0.25
vt 0.0625 0.25
f 199/199 200/200 201/201 202/202
v 0.1875 0.65625 0.9375
v 1 0.65625 0.9375
v 1 0.65625 0.98125
v 0.1875 0.65625 0.98125
vt 0.0625 0.25
vt 0.15625 0.25
vt 0.15625 0.0625
vt 0.0625 0.0625
f 203/203 204/204 205/205 206/206
v 0.1875 0.696875 0.98125
v 1 0.696875 0.98125
v 1 0.696875 0.9375
v 0.1875 0.696875 0.9375
vt 0.0625 0.0625
vt 0.15625 0.0625
vt 0.15625 0.25
vt 0.0625 0.25
f 207/207 208/208 209/209 210/210
v 0.1875 0.696875 0.9375
v 1 0.696875 0.9375
v 1 0.65625 0.9375
v 0.1875 0.65625 0.9375
vt 0.0625 0.0625
vt 0.15625 0.0625
vt 0.15625 0.25
vt 0.0625 0.25
f 211/211 212/212 213/213 214/214
v 0.1875 0.65625 0.98125
v 1 0.65625 0.98125
v 1 0.696875 0.98125
v 0.1875 0.696875 0.98125
vt 0.0625 0.25
vt 0.15625 0.25
vt 0.15625 0.0625
vt 0.0625 0.0625
f 215/215 216/216 217/217 218/218
v 0.1875 1 0.9375
v 1 1 0.9375
v 1 1 0.98125
v 0.1875 1 0.98125
vt 0.0625 0.25
vt 0.15625 0.25
vt 0.15625 0.0625
vt 0.0625 0.0625
f 219/219 220/220 221/221 222/222
usemtl paint
v 0.5 0.25 0.9875
v 0.5 1 0.9875
v 0.5 1 0.94375
v 0.5 0.25 0.94375
vt 0 0
vt 0.03 0
vt 0.03 0.0625
vt 0 0.0625
f 223/223 224/224 225/225 226/226
v 0.54375 0.25 0.94375
v 0.54375 1 0.94375
v 0.54375 1 0.9875
v 0.54375 0.25 0.9875
vt 0 0.0625
vt 0.03 0.0625
vt 0.03 0
vt 0 0
f 227/227 228/228 229/229 230/230
v 0.5 0.25 0.94375
v 0.54375 0.25 0.94375
v 0.54375 0.25 0.9875
v 0.5 0.25 0.9875
vt 0 0.0625
vt 0.0625 0.0625
vt 0.0625 0
vt 0 0
f 231/231 232/232 233/233 234/234
v 0.54375 1 0.94375
v 0.54375 0.25 0.94375
v 0.5 0.25 0.94375
v 0.5 1 0.94375
vt 0.0625 0.0325
vt 0.0625 0.0625
vt 0 0.0625
vt 0 0.0325
f 235/235 236/236 237/237 238/238
v 0.5 0.25 0.9875
v 0.54375 0.25 0.9875
v 0.54375 1 0.9875
v 0.5 1 0.9875
vt 0 0.0625
vt 0.0625 0.0625
vt 0.0625 0.0325
vt 0 0.0325
f 239/239 240/240 241/241 242/242
v 0.96875 0.25 0.9875
v 0.96875 1 0.9875
v 0.96875 1 0.94375
v 0.96875 0.25 0.94375
vt 0 0
vt 0.03 0
vt 0.03 0.0625
vt 0 0.0625
f 243/243 244/244 245/245 246/246
v 0.96875 0.25 0.94375
v 1 0.25 0.94375
v 1 0.25 0.9875
v 0.96875 0.25 0.9875
vt 0 0.0625
vt 0.04464286 0.0625
vt 0.04464286 0
vt 0 0
f 247/247 248/248 249/249 250/250
v 1 1 0.94375
v 1 0.25 0.94375
v 0.96875 0.25 0.94375
v 0.96875 1 0.94375
vt 0.04464286 0.0325
vt 0.04464286 0.0625
vt 0 0.0625
vt 0 0.0325
f 251/251 252/252 253/253 254/254
v 0.96875 0.25 0.9875
v 1 0.25 0.9875
v 1 1 0.9875
v 0.96875 1 0.9875
vt 0 0.0625
vt 0.04464286 0.0625
vt 0.04464286 0.0325
vt 0 0.0325
f 255/255 256/256 257/257 258/258
