# Generated by scripts/hydro-models.cjs
mtllib homelink_energy:models/hydro.mtl
usemtl body
v 0.1875 0 0.25
v 0.1875 0.6875 0.25
v 0.1875 0.6875 0
v 0.1875 0 0
vt 0.42105263 0
vt 1 0
vt 1 0.23529412
vt 0.42105263 0.23529412
f 1/1 2/2 3/3 4/4
v 0.1875 0.6875 0.25
v 1 0.6875 0.25
v 1 0.6875 0.125
v 0.1875 0.6875 0.125
vt 0 0
vt 0.5 0
vt 0.5 0.11764706
vt 0 0.11764706
f 5/5 6/6 7/7 8/8
v 0.1875 0.6875 0
v 0.1875 0.6875 0.125
v 0.25 0.6875 0.125
v 0.25 0.6875 0
vt 0 0.23529412
vt 0 0.11764706
vt 0.03846154 0.11764706
vt 0.03846154 0.23529412
f 9/9 10/10 11/11 12/12
v 1 0 0.25
v 1 0.6875 0.25
v 0.1875 0.6875 0.25
v 0.1875 0 0.25
vt 0.5 0.57894737
vt 0.5 0
vt 0 0
vt 0 0.57894737
f 13/13 14/14 15/15 16/16
usemtl paint
v 0.01875 0 0.98125
v 0.01875 0.96875 0.98125
v 0.01875 0.96875 0.825
v 0.01875 0 0.825
vt 0.02966102 0
vt 0.0625 0
vt 0.0625 0.0625
vt 0.02966102 0.0625
f 17/17 18/18 19/19 20/20
v 0.175 0 0.825
v 0.175 0.96875 0.825
v 0.175 0.96875 0.98125
v 0.175 0 0.98125
vt 0.02966102 0.0625
vt 0.0625 0.0625
vt 0.0625 0
vt 0.02966102 0
f 21/21 22/22 23/23 24/24
v 0.01875 0.96875 0.98125
v 0.175 0.96875 0.98125
v 0.175 0.96875 0.825
v 0.01875 0.96875 0.825
vt 0 0
vt 0.0625 0
vt 0.0625 0.0625
vt 0 0.0625
f 25/25 26/26 27/27 28/28
v 0.01875 0.96875 0.825
v 0.175 0.96875 0.825
v 0.175 0.8125 0.825
v 0.01875 0.8125 0.825
vt 0 0
vt 0.0625 0
vt 0.0625 0.00529661
vt 0 0.00529661
f 29/29 30/30 31/31 32/32
v 0.01875 0 0.825
v 0.01875 0.8125 0.825
v 0.125 0.8125 0.825
v 0.125 0 0.825
vt 0 0.03283898
vt 0 0.00529661
vt 0.0425 0.00529661
vt 0.0425 0.03283898
f 33/33 34/34 35/35 36/36
v 0.175 0 0.98125
v 0.175 0.96875 0.98125
v 0.01875 0.96875 0.98125
v 0.01875 0 0.98125
vt 0.0625 0.03283898
vt 0.0625 0
vt 0 0
vt 0 0.03283898
f 37/37 38/38 39/39 40/40
usemtl dark
v 0.00625 0.71875 0.99375
v 0.00625 0.8125 0.99375
v 0.00625 0.8125 0.8125
v 0.00625 0.71875 0.8125
vt 0.0625 0.0625
vt 0.25 0.0625
vt 0.25 0.25
vt 0.0625 0.25
f 41/41 42/42 43/43 44/44
v 0.1875 0.8125 0.98125
v 0.1875 0.8125 0.99375
v 0.1875 0.71875 0.99375
v 0.1875 0.71875 0.98125
vt 0.25 0.07543103
vt 0.25 0.0625
vt 0.0625 0.0625
vt 0.0625 0.07543103
f 45/45 46/46 47/47 48/48
v 0.1875 0.8125 0.825
v 0.1875 0.8125 0.98125
v 0.1875 0.728125 0.98125
v 0.1875 0.728125 0.825
vt 0.25 0.23706897
vt 0.25 0.07543103
vt 0.08125 0.07543103
vt 0.08125 0.23706897
f 49/49 50/50 51/51 52/52
v 0.1875 0.71875 0.9375
v 0.1875 0.71875 0.825
v 0.1875 0.728125 0.825
v 0.1875 0.728125 0.9375
vt 0.0625 0.12068966
vt 0.0625 0.23706897
vt 0.08125 0.23706897
vt 0.08125 0.12068966
f 53/53 54/54 55/55 56/56
v 0.00625 0.71875 0.8125
v 0.1875 0.71875 0.8125
v 0.1875 0.71875 0.99375
v 0.00625 0.71875 0.99375
vt 0.0625 0.25
vt 0.25 0.25
vt 0.25 0.0625
vt 0.0625 0.0625
f 57/57 58/58 59/59 60/60
v 0.1875 0.8125 0.84375
v 0.1875 0.8125 0.825
v 0.15625 0.8125 0.825
v 0.15625 0.8125 0.84375
vt 0.25 0.21767241
vt 0.25 0.23706897
vt 0.21767241 0.23706897
vt 0.21767241 0.21767241
f 61/61 62/62 63/63 64/64
v 0.00625 0.8125 0.8125
v 0.1875 0.8125 0.8125
v 0.1875 0.71875 0.8125
v 0.00625 0.71875 0.8125
vt 0.0625 0.0625
vt 0.25 0.0625
vt 0.25 0.25
vt 0.0625 0.25
f 65/65 66/66 67/67 68/68
v 0.00625 0.71875 0.99375
v 0.1875 0.71875 0.99375
v 0.1875 0.8125 0.99375
v 0.00625 0.8125 0.99375
vt 0.0625 0.25
vt 0.25 0.25
vt 0.25 0.0625
vt 0.0625 0.0625
f 69/69 70/70 71/71 72/72
v 0 0.8125 1
v 0 1 1
v 0 1 0.84375
v 0 0.8125 0.84375
vt 0.0625 0.0625
vt 0.25 0.0625
vt 0.25 0.25
vt 0.0625 0.25
f 73/73 74/74 75/75 76/76
v 1 0.8125 1
v 0 0.8125 1
v 0 0.8125 0.9875
v 1 0.8125 0.9875
vt 0.15625 0.0625
vt 0.0625 0.0625
vt 0.0625 0.0775
vt 0.15625 0.0775
f 77/77 78/78 79/79 80/80
v 0.54375 0.8125 0.84375
v 1 0.8125 0.84375
v 1 0.8125 0.94375
v 0.54375 0.8125 0.94375
vt 0.11347656 0.25
vt 0.15625 0.25
vt 0.15625 0.13
vt 0.11347656 0.13
f 81/81 82/82 83/83 84/84
v 0.96875 0.8125 0.9875
v 0.54375 0.8125 0.9875
v 0.54375 0.8125 0.94375
v 0.96875 0.8125 0.94375
vt 0.15332031 0.0775
vt 0.11347656 0.0775
vt 0.11347656 0.13
vt 0.15332031 0.13
f 85/85 86/86 87/87 88/88
v 0 0.8125 0.84375
v 0.54375 0.8125 0.84375
v 0.54375 0.8125 0.94375
v 0 0.8125 0.94375
vt 0.0625 0.25
vt 0.11347656 0.25
vt 0.11347656 0.13
vt 0.0625 0.13
f 89/89 90/90 91/91 92/92
v 0.5 0.8125 0.9875
v 0 0.8125 0.9875
v 0 0.8125 0.94375
v 0.5 0.8125 0.94375
vt 0.109375 0.0775
vt 0.0625 0.0775
vt 0.0625 0.13
vt 0.109375 0.13
f 93/93 94/94 95/95 96/96
v 0.15625 1 0.84375
v 0 1 0.84375
v 0 1 0.99460678
v 0.0092068 1 0.9907932
vt 0.07714844 0.25
vt 0.0625 0.25
vt 0.0625 0.06897186
vt 0.06336314 0.07354816
f 97/97 98/98 99/99 100/100
v 0.30384515 1 0.84375
v 0.15625 1 0.84375
v 0.0092068 1 0.9907932
v 0.33402282 1 0.85625
vt 0.09098548 0.25
vt 0.07714844 0.25
vt 0.06336314 0.07354816
vt 0.09381464 0.235
f 101/101 102/102 103/103 104/104
v 0 1 1
v 0.0092068 1 0.9907932
v 0 1 0.99460678
vt 0.0625 0.0625
vt 0.06336314 0.07354816
vt 0.0625 0.06897186
f 105/105 106/106 107/107
v 0 1 1
v 0.5 1 1
v 0.5 1 0.925
vt 0.0625 0.0625
vt 0.109375 0.0625
vt 0.109375 0.1525
f 108/108 109/109 110/110
v 0 1 1
v 0.5 1 0.925
v 0.33402282 1 0.85625
vt 0.0625 0.0625
vt 0.109375 0.1525
vt 0.09381464 0.235
f 111/111 112/112 113/113
v 0 1 1
v 0.33402282 1 0.85625
v 0.0092068 1 0.9907932
vt 0.0625 0.0625
vt 0.09381464 0.235
vt 0.06336314 0.07354816
f 114/114 115/115 116/116
v 0.5 1 1
v 1 1 1
v 1 1 0.94791667
vt 0.109375 0.0625
vt 0.15625 0.0625
vt 0.15625 0.125
f 117/117 118/118 119/119
v 0.5 1 1
v 1 1 0.94791667
v 1 1 0.84375
v 0.69615485 1 0.84375
vt 0.109375 0.0625
vt 0.15625 0.125
vt 0.15625 0.25
vt 0.12776452 0.25
f 120/120 121/121 122/122 123/123
v 0.5 1 1
v 0.69615485 1 0.84375
v 0.5 1 0.925
vt 0.109375 0.0625
vt 0.12776452 0.25
vt 0.109375 0.1525
f 124/124 125/125 126/126
v 0.15625 1 0.84375
v 1 1 0.84375
v 1 0.8125 0.84375
v 0.15625 0.8125 0.84375
vt 0.07714844 0.0625
vt 0.15625 0.0625
vt 0.15625 0.25
vt 0.07714844 0.25
f 127/127 128/128 129/129 130/130
v 0 0.8125 1
v 1 0.8125 1
v 1 1 1
v 0 1 1
vt 0.0625 0.25
vt 0.15625 0.25
vt 0.15625 0.0625
vt 0.0625 0.0625
f 131/131 132/132 133/133 134/134
v 0 0.8125 0.84375
v 0 1 0.84375
v 0 1 0
v 0 0.8125 0
vt 0.0625 0.0625
vt 0.25 0.0625
vt 0.25 0.15625
vt 0.0625 0.15625
f 135/135 136/136 137/137 138/138
v 0.15625 1 0
v 0.15625 1 0.84375
v 0.15625 0.8125 0.84375
v 0.15625 0.8125 0
vt 0.25 0.15625
vt 0.25 0.0625
vt 0.0625 0.0625
vt 0.0625 0.15625
f 139/139 140/140 141/141 142/142
v 0.15625 0.8125 0.825
v 0.15625 0.8125 0.84375
v 0 0.8125 0.84375
v 0 0.8125 0.825
vt 0.25 0.06458333
vt 0.25 0.0625
vt 0.0625 0.0625
vt 0.0625 0.06458333
f 143/143 144/144 145/145 146/146
v 0.15625 0.8125 0
v 0.15625 0.8125 0.25
v 0 0.8125 0.25
v 0 0.8125 0
vt 0.25 0.15625
vt 0.25 0.12847222
vt 0.0625 0.12847222
vt 0.0625 0.15625
f 147/147 148/148 149/149 150/150
v 0.125 0.8125 0.825
v 0 0.8125 0.825
v 0 0.8125 0.25
v 0.125 0.8125 0.25
vt 0.2125 0.06458333
vt 0.0625 0.06458333
vt 0.0625 0.12847222
vt 0.2125 0.12847222
f 151/151 152/152 153/153 154/154
v 0.15625 1 0.15625
v 0.15625 1 0
v 0.13183594 1 0
vt 0.25 0.13888889
vt 0.25 0.15625
vt 0.22070312 0.15625
f 155/155 156/156 157/157
v 0.15625 1 0.15625
v 0.13183594 1 0
v 0.01201885 1 0
vt 0.25 0.13888889
vt 0.22070312 0.15625
vt 0.07692262 0.15625
f 158/158 159/159 160/160
v 0.15625 1 0.15625
v 0.01201885 1 0
v 0.00539322 1 0
v 0.0092068 1 0.0092068
vt 0.25 0.13888889
vt 0.07692262 0.15625
vt 0.06897186 0.15625
vt 0.07354816 0.15522702
f 161/161 162/162 163/163 164/164
v 0.15625 1 0.30384515
v 0.15625 1 0.15625
v 0.0092068 1 0.0092068
v 0.14375 1 0.33402282
vt 0.25 0.12248943
vt 0.25 0.13888889
vt 0.07354816 0.15522702
vt 0.235 0.11913635
f 165/165 166/166 167/167 168/168
v 0.0092068 1 0.0092068
v 0.00539322 1 0
v 0 1 0
vt 0.07354816 0.15522702
vt 0.06897186 0.15625
vt 0.0625 0.15625
f 169/169 170/170 171/171
v 0.14375 1 0.33402282
v 0.0092068 1 0.0092068
v 0 1 0
vt 0.235 0.11913635
vt 0.07354816 0.15522702
vt 0.0625 0.15625
f 172/172 173/173 174/174
v 0.14375 1 0.33402282
v 0 1 0
v 0 1 0.5
vt 0.235 0.11913635
vt 0.0625 0.15625
vt 0.0625 0.10069444
f 175/175 176/176 177/177
v 0.14375 1 0.33402282
v 0 1 0.5
v 0.075 1 0.5
vt 0.235 0.11913635
vt 0.0625 0.10069444
vt 0.1525 0.10069444
f 178/178 179/179 180/180
v 0 1 0.84375
v 0.15625 1 0.84375
v 0.15625 1 0.69615485
vt 0.0625 0.0625
vt 0.25 0.0625
vt 0.25 0.07889946
f 181/181 182/182 183/183
v 0 1 0.84375
v 0.15625 1 0.69615485
v 0.075 1 0.5
vt 0.0625 0.0625
vt 0.25 0.07889946
vt 0.1525 0.10069444
f 184/184 185/185 186/186
v 0 1 0.84375
v 0.075 1 0.5
v 0 1 0.5
vt 0.0625 0.0625
vt 0.1525 0.10069444
vt 0.0625 0.10069444
f 187/187 188/188 189/189
v 0 0.8125 0.84375
v 0.15625 0.8125 0.84375
v 0.15625 1 0.84375
v 0 1 0.84375
vt 0.0625 0.25
vt 0.25 0.25
vt 0.25 0.0625
vt 0.0625 0.0625
f 190/190 191/191 192/192 193/193
v 0.25 0.6875 0.125
v 0.25 0.78125 0.125
v 0.25 0.78125 0
v 0.25 0.6875 0
vt 0.0625 0.0625
vt 0.25 0.0625
vt 0.25 0.08928571
vt 0.0625 0.08928571
f 194/194 195/195 196/196 197/197
v 1 0.6875 0
v 1 0.6875 0.125
v 0.25 0.6875 0.125
v 0.25 0.6875 0
vt 0.15625 0.08928571
vt 0.15625 0.0625
vt 0.0625 0.0625
vt 0.0625 0.08928571
f 198/198 199/199 200/200 201/201
v 0.25 0.78125 0.125
v 1 0.78125 0.125
v 1 0.78125 0
v 0.25 0.78125 0
vt 0.0625 0.0625
vt 0.15625 0.0625
vt 0.15625 0.08928571
vt 0.0625 0.08928571
f 202/202 203/203 204/204 205/205
v 0.25 0.6875 0.125
v 1 0.6875 0.125
v 1 0.78125 0.125
v 0.25 0.78125 0.125
vt 0.0625 0.25
vt 0.15625 0.25
vt 0.15625 0.0625
vt 0.0625 0.0625
f 206/206 207/207 208/208 209/209
usemtl copper
v 0.13383883 0.625 0
v 0.11875 0.625 0.00625
v 0.11875 0 0.00625
v 0.13383883 0 0
vt 0.19180318 0.4375
vt 0.25 0.4375
vt 0.25 0.47222222
vt 0.19180318 0.47222222
f 210/210 211/211 212/212 213/213
v 0.11875 0.625 0.00625
v 0.10366117 0.625 0
v 0.10366117 0 0
v 0.11875 0 0.00625
vt 0.0625 0.4375
vt 0.12069682 0.4375
vt 0.12069682 0.47222222
vt 0.0625 0.47222222
f 214/214 215/215 216/216 217/217
v 0.11875 0.625 0.00625
v 0.13383883 0.625 0
v 0.11875 0.625 0
vt 0.15625 0.4375
vt 0.17682568 0.44034091
vt 0.15625 0.44034091
f 218/218 219/219 220/220
v 0.10366117 0.625 0
v 0.11875 0.625 0.00625
v 0.11875 0.625 0
vt 0.13567432 0.44034091
vt 0.15625 0.4375
vt 0.15625 0.44034091
f 221/221 222/222 223/223
usemtl dark
v 0.0375 0.375 0.01875
v 0.0375 0.4375 0.01875
v 0.0375 0.4375 0
v 0.0375 0.375 0
vt 0.0625 0.0625
vt 0.25 0.0625
vt 0.25 0.08413462
vt 0.0625 0.08413462
f 224/224 225/225 226/226 227/227
v 0.2 0.4375 0
v 0.2 0.4375 0.01875
v 0.2 0.375 0.01875
v 0.2 0.375 0
vt 0.25 0.08413462
vt 0.25 0.0625
vt 0.0625 0.0625
vt 0.0625 0.08413462
f 228/228 229/229 230/230 231/231
v 0.2 0.375 0
v 0.2 0.375 0.01875
v 0.0375 0.375 0.01875
v 0.0375 0.375 0
vt 0.25 0.08413462
vt 0.25 0.0625
vt 0.0625 0.0625
vt 0.0625 0.08413462
f 232/232 233/233 234/234 235/235
v 0.0375 0.4375 0.01875
v 0.2 0.4375 0.01875
v 0.2 0.4375 0
v 0.0375 0.4375 0
vt 0.0625 0.0625
vt 0.25 0.0625
vt 0.25 0.08413462
vt 0.0625 0.08413462
f 236/236 237/237 238/238 239/239
v 0.0375 0.375 0.01875
v 0.2 0.375 0.01875
v 0.2 0.4375 0.01875
v 0.0375 0.4375 0.01875
vt 0.0625 0.25
vt 0.25 0.25
vt 0.25 0.0625
vt 0.0625 0.0625
f 240/240 241/241 242/242 243/243
usemtl body
v 0.125 0 0.825
v 0.125 0.8125 0.825
v 0.125 0.8125 0.25
v 0.125 0 0.25
vt 0.48 0
vt 1 0
vt 1 1
vt 0.48 1
f 244/244 245/245 246/246 247/247
v 0.1875 0 0.25
v 0.1875 0.8 0.25
v 0.1875 0.8 0.825
v 0.1875 0 0.825
vt 0.48 1
vt 0.992 1
vt 0.992 0
vt 0.48 0
f 248/248 249/249 250/250 251/251
v 0.125 0.8125 0.825
v 0.1875 0.8125 0.825
v 0.1875 0.8125 0.25
v 0.125 0.8125 0.25
vt 0 0
vt 1 0
vt 1 1
vt 0 1
f 252/252 253/253 254/254 255/255
v 0.125 0.8125 0.25
v 0.1875 0.8125 0.25
v 0.1875 0 0.25
v 0.125 0 0.25
vt 0 0
vt 1 0
vt 1 0.52
vt 0 0.52
f 256/256 257/257 258/258 259/259
v 0.1875 0 0.825
v 0.1875 0.8125 0.825
v 0.125 0.8125 0.825
v 0.125 0 0.825
vt 1 0.52
vt 1 0
vt 0 0
vt 0 0.52
f 260/260 261/261 262/262 263/263
v 0.1875 0.8 0.825
v 0.1875 0.8625 0.825
v 0.1875 0.8625 0.25
v 0.1875 0.8 0.25
vt 0 0
vt 1 0
vt 1 1
vt 0 1
f 264/264 265/265 266/266 267/267
v 0.1875 0.8 0.25
v 1 0.8 0.25
v 1 0.8 0.825
v 0.1875 0.8 0.825
vt 0 1
vt 0.5 1
vt 0.5 0
vt 0 0
f 268/268 269/269 270/270 271/271
v 0.1875 0.8625 0.825
v 1 0.8625 0.825
v 1 0.8625 0.25
v 0.1875 0.8625 0.25
vt 0 0
vt 0.5 0
vt 0.5 1
vt 0 1
f 272/272 273/273 274/274 275/275
v 0.1875 0.8625 0.25
v 1 0.8625 0.25
v 1 0.8 0.25
v 0.1875 0.8 0.25
vt 0 0
vt 0.5 0
vt 0.5 1
vt 0 1
f 276/276 277/277 278/278 279/279
v 0.1875 0.8 0.825
v 1 0.8 0.825
v 1 0.8625 0.825
v 0.1875 0.8625 0.825
vt 0 1
vt 0.5 1
vt 0.5 0
vt 0 0
f 280/280 281/281 282/282 283/283
usemtl dark
v 0.1875 0 0.98125
v 0.1875 0.040625 0.98125
v 0.1875 0.040625 0.9375
v 0.1875 0 0.9375
vt 0.0625 0.0625
vt 0.25 0.0625
vt 0.25 0.25
vt 0.0625 0.25
f 284/284 285/285 286/286 287/287
v 0.1875 0.040625 0.98125
v 1 0.040625 0.98125
v 1 0.040625 0.9375
v 0.1875 0.040625 0.9375
vt 0.0625 0.0625
vt 0.15625 0.0625
vt 0.15625 0.25
vt 0.0625 0.25
f 288/288 289/289 290/290 291/291
v 0.1875 0.040625 0.9375
v 1 0.040625 0.9375
v 1 0 0.9375
v 0.1875 0 0.9375
vt 0.0625 0.0625
vt 0.15625 0.0625
vt 0.15625 0.25
vt 0.0625 0.25
f 292/292 293/293 294/294 295/295
v 0.1875 0 0.98125
v 1 0 0.98125
v 1 0.040625 0.98125
v 0.1875 0.040625 0.98125
vt 0.0625 0.25
vt 0.15625 0.25
vt 0.15625 0.0625
vt 0.0625 0.0625
f 296/296 297/297 298/298 299/299
v 0.1875 0.34375 0.98125
v 0.1875 0.384375 0.98125
v 0.1875 0.384375 0.9375
v 0.1875 0.34375 0.9375
vt 0.0625 0.0625
vt 0.25 0.0625
vt 0.25 0.25
vt 0.0625 0.25
f 300/300 301/301 302/302 303/303
v 0.1875 0.34375 0.9375
v 1 0.34375 0.9375
v 1 0.34375 0.98125
v 0.1875 0.34375 0.98125
vt 0.0625 0.25
vt 0.15625 0.25
vt 0.15625 0.0625
vt 0.0625 0.0625
f 304/304 305/305 306/306 307/307
v 0.1875 0.384375 0.98125
v 1 0.384375 0.98125
v 1 0.384375 0.9375
v 0.1875 0.384375 0.9375
vt 0.0625 0.0625
vt 0.15625 0.0625
vt 0.15625 0.25
vt 0.0625 0.25
f 308/308 309/309 310/310 311/311
v 0.1875 0.384375 0.9375
v 1 0.384375 0.9375
v 1 0.34375 0.9375
v 0.1875 0.34375 0.9375
vt 0.0625 0.0625
vt 0.15625 0.0625
vt 0.15625 0.25
vt 0.0625 0.25
f 312/312 313/313 314/314 315/315
v 0.1875 0.34375 0.98125
v 1 0.34375 0.98125
v 1 0.384375 0.98125
v 0.1875 0.384375 0.98125
vt 0.0625 0.25
vt 0.15625 0.25
vt 0.15625 0.0625
vt 0.0625 0.0625
f 316/316 317/317 318/318 319/319
v 0.1875 0.6875 0.98125
v 0.1875 0.728125 0.98125
v 0.1875 0.728125 0.9375
v 0.1875 0.6875 0.9375
vt 0.0625 0.0625
vt 0.25 0.0625
vt 0.25 0.25
vt 0.0625 0.25
f 320/320 321/321 322/322 323/323
v 0.1875 0.6875 0.9375
v 1 0.6875 0.9375
v 1 0.6875 0.98125
v 0.1875 0.6875 0.98125
vt 0.0625 0.25
vt 0.15625 0.25
vt 0.15625 0.0625
vt 0.0625 0.0625
f 324/324 325/325 326/326 327/327
v 0.1875 0.728125 0.98125
v 1 0.728125 0.98125
v 1 0.728125 0.9375
v 0.1875 0.728125 0.9375
vt 0.0625 0.0625
vt 0.15625 0.0625
vt 0.15625 0.25
vt 0.0625 0.25
f 328/328 329/329 330/330 331/331
v 0.1875 0.728125 0.9375
v 1 0.728125 0.9375
v 1 0.6875 0.9375
v 0.1875 0.6875 0.9375
vt 0.0625 0.0625
vt 0.15625 0.0625
vt 0.15625 0.25
vt 0.0625 0.25
f 332/332 333/333 334/334 335/335
v 0.1875 0.6875 0.98125
v 1 0.6875 0.98125
v 1 0.728125 0.98125
v 0.1875 0.728125 0.98125
vt 0.0625 0.25
vt 0.15625 0.25
vt 0.15625 0.0625
vt 0.0625 0.0625
f 336/336 337/337 338/338 339/339
usemtl paint
v 0.5 0 0.9875
v 0.5 0.8125 0.9875
v 0.5 0.8125 0.94375
v 0.5 0 0.94375
vt 0.03 0
vt 0.0625 0
vt 0.0625 0.0625
vt 0.03 0.0625
f 340/340 341/341 342/342 343/343
v 0.54375 0 0.94375
v 0.54375 0.8125 0.94375
v 0.54375 0.8125 0.9875
v 0.54375 0 0.9875
vt 0.03 0.0625
vt 0.0625 0.0625
vt 0.0625 0
vt 0.03 0
f 344/344 345/345 346/346 347/347
v 0.5 0.8125 0.9875
v 0.54375 0.8125 0.9875
v 0.54375 0.8125 0.94375
v 0.5 0.8125 0.94375
vt 0 0
vt 0.0625 0
vt 0.0625 0.0625
vt 0 0.0625
f 348/348 349/349 350/350 351/351
v 0.5 0.8125 0.94375
v 0.54375 0.8125 0.94375
v 0.54375 0 0.94375
v 0.5 0 0.94375
vt 0 0
vt 0.0625 0
vt 0.0625 0.0325
vt 0 0.0325
f 352/352 353/353 354/354 355/355
v 0.54375 0 0.9875
v 0.54375 0.8125 0.9875
v 0.5 0.8125 0.9875
v 0.5 0 0.9875
vt 0.0625 0.0325
vt 0.0625 0
vt 0 0
vt 0 0.0325
f 356/356 357/357 358/358 359/359
v 0.96875 0 0.9875
v 0.96875 0.8125 0.9875
v 0.96875 0.8125 0.94375
v 0.96875 0 0.94375
vt 0.03 0
vt 0.0625 0
vt 0.0625 0.0625
vt 0.03 0.0625
f 360/360 361/361 362/362 363/363
v 0.96875 0.8125 0.9875
v 1 0.8125 0.9875
v 1 0.8125 0.94375
v 0.96875 0.8125 0.94375
vt 0 0
vt 0.04464286 0
vt 0.04464286 0.0625
vt 0 0.0625
f 364/364 365/365 366/366 367/367
v 0.96875 0.8125 0.94375
v 1 0.8125 0.94375
v 1 0 0.94375
v 0.96875 0 0.94375
vt 0 0
vt 0.04464286 0
vt 0.04464286 0.0325
vt 0 0.0325
f 368/368 369/369 370/370 371/371
v 1 0 0.9875
v 1 0.8125 0.9875
v 0.96875 0.8125 0.9875
v 0.96875 0 0.9875
vt 0.04464286 0.0325
vt 0.04464286 0
vt 0 0
vt 0 0.0325
f 372/372 373/373 374/374 375/375
usemtl body
v 0.7032932 0.875 0.7032932
v 0.7032932 0.75 0.7032932
v 0.7875 0.75 0.5
v 0.7875 0.875 0.5
vt 1 0.5
vt 1 1
vt 0 1
vt 0 0.5
f 376/376 377/377 378/378 379/379
v 0.7032932 0.95 0.7032932
v 0.7032932 0.91875 0.7032932
v 0.7875 0.91875 0.5
v 0.7875 0.95 0.5
vt 1 0.2
vt 1 0.325
vt 0 0.325
vt 0 0.2
f 380/380 381/381 382/382 383/383
v 0.5 0.875 0.7875
v 0.5 0.75 0.7875
v 0.7032932 0.75 0.7032932
v 0.7032932 0.875 0.7032932
vt 1 0.5
vt 1 1
vt 0 1
vt 0 0.5
f 384/384 385/385 386/386 387/387
v 0.5 0.95 0.7875
v 0.5 0.91875 0.7875
v 0.7032932 0.91875 0.7032932
v 0.7032932 0.95 0.7032932
vt 1 0.2
vt 1 0.325
vt 0 0.325
vt 0 0.2
f 388/388 389/389 390/390 391/391
v 0.2967068 0.875 0.7032932
v 0.2967068 0.75 0.7032932
v 0.5 0.75 0.7875
v 0.5 0.875 0.7875
vt 1 0.5
vt 1 1
vt 0 1
vt 0 0.5
f 392/392 393/393 394/394 395/395
v 0.2967068 0.95 0.7032932
v 0.2967068 0.91875 0.7032932
v 0.5 0.91875 0.7875
v 0.5 0.95 0.7875
vt 1 0.2
vt 1 0.325
vt 0 0.325
vt 0 0.2
f 396/396 397/397 398/398 399/399
v 0.2125 0.875 0.5
v 0.2125 0.75 0.5
v 0.2967068 0.75 0.7032932
v 0.2967068 0.875 0.7032932
vt 1 0.5
vt 1 1
vt 0 1
vt 0 0.5
f 400/400 401/401 402/402 403/403
v 0.2125 0.95 0.5
v 0.2125 0.91875 0.5
v 0.2967068 0.91875 0.7032932
v 0.2967068 0.95 0.7032932
vt 1 0.2
vt 1 0.325
vt 0 0.325
vt 0 0.2
f 404/404 405/405 406/406 407/407
v 0.2967068 0.875 0.2967068
v 0.2967068 0.75 0.2967068
v 0.2125 0.75 0.5
v 0.2125 0.875 0.5
vt 1 0.5
vt 1 1
vt 0 1
vt 0 0.5
f 408/408 409/409 410/410 411/411
v 0.2967068 0.95 0.2967068
v 0.2967068 0.91875 0.2967068
v 0.2125 0.91875 0.5
v 0.2125 0.95 0.5
vt 1 0.2
vt 1 0.325
vt 0 0.325
vt 0 0.2
f 412/412 413/413 414/414 415/415
v 0.5 0.875 0.2125
v 0.5 0.75 0.2125
v 0.2967068 0.75 0.2967068
v 0.2967068 0.875 0.2967068
vt 1 0.5
vt 1 1
vt 0 1
vt 0 0.5
f 416/416 417/417 418/418 419/419
v 0.5 0.95 0.2125
v 0.5 0.91875 0.2125
v 0.2967068 0.91875 0.2967068
v 0.2967068 0.95 0.2967068
vt 1 0.2
vt 1 0.325
vt 0 0.325
vt 0 0.2
f 420/420 421/421 422/422 423/423
v 0.7032932 0.875 0.2967068
v 0.7032932 0.75 0.2967068
v 0.5 0.75 0.2125
v 0.5 0.875 0.2125
vt 1 0.5
vt 1 1
vt 0 1
vt 0 0.5
f 424/424 425/425 426/426 427/427
v 0.7032932 0.95 0.2967068
v 0.7032932 0.91875 0.2967068
v 0.5 0.91875 0.2125
v 0.5 0.95 0.2125
vt 1 0.2
vt 1 0.325
vt 0 0.325
vt 0 0.2
f 428/428 429/429 430/430 431/431
v 0.7875 0.875 0.5
v 0.7875 0.75 0.5
v 0.7032932 0.75 0.2967068
v 0.7032932 0.875 0.2967068
vt 1 0.5
vt 1 1
vt 0 1
vt 0 0.5
f 432/432 433/433 434/434 435/435
v 0.7875 0.95 0.5
v 0.7875 0.91875 0.5
v 0.7032932 0.91875 0.2967068
v 0.7032932 0.95 0.2967068
vt 1 0.2
vt 1 0.325
vt 0 0.325
vt 0 0.2
f 436/436 437/437 438/438 439/439
usemtl copper
v 0.83125 0.91875 0.5
v 0.73422912 0.91875 0.73422912
v 0.73422912 0.875 0.73422912
v 0.83125 0.875 0.5
vt 0.0625 0.4375
vt 0.25 0.4375
vt 0.25 0.5
vt 0.0625 0.5
f 440/440 441/441 442/442 443/443
v 0.73422912 0.91875 0.73422912
v 0.5 0.91875 0.83125
v 0.5 0.875 0.83125
v 0.73422912 0.875 0.73422912
vt 0.0625 0.4375
vt 0.25 0.4375
vt 0.25 0.5
vt 0.0625 0.5
f 444/444 445/445 446/446 447/447
v 0.5 0.91875 0.83125
v 0.26577088 0.91875 0.73422912
v 0.26577088 0.875 0.73422912
v 0.5 0.875 0.83125
vt 0.0625 0.4375
vt 0.25 0.4375
vt 0.25 0.5
vt 0.0625 0.5
f 448/448 449/449 450/450 451/451
v 0.26577088 0.91875 0.73422912
v 0.16875 0.91875 0.5
v 0.16875 0.875 0.5
v 0.26577088 0.875 0.73422912
vt 0.0625 0.4375
vt 0.25 0.4375
vt 0.25 0.5
vt 0.0625 0.5
f 452/452 453/453 454/454 455/455
v 0.16875 0.91875 0.5
v 0.26577088 0.91875 0.26577088
v 0.26577088 0.875 0.26577088
v 0.16875 0.875 0.5
vt 0.0625 0.4375
vt 0.25 0.4375
vt 0.25 0.5
vt 0.0625 0.5
f 456/456 457/457 458/458 459/459
v 0.26577088 0.91875 0.26577088
v 0.5 0.91875 0.16875
v 0.5 0.875 0.16875
v 0.26577088 0.875 0.26577088
vt 0.0625 0.4375
vt 0.25 0.4375
vt 0.25 0.5
vt 0.0625 0.5
f 460/460 461/461 462/462 463/463
v 0.5 0.91875 0.16875
v 0.73422912 0.91875 0.26577088
v 0.73422912 0.875 0.26577088
v 0.5 0.875 0.16875
vt 0.0625 0.4375
vt 0.25 0.4375
vt 0.25 0.5
vt 0.0625 0.5
f 464/464 465/465 466/466 467/467
v 0.73422912 0.91875 0.26577088
v 0.83125 0.91875 0.5
v 0.83125 0.875 0.5
v 0.73422912 0.875 0.26577088
vt 0.0625 0.4375
vt 0.25 0.4375
vt 0.25 0.5
vt 0.0625 0.5
f 468/468 469/469 470/470 471/471
v 0.7875 0.91875 0.5
v 0.7032932 0.91875 0.7032932
v 0.73422912 0.91875 0.73422912
v 0.83125 0.91875 0.5
vt 0.0625 0.4375
vt 0.25 0.4375
vt 0.25 0.5
vt 0.0625 0.5
f 472/472 473/473 474/474 475/475
v 0.7032932 0.91875 0.7032932
v 0.5 0.91875 0.7875
v 0.5 0.91875 0.83125
v 0.73422912 0.91875 0.73422912
vt 0.0625 0.4375
vt 0.25 0.4375
vt 0.25 0.5
vt 0.0625 0.5
f 476/476 477/477 478/478 479/479
v 0.5 0.91875 0.7875
v 0.2967068 0.91875 0.7032932
v 0.26577088 0.91875 0.73422912
v 0.5 0.91875 0.83125
vt 0.0625 0.4375
vt 0.25 0.4375
vt 0.25 0.5
vt 0.0625 0.5
f 480/480 481/481 482/482 483/483
v 0.2967068 0.91875 0.7032932
v 0.2125 0.91875 0.5
v 0.16875 0.91875 0.5
v 0.26577088 0.91875 0.73422912
vt 0.0625 0.4375
vt 0.25 0.4375
vt 0.25 0.5
vt 0.0625 0.5
f 484/484 485/485 486/486 487/487
v 0.2125 0.91875 0.5
v 0.2967068 0.91875 0.2967068
v 0.26577088 0.91875 0.26577088
v 0.16875 0.91875 0.5
vt 0.0625 0.4375
vt 0.25 0.4375
vt 0.25 0.5
vt 0.0625 0.5
f 488/488 489/489 490/490 491/491
v 0.2967068 0.91875 0.2967068
v 0.5 0.91875 0.2125
v 0.5 0.91875 0.16875
v 0.26577088 0.91875 0.26577088
vt 0.0625 0.4375
vt 0.25 0.4375
vt 0.25 0.5
vt 0.0625 0.5
f 492/492 493/493 494/494 495/495
v 0.5 0.91875 0.2125
v 0.7032932 0.91875 0.2967068
v 0.73422912 0.91875 0.26577088
v 0.5 0.91875 0.16875
vt 0.0625 0.4375
vt 0.25 0.4375
vt 0.25 0.5
vt 0.0625 0.5
f 496/496 497/497 498/498 499/499
v 0.7032932 0.91875 0.2967068
v 0.7875 0.91875 0.5
v 0.83125 0.91875 0.5
v 0.73422912 0.91875 0.26577088
vt 0.0625 0.4375
vt 0.25 0.4375
vt 0.25 0.5
vt 0.0625 0.5
f 500/500 501/501 502/502 503/503
v 0.7875 0.875 0.5
v 0.7032932 0.875 0.7032932
v 0.7032932 0.91875 0.7032932
v 0.7875 0.91875 0.5
vt 0.0625 0.4375
vt 0.25 0.4375
vt 0.25 0.5
vt 0.0625 0.5
f 504/504 505/505 506/506 507/507
v 0.7032932 0.875 0.7032932
v 0.5 0.875 0.7875
v 0.5 0.91875 0.7875
v 0.7032932 0.91875 0.7032932
vt 0.0625 0.4375
vt 0.25 0.4375
vt 0.25 0.5
vt 0.0625 0.5
f 508/508 509/509 510/510 511/511
v 0.5 0.875 0.7875
v 0.2967068 0.875 0.7032932
v 0.2967068 0.91875 0.7032932
v 0.5 0.91875 0.7875
vt 0.0625 0.4375
vt 0.25 0.4375
vt 0.25 0.5
vt 0.0625 0.5
f 512/512 513/513 514/514 515/515
v 0.2967068 0.875 0.7032932
v 0.2125 0.875 0.5
v 0.2125 0.91875 0.5
v 0.2967068 0.91875 0.7032932
vt 0.0625 0.4375
vt 0.25 0.4375
vt 0.25 0.5
vt 0.0625 0.5
f 516/516 517/517 518/518 519/519
v 0.2125 0.875 0.5
v 0.2967068 0.875 0.2967068
v 0.2967068 0.91875 0.2967068
v 0.2125 0.91875 0.5
vt 0.0625 0.4375
vt 0.25 0.4375
vt 0.25 0.5
vt 0.0625 0.5
f 520/520 521/521 522/522 523/523
v 0.2967068 0.875 0.2967068
v 0.5 0.875 0.2125
v 0.5 0.91875 0.2125
v 0.2967068 0.91875 0.2967068
vt 0.0625 0.4375
vt 0.25 0.4375
vt 0.25 0.5
vt 0.0625 0.5
f 524/524 525/525 526/526 527/527
v 0.5 0.875 0.2125
v 0.7032932 0.875 0.2967068
v 0.7032932 0.91875 0.2967068
v 0.5 0.91875 0.2125
vt 0.0625 0.4375
vt 0.25 0.4375
vt 0.25 0.5
vt 0.0625 0.5
f 528/528 529/529 530/530 531/531
v 0.7032932 0.875 0.2967068
v 0.7875 0.875 0.5
v 0.7875 0.91875 0.5
v 0.7032932 0.91875 0.2967068
vt 0.0625 0.4375
vt 0.25 0.4375
vt 0.25 0.5
vt 0.0625 0.5
f 532/532 533/533 534/534 535/535
v 0.83125 0.875 0.5
v 0.73422912 0.875 0.73422912
v 0.7032932 0.875 0.7032932
v 0.7875 0.875 0.5
vt 0.0625 0.4375
vt 0.25 0.4375
vt 0.25 0.5
vt 0.0625 0.5
f 536/536 537/537 538/538 539/539
v 0.73422912 0.875 0.73422912
v 0.5 0.875 0.83125
v 0.5 0.875 0.7875
v 0.7032932 0.875 0.7032932
vt 0.0625 0.4375
vt 0.25 0.4375
vt 0.25 0.5
vt 0.0625 0.5
f 540/540 541/541 542/542 543/543
v 0.5 0.875 0.83125
v 0.26577088 0.875 0.73422912
v 0.2967068 0.875 0.7032932
v 0.5 0.875 0.7875
vt 0.0625 0.4375
vt 0.25 0.4375
vt 0.25 0.5
vt 0.0625 0.5
f 544/544 545/545 546/546 547/547
v 0.26577088 0.875 0.73422912
v 0.16875 0.875 0.5
v 0.2125 0.875 0.5
v 0.2967068 0.875 0.7032932
vt 0.0625 0.4375
vt 0.25 0.4375
vt 0.25 0.5
vt 0.0625 0.5
f 548/548 549/549 550/550 551/551
v 0.16875 0.875 0.5
v 0.26577088 0.875 0.26577088
v 0.2967068 0.875 0.2967068
v 0.2125 0.875 0.5
vt 0.0625 0.4375
vt 0.25 0.4375
vt 0.25 0.5
vt 0.0625 0.5
f 552/552 553/553 554/554 555/555
v 0.26577088 0.875 0.26577088
v 0.5 0.875 0.16875
v 0.5 0.875 0.2125
v 0.2967068 0.875 0.2967068
vt 0.0625 0.4375
vt 0.25 0.4375
vt 0.25 0.5
vt 0.0625 0.5
f 556/556 557/557 558/558 559/559
v 0.5 0.875 0.16875
v 0.73422912 0.875 0.26577088
v 0.7032932 0.875 0.2967068
v 0.5 0.875 0.2125
vt 0.0625 0.4375
vt 0.25 0.4375
vt 0.25 0.5
vt 0.0625 0.5
f 560/560 561/561 562/562 563/563
v 0.73422912 0.875 0.26577088
v 0.83125 0.875 0.5
v 0.7875 0.875 0.5
v 0.7032932 0.875 0.2967068
vt 0.0625 0.4375
vt 0.25 0.4375
vt 0.25 0.5
vt 0.0625 0.5
f 564/564 565/565 566/566 567/567
usemtl paint
v 0.925 1 0.5
v 0.80052038 1 0.80052038
v 0.80052038 0.95 0.80052038
v 0.925 0.95 0.5
vt 0 0
vt 0.0625 0
vt 0.0625 0.0625
vt 0 0.0625
f 568/568 569/569 570/570 571/571
v 0.80052038 1 0.80052038
v 0.5 1 0.925
v 0.5 0.95 0.925
v 0.80052038 0.95 0.80052038
vt 0 0
vt 0.0625 0
vt 0.0625 0.0625
vt 0 0.0625
f 572/572 573/573 574/574 575/575
v 0.5 1 0.925
v 0.19947962 1 0.80052038
v 0.19947962 0.95 0.80052038
v 0.5 0.95 0.925
vt 0 0
vt 0.0625 0
vt 0.0625 0.0625
vt 0 0.0625
f 576/576 577/577 578/578 579/579
v 0.19947962 1 0.80052038
v 0.075 1 0.5
v 0.075 0.95 0.5
v 0.19947962 0.95 0.80052038
vt 0 0
vt 0.0625 0
vt 0.0625 0.0625
vt 0 0.0625
f 580/580 581/581 582/582 583/583
v 0.075 1 0.5
v 0.19947962 1 0.19947962
v 0.19947962 0.95 0.19947962
v 0.075 0.95 0.5
vt 0 0
vt 0.0625 0
vt 0.0625 0.0625
vt 0 0.0625
f 584/584 585/585 586/586 587/587
v 0.19947962 1 0.19947962
v 0.5 1 0.075
v 0.5 0.95 0.075
v 0.19947962 0.95 0.19947962
vt 0 0
vt 0.0625 0
vt 0.0625 0.0625
vt 0 0.0625
f 588/588 589/589 590/590 591/591
v 0.5 1 0.075
v 0.80052038 1 0.19947962
v 0.80052038 0.95 0.19947962
v 0.5 0.95 0.075
vt 0 0
vt 0.0625 0
vt 0.0625 0.0625
vt 0 0.0625
f 592/592 593/593 594/594 595/595
v 0.80052038 1 0.19947962
v 0.925 1 0.5
v 0.925 0.95 0.5
v 0.80052038 0.95 0.19947962
vt 0 0
vt 0.0625 0
vt 0.0625 0.0625
vt 0 0.0625
f 596/596 597/597 598/598 599/599
v 0.7875 1 0.5
v 0.7032932 1 0.7032932
v 0.80052038 1 0.80052038
v 0.925 1 0.5
vt 0 0
vt 0.0625 0
vt 0.0625 0.0625
vt 0 0.0625
f 600/600 601/601 602/602 603/603
v 0.7032932 1 0.7032932
v 0.5 1 0.7875
v 0.5 1 0.925
v 0.80052038 1 0.80052038
vt 0 0
vt 0.0625 0
vt 0.0625 0.0625
vt 0 0.0625
f 604/604 605/605 606/606 607/607
v 0.5 1 0.7875
v 0.2967068 1 0.7032932
v 0.19947962 1 0.80052038
v 0.5 1 0.925
vt 0 0
vt 0.0625 0
vt 0.0625 0.0625
vt 0 0.0625
f 608/608 609/609 610/610 611/611
v 0.2967068 1 0.7032932
v 0.2125 1 0.5
v 0.075 1 0.5
v 0.19947962 1 0.80052038
vt 0 0
vt 0.0625 0
vt 0.0625 0.0625
vt 0 0.0625
f 612/612 613/613 614/614 615/615
v 0.2125 1 0.5
v 0.2967068 1 0.2967068
v 0.19947962 1 0.19947962
v 0.075 1 0.5
vt 0 0
vt 0.0625 0
vt 0.0625 0.0625
vt 0 0.0625
f 616/616 617/617 618/618 619/619
v 0.2967068 1 0.2967068
v 0.5 1 0.2125
v 0.5 1 0.075
v 0.19947962 1 0.19947962
vt 0 0
vt 0.0625 0
vt 0.0625 0.0625
vt 0 0.0625
f 620/620 621/621 622/622 623/623
v 0.5 1 0.2125
v 0.7032932 1 0.2967068
v 0.80052038 1 0.19947962
v 0.5 1 0.075
vt 0 0
vt 0.0625 0
vt 0.0625 0.0625
vt 0 0.0625
f 624/624 625/625 626/626 627/627
v 0.7032932 1 0.2967068
v 0.7875 1 0.5
v 0.925 1 0.5
v 0.80052038 1 0.19947962
vt 0 0
vt 0.0625 0
vt 0.0625 0.0625
vt 0 0.0625
f 628/628 629/629 630/630 631/631
v 0.7875 0.95 0.5
v 0.7032932 0.95 0.7032932
v 0.7032932 1 0.7032932
v 0.7875 1 0.5
vt 0 0
vt 0.0625 0
vt 0.0625 0.0625
vt 0 0.0625
f 632/632 633/633 634/634 635/635
v 0.7032932 0.95 0.7032932
v 0.5 0.95 0.7875
v 0.5 1 0.7875
v 0.7032932 1 0.7032932
vt 0 0
vt 0.0625 0
vt 0.0625 0.0625
vt 0 0.0625
f 636/636 637/637 638/638 639/639
v 0.5 0.95 0.7875
v 0.2967068 0.95 0.7032932
v 0.2967068 1 0.7032932
v 0.5 1 0.7875
vt 0 0
vt 0.0625 0
vt 0.0625 0.0625
vt 0 0.0625
f 640/640 641/641 642/642 643/643
v 0.2967068 0.95 0.7032932
v 0.2125 0.95 0.5
v 0.2125 1 0.5
v 0.2967068 1 0.7032932
vt 0 0
vt 0.0625 0
vt 0.0625 0.0625
vt 0 0.0625
f 644/644 645/645 646/646 647/647
v 0.2125 0.95 0.5
v 0.2967068 0.95 0.2967068
v 0.2967068 1 0.2967068
v 0.2125 1 0.5
vt 0 0
vt 0.0625 0
vt 0.0625 0.0625
vt 0 0.0625
f 648/648 649/649 650/650 651/651
v 0.2967068 0.95 0.2967068
v 0.5 0.95 0.2125
v 0.5 1 0.2125
v 0.2967068 1 0.2967068
vt 0 0
vt 0.0625 0
vt 0.0625 0.0625
vt 0 0.0625
f 652/652 653/653 654/654 655/655
v 0.5 0.95 0.2125
v 0.7032932 0.95 0.2967068
v 0.7032932 1 0.2967068
v 0.5 1 0.2125
vt 0 0
vt 0.0625 0
vt 0.0625 0.0625
vt 0 0.0625
f 656/656 657/657 658/658 659/659
v 0.7032932 0.95 0.2967068
v 0.7875 0.95 0.5
v 0.7875 1 0.5
v 0.7032932 1 0.2967068
vt 0 0
vt 0.0625 0
vt 0.0625 0.0625
vt 0 0.0625
f 660/660 661/661 662/662 663/663
v 0.925 0.95 0.5
v 0.80052038 0.95 0.80052038
v 0.7032932 0.95 0.7032932
v 0.7875 0.95 0.5
vt 0 0
vt 0.0625 0
vt 0.0625 0.0625
vt 0 0.0625
f 664/664 665/665 666/666 667/667
v 0.80052038 0.95 0.80052038
v 0.5 0.95 0.925
v 0.5 0.95 0.7875
v 0.7032932 0.95 0.7032932
vt 0 0
vt 0.0625 0
vt 0.0625 0.0625
vt 0 0.0625
f 668/668 669/669 670/670 671/671
v 0.5 0.95 0.925
v 0.19947962 0.95 0.80052038
v 0.2967068 0.95 0.7032932
v 0.5 0.95 0.7875
vt 0 0
vt 0.0625 0
vt 0.0625 0.0625
vt 0 0.0625
f 672/672 673/673 674/674 675/675
v 0.19947962 0.95 0.80052038
v 0.075 0.95 0.5
v 0.2125 0.95 0.5
v 0.2967068 0.95 0.7032932
vt 0 0
vt 0.0625 0
vt 0.0625 0.0625
vt 0 0.0625
f 676/676 677/677 678/678 679/679
v 0.075 0.95 0.5
v 0.19947962 0.95 0.19947962
v 0.2967068 0.95 0.2967068
v 0.2125 0.95 0.5
vt 0 0
vt 0.0625 0
vt 0.0625 0.0625
vt 0 0.0625
f 680/680 681/681 682/682 683/683
v 0.19947962 0.95 0.19947962
v 0.5 0.95 0.075
v 0.5 0.95 0.2125
v 0.2967068 0.95 0.2967068
vt 0 0
vt 0.0625 0
vt 0.0625 0.0625
vt 0 0.0625
f 684/684 685/685 686/686 687/687
v 0.5 0.95 0.075
v 0.80052038 0.95 0.19947962
v 0.7032932 0.95 0.2967068
v 0.5 0.95 0.2125
vt 0 0
vt 0.0625 0
vt 0.0625 0.0625
vt 0 0.0625
f 688/688 689/689 690/690 691/691
v 0.80052038 0.95 0.19947962
v 0.925 0.95 0.5
v 0.7875 0.95 0.5
v 0.7032932 0.95 0.2967068
vt 0 0
vt 0.0625 0
vt 0.0625 0.0625
vt 0 0.0625
f 692/692 693/693 694/694 695/695
