mtllib homelink_energy:models/hydro.mtl
usemtl copper
v 0.478125 0.70625 0.525
v 0.478125 0.8125 0.525
v 0.478125 0.8125 0.4625
v 0.478125 0.70625 0.4625
vt 0.0625 0.4375
vt 0.25 0.4375
vt 0.25 0.5
vt 0.0625 0.5
f 1/1 2/2 3/3 4/4
v 0.521875 0.70625 0.4625
v 0.521875 0.8125 0.4625
v 0.521875 0.8125 0.525
v 0.521875 0.70625 0.525
vt 0.0625 0.5
vt 0.25 0.5
vt 0.25 0.4375
vt 0.0625 0.4375
f 5/5 6/6 7/7 8/8
v 0.478125 0.70625 0.4625
v 0.521875 0.70625 0.4625
v 0.521875 0.70625 0.525
v 0.478125 0.70625 0.525
vt 0.0625 0.5
vt 0.25 0.5
vt 0.25 0.4375
vt 0.0625 0.4375
f 9/9 10/10 11/11 12/12
v 0.478125 0.8125 0.525
v 0.521875 0.8125 0.525
v 0.521875 0.8125 0.4625
v 0.478125 0.8125 0.4625
vt 0.0625 0.4375
vt 0.25 0.4375
vt 0.25 0.5
vt 0.0625 0.5
f 13/13 14/14 15/15 16/16
v 0.478125 0.8125 0.4625
v 0.521875 0.8125 0.4625
v 0.521875 0.70625 0.4625
v 0.478125 0.70625 0.4625
vt 0.0625 0.4375
vt 0.25 0.4375
vt 0.25 0.5
vt 0.0625 0.5
f 17/17 18/18 19/19 20/20
v 0.478125 0.70625 0.525
v 0.521875 0.70625 0.525
v 0.521875 0.8125 0.525
v 0.478125 0.8125 0.525
vt 0.0625 0.5
vt 0.25 0.5
vt 0.25 0.4375
vt 0.0625 0.4375
f 21/21 22/22 23/23 24/24
usemtl blade
v 0.46286495 0.80521899 0.515625
v 0.52201352 1.22608292 0.515625
v 0.52201352 1.22608292 0.46875
v 0.46286495 0.80521899 0.46875
vt 0 0
vt 1 0
vt 1 1
vt 0 1
f 25/25 26/26 27/27 28/28
v 0.58664846 0.78782235 0.46875
v 0.64579702 1.20868628 0.46875
v 0.64579702 1.20868628 0.515625
v 0.58664846 0.78782235 0.515625
vt 0 1
vt 1 1
vt 1 0
vt 0 0
f 29/29 30/30 31/31 32/32
v 0.46286495 0.80521899 0.46875
v 0.58664846 0.78782235 0.46875
v 0.58664846 0.78782235 0.515625
v 0.46286495 0.80521899 0.515625
vt 0 1
vt 1 1
vt 1 0
vt 0 0
f 33/33 34/34 35/35 36/36
v 0.52201352 1.22608292 0.515625
v 0.64579702 1.20868628 0.515625
v 0.64579702 1.20868628 0.46875
v 0.52201352 1.22608292 0.46875
vt 0 0
vt 1 0
vt 1 1
vt 0 1
f 37/37 38/38 39/39 40/40
v 0.52201352 1.22608292 0.46875
v 0.64579702 1.20868628 0.46875
v 0.58664846 0.78782235 0.46875
v 0.46286495 0.80521899 0.46875
vt 0 0
vt 1 0
vt 1 1
vt 0 1
f 41/41 42/42 43/43 44/44
v 0.46286495 0.80521899 0.515625
v 0.58664846 0.78782235 0.515625
v 0.64579702 1.20868628 0.515625
v 0.52201352 1.22608292 0.515625
vt 0 1
vt 1 1
vt 1 0
vt 0 0
f 45/45 46/46 47/47 48/48
