# Generated by scripts/hydro-models.cjs
mtllib homelink_energy:models/hydro.mtl
usemtl body
v 0.7032932 0.7032932 0.1
v 0.7032932 0.7032932 0.5
v 0.7875 0.5 0.5
v 0.7875 0.5 0.1
vt 1 0.2
vt 1 1
vt 0 1
vt 0 0.2
f 1/1 2/2 3/3 4/4
v 0.7032932 0.7032932 0.05
v 0.7032932 0.7032932 0.05625
v 0.7875 0.5 0.05625
v 0.7875 0.5 0.05
vt 1 0.1
vt 1 0.1125
vt 0 0.1125
vt 0 0.1
f 5/5 6/6 7/7 8/8
v 0.5 0.7875 0.1
v 0.5 0.7875 0.5
v 0.7032932 0.7032932 0.5
v 0.7032932 0.7032932 0.1
vt 1 0.2
vt 1 1
vt 0 1
vt 0 0.2
f 9/9 10/10 11/11 12/12
v 0.5 0.7875 0.05
v 0.5 0.7875 0.05625
v 0.7032932 0.7032932 0.05625
v 0.7032932 0.7032932 0.05
vt 1 0.1
vt 1 0.1125
vt 0 0.1125
vt 0 0.1
f 13/13 14/14 15/15 16/16
v 0.2967068 0.7032932 0.1
v 0.2967068 0.7032932 0.5
v 0.5 0.7875 0.5
v 0.5 0.7875 0.1
vt 1 0.2
vt 1 1
vt 0 1
vt 0 0.2
f 17/17 18/18 19/19 20/20
v 0.2967068 0.7032932 0.05
v 0.2967068 0.7032932 0.05625
v 0.5 0.7875 0.05625
v 0.5 0.7875 0.05
vt 1 0.1
vt 1 0.1125
vt 0 0.1125
vt 0 0.1
f 21/21 22/22 23/23 24/24
v 0.2125 0.5 0.1
v 0.2125 0.5 0.5
v 0.2967068 0.7032932 0.5
v 0.2967068 0.7032932 0.1
vt 1 0.2
vt 1 1
vt 0 1
vt 0 0.2
f 25/25 26/26 27/27 28/28
v 0.2125 0.5 0.05
v 0.2125 0.5 0.05625
v 0.2967068 0.7032932 0.05625
v 0.2967068 0.7032932 0.05
vt 1 0.1
vt 1 0.1125
vt 0 0.1125
vt 0 0.1
f 29/29 30/30 31/31 32/32
v 0.2967068 0.2967068 0.1
v 0.2967068 0.2967068 0.5
v 0.2125 0.5 0.5
v 0.2125 0.5 0.1
vt 1 0.2
vt 1 1
vt 0 1
vt 0 0.2
f 33/33 34/34 35/35 36/36
v 0.2967068 0.2967068 0.05
v 0.2967068 0.2967068 0.05625
v 0.2125 0.5 0.05625
v 0.2125 0.5 0.05
vt 1 0.1
vt 1 0.1125
vt 0 0.1125
vt 0 0.1
f 37/37 38/38 39/39 40/40
v 0.5 0.2125 0.1
v 0.5 0.2125 0.5
v 0.2967068 0.2967068 0.5
v 0.2967068 0.2967068 0.1
vt 1 0.2
vt 1 1
vt 0 1
vt 0 0.2
f 41/41 42/42 43/43 44/44
v 0.5 0.2125 0.05
v 0.5 0.2125 0.05625
v 0.2967068 0.2967068 0.05625
v 0.2967068 0.2967068 0.05
vt 1 0.1
vt 1 0.1125
vt 0 0.1125
vt 0 0.1
f 45/45 46/46 47/47 48/48
v 0.7032932 0.2967068 0.1
v 0.7032932 0.2967068 0.5
v 0.5 0.2125 0.5
v 0.5 0.2125 0.1
vt 1 0.2
vt 1 1
vt 0 1
vt 0 0.2
f 49/49 50/50 51/51 52/52
v 0.7032932 0.2967068 0.05
v 0.7032932 0.2967068 0.05625
v 0.5 0.2125 0.05625
v 0.5 0.2125 0.05
vt 1 0.1
vt 1 0.1125
vt 0 0.1125
vt 0 0.1
f 53/53 54/54 55/55 56/56
v 0.7875 0.5 0.1
v 0.7875 0.5 0.5
v 0.7032932 0.2967068 0.5
v 0.7032932 0.2967068 0.1
vt 1 0.2
vt 1 1
vt 0 1
vt 0 0.2
f 57/57 58/58 59/59 60/60
v 0.7875 0.5 0.05
v 0.7875 0.5 0.05625
v 0.7032932 0.2967068 0.05625
v 0.7032932 0.2967068 0.05
vt 1 0.1
vt 1 0.1125
vt 0 0.1125
vt 0 0.1
f 61/61 62/62 63/63 64/64
usemtl paint
v 0.925 0.5 0
v 0.80052038 0.80052038 0
v 0.80052038 0.80052038 0.05
v 0.925 0.5 0.05
vt 0 0
vt 0.0625 0
vt 0.0625 0.0625
vt 0 0.0625
f 65/65 66/66 67/67 68/68
v 0.80052038 0.80052038 0
v 0.5 0.925 0
v 0.5 0.925 0.05
v 0.80052038 0.80052038 0.05
vt 0 0
vt 0.0625 0
vt 0.0625 0.0625
vt 0 0.0625
f 69/69 70/70 71/71 72/72
v 0.5 0.925 0
v 0.19947962 0.80052038 0
v 0.19947962 0.80052038 0.05
v 0.5 0.925 0.05
vt 0 0
vt 0.0625 0
vt 0.0625 0.0625
vt 0 0.0625
f 73/73 74/74 75/75 76/76
v 0.19947962 0.80052038 0
v 0.075 0.5 0
v 0.075 0.5 0.05
v 0.19947962 0.80052038 0.05
vt 0 0
vt 0.0625 0
vt 0.0625 0.0625
vt 0 0.0625
f 77/77 78/78 79/79 80/80
v 0.075 0.5 0
v 0.19947962 0.19947962 0
v 0.19947962 0.19947962 0.05
v 0.075 0.5 0.05
vt 0 0
vt 0.0625 0
vt 0.0625 0.0625
vt 0 0.0625
f 81/81 82/82 83/83 84/84
v 0.19947962 0.19947962 0
v 0.5 0.075 0
v 0.5 0.075 0.05
v 0.19947962 0.19947962 0.05
vt 0 0
vt 0.0625 0
vt 0.0625 0.0625
vt 0 0.0625
f 85/85 86/86 87/87 88/88
v 0.5 0.075 0
v 0.80052038 0.19947962 0
v 0.80052038 0.19947962 0.05
v 0.5 0.075 0.05
vt 0 0
vt 0.0625 0
vt 0.0625 0.0625
vt 0 0.0625
f 89/89 90/90 91/91 92/92
v 0.80052038 0.19947962 0
v 0.925 0.5 0
v 0.925 0.5 0.05
v 0.80052038 0.19947962 0.05
vt 0 0
vt 0.0625 0
vt 0.0625 0.0625
vt 0 0.0625
f 93/93 94/94 95/95 96/96
v 0.86023514 0.65635621 0.05
v 0.80052038 0.80052038 0.05
v 0.71607096 0.71607096 0.05
vt 0.0325178 0
vt 0.0625 0
vt 0.0625 0.05428614
f 97/97 98/98 99/99
v 0.925 0.5 0.05
v 0.86023514 0.65635621 0.05
v 0.85479371 0.65861012 0.05
v 0.92049217 0.5 0.05
vt 0 0
vt 0.0325178 0
vt 0.03364947 0.00204901
vt 0 0.00204901
f 100/100 101/101 102/102 103/103
v 0.73003916 0.63872274 0.05
v 0.7875 0.5 0.05
v 0.92049217 0.5 0.05
vt 0.04264861 0.0625
vt 0 0.0625
vt 0 0.00204901
f 104/104 105/105 106/106
v 0.73003916 0.63872274 0.05
v 0.92049217 0.5 0.05
v 0.88291871 0.59071037 0.05
vt 0.04264861 0.0625
vt 0 0.00204901
vt 0.0192444 0.00204901
f 107/107 108/108 109/109
v 0.73003916 0.63872274 0.05
v 0.88291871 0.59071037 0.05
v 0.76700657 0.63872274 0.05
vt 0.04264861 0.0625
vt 0.0192444 0.00204901
vt 0.03897436 0.04569663
f 110/110 111/111 112/112
v 0.80678133 0.63872274 0.05
v 0.76700657 0.63872274 0.05
v 0.81501895 0.61883537 0.05
vt 0.03502109 0.02761719
vt 0.03897436 0.04569663
vt 0.03080194 0.02761719
f 113/113 114/114 115/115
v 0.88291871 0.59071037 0.05
v 0.86303133 0.63872274 0.05
v 0.84896883 0.60477287 0.05
vt 0.0192444 0.00204901
vt 0.02943032 0.00204901
vt 0.02502317 0.0148331
f 116/116 117/117 118/118
v 0.83490633 0.61059774 0.05
v 0.84896883 0.60477287 0.05
v 0.85479371 0.61883537 0.05
vt 0.02741682 0.02012845
vt 0.02502317 0.0148331
vt 0.02684867 0.00953776
f 119/119 120/120 121/121
v 0.82084383 0.67267262 0.05
v 0.71607096 0.71607096 0.05
v 0.7032932 0.7032932 0.05
vt 0.04071012 0.0148331
vt 0.0625 0.05428614
vt 0.0625 0.0625
f 122/122 123/123 124/124
v 0.82084383 0.67267262 0.05
v 0.7032932 0.7032932 0.05
v 0.73003916 0.63872274 0.05
vt 0.04071012 0.0148331
vt 0.0625 0.0625
vt 0.04264861 0.0625
f 125/125 126/126 127/127
v 0.82084383 0.67267262 0.05
v 0.73003916 0.63872274 0.05
v 0.80678133 0.63872274 0.05
vt 0.04071012 0.0148331
vt 0.04264861 0.0625
vt 0.03502109 0.02761719
f 128/128 129/129 130/130
v 0.83490633 0.66684774 0.05
v 0.82084383 0.67267262 0.05
v 0.81501895 0.65861012 0.05
vt 0.0377855 0.00953776
vt 0.04071012 0.0148331
vt 0.03835365 0.02012845
f 131/131 132/132 133/133
v 0.80052038 0.80052038 0.05
v 0.5 0.925 0.05
v 0.5 0.92049217 0.05
v 0.79733287 0.79733287 0.05
vt 0 0
vt 0.0625 0
vt 0.0625 0.00204901
vt 0 0.00204901
f 134/134 135/135 136/136 137/137
v 0.71607096 0.71607096 0.05
v 0.79733287 0.79733287 0.05
v 0.65861012 0.85479371 0.05
vt 0 0.05428614
vt 0 0.00204901
vt 0.02915982 0.00204901
f 138/138 139/139 140/140
v 0.5 0.83490633 0.05
v 0.5 0.7875 0.05
v 0.7032932 0.7032932 0.05
vt 0.0625 0.04095167
vt 0.0625 0.0625
vt 0 0.0625
f 141/141 142/142 143/143
v 0.5 0.83490633 0.05
v 0.7032932 0.7032932 0.05
v 0.71607096 0.71607096 0.05
vt 0.0625 0.04095167
vt 0 0.0625
vt 0 0.05428614
f 144/144 145/145 146/146
v 0.5 0.83490633 0.05
v 0.71607096 0.71607096 0.05
v 0.68673512 0.78689395 0.05
vt 0.0625 0.04095167
vt 0 0.05428614
vt 0.01488714 0.02761719
f 147/147 148/148 149/149
v 0.5 0.83490633 0.05
v 0.68673512 0.78689395 0.05
v 0.57082299 0.83490633 0.05
vt 0.0625 0.04095167
vt 0.01488714 0.02761719
vt 0.0465734 0.02761719
f 150/150 151/151 152/152
v 0.61059774 0.83490633 0.05
v 0.57082299 0.83490633 0.05
v 0.61883537 0.81501895 0.05
vt 0.03762889 0.02012845
vt 0.0465734 0.02761719
vt 0.03344852 0.02761719
f 153/153 154/154 155/155
v 0.68673512 0.78689395 0.05
v 0.66684774 0.83490633 0.05
v 0.65278524 0.80095645 0.05
vt 0.01488714 0.02761719
vt 0.02497945 0.00953776
vt 0.02416783 0.02761719
f 156/156 157/157 158/158
v 0.63872274 0.80678133 0.05
v 0.65278524 0.80095645 0.05
v 0.65861012 0.81501895 0.05
vt 0.02801202 0.02761719
vt 0.02416783 0.02761719
vt 0.02450401 0.02012845
f 159/159 160/160 161/161
v 0.5 0.92049217 0.05
v 0.5 0.83490633 0.05
v 0.61059774 0.83490633 0.05
v 0.62466024 0.86885621 0.05
vt 0.0625 0.00204901
vt 0.0625 0.04095167
vt 0.03762889 0.02012845
vt 0.03629615 0.00204901
f 162/162 163/163 164/164 165/165
v 0.63872274 0.86303133 0.05
v 0.62466024 0.86885621 0.05
v 0.61883537 0.85479371 0.05
vt 0.03334018 0.00204901
vt 0.03629615 0.00204901
vt 0.03684819 0.00953776
f 166/166 167/167 168/168
v 0.5 0.925 0.05
v 0.35583583 0.86528524 0.05
v 0.5 0.80557049 0.05
vt 0 0
vt 0.0299822 0
vt 0 0.05428614
f 169/169 170/170 171/171
v 0.42235959 0.75534029 0.05
v 0.5 0.7875 0.05
v 0.5 0.80557049 0.05
v 0.38116463 0.85479371 0.05
vt 0.02386959 0.0625
vt 0 0.0625
vt 0 0.05428614
vt 0.0247145 0.00953776
f 172/172 173/173 174/174 175/175
v 0.28249464 0.83490633 0.05
v 0.19947962 0.80052038 0.05
v 0.2967068 0.7032932 0.05
vt 0.04523515 0
vt 0.0625 0
vt 0.0625 0.0625
f 176/176 177/177 178/178
v 0.28249464 0.83490633 0.05
v 0.2967068 0.7032932 0.05
v 0.42235959 0.75534029 0.05
vt 0.04523515 0
vt 0.0625 0.0625
vt 0.02386959 0.0625
f 179/179 180/180 181/181
v 0.28249464 0.83490633 0.05
v 0.42235959 0.75534029 0.05
v 0.40928963 0.78689395 0.05
vt 0.04523515 0
vt 0.02386959 0.0625
vt 0.02413766 0.04569663
f 182/182 183/183 184/184
v 0.28249464 0.83490633 0.05
v 0.40928963 0.78689395 0.05
v 0.2933775 0.83490633 0.05
vt 0.04523515 0
vt 0.02413766 0.04569663
vt 0.04312901 0.00204901
f 185/185 186/186 187/187
v 0.33315226 0.83490633 0.05
v 0.2933775 0.83490633 0.05
v 0.34138988 0.81501895 0.05
vt 0.03543149 0.00953776
vt 0.04312901 0.00204901
vt 0.03526254 0.02012845
f 188/188 189/189 190/190
v 0.40928963 0.78689395 0.05
v 0.38940226 0.83490633 0.05
v 0.37533976 0.80095645 0.05
vt 0.02413766 0.04569663
vt 0.02454554 0.02012845
vt 0.0297001 0.03291254
f 191/191 192/192 193/193
v 0.36127726 0.80678133 0.05
v 0.37533976 0.80095645 0.05
v 0.38116463 0.81501895 0.05
vt 0.03200413 0.02761719
vt 0.0297001 0.03291254
vt 0.02756501 0.02761719
f 194/194 195/195 196/196
v 0.34364379 0.86023514 0.05
v 0.28249464 0.83490633 0.05
v 0.33315226 0.83490633 0.05
vt 0.0325178 0
vt 0.04523515 0
vt 0.03543149 0.00953776
f 197/197 198/198 199/199
v 0.35583583 0.86528524 0.05
v 0.34364379 0.86023514 0.05
v 0.34138988 0.85479371 0.05
v 0.36127726 0.86303133 0.05
vt 0.0299822 0
vt 0.0325178 0
vt 0.03314376 0.00204901
vt 0.02885053 0.00204901
f 200/200 201/201 202/202 203/203
v 0.19947962 0.80052038 0.05
v 0.1471835 0.67426638 0.05
v 0.26454709 0.62565279 0.05
v 0.2967068 0.7032932 0.05
vt 0 0
vt 0.02625737 0
vt 0.02386959 0.0625
vt 0 0.0625
f 204/204 205/205 206/206 207/207
v 0.23158976 0.54608675 0.05
v 0.26454709 0.62565279 0.05
v 0.18498105 0.65861012 0.05
vt 0.04833119 0.0625
vt 0.02386959 0.0625
vt 0.02548837 0.02012845
f 208/208 209/209 210/210
v 0.12729612 0.626254 0.05
v 0.075 0.5 0.05
v 0.2125 0.5 0.05
vt 0.03624263 0
vt 0.0625 0
vt 0.0625 0.0625
f 211/211 212/212 213/213
v 0.12729612 0.626254 0.05
v 0.2125 0.5 0.05
v 0.23158976 0.54608675 0.05
vt 0.03624263 0
vt 0.0625 0.0625
vt 0.04833119 0.0625
f 214/214 215/215 216/216
v 0.12729612 0.626254 0.05
v 0.23158976 0.54608675 0.05
v 0.21310605 0.59071037 0.05
vt 0.03624263 0
vt 0.04833119 0.0625
vt 0.03927237 0.04569663
f 217/217 218/218 219/219
v 0.13246084 0.63872274 0.05
v 0.12729612 0.626254 0.05
v 0.14520629 0.61883537 0.05
v 0.13696867 0.63872274 0.05
vt 0.03364947 0
vt 0.03624263 0
vt 0.03687499 0.00953776
vt 0.03334351 0.00204901
f 220/220 221/221 222/222 223/223
v 0.17915617 0.60477287 0.05
v 0.21310605 0.59071037 0.05
v 0.19321867 0.63872274 0.05
vt 0.03807368 0.02761719
vt 0.03927237 0.04569663
vt 0.02952561 0.02761719
f 224/224 225/225 226/226
v 0.16509367 0.61059774 0.05
v 0.17915617 0.60477287 0.05
v 0.18498105 0.61883537 0.05
vt 0.03757717 0.02012845
vt 0.03807368 0.02761719
vt 0.03453296 0.02761719
f 227/227 228/228 229/229
v 0.1471835 0.67426638 0.05
v 0.13246084 0.63872274 0.05
v 0.13696867 0.63872274 0.05
v 0.15103117 0.67267262 0.05
vt 0.02625737 0
vt 0.03364947 0
vt 0.03334351 0.00204901
vt 0.02617909 0.00204901
f 230/230 231/231 232/232 233/233
v 0.16509367 0.66684774 0.05
v 0.15103117 0.67267262 0.05
v 0.14520629 0.65861012 0.05
vt 0.02589299 0.00953776
vt 0.02617909 0.00204901
vt 0.02914669 0.00204901
f 234/234 235/235 236/236
v 0.075 0.5 0.05
v 0.11163986 0.41154355 0.05
v 0.27761704 0.34279355 0.05
v 0.2125 0.5 0.05
vt 0 0
vt 0.01839652 0
vt 0.04833119 0.0625
vt 0 0.0625
f 237/237 238/238 239/239 240/240
v 0.24244189 0.24244189 0.05
v 0.2967068 0.2967068 0.05
v 0.27761704 0.34279355 0.05
v 0.18498105 0.38116463 0.05
vt 0.0625 0.02761719
vt 0.0625 0.0625
vt 0.04833119 0.0625
vt 0.03162391 0.02761719
f 241/241 242/242 243/243 244/244
v 0.13976486 0.34364379 0.05
v 0.19947962 0.19947962 0.05
v 0.24244189 0.24244189 0.05
v 0.21310605 0.31326488 0.05
vt 0.0325178 0
vt 0.0625 0
vt 0.0625 0.02761719
vt 0.04673664 0.02761719
f 245/245 246/246 247/247 248/248
v 0.13246084 0.36127726 0.05
v 0.13976486 0.34364379 0.05
v 0.14520629 0.34138988 0.05
v 0.13696867 0.36127726 0.05
vt 0.02885053 0
vt 0.0325178 0
vt 0.03357275 0.00204901
vt 0.0293847 0.00204901
f 249/249 250/250 251/251 252/252
v 0.17915617 0.32732738 0.05
v 0.21310605 0.31326488 0.05
v 0.19321867 0.36127726 0.05
vt 0.04015469 0.0148331
vt 0.04673664 0.02761719
vt 0.03605032 0.02761719
f 253/253 254/254 255/255
v 0.16509367 0.33315226 0.05
v 0.17915617 0.32732738 0.05
v 0.18498105 0.34138988 0.05
vt 0.03742836 0.00953776
vt 0.04015469 0.0148331
vt 0.03845461 0.02012845
f 256/256 257/257 258/258
v 0.11163986 0.41154355 0.05
v 0.13246084 0.36127726 0.05
v 0.13696867 0.36127726 0.05
v 0.15103117 0.39522713 0.05
vt 0.01839652 0
vt 0.02885053 0
vt 0.0293847 0.00204901
vt 0.0255009 0.0148331
f 259/259 260/260 261/261 262/262
v 0.16509367 0.38940226 0.05
v 0.15103117 0.39522713 0.05
v 0.14520629 0.38116463 0.05
vt 0.02803713 0.02012845
vt 0.0255009 0.0148331
vt 0.02710963 0.00953776
f 263/263 264/264 265/265
v 0.5 0.13575783 0.05
v 0.5 0.2125 0.05
v 0.2967068 0.2967068 0.05
v 0.24244189 0.24244189 0.05
vt 0.0625 0.02761719
vt 0.0625 0.0625
vt 0 0.0625
vt 0 0.02761719
f 266/266 267/267 268/268 269/269
v 0.41154355 0.11163986 0.05
v 0.5 0.075 0.05
v 0.5 0.13575783 0.05
v 0.38116463 0.18498105 0.05
vt 0.04410348 0
vt 0.0625 0
vt 0.0625 0.02761719
vt 0.03366297 0.02761719
f 270/270 271/271 272/272 273/273
v 0.28249464 0.16509367 0.05
v 0.41154355 0.11163986 0.05
v 0.40928963 0.11708129 0.05
v 0.2933775 0.16509367 0.05
vt 0.01726485 0
vt 0.04410348 0
vt 0.04332887 0.00204901
vt 0.01922232 0.00204901
f 274/274 275/275 276/276 277/277
v 0.33315226 0.16509367 0.05
v 0.2933775 0.16509367 0.05
v 0.34138988 0.14520629 0.05
vt 0.0263765 0.00953776
vt 0.01922232 0.00204901
vt 0.02920758 0.00204901
f 278/278 279/279 280/280
v 0.40928963 0.11708129 0.05
v 0.38940226 0.16509367 0.05
v 0.37533976 0.13114379 0.05
vt 0.04332887 0.00204901
vt 0.03649405 0.02012845
vt 0.03626822 0.00204901
f 281/281 282/282 283/283
v 0.36127726 0.13696867 0.05
v 0.37533976 0.13114379 0.05
v 0.38116463 0.14520629 0.05
vt 0.03334361 0.00204901
vt 0.03626822 0.00204901
vt 0.03636176 0.00953776
f 284/284 285/285 286/286
v 0.19947962 0.19947962 0.05
v 0.28249464 0.16509367 0.05
v 0.33315226 0.16509367 0.05
vt 0 0
vt 0.01726485 0
vt 0.0263765 0.00953776
f 287/287 288/288 289/289
v 0.19947962 0.19947962 0.05
v 0.33315226 0.16509367 0.05
v 0.34721476 0.19904355 0.05
vt 0 0
vt 0.0263765 0.00953776
vt 0.02542457 0.02761719
f 290/290 291/291 292/292
v 0.19947962 0.19947962 0.05
v 0.34721476 0.19904355 0.05
v 0.24244189 0.24244189 0.05
vt 0 0
vt 0.02542457 0.02761719
vt 0 0.02761719
f 293/293 294/294 295/295
v 0.36127726 0.19321867 0.05
v 0.34721476 0.19904355 0.05
v 0.34138988 0.18498105 0.05
vt 0.02883703 0.02761719
vt 0.02542457 0.02761719
vt 0.02581887 0.02012845
f 296/296 297/297 298/298
v 0.71206393 0.16283976 0.05
v 0.80052038 0.19947962 0.05
v 0.7032932 0.2967068 0.05
v 0.54608675 0.23158976 0.05
vt 0.04410348 0
vt 0.0625 0
vt 0.0625 0.0625
vt 0.01416881 0.0625
f 299/299 300/300 301/301 302/302
v 0.67426638 0.1471835 0.05
v 0.71206393 0.16283976 0.05
v 0.65861012 0.18498105 0.05
vt 0.03624263 0
vt 0.04410348 0
vt 0.03446287 0.02012845
f 303/303 304/304 305/305
v 0.5 0.075 0.05
v 0.64416417 0.13471476 0.05
v 0.57082299 0.16509367 0.05
v 0.5 0.16509367 0.05
vt 0 0
vt 0.0299822 0
vt 0.01502618 0.02761719
vt 0 0.04095167
f 306/306 307/307 308/308 309/309
v 0.61059774 0.16509367 0.05
v 0.57082299 0.16509367 0.05
v 0.61883537 0.14520629 0.05
vt 0.023465 0.02012845
vt 0.01502618 0.02761719
vt 0.02481705 0.00953776
f 310/310 311/311 312/312
v 0.65635621 0.13976486 0.05
v 0.67426638 0.1471835 0.05
v 0.66684774 0.16509367 0.05
vt 0.0325178 0
vt 0.03624263 0
vt 0.0353993 0.00953776
f 313/313 314/314 315/315
v 0.64416417 0.13471476 0.05
v 0.65635621 0.13976486 0.05
v 0.65861012 0.14520629 0.05
v 0.63872274 0.13696867 0.05
vt 0.0299822 0
vt 0.0325178 0
vt 0.03313684 0.00204901
vt 0.02887256 0.00204901
f 316/316 317/317 318/318 319/319
v 0.62466024 0.19904355 0.05
v 0.54608675 0.23158976 0.05
v 0.5 0.2125 0.05
vt 0.02833986 0.03291254
vt 0.01416881 0.0625
vt 0 0.0625
f 320/320 321/321 322/322
v 0.62466024 0.19904355 0.05
v 0.5 0.2125 0.05
v 0.5 0.16509367 0.05
vt 0.02833986 0.03291254
vt 0 0.0625
vt 0 0.04095167
f 323/323 324/324 325/325
v 0.62466024 0.19904355 0.05
v 0.5 0.16509367 0.05
v 0.61059774 0.16509367 0.05
vt 0.02833986 0.03291254
vt 0 0.04095167
vt 0.023465 0.02012845
f 326/326 327/327 328/328
v 0.63872274 0.19321867 0.05
v 0.62466024 0.19904355 0.05
v 0.61883537 0.18498105 0.05
vt 0.03087609 0.02761719
vt 0.02833986 0.03291254
vt 0.02632063 0.02761719
f 329/329 330/330 331/331
v 0.87270388 0.373746 0.05
v 0.925 0.5 0.05
v 0.7875 0.5 0.05
v 0.75534029 0.42235959 0.05
vt 0.03624263 0
vt 0.0625 0
vt 0.0625 0.0625
vt 0.03863041 0.0625
f 332/332 333/333 334/334 335/335
v 0.86528524 0.35583583 0.05
v 0.87270388 0.373746 0.05
v 0.85479371 0.38116463 0.05
vt 0.0325178 0
vt 0.03624263 0
vt 0.03660701 0.00953776
f 336/336 337/337 338/338
v 0.80052038 0.19947962 0.05
v 0.8528165 0.32573362 0.05
v 0.76700657 0.36127726 0.05
vt 0 0
vt 0.02625737 0
vt 0.02361643 0.04569663
f 339/339 340/340 341/341
v 0.80052038 0.19947962 0.05
v 0.76700657 0.36127726 0.05
v 0.73003916 0.36127726 0.05
vt 0 0
vt 0.02361643 0.04569663
vt 0.01985139 0.0625
f 342/342 343/343 344/344
v 0.80052038 0.19947962 0.05
v 0.73003916 0.36127726 0.05
v 0.7032932 0.2967068 0.05
vt 0 0
vt 0.01985139 0.0625
vt 0 0.0625
f 345/345 346/346 347/347
v 0.80678133 0.36127726 0.05
v 0.76700657 0.36127726 0.05
v 0.81501895 0.34138988 0.05
vt 0.02766738 0.02761719
vt 0.02361643 0.04569663
vt 0.02509409 0.02012845
f 348/348 349/349 350/350
v 0.8528165 0.32573362 0.05
v 0.86528524 0.35583583 0.05
v 0.86303133 0.36127726 0.05
v 0.84896883 0.32732738 0.05
vt 0.02625737 0
vt 0.0325178 0
vt 0.0333963 0.00204901
vt 0.02613895 0.00204901
f 351/351 352/352 353/353 354/354
v 0.83490633 0.33315226 0.05
v 0.84896883 0.32732738 0.05
v 0.85479371 0.34138988 0.05
vt 0.02570616 0.00953776
vt 0.02613895 0.00204901
vt 0.02914504 0.00204901
f 355/355 356/356 357/357
v 0.82084383 0.39522713 0.05
v 0.75534029 0.42235959 0.05
v 0.73003916 0.36127726 0.05
v 0.80678133 0.36127726 0.05
vt 0.03729773 0.02761719
vt 0.03863041 0.0625
vt 0.01985139 0.0625
vt 0.02766738 0.02761719
f 358/358 359/359 360/360 361/361
v 0.83490633 0.38940226 0.05
v 0.82084383 0.39522713 0.05
v 0.81501895 0.38116463 0.05
vt 0.03701163 0.02012845
vt 0.03729773 0.02761719
vt 0.03330871 0.02761719
f 362/362 363/363 364/364
v 0.7875 0.5 0.05
v 0.7032932 0.7032932 0.05
v 0.7032932 0.7032932 0
v 0.7875 0.5 0
vt 0 0
vt 0.0625 0
vt 0.0625 0.0625
vt 0 0.0625
f 365/365 366/366 367/367 368/368
v 0.7032932 0.7032932 0.05
v 0.5 0.7875 0.05
v 0.5 0.7875 0
v 0.7032932 0.7032932 0
vt 0 0
vt 0.0625 0
vt 0.0625 0.0625
vt 0 0.0625
f 369/369 370/370 371/371 372/372
v 0.5 0.7875 0.05
v 0.2967068 0.7032932 0.05
v 0.2967068 0.7032932 0
v 0.5 0.7875 0
vt 0 0
vt 0.0625 0
vt 0.0625 0.0625
vt 0 0.0625
f 373/373 374/374 375/375 376/376
v 0.2967068 0.7032932 0.05
v 0.2125 0.5 0.05
v 0.2125 0.5 0
v 0.2967068 0.7032932 0
vt 0 0
vt 0.0625 0
vt 0.0625 0.0625
vt 0 0.0625
f 377/377 378/378 379/379 380/380
v 0.2125 0.5 0.05
v 0.2967068 0.2967068 0.05
v 0.2967068 0.2967068 0
v 0.2125 0.5 0
vt 0 0
vt 0.0625 0
vt 0.0625 0.0625
vt 0 0.0625
f 381/381 382/382 383/383 384/384
v 0.2967068 0.2967068 0.05
v 0.5 0.2125 0.05
v 0.5 0.2125 0
v 0.2967068 0.2967068 0
vt 0 0
vt 0.0625 0
vt 0.0625 0.0625
vt 0 0.0625
f 385/385 386/386 387/387 388/388
v 0.5 0.2125 0.05
v 0.7032932 0.2967068 0.05
v 0.7032932 0.2967068 0
v 0.5 0.2125 0
vt 0 0
vt 0.0625 0
vt 0.0625 0.0625
vt 0 0.0625
f 389/389 390/390 391/391 392/392
v 0.7032932 0.2967068 0.05
v 0.7875 0.5 0.05
v 0.7875 0.5 0
v 0.7032932 0.2967068 0
vt 0 0
vt 0.0625 0
vt 0.0625 0.0625
vt 0 0.0625
f 393/393 394/394 395/395 396/396
v 0.7875 0.5 0
v 0.7032932 0.7032932 0
v 0.80052038 0.80052038 0
v 0.925 0.5 0
vt 0 0
vt 0.0625 0
vt 0.0625 0.0625
vt 0 0.0625
f 397/397 398/398 399/399 400/400
v 0.7032932 0.7032932 0
v 0.5 0.7875 0
v 0.5 0.925 0
v 0.80052038 0.80052038 0
vt 0 0
vt 0.0625 0
vt 0.0625 0.0625
vt 0 0.0625
f 401/401 402/402 403/403 404/404
v 0.5 0.7875 0
v 0.2967068 0.7032932 0
v 0.19947962 0.80052038 0
v 0.5 0.925 0
vt 0 0
vt 0.0625 0
vt 0.0625 0.0625
vt 0 0.0625
f 405/405 406/406 407/407 408/408
v 0.2967068 0.7032932 0
v 0.2125 0.5 0
v 0.075 0.5 0
v 0.19947962 0.80052038 0
vt 0 0
vt 0.0625 0
vt 0.0625 0.0625
vt 0 0.0625
f 409/409 410/410 411/411 412/412
v 0.2125 0.5 0
v 0.2967068 0.2967068 0
v 0.19947962 0.19947962 0
v 0.075 0.5 0
vt 0 0
vt 0.0625 0
vt 0.0625 0.0625
vt 0 0.0625
f 413/413 414/414 415/415 416/416
v 0.2967068 0.2967068 0
v 0.5 0.2125 0
v 0.5 0.075 0
v 0.19947962 0.19947962 0
vt 0 0
vt 0.0625 0
vt 0.0625 0.0625
vt 0 0.0625
f 417/417 418/418 419/419 420/420
v 0.5 0.2125 0
v 0.7032932 0.2967068 0
v 0.80052038 0.19947962 0
v 0.5 0.075 0
vt 0 0
vt 0.0625 0
vt 0.0625 0.0625
vt 0 0.0625
f 421/421 422/422 423/423 424/424
v 0.7032932 0.2967068 0
v 0.7875 0.5 0
v 0.925 0.5 0
v 0.80052038 0.19947962 0
vt 0 0
vt 0.0625 0
vt 0.0625 0.0625
vt 0 0.0625
f 425/425 426/426 427/427 428/428
usemtl copper
v 0.83125 0.5 0.05625
v 0.73422912 0.73422912 0.05625
v 0.73422912 0.73422912 0.1
v 0.83125 0.5 0.1
vt 0.0625 0.4375
vt 0.25 0.4375
vt 0.25 0.5
vt 0.0625 0.5
f 429/429 430/430 431/431 432/432
v 0.73422912 0.73422912 0.05625
v 0.5 0.83125 0.05625
v 0.5 0.83125 0.1
v 0.73422912 0.73422912 0.1
vt 0.0625 0.4375
vt 0.25 0.4375
vt 0.25 0.5
vt 0.0625 0.5
f 433/433 434/434 435/435 436/436
v 0.5 0.83125 0.05625
v 0.26577088 0.73422912 0.05625
v 0.26577088 0.73422912 0.1
v 0.5 0.83125 0.1
vt 0.0625 0.4375
vt 0.25 0.4375
vt 0.25 0.5
vt 0.0625 0.5
f 437/437 438/438 439/439 440/440
v 0.26577088 0.73422912 0.05625
v 0.16875 0.5 0.05625
v 0.16875 0.5 0.1
v 0.26577088 0.73422912 0.1
vt 0.0625 0.4375
vt 0.25 0.4375
vt 0.25 0.5
vt 0.0625 0.5
f 441/441 442/442 443/443 444/444
v 0.16875 0.5 0.05625
v 0.26577088 0.26577088 0.05625
v 0.26577088 0.26577088 0.1
v 0.16875 0.5 0.1
vt 0.0625 0.4375
vt 0.25 0.4375
vt 0.25 0.5
vt 0.0625 0.5
f 445/445 446/446 447/447 448/448
v 0.26577088 0.26577088 0.05625
v 0.5 0.16875 0.05625
v 0.5 0.16875 0.1
v 0.26577088 0.26577088 0.1
vt 0.0625 0.4375
vt 0.25 0.4375
vt 0.25 0.5
vt 0.0625 0.5
f 449/449 450/450 451/451 452/452
v 0.5 0.16875 0.05625
v 0.73422912 0.26577088 0.05625
v 0.73422912 0.26577088 0.1
v 0.5 0.16875 0.1
vt 0.0625 0.4375
vt 0.25 0.4375
vt 0.25 0.5
vt 0.0625 0.5
f 453/453 454/454 455/455 456/456
v 0.73422912 0.26577088 0.05625
v 0.83125 0.5 0.05625
v 0.83125 0.5 0.1
v 0.73422912 0.26577088 0.1
vt 0.0625 0.4375
vt 0.25 0.4375
vt 0.25 0.5
vt 0.0625 0.5
f 457/457 458/458 459/459 460/460
v 0.83125 0.5 0.1
v 0.73422912 0.73422912 0.1
v 0.7032932 0.7032932 0.1
v 0.7875 0.5 0.1
vt 0.0625 0.4375
vt 0.25 0.4375
vt 0.25 0.5
vt 0.0625 0.5
f 461/461 462/462 463/463 464/464
v 0.73422912 0.73422912 0.1
v 0.5 0.83125 0.1
v 0.5 0.7875 0.1
v 0.7032932 0.7032932 0.1
vt 0.0625 0.4375
vt 0.25 0.4375
vt 0.25 0.5
vt 0.0625 0.5
f 465/465 466/466 467/467 468/468
v 0.5 0.83125 0.1
v 0.26577088 0.73422912 0.1
v 0.2967068 0.7032932 0.1
v 0.5 0.7875 0.1
vt 0.0625 0.4375
vt 0.25 0.4375
vt 0.25 0.5
vt 0.0625 0.5
f 469/469 470/470 471/471 472/472
v 0.26577088 0.73422912 0.1
v 0.16875 0.5 0.1
v 0.2125 0.5 0.1
v 0.2967068 0.7032932 0.1
vt 0.0625 0.4375
vt 0.25 0.4375
vt 0.25 0.5
vt 0.0625 0.5
f 473/473 474/474 475/475 476/476
v 0.16875 0.5 0.1
v 0.26577088 0.26577088 0.1
v 0.2967068 0.2967068 0.1
v 0.2125 0.5 0.1
vt 0.0625 0.4375
vt 0.25 0.4375
vt 0.25 0.5
vt 0.0625 0.5
f 477/477 478/478 479/479 480/480
v 0.26577088 0.26577088 0.1
v 0.5 0.16875 0.1
v 0.5 0.2125 0.1
v 0.2967068 0.2967068 0.1
vt 0.0625 0.4375
vt 0.25 0.4375
vt 0.25 0.5
vt 0.0625 0.5
f 481/481 482/482 483/483 484/484
v 0.5 0.16875 0.1
v 0.73422912 0.26577088 0.1
v 0.7032932 0.2967068 0.1
v 0.5 0.2125 0.1
vt 0.0625 0.4375
vt 0.25 0.4375
vt 0.25 0.5
vt 0.0625 0.5
f 485/485 486/486 487/487 488/488
v 0.73422912 0.26577088 0.1
v 0.83125 0.5 0.1
v 0.7875 0.5 0.1
v 0.7032932 0.2967068 0.1
vt 0.0625 0.4375
vt 0.25 0.4375
vt 0.25 0.5
vt 0.0625 0.5
f 489/489 490/490 491/491 492/492
v 0.7875 0.5 0.1
v 0.7032932 0.7032932 0.1
v 0.7032932 0.7032932 0.05625
v 0.7875 0.5 0.05625
vt 0.0625 0.4375
vt 0.25 0.4375
vt 0.25 0.5
vt 0.0625 0.5
f 493/493 494/494 495/495 496/496
v 0.7032932 0.7032932 0.1
v 0.5 0.7875 0.1
v 0.5 0.7875 0.05625
v 0.7032932 0.7032932 0.05625
vt 0.0625 0.4375
vt 0.25 0.4375
vt 0.25 0.5
vt 0.0625 0.5
f 497/497 498/498 499/499 500/500
v 0.5 0.7875 0.1
v 0.2967068 0.7032932 0.1
v 0.2967068 0.7032932 0.05625
v 0.5 0.7875 0.05625
vt 0.0625 0.4375
vt 0.25 0.4375
vt 0.25 0.5
vt 0.0625 0.5
f 501/501 502/502 503/503 504/504
v 0.2967068 0.7032932 0.1
v 0.2125 0.5 0.1
v 0.2125 0.5 0.05625
v 0.2967068 0.7032932 0.05625
vt 0.0625 0.4375
vt 0.25 0.4375
vt 0.25 0.5
vt 0.0625 0.5
f 505/505 506/506 507/507 508/508
v 0.2125 0.5 0.1
v 0.2967068 0.2967068 0.1
v 0.2967068 0.2967068 0.05625
v 0.2125 0.5 0.05625
vt 0.0625 0.4375
vt 0.25 0.4375
vt 0.25 0.5
vt 0.0625 0.5
f 509/509 510/510 511/511 512/512
v 0.2967068 0.2967068 0.1
v 0.5 0.2125 0.1
v 0.5 0.2125 0.05625
v 0.2967068 0.2967068 0.05625
vt 0.0625 0.4375
vt 0.25 0.4375
vt 0.25 0.5
vt 0.0625 0.5
f 513/513 514/514 515/515 516/516
v 0.5 0.2125 0.1
v 0.7032932 0.2967068 0.1
v 0.7032932 0.2967068 0.05625
v 0.5 0.2125 0.05625
vt 0.0625 0.4375
vt 0.25 0.4375
vt 0.25 0.5
vt 0.0625 0.5
f 517/517 518/518 519/519 520/520
v 0.7032932 0.2967068 0.1
v 0.7875 0.5 0.1
v 0.7875 0.5 0.05625
v 0.7032932 0.2967068 0.05625
vt 0.0625 0.4375
vt 0.25 0.4375
vt 0.25 0.5
vt 0.0625 0.5
f 521/521 522/522 523/523 524/524
v 0.7875 0.5 0.05625
v 0.7032932 0.7032932 0.05625
v 0.73422912 0.73422912 0.05625
v 0.83125 0.5 0.05625
vt 0.0625 0.4375
vt 0.25 0.4375
vt 0.25 0.5
vt 0.0625 0.5
f 525/525 526/526 527/527 528/528
v 0.7032932 0.7032932 0.05625
v 0.5 0.7875 0.05625
v 0.5 0.83125 0.05625
v 0.73422912 0.73422912 0.05625
vt 0.0625 0.4375
vt 0.25 0.4375
vt 0.25 0.5
vt 0.0625 0.5
f 529/529 530/530 531/531 532/532
v 0.5 0.7875 0.05625
v 0.2967068 0.7032932 0.05625
v 0.26577088 0.73422912 0.05625
v 0.5 0.83125 0.05625
vt 0.0625 0.4375
vt 0.25 0.4375
vt 0.25 0.5
vt 0.0625 0.5
f 533/533 534/534 535/535 536/536
v 0.2967068 0.7032932 0.05625
v 0.2125 0.5 0.05625
v 0.16875 0.5 0.05625
v 0.26577088 0.73422912 0.05625
vt 0.0625 0.4375
vt 0.25 0.4375
vt 0.25 0.5
vt 0.0625 0.5
f 537/537 538/538 539/539 540/540
v 0.2125 0.5 0.05625
v 0.2967068 0.2967068 0.05625
v 0.26577088 0.26577088 0.05625
v 0.16875 0.5 0.05625
vt 0.0625 0.4375
vt 0.25 0.4375
vt 0.25 0.5
vt 0.0625 0.5
f 541/541 542/542 543/543 544/544
v 0.2967068 0.2967068 0.05625
v 0.5 0.2125 0.05625
v 0.5 0.16875 0.05625
v 0.26577088 0.26577088 0.05625
vt 0.0625 0.4375
vt 0.25 0.4375
vt 0.25 0.5
vt 0.0625 0.5
f 545/545 546/546 547/547 548/548
v 0.5 0.2125 0.05625
v 0.7032932 0.2967068 0.05625
v 0.73422912 0.26577088 0.05625
v 0.5 0.16875 0.05625
vt 0.0625 0.4375
vt 0.25 0.4375
vt 0.25 0.5
vt 0.0625 0.5
f 549/549 550/550 551/551 552/552
v 0.7032932 0.2967068 0.05625
v 0.7875 0.5 0.05625
v 0.83125 0.5 0.05625
v 0.73422912 0.26577088 0.05625
vt 0.0625 0.4375
vt 0.25 0.4375
vt 0.25 0.5
vt 0.0625 0.5
f 553/553 554/554 555/555 556/556
v 0.86303133 0.63872274 0.05
v 0.85479371 0.65861012 0.05
v 0.85479371 0.65861012 0.08125
v 0.86303133 0.63872274 0.08125
vt 0.0625 0.4375
vt 0.25 0.4375
vt 0.25 0.5
vt 0.0625 0.5
f 557/557 558/558 559/559 560/560
v 0.85479371 0.65861012 0.05
v 0.83490633 0.66684774 0.05
v 0.83490633 0.66684774 0.08125
v 0.85479371 0.65861012 0.08125
vt 0.0625 0.4375
vt 0.25 0.4375
vt 0.25 0.5
vt 0.0625 0.5
f 561/561 562/562 563/563 564/564
v 0.83490633 0.66684774 0.05
v 0.81501895 0.65861012 0.05
v 0.81501895 0.65861012 0.08125
v 0.83490633 0.66684774 0.08125
vt 0.0625 0.4375
vt 0.25 0.4375
vt 0.25 0.5
vt 0.0625 0.5
f 565/565 566/566 567/567 568/568
v 0.81501895 0.65861012 0.05
v 0.80678133 0.63872274 0.05
v 0.80678133 0.63872274 0.08125
v 0.81501895 0.65861012 0.08125
vt 0.0625 0.4375
vt 0.25 0.4375
vt 0.25 0.5
vt 0.0625 0.5
f 569/569 570/570 571/571 572/572
v 0.80678133 0.63872274 0.05
v 0.81501895 0.61883537 0.05
v 0.81501895 0.61883537 0.08125
v 0.80678133 0.63872274 0.08125
vt 0.0625 0.4375
vt 0.25 0.4375
vt 0.25 0.5
vt 0.0625 0.5
f 573/573 574/574 575/575 576/576
v 0.81501895 0.61883537 0.05
v 0.83490633 0.61059774 0.05
v 0.83490633 0.61059774 0.08125
v 0.81501895 0.61883537 0.08125
vt 0.0625 0.4375
vt 0.25 0.4375
vt 0.25 0.5
vt 0.0625 0.5
f 577/577 578/578 579/579 580/580
v 0.83490633 0.61059774 0.05
v 0.85479371 0.61883537 0.05
v 0.85479371 0.61883537 0.08125
v 0.83490633 0.61059774 0.08125
vt 0.0625 0.4375
vt 0.25 0.4375
vt 0.25 0.5
vt 0.0625 0.5
f 581/581 582/582 583/583 584/584
v 0.85479371 0.61883537 0.05
v 0.86303133 0.63872274 0.05
v 0.86303133 0.63872274 0.08125
v 0.85479371 0.61883537 0.08125
vt 0.0625 0.4375
vt 0.25 0.4375
vt 0.25 0.5
vt 0.0625 0.5
f 585/585 586/586 587/587 588/588
v 0.83490633 0.66684774 0.05
v 0.85479371 0.65861012 0.05
v 0.86303133 0.63872274 0.05
v 0.83490633 0.63872274 0.05
vt 0.15625 0.4375
vt 0.22254126 0.44665291
vt 0.25 0.46875
vt 0.15625 0.46875
f 589/589 590/590 591/591 592/592
v 0.80678133 0.63872274 0.05
v 0.81501895 0.65861012 0.05
v 0.83490633 0.66684774 0.05
v 0.83490633 0.63872274 0.05
vt 0.0625 0.46875
vt 0.08995874 0.44665291
vt 0.15625 0.4375
vt 0.15625 0.46875
f 593/593 594/594 595/595 596/596
v 0.83490633 0.61059774 0.05
v 0.81501895 0.61883537 0.05
v 0.80678133 0.63872274 0.05
v 0.83490633 0.63872274 0.05
vt 0.15625 0.5
vt 0.08995874 0.49084709
vt 0.0625 0.46875
vt 0.15625 0.46875
f 597/597 598/598 599/599 600/600
v 0.86303133 0.63872274 0.05
v 0.85479371 0.61883537 0.05
v 0.83490633 0.61059774 0.05
v 0.83490633 0.63872274 0.05
vt 0.25 0.46875
vt 0.22254126 0.49084709
vt 0.15625 0.5
vt 0.15625 0.46875
f 601/601 602/602 603/603 604/604
v 0.83490633 0.63872274 0.08125
v 0.86303133 0.63872274 0.08125
v 0.85479371 0.65861012 0.08125
v 0.83490633 0.66684774 0.08125
vt 0.15625 0.46875
vt 0.25 0.46875
vt 0.22254126 0.44665291
vt 0.15625 0.4375
f 605/605 606/606 607/607 608/608
v 0.83490633 0.63872274 0.08125
v 0.83490633 0.66684774 0.08125
v 0.81501895 0.65861012 0.08125
v 0.80678133 0.63872274 0.08125
vt 0.15625 0.46875
vt 0.15625 0.4375
vt 0.08995874 0.44665291
vt 0.0625 0.46875
f 609/609 610/610 611/611 612/612
v 0.83490633 0.63872274 0.08125
v 0.80678133 0.63872274 0.08125
v 0.81501895 0.61883537 0.08125
v 0.83490633 0.61059774 0.08125
vt 0.15625 0.46875
vt 0.0625 0.46875
vt 0.08995874 0.49084709
vt 0.15625 0.5
f 613/613 614/614 615/615 616/616
v 0.83490633 0.63872274 0.08125
v 0.83490633 0.61059774 0.08125
v 0.85479371 0.61883537 0.08125
v 0.86303133 0.63872274 0.08125
vt 0.15625 0.46875
vt 0.15625 0.5
vt 0.22254126 0.49084709
vt 0.25 0.46875
f 617/617 618/618 619/619 620/620
v 0.66684774 0.83490633 0.05
v 0.65861012 0.85479371 0.05
v 0.65861012 0.85479371 0.08125
v 0.66684774 0.83490633 0.08125
vt 0.0625 0.4375
vt 0.25 0.4375
vt 0.25 0.5
vt 0.0625 0.5
f 621/621 622/622 623/623 624/624
v 0.65861012 0.85479371 0.05
v 0.63872274 0.86303133 0.05
v 0.63872274 0.86303133 0.08125
v 0.65861012 0.85479371 0.08125
vt 0.0625 0.4375
vt 0.25 0.4375
vt 0.25 0.5
vt 0.0625 0.5
f 625/625 626/626 627/627 628/628
v 0.63872274 0.86303133 0.05
v 0.61883537 0.85479371 0.05
v 0.61883537 0.85479371 0.08125
v 0.63872274 0.86303133 0.08125
vt 0.0625 0.4375
vt 0.25 0.4375
vt 0.25 0.5
vt 0.0625 0.5
f 629/629 630/630 631/631 632/632
v 0.61883537 0.85479371 0.05
v 0.61059774 0.83490633 0.05
v 0.61059774 0.83490633 0.08125
v 0.61883537 0.85479371 0.08125
vt 0.0625 0.4375
vt 0.25 0.4375
vt 0.25 0.5
vt 0.0625 0.5
f 633/633 634/634 635/635 636/636
v 0.61059774 0.83490633 0.05
v 0.61883537 0.81501895 0.05
v 0.61883537 0.81501895 0.08125
v 0.61059774 0.83490633 0.08125
vt 0.0625 0.4375
vt 0.25 0.4375
vt 0.25 0.5
vt 0.0625 0.5
f 637/637 638/638 639/639 640/640
v 0.61883537 0.81501895 0.05
v 0.63872274 0.80678133 0.05
v 0.63872274 0.80678133 0.08125
v 0.61883537 0.81501895 0.08125
vt 0.0625 0.4375
vt 0.25 0.4375
vt 0.25 0.5
vt 0.0625 0.5
f 641/641 642/642 643/643 644/644
v 0.63872274 0.80678133 0.05
v 0.65861012 0.81501895 0.05
v 0.65861012 0.81501895 0.08125
v 0.63872274 0.80678133 0.08125
vt 0.0625 0.4375
vt 0.25 0.4375
vt 0.25 0.5
vt 0.0625 0.5
f 645/645 646/646 647/647 648/648
v 0.65861012 0.81501895 0.05
v 0.66684774 0.83490633 0.05
v 0.66684774 0.83490633 0.08125
v 0.65861012 0.81501895 0.08125
vt 0.0625 0.4375
vt 0.25 0.4375
vt 0.25 0.5
vt 0.0625 0.5
f 649/649 650/650 651/651 652/652
v 0.63872274 0.86303133 0.05
v 0.65861012 0.85479371 0.05
v 0.66684774 0.83490633 0.05
v 0.63872274 0.83490633 0.05
vt 0.15625 0.4375
vt 0.22254126 0.44665291
vt 0.25 0.46875
vt 0.15625 0.46875
f 653/653 654/654 655/655 656/656
v 0.61059774 0.83490633 0.05
v 0.61883537 0.85479371 0.05
v 0.63872274 0.86303133 0.05
v 0.63872274 0.83490633 0.05
vt 0.0625 0.46875
vt 0.08995874 0.44665291
vt 0.15625 0.4375
vt 0.15625 0.46875
f 657/657 658/658 659/659 660/660
v 0.63872274 0.80678133 0.05
v 0.61883537 0.81501895 0.05
v 0.61059774 0.83490633 0.05
v 0.63872274 0.83490633 0.05
vt 0.15625 0.5
vt 0.08995874 0.49084709
vt 0.0625 0.46875
vt 0.15625 0.46875
f 661/661 662/662 663/663 664/664
v 0.66684774 0.83490633 0.05
v 0.65861012 0.81501895 0.05
v 0.63872274 0.80678133 0.05
v 0.63872274 0.83490633 0.05
vt 0.25 0.46875
vt 0.22254126 0.49084709
vt 0.15625 0.5
vt 0.15625 0.46875
f 665/665 666/666 667/667 668/668
v 0.63872274 0.83490633 0.08125
v 0.66684774 0.83490633 0.08125
v 0.65861012 0.85479371 0.08125
v 0.63872274 0.86303133 0.08125
vt 0.15625 0.46875
vt 0.25 0.46875
vt 0.22254126 0.44665291
vt 0.15625 0.4375
f 669/669 670/670 671/671 672/672
v 0.63872274 0.83490633 0.08125
v 0.63872274 0.86303133 0.08125
v 0.61883537 0.85479371 0.08125
v 0.61059774 0.83490633 0.08125
vt 0.15625 0.46875
vt 0.15625 0.4375
vt 0.08995874 0.44665291
vt 0.0625 0.46875
f 673/673 674/674 675/675 676/676
v 0.63872274 0.83490633 0.08125
v 0.61059774 0.83490633 0.08125
v 0.61883537 0.81501895 0.08125
v 0.63872274 0.80678133 0.08125
vt 0.15625 0.46875
vt 0.0625 0.46875
vt 0.08995874 0.49084709
vt 0.15625 0.5
f 677/677 678/678 679/679 680/680
v 0.63872274 0.83490633 0.08125
v 0.63872274 0.80678133 0.08125
v 0.65861012 0.81501895 0.08125
v 0.66684774 0.83490633 0.08125
vt 0.15625 0.46875
vt 0.15625 0.5
vt 0.22254126 0.49084709
vt 0.25 0.46875
f 681/681 682/682 683/683 684/684
v 0.38940226 0.83490633 0.05
v 0.38116463 0.85479371 0.05
v 0.38116463 0.85479371 0.08125
v 0.38940226 0.83490633 0.08125
vt 0.0625 0.4375
vt 0.25 0.4375
vt 0.25 0.5
vt 0.0625 0.5
f 685/685 686/686 687/687 688/688
v 0.38116463 0.85479371 0.05
v 0.36127726 0.86303133 0.05
v 0.36127726 0.86303133 0.08125
v 0.38116463 0.85479371 0.08125
vt 0.0625 0.4375
vt 0.25 0.4375
vt 0.25 0.5
vt 0.0625 0.5
f 689/689 690/690 691/691 692/692
v 0.36127726 0.86303133 0.05
v 0.34138988 0.85479371 0.05
v 0.34138988 0.85479371 0.08125
v 0.36127726 0.86303133 0.08125
vt 0.0625 0.4375
vt 0.25 0.4375
vt 0.25 0.5
vt 0.0625 0.5
f 693/693 694/694 695/695 696/696
v 0.34138988 0.85479371 0.05
v 0.33315226 0.83490633 0.05
v 0.33315226 0.83490633 0.08125
v 0.34138988 0.85479371 0.08125
vt 0.0625 0.4375
vt 0.25 0.4375
vt 0.25 0.5
vt 0.0625 0.5
f 697/697 698/698 699/699 700/700
v 0.33315226 0.83490633 0.05
v 0.34138988 0.81501895 0.05
v 0.34138988 0.81501895 0.08125
v 0.33315226 0.83490633 0.08125
vt 0.0625 0.4375
vt 0.25 0.4375
vt 0.25 0.5
vt 0.0625 0.5
f 701/701 702/702 703/703 704/704
v 0.34138988 0.81501895 0.05
v 0.36127726 0.80678133 0.05
v 0.36127726 0.80678133 0.08125
v 0.34138988 0.81501895 0.08125
vt 0.0625 0.4375
vt 0.25 0.4375
vt 0.25 0.5
vt 0.0625 0.5
f 705/705 706/706 707/707 708/708
v 0.36127726 0.80678133 0.05
v 0.38116463 0.81501895 0.05
v 0.38116463 0.81501895 0.08125
v 0.36127726 0.80678133 0.08125
vt 0.0625 0.4375
vt 0.25 0.4375
vt 0.25 0.5
vt 0.0625 0.5
f 709/709 710/710 711/711 712/712
v 0.38116463 0.81501895 0.05
v 0.38940226 0.83490633 0.05
v 0.38940226 0.83490633 0.08125
v 0.38116463 0.81501895 0.08125
vt 0.0625 0.4375
vt 0.25 0.4375
vt 0.25 0.5
vt 0.0625 0.5
f 713/713 714/714 715/715 716/716
v 0.36127726 0.86303133 0.05
v 0.38116463 0.85479371 0.05
v 0.38940226 0.83490633 0.05
v 0.36127726 0.83490633 0.05
vt 0.15625 0.4375
vt 0.22254126 0.44665291
vt 0.25 0.46875
vt 0.15625 0.46875
f 717/717 718/718 719/719 720/720
v 0.33315226 0.83490633 0.05
v 0.34138988 0.85479371 0.05
v 0.36127726 0.86303133 0.05
v 0.36127726 0.83490633 0.05
vt 0.0625 0.46875
vt 0.08995874 0.44665291
vt 0.15625 0.4375
vt 0.15625 0.46875
f 721/721 722/722 723/723 724/724
v 0.36127726 0.80678133 0.05
v 0.34138988 0.81501895 0.05
v 0.33315226 0.83490633 0.05
v 0.36127726 0.83490633 0.05
vt 0.15625 0.5
vt 0.08995874 0.49084709
vt 0.0625 0.46875
vt 0.15625 0.46875
f 725/725 726/726 727/727 728/728
v 0.38940226 0.83490633 0.05
v 0.38116463 0.81501895 0.05
v 0.36127726 0.80678133 0.05
v 0.36127726 0.83490633 0.05
vt 0.25 0.46875
vt 0.22254126 0.49084709
vt 0.15625 0.5
vt 0.15625 0.46875
f 729/729 730/730 731/731 732/732
v 0.36127726 0.83490633 0.08125
v 0.38940226 0.83490633 0.08125
v 0.38116463 0.85479371 0.08125
v 0.36127726 0.86303133 0.08125
vt 0.15625 0.46875
vt 0.25 0.46875
vt 0.22254126 0.44665291
vt 0.15625 0.4375
f 733/733 734/734 735/735 736/736
v 0.36127726 0.83490633 0.08125
v 0.36127726 0.86303133 0.08125
v 0.34138988 0.85479371 0.08125
v 0.33315226 0.83490633 0.08125
vt 0.15625 0.46875
vt 0.15625 0.4375
vt 0.08995874 0.44665291
vt 0.0625 0.46875
f 737/737 738/738 739/739 740/740
v 0.36127726 0.83490633 0.08125
v 0.33315226 0.83490633 0.08125
v 0.34138988 0.81501895 0.08125
v 0.36127726 0.80678133 0.08125
vt 0.15625 0.46875
vt 0.0625 0.46875
vt 0.08995874 0.49084709
vt 0.15625 0.5
f 741/741 742/742 743/743 744/744
v 0.36127726 0.83490633 0.08125
v 0.36127726 0.80678133 0.08125
v 0.38116463 0.81501895 0.08125
v 0.38940226 0.83490633 0.08125
vt 0.15625 0.46875
vt 0.15625 0.5
vt 0.22254126 0.49084709
vt 0.25 0.46875
f 745/745 746/746 747/747 748/748
v 0.19321867 0.63872274 0.05
v 0.18498105 0.65861012 0.05
v 0.18498105 0.65861012 0.08125
v 0.19321867 0.63872274 0.08125
vt 0.0625 0.4375
vt 0.25 0.4375
vt 0.25 0.5
vt 0.0625 0.5
f 749/749 750/750 751/751 752/752
v 0.18498105 0.65861012 0.05
v 0.16509367 0.66684774 0.05
v 0.16509367 0.66684774 0.08125
v 0.18498105 0.65861012 0.08125
vt 0.0625 0.4375
vt 0.25 0.4375
vt 0.25 0.5
vt 0.0625 0.5
f 753/753 754/754 755/755 756/756
v 0.16509367 0.66684774 0.05
v 0.14520629 0.65861012 0.05
v 0.14520629 0.65861012 0.08125
v 0.16509367 0.66684774 0.08125
vt 0.0625 0.4375
vt 0.25 0.4375
vt 0.25 0.5
vt 0.0625 0.5
f 757/757 758/758 759/759 760/760
v 0.14520629 0.65861012 0.05
v 0.13696867 0.63872274 0.05
v 0.13696867 0.63872274 0.08125
v 0.14520629 0.65861012 0.08125
vt 0.0625 0.4375
vt 0.25 0.4375
vt 0.25 0.5
vt 0.0625 0.5
f 761/761 762/762 763/763 764/764
v 0.13696867 0.63872274 0.05
v 0.14520629 0.61883537 0.05
v 0.14520629 0.61883537 0.08125
v 0.13696867 0.63872274 0.08125
vt 0.0625 0.4375
vt 0.25 0.4375
vt 0.25 0.5
vt 0.0625 0.5
f 765/765 766/766 767/767 768/768
v 0.14520629 0.61883537 0.05
v 0.16509367 0.61059774 0.05
v 0.16509367 0.61059774 0.08125
v 0.14520629 0.61883537 0.08125
vt 0.0625 0.4375
vt 0.25 0.4375
vt 0.25 0.5
vt 0.0625 0.5
f 769/769 770/770 771/771 772/772
v 0.16509367 0.61059774 0.05
v 0.18498105 0.61883537 0.05
v 0.18498105 0.61883537 0.08125
v 0.16509367 0.61059774 0.08125
vt 0.0625 0.4375
vt 0.25 0.4375
vt 0.25 0.5
vt 0.0625 0.5
f 773/773 774/774 775/775 776/776
v 0.18498105 0.61883537 0.05
v 0.19321867 0.63872274 0.05
v 0.19321867 0.63872274 0.08125
v 0.18498105 0.61883537 0.08125
vt 0.0625 0.4375
vt 0.25 0.4375
vt 0.25 0.5
vt 0.0625 0.5
f 777/777 778/778 779/779 780/780
v 0.16509367 0.66684774 0.05
v 0.18498105 0.65861012 0.05
v 0.19321867 0.63872274 0.05
v 0.16509367 0.63872274 0.05
vt 0.15625 0.4375
vt 0.22254126 0.44665291
vt 0.25 0.46875
vt 0.15625 0.46875
f 781/781 782/782 783/783 784/784
v 0.13696867 0.63872274 0.05
v 0.14520629 0.65861012 0.05
v 0.16509367 0.66684774 0.05
v 0.16509367 0.63872274 0.05
vt 0.0625 0.46875
vt 0.08995874 0.44665291
vt 0.15625 0.4375
vt 0.15625 0.46875
f 785/785 786/786 787/787 788/788
v 0.16509367 0.61059774 0.05
v 0.14520629 0.61883537 0.05
v 0.13696867 0.63872274 0.05
v 0.16509367 0.63872274 0.05
vt 0.15625 0.5
vt 0.08995874 0.49084709
vt 0.0625 0.46875
vt 0.15625 0.46875
f 789/789 790/790 791/791 792/792
v 0.19321867 0.63872274 0.05
v 0.18498105 0.61883537 0.05
v 0.16509367 0.61059774 0.05
v 0.16509367 0.63872274 0.05
vt 0.25 0.46875
vt 0.22254126 0.49084709
vt 0.15625 0.5
vt 0.15625 0.46875
f 793/793 794/794 795/795 796/796
v 0.16509367 0.63872274 0.08125
v 0.19321867 0.63872274 0.08125
v 0.18498105 0.65861012 0.08125
v 0.16509367 0.66684774 0.08125
vt 0.15625 0.46875
vt 0.25 0.46875
vt 0.22254126 0.44665291
vt 0.15625 0.4375
f 797/797 798/798 799/799 800/800
v 0.16509367 0.63872274 0.08125
v 0.16509367 0.66684774 0.08125
v 0.14520629 0.65861012 0.08125
v 0.13696867 0.63872274 0.08125
vt 0.15625 0.46875
vt 0.15625 0.4375
vt 0.08995874 0.44665291
vt 0.0625 0.46875
f 801/801 802/802 803/803 804/804
v 0.16509367 0.63872274 0.08125
v 0.13696867 0.63872274 0.08125
v 0.14520629 0.61883537 0.08125
v 0.16509367 0.61059774 0.08125
vt 0.15625 0.46875
vt 0.0625 0.46875
vt 0.08995874 0.49084709
vt 0.15625 0.5
f 805/805 806/806 807/807 808/808
v 0.16509367 0.63872274 0.08125
v 0.16509367 0.61059774 0.08125
v 0.18498105 0.61883537 0.08125
v 0.19321867 0.63872274 0.08125
vt 0.15625 0.46875
vt 0.15625 0.5
vt 0.22254126 0.49084709
vt 0.25 0.46875
f 809/809 810/810 811/811 812/812
v 0.19321867 0.36127726 0.05
v 0.18498105 0.38116463 0.05
v 0.18498105 0.38116463 0.08125
v 0.19321867 0.36127726 0.08125
vt 0.0625 0.4375
vt 0.25 0.4375
vt 0.25 0.5
vt 0.0625 0.5
f 813/813 814/814 815/815 816/816
v 0.18498105 0.38116463 0.05
v 0.16509367 0.38940226 0.05
v 0.16509367 0.38940226 0.08125
v 0.18498105 0.38116463 0.08125
vt 0.0625 0.4375
vt 0.25 0.4375
vt 0.25 0.5
vt 0.0625 0.5
f 817/817 818/818 819/819 820/820
v 0.16509367 0.38940226 0.05
v 0.14520629 0.38116463 0.05
v 0.14520629 0.38116463 0.08125
v 0.16509367 0.38940226 0.08125
vt 0.0625 0.4375
vt 0.25 0.4375
vt 0.25 0.5
vt 0.0625 0.5
f 821/821 822/822 823/823 824/824
v 0.14520629 0.38116463 0.05
v 0.13696867 0.36127726 0.05
v 0.13696867 0.36127726 0.08125
v 0.14520629 0.38116463 0.08125
vt 0.0625 0.4375
vt 0.25 0.4375
vt 0.25 0.5
vt 0.0625 0.5
f 825/825 826/826 827/827 828/828
v 0.13696867 0.36127726 0.05
v 0.14520629 0.34138988 0.05
v 0.14520629 0.34138988 0.08125
v 0.13696867 0.36127726 0.08125
vt 0.0625 0.4375
vt 0.25 0.4375
vt 0.25 0.5
vt 0.0625 0.5
f 829/829 830/830 831/831 832/832
v 0.14520629 0.34138988 0.05
v 0.16509367 0.33315226 0.05
v 0.16509367 0.33315226 0.08125
v 0.14520629 0.34138988 0.08125
vt 0.0625 0.4375
vt 0.25 0.4375
vt 0.25 0.5
vt 0.0625 0.5
f 833/833 834/834 835/835 836/836
v 0.16509367 0.33315226 0.05
v 0.18498105 0.34138988 0.05
v 0.18498105 0.34138988 0.08125
v 0.16509367 0.33315226 0.08125
vt 0.0625 0.4375
vt 0.25 0.4375
vt 0.25 0.5
vt 0.0625 0.5
f 837/837 838/838 839/839 840/840
v 0.18498105 0.34138988 0.05
v 0.19321867 0.36127726 0.05
v 0.19321867 0.36127726 0.08125
v 0.18498105 0.34138988 0.08125
vt 0.0625 0.4375
vt 0.25 0.4375
vt 0.25 0.5
vt 0.0625 0.5
f 841/841 842/842 843/843 844/844
v 0.16509367 0.38940226 0.05
v 0.18498105 0.38116463 0.05
v 0.19321867 0.36127726 0.05
v 0.16509367 0.36127726 0.05
vt 0.15625 0.4375
vt 0.22254126 0.44665291
vt 0.25 0.46875
vt 0.15625 0.46875
f 845/845 846/846 847/847 848/848
v 0.13696867 0.36127726 0.05
v 0.14520629 0.38116463 0.05
v 0.16509367 0.38940226 0.05
v 0.16509367 0.36127726 0.05
vt 0.0625 0.46875
vt 0.08995874 0.44665291
vt 0.15625 0.4375
vt 0.15625 0.46875
f 849/849 850/850 851/851 852/852
v 0.16509367 0.33315226 0.05
v 0.14520629 0.34138988 0.05
v 0.13696867 0.36127726 0.05
v 0.16509367 0.36127726 0.05
vt 0.15625 0.5
vt 0.08995874 0.49084709
vt 0.0625 0.46875
vt 0.15625 0.46875
f 853/853 854/854 855/855 856/856
v 0.19321867 0.36127726 0.05
v 0.18498105 0.34138988 0.05
v 0.16509367 0.33315226 0.05
v 0.16509367 0.36127726 0.05
vt 0.25 0.46875
vt 0.22254126 0.49084709
vt 0.15625 0.5
vt 0.15625 0.46875
f 857/857 858/858 859/859 860/860
v 0.16509367 0.36127726 0.08125
v 0.19321867 0.36127726 0.08125
v 0.18498105 0.38116463 0.08125
v 0.16509367 0.38940226 0.08125
vt 0.15625 0.46875
vt 0.25 0.46875
vt 0.22254126 0.44665291
vt 0.15625 0.4375
f 861/861 862/862 863/863 864/864
v 0.16509367 0.36127726 0.08125
v 0.16509367 0.38940226 0.08125
v 0.14520629 0.38116463 0.08125
v 0.13696867 0.36127726 0.08125
vt 0.15625 0.46875
vt 0.15625 0.4375
vt 0.08995874 0.44665291
vt 0.0625 0.46875
f 865/865 866/866 867/867 868/868
v 0.16509367 0.36127726 0.08125
v 0.13696867 0.36127726 0.08125
v 0.14520629 0.34138988 0.08125
v 0.16509367 0.33315226 0.08125
vt 0.15625 0.46875
vt 0.0625 0.46875
vt 0.08995874 0.49084709
vt 0.15625 0.5
f 869/869 870/870 871/871 872/872
v 0.16509367 0.36127726 0.08125
v 0.16509367 0.33315226 0.08125
v 0.18498105 0.34138988 0.08125
v 0.19321867 0.36127726 0.08125
vt 0.15625 0.46875
vt 0.15625 0.5
vt 0.22254126 0.49084709
vt 0.25 0.46875
f 873/873 874/874 875/875 876/876
v 0.38940226 0.16509367 0.05
v 0.38116463 0.18498105 0.05
v 0.38116463 0.18498105 0.08125
v 0.38940226 0.16509367 0.08125
vt 0.0625 0.4375
vt 0.25 0.4375
vt 0.25 0.5
vt 0.0625 0.5
f 877/877 878/878 879/879 880/880
v 0.38116463 0.18498105 0.05
v 0.36127726 0.19321867 0.05
v 0.36127726 0.19321867 0.08125
v 0.38116463 0.18498105 0.08125
vt 0.0625 0.4375
vt 0.25 0.4375
vt 0.25 0.5
vt 0.0625 0.5
f 881/881 882/882 883/883 884/884
v 0.36127726 0.19321867 0.05
v 0.34138988 0.18498105 0.05
v 0.34138988 0.18498105 0.08125
v 0.36127726 0.19321867 0.08125
vt 0.0625 0.4375
vt 0.25 0.4375
vt 0.25 0.5
vt 0.0625 0.5
f 885/885 886/886 887/887 888/888
v 0.34138988 0.18498105 0.05
v 0.33315226 0.16509367 0.05
v 0.33315226 0.16509367 0.08125
v 0.34138988 0.18498105 0.08125
vt 0.0625 0.4375
vt 0.25 0.4375
vt 0.25 0.5
vt 0.0625 0.5
f 889/889 890/890 891/891 892/892
v 0.33315226 0.16509367 0.05
v 0.34138988 0.14520629 0.05
v 0.34138988 0.14520629 0.08125
v 0.33315226 0.16509367 0.08125
vt 0.0625 0.4375
vt 0.25 0.4375
vt 0.25 0.5
vt 0.0625 0.5
f 893/893 894/894 895/895 896/896
v 0.34138988 0.14520629 0.05
v 0.36127726 0.13696867 0.05
v 0.36127726 0.13696867 0.08125
v 0.34138988 0.14520629 0.08125
vt 0.0625 0.4375
vt 0.25 0.4375
vt 0.25 0.5
vt 0.0625 0.5
f 897/897 898/898 899/899 900/900
v 0.36127726 0.13696867 0.05
v 0.38116463 0.14520629 0.05
v 0.38116463 0.14520629 0.08125
v 0.36127726 0.13696867 0.08125
vt 0.0625 0.4375
vt 0.25 0.4375
vt 0.25 0.5
vt 0.0625 0.5
f 901/901 902/902 903/903 904/904
v 0.38116463 0.14520629 0.05
v 0.38940226 0.16509367 0.05
v 0.38940226 0.16509367 0.08125
v 0.38116463 0.14520629 0.08125
vt 0.0625 0.4375
vt 0.25 0.4375
vt 0.25 0.5
vt 0.0625 0.5
f 905/905 906/906 907/907 908/908
v 0.36127726 0.19321867 0.05
v 0.38116463 0.18498105 0.05
v 0.38940226 0.16509367 0.05
v 0.36127726 0.16509367 0.05
vt 0.15625 0.4375
vt 0.22254126 0.44665291
vt 0.25 0.46875
vt 0.15625 0.46875
f 909/909 910/910 911/911 912/912
v 0.33315226 0.16509367 0.05
v 0.34138988 0.18498105 0.05
v 0.36127726 0.19321867 0.05
v 0.36127726 0.16509367 0.05
vt 0.0625 0.46875
vt 0.08995874 0.44665291
vt 0.15625 0.4375
vt 0.15625 0.46875
f 913/913 914/914 915/915 916/916
v 0.36127726 0.13696867 0.05
v 0.34138988 0.14520629 0.05
v 0.33315226 0.16509367 0.05
v 0.36127726 0.16509367 0.05
vt 0.15625 0.5
vt 0.08995874 0.49084709
vt 0.0625 0.46875
vt 0.15625 0.46875
f 917/917 918/918 919/919 920/920
v 0.38940226 0.16509367 0.05
v 0.38116463 0.14520629 0.05
v 0.36127726 0.13696867 0.05
v 0.36127726 0.16509367 0.05
vt 0.25 0.46875
vt 0.22254126 0.49084709
vt 0.15625 0.5
vt 0.15625 0.46875
f 921/921 922/922 923/923 924/924
v 0.36127726 0.16509367 0.08125
v 0.38940226 0.16509367 0.08125
v 0.38116463 0.18498105 0.08125
v 0.36127726 0.19321867 0.08125
vt 0.15625 0.46875
vt 0.25 0.46875
vt 0.22254126 0.44665291
vt 0.15625 0.4375
f 925/925 926/926 927/927 928/928
v 0.36127726 0.16509367 0.08125
v 0.36127726 0.19321867 0.08125
v 0.34138988 0.18498105 0.08125
v 0.33315226 0.16509367 0.08125
vt 0.15625 0.46875
vt 0.15625 0.4375
vt 0.08995874 0.44665291
vt 0.0625 0.46875
f 929/929 930/930 931/931 932/932
v 0.36127726 0.16509367 0.08125
v 0.33315226 0.16509367 0.08125
v 0.34138988 0.14520629 0.08125
v 0.36127726 0.13696867 0.08125
vt 0.15625 0.46875
vt 0.0625 0.46875
vt 0.08995874 0.49084709
vt 0.15625 0.5
f 933/933 934/934 935/935 936/936
v 0.36127726 0.16509367 0.08125
v 0.36127726 0.13696867 0.08125
v 0.38116463 0.14520629 0.08125
v 0.38940226 0.16509367 0.08125
vt 0.15625 0.46875
vt 0.15625 0.5
vt 0.22254126 0.49084709
vt 0.25 0.46875
f 937/937 938/938 939/939 940/940
v 0.66684774 0.16509367 0.05
v 0.65861012 0.18498105 0.05
v 0.65861012 0.18498105 0.08125
v 0.66684774 0.16509367 0.08125
vt 0.0625 0.4375
vt 0.25 0.4375
vt 0.25 0.5
vt 0.0625 0.5
f 941/941 942/942 943/943 944/944
v 0.65861012 0.18498105 0.05
v 0.63872274 0.19321867 0.05
v 0.63872274 0.19321867 0.08125
v 0.65861012 0.18498105 0.08125
vt 0.0625 0.4375
vt 0.25 0.4375
vt 0.25 0.5
vt 0.0625 0.5
f 945/945 946/946 947/947 948/948
v 0.63872274 0.19321867 0.05
v 0.61883537 0.18498105 0.05
v 0.61883537 0.18498105 0.08125
v 0.63872274 0.19321867 0.08125
vt 0.0625 0.4375
vt 0.25 0.4375
vt 0.25 0.5
vt 0.0625 0.5
f 949/949 950/950 951/951 952/952
v 0.61883537 0.18498105 0.05
v 0.61059774 0.16509367 0.05
v 0.61059774 0.16509367 0.08125
v 0.61883537 0.18498105 0.08125
vt 0.0625 0.4375
vt 0.25 0.4375
vt 0.25 0.5
vt 0.0625 0.5
f 953/953 954/954 955/955 956/956
v 0.61059774 0.16509367 0.05
v 0.61883537 0.14520629 0.05
v 0.61883537 0.14520629 0.08125
v 0.61059774 0.16509367 0.08125
vt 0.0625 0.4375
vt 0.25 0.4375
vt 0.25 0.5
vt 0.0625 0.5
f 957/957 958/958 959/959 960/960
v 0.61883537 0.14520629 0.05
v 0.63872274 0.13696867 0.05
v 0.63872274 0.13696867 0.08125
v 0.61883537 0.14520629 0.08125
vt 0.0625 0.4375
vt 0.25 0.4375
vt 0.25 0.5
vt 0.0625 0.5
f 961/961 962/962 963/963 964/964
v 0.63872274 0.13696867 0.05
v 0.65861012 0.14520629 0.05
v 0.65861012 0.14520629 0.08125
v 0.63872274 0.13696867 0.08125
vt 0.0625 0.4375
vt 0.25 0.4375
vt 0.25 0.5
vt 0.0625 0.5
f 965/965 966/966 967/967 968/968
v 0.65861012 0.14520629 0.05
v 0.66684774 0.16509367 0.05
v 0.66684774 0.16509367 0.08125
v 0.65861012 0.14520629 0.08125
vt 0.0625 0.4375
vt 0.25 0.4375
vt 0.25 0.5
vt 0.0625 0.5
f 969/969 970/970 971/971 972/972
v 0.63872274 0.19321867 0.05
v 0.65861012 0.18498105 0.05
v 0.66684774 0.16509367 0.05
v 0.63872274 0.16509367 0.05
vt 0.15625 0.4375
vt 0.22254126 0.44665291
vt 0.25 0.46875
vt 0.15625 0.46875
f 973/973 974/974 975/975 976/976
v 0.61059774 0.16509367 0.05
v 0.61883537 0.18498105 0.05
v 0.63872274 0.19321867 0.05
v 0.63872274 0.16509367 0.05
vt 0.0625 0.46875
vt 0.08995874 0.44665291
vt 0.15625 0.4375
vt 0.15625 0.46875
f 977/977 978/978 979/979 980/980
v 0.63872274 0.13696867 0.05
v 0.61883537 0.14520629 0.05
v 0.61059774 0.16509367 0.05
v 0.63872274 0.16509367 0.05
vt 0.15625 0.5
vt 0.08995874 0.49084709
vt 0.0625 0.46875
vt 0.15625 0.46875
f 981/981 982/982 983/983 984/984
v 0.66684774 0.16509367 0.05
v 0.65861012 0.14520629 0.05
v 0.63872274 0.13696867 0.05
v 0.63872274 0.16509367 0.05
vt 0.25 0.46875
vt 0.22254126 0.49084709
vt 0.15625 0.5
vt 0.15625 0.46875
f 985/985 986/986 987/987 988/988
v 0.63872274 0.16509367 0.08125
v 0.66684774 0.16509367 0.08125
v 0.65861012 0.18498105 0.08125
v 0.63872274 0.19321867 0.08125
vt 0.15625 0.46875
vt 0.25 0.46875
vt 0.22254126 0.44665291
vt 0.15625 0.4375
f 989/989 990/990 991/991 992/992
v 0.63872274 0.16509367 0.08125
v 0.63872274 0.19321867 0.08125
v 0.61883537 0.18498105 0.08125
v 0.61059774 0.16509367 0.08125
vt 0.15625 0.46875
vt 0.15625 0.4375
vt 0.08995874 0.44665291
vt 0.0625 0.46875
f 993/993 994/994 995/995 996/996
v 0.63872274 0.16509367 0.08125
v 0.61059774 0.16509367 0.08125
v 0.61883537 0.14520629 0.08125
v 0.63872274 0.13696867 0.08125
vt 0.15625 0.46875
vt 0.0625 0.46875
vt 0.08995874 0.49084709
vt 0.15625 0.5
f 997/997 998/998 999/999 1000/1000
v 0.63872274 0.16509367 0.08125
v 0.63872274 0.13696867 0.08125
v 0.65861012 0.14520629 0.08125
v 0.66684774 0.16509367 0.08125
vt 0.15625 0.46875
vt 0.15625 0.5
vt 0.22254126 0.49084709
vt 0.25 0.46875
f 1001/1001 1002/1002 1003/1003 1004/1004
v 0.86303133 0.36127726 0.05
v 0.85479371 0.38116463 0.05
v 0.85479371 0.38116463 0.08125
v 0.86303133 0.36127726 0.08125
vt 0.0625 0.4375
vt 0.25 0.4375
vt 0.25 0.5
vt 0.0625 0.5
f 1005/1005 1006/1006 1007/1007 1008/1008
v 0.85479371 0.38116463 0.05
v 0.83490633 0.38940226 0.05
v 0.83490633 0.38940226 0.08125
v 0.85479371 0.38116463 0.08125
vt 0.0625 0.4375
vt 0.25 0.4375
vt 0.25 0.5
vt 0.0625 0.5
f 1009/1009 1010/1010 1011/1011 1012/1012
v 0.83490633 0.38940226 0.05
v 0.81501895 0.38116463 0.05
v 0.81501895 0.38116463 0.08125
v 0.83490633 0.38940226 0.08125
vt 0.0625 0.4375
vt 0.25 0.4375
vt 0.25 0.5
vt 0.0625 0.5
f 1013/1013 1014/1014 1015/1015 1016/1016
v 0.81501895 0.38116463 0.05
v 0.80678133 0.36127726 0.05
v 0.80678133 0.36127726 0.08125
v 0.81501895 0.38116463 0.08125
vt 0.0625 0.4375
vt 0.25 0.4375
vt 0.25 0.5
vt 0.0625 0.5
f 1017/1017 1018/1018 1019/1019 1020/1020
v 0.80678133 0.36127726 0.05
v 0.81501895 0.34138988 0.05
v 0.81501895 0.34138988 0.08125
v 0.80678133 0.36127726 0.08125
vt 0.0625 0.4375
vt 0.25 0.4375
vt 0.25 0.5
vt 0.0625 0.5
f 1021/1021 1022/1022 1023/1023 1024/1024
v 0.81501895 0.34138988 0.05
v 0.83490633 0.33315226 0.05
v 0.83490633 0.33315226 0.08125
v 0.81501895 0.34138988 0.08125
vt 0.0625 0.4375
vt 0.25 0.4375
vt 0.25 0.5
vt 0.0625 0.5
f 1025/1025 1026/1026 1027/1027 1028/1028
v 0.83490633 0.33315226 0.05
v 0.85479371 0.34138988 0.05
v 0.85479371 0.34138988 0.08125
v 0.83490633 0.33315226 0.08125
vt 0.0625 0.4375
vt 0.25 0.4375
vt 0.25 0.5
vt 0.0625 0.5
f 1029/1029 1030/1030 1031/1031 1032/1032
v 0.85479371 0.34138988 0.05
v 0.86303133 0.36127726 0.05
v 0.86303133 0.36127726 0.08125
v 0.85479371 0.34138988 0.08125
vt 0.0625 0.4375
vt 0.25 0.4375
vt 0.25 0.5
vt 0.0625 0.5
f 1033/1033 1034/1034 1035/1035 1036/1036
v 0.83490633 0.38940226 0.05
v 0.85479371 0.38116463 0.05
v 0.86303133 0.36127726 0.05
v 0.83490633 0.36127726 0.05
vt 0.15625 0.4375
vt 0.22254126 0.44665291
vt 0.25 0.46875
vt 0.15625 0.46875
f 1037/1037 1038/1038 1039/1039 1040/1040
v 0.80678133 0.36127726 0.05
v 0.81501895 0.38116463 0.05
v 0.83490633 0.38940226 0.05
v 0.83490633 0.36127726 0.05
vt 0.0625 0.46875
vt 0.08995874 0.44665291
vt 0.15625 0.4375
vt 0.15625 0.46875
f 1041/1041 1042/1042 1043/1043 1044/1044
v 0.83490633 0.33315226 0.05
v 0.81501895 0.34138988 0.05
v 0.80678133 0.36127726 0.05
v 0.83490633 0.36127726 0.05
vt 0.15625 0.5
vt 0.08995874 0.49084709
vt 0.0625 0.46875
vt 0.15625 0.46875
f 1045/1045 1046/1046 1047/1047 1048/1048
v 0.86303133 0.36127726 0.05
v 0.85479371 0.34138988 0.05
v 0.83490633 0.33315226 0.05
v 0.83490633 0.36127726 0.05
vt 0.25 0.46875
vt 0.22254126 0.49084709
vt 0.15625 0.5
vt 0.15625 0.46875
f 1049/1049 1050/1050 1051/1051 1052/1052
v 0.83490633 0.36127726 0.08125
v 0.86303133 0.36127726 0.08125
v 0.85479371 0.38116463 0.08125
v 0.83490633 0.38940226 0.08125
vt 0.15625 0.46875
vt 0.25 0.46875
vt 0.22254126 0.44665291
vt 0.15625 0.4375
f 1053/1053 1054/1054 1055/1055 1056/1056
v 0.83490633 0.36127726 0.08125
v 0.83490633 0.38940226 0.08125
v 0.81501895 0.38116463 0.08125
v 0.80678133 0.36127726 0.08125
vt 0.15625 0.46875
vt 0.15625 0.4375
vt 0.08995874 0.44665291
vt 0.0625 0.46875
f 1057/1057 1058/1058 1059/1059 1060/1060
v 0.83490633 0.36127726 0.08125
v 0.80678133 0.36127726 0.08125
v 0.81501895 0.34138988 0.08125
v 0.83490633 0.33315226 0.08125
vt 0.15625 0.46875
vt 0.0625 0.46875
vt 0.08995874 0.49084709
vt 0.15625 0.5
f 1061/1061 1062/1062 1063/1063 1064/1064
v 0.83490633 0.36127726 0.08125
v 0.83490633 0.33315226 0.08125
v 0.85479371 0.34138988 0.08125
v 0.86303133 0.36127726 0.08125
vt 0.15625 0.46875
vt 0.15625 0.5
vt 0.22254126 0.49084709
vt 0.25 0.46875
f 1065/1065 1066/1066 1067/1067 1068/1068
