mtllib homelink_energy:models/hydro.mtl
usemtl body
v 0.1875 0.1875 0.8125
v 0.1875 0.8125 0.8125
v 0.1875 0.8125 0.1875
v 0.1875 0.1875 0.1875
vt 0 0
vt 1 0
vt 1 1
vt 0 1
f 1/1 2/2 3/3 4/4
v 0.8125 0.1875 0.1875
v 0.8125 0.8125 0.1875
v 0.8125 0.8125 0.8125
v 0.8125 0.1875 0.8125
vt 0 1
vt 1 1
vt 1 0
vt 0 0
f 5/5 6/6 7/7 8/8
v 0.1875 0.1875 0.1875
v 0.8125 0.1875 0.1875
v 0.8125 0.1875 0.8125
v 0.1875 0.1875 0.8125
vt 0 1
vt 1 1
vt 1 0
vt 0 0
f 9/9 10/10 11/11 12/12
v 0.1875 0.8125 0.8125
v 0.8125 0.8125 0.8125
v 0.8125 0.8125 0.1875
v 0.1875 0.8125 0.1875
vt 0 0
vt 1 0
vt 1 1
vt 0 1
f 13/13 14/14 15/15 16/16
v 0.1875 0.8125 0.1875
v 0.8125 0.8125 0.1875
v 0.8125 0.1875 0.1875
v 0.1875 0.1875 0.1875
vt 0 0
vt 1 0
vt 1 1
vt 0 1
f 17/17 18/18 19/19 20/20
v 0.1875 0.1875 0.8125
v 0.8125 0.1875 0.8125
v 0.8125 0.8125 0.8125
v 0.1875 0.8125 0.8125
vt 0 1
vt 1 1
vt 1 0
vt 0 0
f 21/21 22/22 23/23 24/24
